<?xml version="1.0" encoding="utf-8" standalone="no"?>
<!DOCTYPE svg PUBLIC "-//W3C//DTD SVG 1.1//EN"
  "http://www.w3.org/Graphics/SVG/1.1/DTD/svg11.dtd">
<svg xmlns:xlink="http://www.w3.org/1999/xlink" width="460.8pt" height="345.6pt" viewBox="0 0 460.8 345.6" xmlns="http://www.w3.org/2000/svg" version="1.1">
 <metadata>
  <rdf:RDF xmlns:dc="http://purl.org/dc/elements/1.1/" xmlns:cc="http://creativecommons.org/ns#" xmlns:rdf="http://www.w3.org/1999/02/22-rdf-syntax-ns#">
   <cc:Work>
    <dc:type rdf:resource="http://purl.org/dc/dcmitype/StillImage"/>
    <dc:date>2024-12-26T13:13:24.702622</dc:date>
    <dc:format>image/svg+xml</dc:format>
    <dc:creator>
     <cc:Agent>
      <dc:title>Matplotlib v3.10.0, https://matplotlib.org/</dc:title>
     </cc:Agent>
    </dc:creator>
   </cc:Work>
  </rdf:RDF>
 </metadata>
 <defs>
  <style type="text/css">*{stroke-linejoin: round; stroke-linecap: butt}</style>
 </defs>
 <g id="figure_1">
  <g id="patch_1">
   <path d="M 0 345.6 
L 460.8 345.6 
L 460.8 0 
L 0 0 
z
" style="fill: #ffffff"/>
  </g>
  <g id="axes_1">
   <g id="patch_2">
    <path d="M 57.6 276.48 
L 414.72 276.48 
L 414.72 41.472 
L 57.6 41.472 
z
" style="fill: #ffffff"/>
   </g>
   <g id="matplotlib.axis_1">
    <g id="xtick_1">
     <g id="line2d_1">
      <path d="M 77.535858 276.48 
L 77.535858 41.472 
" clip-path="url(#p6789a384da)" style="fill: none; stroke: #b0b0b0; stroke-width: 0.8; stroke-linecap: square"/>
     </g>
     <g id="line2d_2">
      <defs>
       <path id="m832d5e62c9" d="M 0 0 
L 0 3.5 
" style="stroke: #000000; stroke-width: 0.8"/>
      </defs>
      <g>
       <use xlink:href="#m832d5e62c9" x="77.535858" y="276.48" style="stroke: #000000; stroke-width: 0.8"/>
      </g>
     </g>
     <g id="text_1">
      <!-- 2020 -->
      <g transform="translate(54.455668 302.78544) rotate(-30) scale(0.1 -0.1)">
       <defs>
        <path id="DejaVuSans-32" d="M 1228 531 
L 3431 531 
L 3431 0 
L 469 0 
L 469 531 
Q 828 903 1448 1529 
Q 2069 2156 2228 2338 
Q 2531 2678 2651 2914 
Q 2772 3150 2772 3378 
Q 2772 3750 2511 3984 
Q 2250 4219 1831 4219 
Q 1534 4219 1204 4116 
Q 875 4013 500 3803 
L 500 4441 
Q 881 4594 1212 4672 
Q 1544 4750 1819 4750 
Q 2544 4750 2975 4387 
Q 3406 4025 3406 3419 
Q 3406 3131 3298 2873 
Q 3191 2616 2906 2266 
Q 2828 2175 2409 1742 
Q 1991 1309 1228 531 
z
" transform="scale(0.015625)"/>
        <path id="DejaVuSans-30" d="M 2034 4250 
Q 1547 4250 1301 3770 
Q 1056 3291 1056 2328 
Q 1056 1369 1301 889 
Q 1547 409 2034 409 
Q 2525 409 2770 889 
Q 3016 1369 3016 2328 
Q 3016 3291 2770 3770 
Q 2525 4250 2034 4250 
z
M 2034 4750 
Q 2819 4750 3233 4129 
Q 3647 3509 3647 2328 
Q 3647 1150 3233 529 
Q 2819 -91 2034 -91 
Q 1250 -91 836 529 
Q 422 1150 422 2328 
Q 422 3509 836 4129 
Q 1250 4750 2034 4750 
z
" transform="scale(0.015625)"/>
       </defs>
       <use xlink:href="#DejaVuSans-32"/>
       <use xlink:href="#DejaVuSans-30" transform="translate(63.623047 0)"/>
       <use xlink:href="#DejaVuSans-32" transform="translate(127.246094 0)"/>
       <use xlink:href="#DejaVuSans-30" transform="translate(190.869141 0)"/>
      </g>
     </g>
    </g>
    <g id="xtick_2">
     <g id="line2d_3">
      <path d="M 142.023885 276.48 
L 142.023885 41.472 
" clip-path="url(#p6789a384da)" style="fill: none; stroke: #b0b0b0; stroke-width: 0.8; stroke-linecap: square"/>
     </g>
     <g id="line2d_4">
      <g>
       <use xlink:href="#m832d5e62c9" x="142.023885" y="276.48" style="stroke: #000000; stroke-width: 0.8"/>
      </g>
     </g>
     <g id="text_2">
      <!-- 2021 -->
      <g transform="translate(118.943695 302.78544) rotate(-30) scale(0.1 -0.1)">
       <defs>
        <path id="DejaVuSans-31" d="M 794 531 
L 1825 531 
L 1825 4091 
L 703 3866 
L 703 4441 
L 1819 4666 
L 2450 4666 
L 2450 531 
L 3481 531 
L 3481 0 
L 794 0 
L 794 531 
z
" transform="scale(0.015625)"/>
       </defs>
       <use xlink:href="#DejaVuSans-32"/>
       <use xlink:href="#DejaVuSans-30" transform="translate(63.623047 0)"/>
       <use xlink:href="#DejaVuSans-32" transform="translate(127.246094 0)"/>
       <use xlink:href="#DejaVuSans-31" transform="translate(190.869141 0)"/>
      </g>
     </g>
    </g>
    <g id="xtick_3">
     <g id="line2d_5">
      <path d="M 206.335716 276.48 
L 206.335716 41.472 
" clip-path="url(#p6789a384da)" style="fill: none; stroke: #b0b0b0; stroke-width: 0.8; stroke-linecap: square"/>
     </g>
     <g id="line2d_6">
      <g>
       <use xlink:href="#m832d5e62c9" x="206.335716" y="276.48" style="stroke: #000000; stroke-width: 0.8"/>
      </g>
     </g>
     <g id="text_3">
      <!-- 2022 -->
      <g transform="translate(183.255526 302.78544) rotate(-30) scale(0.1 -0.1)">
       <use xlink:href="#DejaVuSans-32"/>
       <use xlink:href="#DejaVuSans-30" transform="translate(63.623047 0)"/>
       <use xlink:href="#DejaVuSans-32" transform="translate(127.246094 0)"/>
       <use xlink:href="#DejaVuSans-32" transform="translate(190.869141 0)"/>
      </g>
     </g>
    </g>
    <g id="xtick_4">
     <g id="line2d_7">
      <path d="M 270.647546 276.48 
L 270.647546 41.472 
" clip-path="url(#p6789a384da)" style="fill: none; stroke: #b0b0b0; stroke-width: 0.8; stroke-linecap: square"/>
     </g>
     <g id="line2d_8">
      <g>
       <use xlink:href="#m832d5e62c9" x="270.647546" y="276.48" style="stroke: #000000; stroke-width: 0.8"/>
      </g>
     </g>
     <g id="text_4">
      <!-- 2023 -->
      <g transform="translate(247.567356 302.78544) rotate(-30) scale(0.1 -0.1)">
       <defs>
        <path id="DejaVuSans-33" d="M 2597 2516 
Q 3050 2419 3304 2112 
Q 3559 1806 3559 1356 
Q 3559 666 3084 287 
Q 2609 -91 1734 -91 
Q 1441 -91 1130 -33 
Q 819 25 488 141 
L 488 750 
Q 750 597 1062 519 
Q 1375 441 1716 441 
Q 2309 441 2620 675 
Q 2931 909 2931 1356 
Q 2931 1769 2642 2001 
Q 2353 2234 1838 2234 
L 1294 2234 
L 1294 2753 
L 1863 2753 
Q 2328 2753 2575 2939 
Q 2822 3125 2822 3475 
Q 2822 3834 2567 4026 
Q 2313 4219 1838 4219 
Q 1578 4219 1281 4162 
Q 984 4106 628 3988 
L 628 4550 
Q 988 4650 1302 4700 
Q 1616 4750 1894 4750 
Q 2613 4750 3031 4423 
Q 3450 4097 3450 3541 
Q 3450 3153 3228 2886 
Q 3006 2619 2597 2516 
z
" transform="scale(0.015625)"/>
       </defs>
       <use xlink:href="#DejaVuSans-32"/>
       <use xlink:href="#DejaVuSans-30" transform="translate(63.623047 0)"/>
       <use xlink:href="#DejaVuSans-32" transform="translate(127.246094 0)"/>
       <use xlink:href="#DejaVuSans-33" transform="translate(190.869141 0)"/>
      </g>
     </g>
    </g>
    <g id="xtick_5">
     <g id="line2d_9">
      <path d="M 334.959377 276.48 
L 334.959377 41.472 
" clip-path="url(#p6789a384da)" style="fill: none; stroke: #b0b0b0; stroke-width: 0.8; stroke-linecap: square"/>
     </g>
     <g id="line2d_10">
      <g>
       <use xlink:href="#m832d5e62c9" x="334.959377" y="276.48" style="stroke: #000000; stroke-width: 0.8"/>
      </g>
     </g>
     <g id="text_5">
      <!-- 2024 -->
      <g transform="translate(311.879187 302.78544) rotate(-30) scale(0.1 -0.1)">
       <defs>
        <path id="DejaVuSans-34" d="M 2419 4116 
L 825 1625 
L 2419 1625 
L 2419 4116 
z
M 2253 4666 
L 3047 4666 
L 3047 1625 
L 3713 1625 
L 3713 1100 
L 3047 1100 
L 3047 0 
L 2419 0 
L 2419 1100 
L 313 1100 
L 313 1709 
L 2253 4666 
z
" transform="scale(0.015625)"/>
       </defs>
       <use xlink:href="#DejaVuSans-32"/>
       <use xlink:href="#DejaVuSans-30" transform="translate(63.623047 0)"/>
       <use xlink:href="#DejaVuSans-32" transform="translate(127.246094 0)"/>
       <use xlink:href="#DejaVuSans-34" transform="translate(190.869141 0)"/>
      </g>
     </g>
    </g>
    <g id="xtick_6">
     <g id="line2d_11">
      <path d="M 399.447405 276.48 
L 399.447405 41.472 
" clip-path="url(#p6789a384da)" style="fill: none; stroke: #b0b0b0; stroke-width: 0.8; stroke-linecap: square"/>
     </g>
     <g id="line2d_12">
      <g>
       <use xlink:href="#m832d5e62c9" x="399.447405" y="276.48" style="stroke: #000000; stroke-width: 0.8"/>
      </g>
     </g>
     <g id="text_6">
      <!-- 2025 -->
      <g transform="translate(376.367214 302.78544) rotate(-30) scale(0.1 -0.1)">
       <defs>
        <path id="DejaVuSans-35" d="M 691 4666 
L 3169 4666 
L 3169 4134 
L 1269 4134 
L 1269 2991 
Q 1406 3038 1543 3061 
Q 1681 3084 1819 3084 
Q 2600 3084 3056 2656 
Q 3513 2228 3513 1497 
Q 3513 744 3044 326 
Q 2575 -91 1722 -91 
Q 1428 -91 1123 -41 
Q 819 9 494 109 
L 494 744 
Q 775 591 1075 516 
Q 1375 441 1709 441 
Q 2250 441 2565 725 
Q 2881 1009 2881 1497 
Q 2881 1984 2565 2268 
Q 2250 2553 1709 2553 
Q 1456 2553 1204 2497 
Q 953 2441 691 2322 
L 691 4666 
z
" transform="scale(0.015625)"/>
       </defs>
       <use xlink:href="#DejaVuSans-32"/>
       <use xlink:href="#DejaVuSans-30" transform="translate(63.623047 0)"/>
       <use xlink:href="#DejaVuSans-32" transform="translate(127.246094 0)"/>
       <use xlink:href="#DejaVuSans-35" transform="translate(190.869141 0)"/>
      </g>
     </g>
    </g>
   </g>
   <g id="matplotlib.axis_2">
    <g id="ytick_1">
     <g id="line2d_13">
      <path d="M 57.6 276.48 
L 414.72 276.48 
" clip-path="url(#p6789a384da)" style="fill: none; stroke: #b0b0b0; stroke-width: 0.8; stroke-linecap: square"/>
     </g>
     <g id="line2d_14">
      <defs>
       <path id="m5518a96242" d="M 0 0 
L -3.5 0 
" style="stroke: #000000; stroke-width: 0.8"/>
      </defs>
      <g>
       <use xlink:href="#m5518a96242" x="57.6" y="276.48" style="stroke: #000000; stroke-width: 0.8"/>
      </g>
     </g>
     <g id="text_7">
      <!-- 0% -->
      <g transform="translate(34.735937 280.279219) scale(0.1 -0.1)">
       <defs>
        <path id="DejaVuSans-25" d="M 4653 2053 
Q 4381 2053 4226 1822 
Q 4072 1591 4072 1178 
Q 4072 772 4226 539 
Q 4381 306 4653 306 
Q 4919 306 5073 539 
Q 5228 772 5228 1178 
Q 5228 1588 5073 1820 
Q 4919 2053 4653 2053 
z
M 4653 2450 
Q 5147 2450 5437 2106 
Q 5728 1763 5728 1178 
Q 5728 594 5436 251 
Q 5144 -91 4653 -91 
Q 4153 -91 3862 251 
Q 3572 594 3572 1178 
Q 3572 1766 3864 2108 
Q 4156 2450 4653 2450 
z
M 1428 4353 
Q 1159 4353 1004 4120 
Q 850 3888 850 3481 
Q 850 3069 1003 2837 
Q 1156 2606 1428 2606 
Q 1700 2606 1854 2837 
Q 2009 3069 2009 3481 
Q 2009 3884 1853 4118 
Q 1697 4353 1428 4353 
z
M 4250 4750 
L 4750 4750 
L 1831 -91 
L 1331 -91 
L 4250 4750 
z
M 1428 4750 
Q 1922 4750 2215 4408 
Q 2509 4066 2509 3481 
Q 2509 2891 2217 2550 
Q 1925 2209 1428 2209 
Q 931 2209 642 2551 
Q 353 2894 353 3481 
Q 353 4063 643 4406 
Q 934 4750 1428 4750 
z
" transform="scale(0.015625)"/>
       </defs>
       <use xlink:href="#DejaVuSans-30"/>
       <use xlink:href="#DejaVuSans-25" transform="translate(63.623047 0)"/>
      </g>
     </g>
    </g>
    <g id="ytick_2">
     <g id="line2d_15">
      <path d="M 57.6 225.541076 
L 414.72 225.541076 
" clip-path="url(#p6789a384da)" style="fill: none; stroke: #b0b0b0; stroke-width: 0.8; stroke-linecap: square"/>
     </g>
     <g id="line2d_16">
      <g>
       <use xlink:href="#m5518a96242" x="57.6" y="225.541076" style="stroke: #000000; stroke-width: 0.8"/>
      </g>
     </g>
     <g id="text_8">
      <!-- 20% -->
      <g transform="translate(28.373438 229.340295) scale(0.1 -0.1)">
       <use xlink:href="#DejaVuSans-32"/>
       <use xlink:href="#DejaVuSans-30" transform="translate(63.623047 0)"/>
       <use xlink:href="#DejaVuSans-25" transform="translate(127.246094 0)"/>
      </g>
     </g>
    </g>
    <g id="ytick_3">
     <g id="line2d_17">
      <path d="M 57.6 174.602152 
L 414.72 174.602152 
" clip-path="url(#p6789a384da)" style="fill: none; stroke: #b0b0b0; stroke-width: 0.8; stroke-linecap: square"/>
     </g>
     <g id="line2d_18">
      <g>
       <use xlink:href="#m5518a96242" x="57.6" y="174.602152" style="stroke: #000000; stroke-width: 0.8"/>
      </g>
     </g>
     <g id="text_9">
      <!-- 40% -->
      <g transform="translate(28.373438 178.40137) scale(0.1 -0.1)">
       <use xlink:href="#DejaVuSans-34"/>
       <use xlink:href="#DejaVuSans-30" transform="translate(63.623047 0)"/>
       <use xlink:href="#DejaVuSans-25" transform="translate(127.246094 0)"/>
      </g>
     </g>
    </g>
    <g id="ytick_4">
     <g id="line2d_19">
      <path d="M 57.6 123.663228 
L 414.72 123.663228 
" clip-path="url(#p6789a384da)" style="fill: none; stroke: #b0b0b0; stroke-width: 0.8; stroke-linecap: square"/>
     </g>
     <g id="line2d_20">
      <g>
       <use xlink:href="#m5518a96242" x="57.6" y="123.663228" style="stroke: #000000; stroke-width: 0.8"/>
      </g>
     </g>
     <g id="text_10">
      <!-- 60% -->
      <g transform="translate(28.373438 127.462446) scale(0.1 -0.1)">
       <defs>
        <path id="DejaVuSans-36" d="M 2113 2584 
Q 1688 2584 1439 2293 
Q 1191 2003 1191 1497 
Q 1191 994 1439 701 
Q 1688 409 2113 409 
Q 2538 409 2786 701 
Q 3034 994 3034 1497 
Q 3034 2003 2786 2293 
Q 2538 2584 2113 2584 
z
M 3366 4563 
L 3366 3988 
Q 3128 4100 2886 4159 
Q 2644 4219 2406 4219 
Q 1781 4219 1451 3797 
Q 1122 3375 1075 2522 
Q 1259 2794 1537 2939 
Q 1816 3084 2150 3084 
Q 2853 3084 3261 2657 
Q 3669 2231 3669 1497 
Q 3669 778 3244 343 
Q 2819 -91 2113 -91 
Q 1303 -91 875 529 
Q 447 1150 447 2328 
Q 447 3434 972 4092 
Q 1497 4750 2381 4750 
Q 2619 4750 2861 4703 
Q 3103 4656 3366 4563 
z
" transform="scale(0.015625)"/>
       </defs>
       <use xlink:href="#DejaVuSans-36"/>
       <use xlink:href="#DejaVuSans-30" transform="translate(63.623047 0)"/>
       <use xlink:href="#DejaVuSans-25" transform="translate(127.246094 0)"/>
      </g>
     </g>
    </g>
    <g id="ytick_5">
     <g id="line2d_21">
      <path d="M 57.6 72.724303 
L 414.72 72.724303 
" clip-path="url(#p6789a384da)" style="fill: none; stroke: #b0b0b0; stroke-width: 0.8; stroke-linecap: square"/>
     </g>
     <g id="line2d_22">
      <g>
       <use xlink:href="#m5518a96242" x="57.6" y="72.724303" style="stroke: #000000; stroke-width: 0.8"/>
      </g>
     </g>
     <g id="text_11">
      <!-- 80% -->
      <g transform="translate(28.373438 76.523522) scale(0.1 -0.1)">
       <defs>
        <path id="DejaVuSans-38" d="M 2034 2216 
Q 1584 2216 1326 1975 
Q 1069 1734 1069 1313 
Q 1069 891 1326 650 
Q 1584 409 2034 409 
Q 2484 409 2743 651 
Q 3003 894 3003 1313 
Q 3003 1734 2745 1975 
Q 2488 2216 2034 2216 
z
M 1403 2484 
Q 997 2584 770 2862 
Q 544 3141 544 3541 
Q 544 4100 942 4425 
Q 1341 4750 2034 4750 
Q 2731 4750 3128 4425 
Q 3525 4100 3525 3541 
Q 3525 3141 3298 2862 
Q 3072 2584 2669 2484 
Q 3125 2378 3379 2068 
Q 3634 1759 3634 1313 
Q 3634 634 3220 271 
Q 2806 -91 2034 -91 
Q 1263 -91 848 271 
Q 434 634 434 1313 
Q 434 1759 690 2068 
Q 947 2378 1403 2484 
z
M 1172 3481 
Q 1172 3119 1398 2916 
Q 1625 2713 2034 2713 
Q 2441 2713 2670 2916 
Q 2900 3119 2900 3481 
Q 2900 3844 2670 4047 
Q 2441 4250 2034 4250 
Q 1625 4250 1398 4047 
Q 1172 3844 1172 3481 
z
" transform="scale(0.015625)"/>
       </defs>
       <use xlink:href="#DejaVuSans-38"/>
       <use xlink:href="#DejaVuSans-30" transform="translate(63.623047 0)"/>
       <use xlink:href="#DejaVuSans-25" transform="translate(127.246094 0)"/>
      </g>
     </g>
    </g>
   </g>
   <g id="line2d_23">
    <path d="M 398.487273 51.533711 
L 397.899577 53.061879 
L 397.455659 53.061879 
L 397.440698 55.328661 
L 396.563318 55.328661 
L 396.423916 57.773729 
L 396.057091 57.773729 
L 395.906234 58.537813 
L 395.874943 59.989572 
L 395.87708 59.989572 
L 395.704587 60.982881 
L 395.598855 65.643793 
L 394.974223 66.178652 
L 394.885451 64.981587 
L 394.878214 65.185343 
L 394.301438 65.898488 
L 394.297588 66.917266 
L 393.784605 66.917266 
L 393.740768 70.661277 
L 393.586377 70.253766 
L 393.47996 73.895899 
L 393.424725 73.895899 
L 393.34326 81.358451 
L 393.17405 81.358451 
L 393.263307 81.358451 
L 393.183005 97.582498 
L 393.072254 97.786254 
L 393.065701 102.014185 
L 392.910822 104.280967 
L 392.89984 105.07052 
L 389.753824 105.121459 
L 388.878544 105.707257 
L 388.807037 105.961951 
L 388.520521 105.57991 
L 388.516996 105.656318 
L 387.793681 106.293054 
L 387.6101 105.809135 
L 387.268945 105.809135 
L 386.578833 106.751505 
L 386.567568 112.507603 
L 386.340323 113.806546 
L 385.944141 113.322626 
L 385.789449 113.322626 
L 385.698344 115.691286 
L 385.31956 115.869572 
L 385.106945 116.124267 
L 384.794785 115.411122 
L 384.482489 120.581423 
L 384.384008 120.963465 
L 383.873696 121.880365 
L 383.772418 121.702079 
L 383.671494 125.064048 
L 383.488149 125.064048 
L 383.113719 125.42062 
L 382.856596 125.42062 
L 382.85276 128.808059 
L 382.640237 129.954185 
L 382.009038 124.070739 
L 380.848891 124.070739 
L 380.173288 124.376373 
L 379.872236 124.376373 
L 379.494257 124.605598 
L 379.354872 125.751723 
L 379.349537 128.145853 
L 379.072013 128.145853 
L 378.940167 128.706181 
L 378.635237 128.706181 
L 378.554582 131.686108 
L 378.235097 134.283993 
L 378.187611 140.014622 
L 378.051412 141.51732 
L 377.930433 146.636682 
L 377.856998 147.731869 
L 377.772525 116.557248 
L 377.706627 117.346801 
L 377.218509 117.270393 
L 377.189083 118.085415 
L 376.283403 118.085415 
L 376.120802 118.594805 
L 376.113447 120.810648 
L 375.835617 122.924613 
L 375.834142 124.834823 
L 374.024715 124.860292 
L 374.006439 125.140456 
L 373.257719 124.860292 
L 372.993144 124.911231 
L 372.773023 125.140456 
L 371.847812 124.98764 
L 370.30617 124.98764 
L 368.94448 123.204777 
L 368.878606 125.802662 
L 368.760838 126.031888 
L 368.320558 126.38846 
L 367.894661 126.38846 
L 367.839388 133.851012 
L 367.382202 133.851012 
L 367.171408 134.411341 
L 366.606088 136.092325 
L 364.003569 136.092325 
L 362.906057 136.372489 
L 362.245276 136.219672 
L 362.223156 137.238451 
L 361.683633 137.518615 
L 361.672577 137.875187 
L 361.430205 137.340329 
L 360.439145 137.340329 
L 360.266919 135.990447 
L 358.155891 135.990447 
L 358.052361 138.460985 
L 357.972653 136.423428 
L 357.742567 136.092325 
L 354.272324 136.066856 
L 353.582112 135.964978 
L 353.455314 137.74784 
L 349.048866 137.74784 
L 348.105453 138.282699 
L 347.712817 137.74784 
L 346.872032 138.028004 
L 346.242382 137.875187 
L 340.70894 137.849718 
L 339.471734 137.493145 
L 338.238334 137.467676 
L 338.062266 136.907348 
L 333.304885 136.907348 
L 333.014978 136.448898 
L 331.058364 136.448898 
L 331.014298 137.391268 
L 330.838069 137.900657 
L 329.604703 136.881878 
L 328.371383 136.881878 
L 327.137965 136.601714 
L 324.918591 136.601714 
L 324.671468 137.340329 
L 323.494613 137.340329 
L 323.493846 137.187512 
L 320.971183 137.187512 
L 320.666621 136.907348 
L 318.904505 136.907348 
L 318.50432 138.588332 
L 318.023506 137.187512 
L 317.858281 137.467676 
L 317.270993 137.849718 
L 316.95917 137.849718 
L 316.037736 138.664741 
L 315.736664 138.664741 
L 315.384339 140.498542 
L 315.20437 140.676828 
L 314.80423 141.288095 
L 314.514514 141.288095 
L 314.268277 141.772015 
L 313.449831 141.772015 
L 312.910141 144.420839 
L 312.689827 144.930228 
L 312.491741 146.331049 
L 312.337493 151.806983 
L 312.297459 146.331049 
L 311.691401 146.331049 
L 311.504208 156.366017 
L 311.104077 156.620711 
L 310.902427 156.366017 
L 309.065017 156.366017 
L 308.637293 156.875406 
L 307.403909 156.136792 
L 305.957833 154.099235 
L 305.898689 154.099235 
L 305.892863 154.252052 
L 303.703858 154.252052 
L 302.470401 153.997357 
L 299.603822 153.997357 
L 299.599963 154.32846 
L 298.480365 154.32846 
L 298.252048 155.347238 
L 296.450081 155.347238 
L 296.258049 155.805689 
L 296.30324 155.805689 
L 296.170448 150.04959 
L 295.727078 150.04959 
L 295.047764 150.609918 
L 294.80364 151.068369 
L 294.519247 150.966491 
L 294.152107 150.966491 
L 294.148541 151.832453 
L 293.836521 152.214495 
L 293.172608 152.214495 
L 292.783048 151.908861 
L 291.369676 152.290903 
L 289.304397 152.290903 
L 289.875834 152.290903 
L 288.411746 152.622006 
L 286.667526 152.647475 
L 286.436295 152.851231 
L 284.93095 152.851231 
L 284.211745 153.080456 
L 284.178767 153.768132 
L 284.17694 153.335151 
L 281.649538 153.335151 
L 281.50651 153.538907 
L 281.20171 153.437029 
L 280.513837 153.971887 
L 280.512699 135.40465 
L 271.343473 135.40465 
L 278.594966 135.40465 
L 278.571579 137.951596 
L 270.40375 137.875187 
L 270.045225 143.249244 
L 269.926879 144.548186 
L 269.773763 144.548186 
L 269.713926 148.139381 
L 268.726906 148.113911 
L 268.566964 148.572361 
L 267.542549 148.572361 
L 267.393318 148.776117 
L 267.336962 154.990666 
L 266.400884 154.990666 
L 266.32041 156.315078 
L 266.072289 156.315078 
L 266.016825 157.410265 
L 263.581135 157.410265 
L 262.983453 157.868715 
L 262.274993 157.868715 
L 262.136344 157.996062 
L 262.048407 159.957211 
L 261.804978 159.957211 
L 261.696331 160.543009 
L 261.387114 160.543009 
L 261.320357 161.689134 
L 261.236407 161.689134 
L 261.071387 163.191833 
L 260.751692 164.236081 
L 260.586463 161.89289 
L 260.581615 162.733382 
L 260.538624 162.733382 
L 260.53518 160.339253 
L 259.544436 158.862024 
L 259.173848 159.295005 
L 257.797645 159.295005 
L 257.791937 159.52423 
L 249.451673 159.753455 
L 249.06557 159.98268 
L 247.372939 160.670356 
L 245.779712 160.899581 
L 244.032604 161.332562 
L 243.918362 163.217302 
L 236.448744 163.217302 
L 236.422928 163.548405 
L 235.634321 163.548405 
L 235.215643 161.816482 
L 233.924985 161.816482 
L 233.189706 162.020237 
L 233.036589 162.249463 
L 232.932484 162.249463 
L 232.924706 162.478688 
L 230.098566 162.478688 
L 229.591711 162.937138 
L 222.276191 164.057794 
L 216.876049 164.516245 
L 214.662681 165.407676 
L 212.434258 165.636901 
L 211.965002 166.095351 
L 211.956944 166.553802 
L 210.437828 166.553802 
L 206.826065 166.783027 
L 203.580808 166.783027 
L 202.526802 167.368824 
L 196.441623 167.368824 
L 196.437145 167.59805 
L 194.541926 167.59805 
L 194.324344 168.718706 
L 193.606996 168.718706 
L 191.867073 168.947931 
L 191.793593 169.304504 
L 189.921667 170.90908 
L 189.906965 173.023045 
L 188.864721 174.19464 
L 187.2742 174.423865 
L 182.123531 174.347457 
L 181.597013 174.245579 
L 181.035967 174.245579 
L 180.873574 174.449335 
L 180.686446 177.53114 
L 180.241743 177.454731 
L 180.181335 178.498979 
L 179.356872 178.498979 
L 179.301943 184.229608 
L 178.493194 184.229608 
L 178.594603 184.229608 
L 178.421728 183.796628 
L 177.591713 183.796628 
L 177.587524 184.356956 
L 177.360805 184.535242 
L 176.48007 183.745689 
L 175.312383 183.745689 
L 175.310017 184.127731 
L 175.308386 180.8167 
L 175.30768 180.8167 
L 173.438181 180.8167 
L 171.50009 180.562006 
L 168.198074 180.562006 
L 167.621931 180.944048 
L 167.093041 180.944048 
L 166.845077 180.791231 
L 166.826827 183.363647 
L 166.671776 183.745689 
L 166.564701 184.127731 
L 166.324931 184.127731 
L 165.683193 185.09557 
L 165.423923 185.09557 
L 165.331028 185.299326 
L 163.274785 185.248387 
L 163.040814 186.216226 
L 162.785013 186.216226 
L 162.687785 186.419982 
L 160.340523 186.419982 
L 159.513242 187.591577 
L 158.029973 187.591577 
L 157.9273 187.973619 
L 156.640038 187.667986 
L 154.756575 190.596974 
L 150.87536 190.596974 
L 150.699242 190.418688 
L 140.181167 190.418688 
L 140.125026 191.386527 
L 137.059979 191.411997 
L 134.971199 191.615752 
L 134.769376 192.379836 
L 134.611694 193.755187 
L 134.212306 195.308824 
L 134.089448 195.869153 
L 133.979812 203.484522 
L 133.895737 203.484522 
L 133.820067 212.246017 
L 133.097857 212.424303 
L 132.114696 212.424303 
L 131.930939 217.696482 
L 131.92881 217.696482 
L 131.666515 217.900237 
L 130.574997 217.900237 
L 130.565752 218.282279 
L 130.429759 218.282279 
L 130.254853 218.103993 
L 128.06222 218.103993 
L 128.054379 218.995424 
L 120.885439 218.995424 
L 120.322521 219.148241 
L 120.08995 219.326527 
L 120.087366 220.370775 
L 119.452635 220.370775 
L 119.098214 220.549061 
L 116.468948 220.549061 
L 118.592112 220.498122 
L 118.239669 221.720657 
L 117.164822 222.230046 
L 116.653718 222.230046 
L 116.301959 222.943191 
L 111.720169 222.943191 
L 111.544578 223.299763 
L 108.019698 223.274294 
L 107.844066 223.809152 
L 107.314838 223.809152 
L 107.138631 223.961969 
L 107.077414 224.87887 
L 106.610195 224.87887 
L 106.434543 225.33732 
L 104.319516 225.33732 
L 104.143385 224.496828 
L 103.790934 224.496828 
L 103.615608 225.235442 
L 101.676752 225.235442 
L 101.500631 225.617484 
L 98.681129 225.617484 
L 98.505155 226.381568 
L 98.328885 226.559854 
L 96.390353 226.559854 
L 96.214845 227.323938 
L 96.038039 227.323938 
L 95.862364 227.70598 
L 90.223767 227.70598 
L 90.048076 227.909736 
L 86.523467 227.909736 
L 86.348053 228.953984 
L 85.290152 228.953984 
L 84.93864 233.640365 
L 83.880423 233.640365 
L 83.704234 233.818651 
L 82.470861 233.818651 
L 82.294662 234.175224 
L 81.956109 234.175224 
L 81.906868 237.129681 
L 81.690309 250.170046 
L 81.651727 250.144576 
L 80.88511 250.144576 
L 79.828737 250.322862 
L 79.446119 250.501149 
L 79.37067 250.679435 
L 78.947274 250.679435 
L 78.947192 250.857721 
L 78.242531 250.857721 
L 78.242464 251.036007 
L 78.066279 251.036007 
L 78.066202 251.214294 
L 77.694749 251.214294 
L 77.690758 252.436828 
L 77.38225 252.436828 
L 77.361419 252.615114 
L 77.263593 252.615114 
L 77.193881 252.767931 
L 73.832727 252.767931 
L 73.832727 252.767931 
" clip-path="url(#p6789a384da)" style="fill: none; stroke: #1f77b4; stroke-width: 1.5; stroke-linecap: square"/>
   </g>
   <g id="patch_3">
    <path d="M 57.6 276.48 
L 57.6 41.472 
" style="fill: none; stroke: #000000; stroke-width: 0.8; stroke-linejoin: miter; stroke-linecap: square"/>
   </g>
   <g id="patch_4">
    <path d="M 414.72 276.48 
L 414.72 41.472 
" style="fill: none; stroke: #000000; stroke-width: 0.8; stroke-linejoin: miter; stroke-linecap: square"/>
   </g>
   <g id="patch_5">
    <path d="M 57.6 276.48 
L 414.72 276.48 
" style="fill: none; stroke: #000000; stroke-width: 0.8; stroke-linejoin: miter; stroke-linecap: square"/>
   </g>
   <g id="patch_6">
    <path d="M 57.6 41.472 
L 414.72 41.472 
" style="fill: none; stroke: #000000; stroke-width: 0.8; stroke-linejoin: miter; stroke-linecap: square"/>
   </g>
   <g id="text_12">
    <!-- Postęp tłumaczenia do dodania do przełącznika języków -->
    <g transform="translate(67.57125 35.472) scale(0.12 -0.12)">
     <defs>
      <path id="DejaVuSans-50" d="M 1259 4147 
L 1259 2394 
L 2053 2394 
Q 2494 2394 2734 2622 
Q 2975 2850 2975 3272 
Q 2975 3691 2734 3919 
Q 2494 4147 2053 4147 
L 1259 4147 
z
M 628 4666 
L 2053 4666 
Q 2838 4666 3239 4311 
Q 3641 3956 3641 3272 
Q 3641 2581 3239 2228 
Q 2838 1875 2053 1875 
L 1259 1875 
L 1259 0 
L 628 0 
L 628 4666 
z
" transform="scale(0.015625)"/>
      <path id="DejaVuSans-6f" d="M 1959 3097 
Q 1497 3097 1228 2736 
Q 959 2375 959 1747 
Q 959 1119 1226 758 
Q 1494 397 1959 397 
Q 2419 397 2687 759 
Q 2956 1122 2956 1747 
Q 2956 2369 2687 2733 
Q 2419 3097 1959 3097 
z
M 1959 3584 
Q 2709 3584 3137 3096 
Q 3566 2609 3566 1747 
Q 3566 888 3137 398 
Q 2709 -91 1959 -91 
Q 1206 -91 779 398 
Q 353 888 353 1747 
Q 353 2609 779 3096 
Q 1206 3584 1959 3584 
z
" transform="scale(0.015625)"/>
      <path id="DejaVuSans-73" d="M 2834 3397 
L 2834 2853 
Q 2591 2978 2328 3040 
Q 2066 3103 1784 3103 
Q 1356 3103 1142 2972 
Q 928 2841 928 2578 
Q 928 2378 1081 2264 
Q 1234 2150 1697 2047 
L 1894 2003 
Q 2506 1872 2764 1633 
Q 3022 1394 3022 966 
Q 3022 478 2636 193 
Q 2250 -91 1575 -91 
Q 1294 -91 989 -36 
Q 684 19 347 128 
L 347 722 
Q 666 556 975 473 
Q 1284 391 1588 391 
Q 1994 391 2212 530 
Q 2431 669 2431 922 
Q 2431 1156 2273 1281 
Q 2116 1406 1581 1522 
L 1381 1569 
Q 847 1681 609 1914 
Q 372 2147 372 2553 
Q 372 3047 722 3315 
Q 1072 3584 1716 3584 
Q 2034 3584 2315 3537 
Q 2597 3491 2834 3397 
z
" transform="scale(0.015625)"/>
      <path id="DejaVuSans-74" d="M 1172 4494 
L 1172 3500 
L 2356 3500 
L 2356 3053 
L 1172 3053 
L 1172 1153 
Q 1172 725 1289 603 
Q 1406 481 1766 481 
L 2356 481 
L 2356 0 
L 1766 0 
Q 1100 0 847 248 
Q 594 497 594 1153 
L 594 3053 
L 172 3053 
L 172 3500 
L 594 3500 
L 594 4494 
L 1172 4494 
z
" transform="scale(0.015625)"/>
      <path id="DejaVuSans-119" d="M 3597 1894 
L 3597 1613 
L 953 1613 
Q 991 1019 1311 708 
Q 1631 397 2203 397 
Q 2534 397 2845 478 
Q 3156 559 3463 722 
L 3463 178 
Q 3153 47 2828 -22 
Q 2503 -91 2169 -91 
Q 1331 -91 842 396 
Q 353 884 353 1716 
Q 353 2575 817 3079 
Q 1281 3584 2069 3584 
Q 2775 3584 3186 3129 
Q 3597 2675 3597 1894 
z
M 3022 2063 
Q 3016 2534 2758 2815 
Q 2500 3097 2075 3097 
Q 1594 3097 1305 2825 
Q 1016 2553 972 2059 
L 3022 2063 
z
M 2551 0 
L 2923 0 
Q 2782 -191 2715 -328 
Q 2648 -466 2648 -563 
Q 2648 -706 2734 -778 
Q 2820 -850 2989 -850 
Q 3089 -850 3185 -826 
Q 3282 -803 3379 -756 
L 3379 -1172 
Q 3260 -1203 3154 -1218 
Q 3048 -1234 2954 -1234 
Q 2573 -1234 2393 -1098 
Q 2214 -963 2214 -672 
Q 2214 -522 2296 -358 
Q 2379 -194 2551 0 
z
" transform="scale(0.015625)"/>
      <path id="DejaVuSans-70" d="M 1159 525 
L 1159 -1331 
L 581 -1331 
L 581 3500 
L 1159 3500 
L 1159 2969 
Q 1341 3281 1617 3432 
Q 1894 3584 2278 3584 
Q 2916 3584 3314 3078 
Q 3713 2572 3713 1747 
Q 3713 922 3314 415 
Q 2916 -91 2278 -91 
Q 1894 -91 1617 61 
Q 1341 213 1159 525 
z
M 3116 1747 
Q 3116 2381 2855 2742 
Q 2594 3103 2138 3103 
Q 1681 3103 1420 2742 
Q 1159 2381 1159 1747 
Q 1159 1113 1420 752 
Q 1681 391 2138 391 
Q 2594 391 2855 752 
Q 3116 1113 3116 1747 
z
" transform="scale(0.015625)"/>
      <path id="DejaVuSans-20" transform="scale(0.015625)"/>
      <path id="DejaVuSans-142" d="M 622 4863 
L 1197 4863 
L 1197 2981 
L 1588 3263 
L 1825 2931 
L 1197 2491 
L 1197 0 
L 622 0 
L 622 2081 
L 238 1806 
L 6 2138 
L 622 2578 
L 622 4863 
z
" transform="scale(0.015625)"/>
      <path id="DejaVuSans-75" d="M 544 1381 
L 544 3500 
L 1119 3500 
L 1119 1403 
Q 1119 906 1312 657 
Q 1506 409 1894 409 
Q 2359 409 2629 706 
Q 2900 1003 2900 1516 
L 2900 3500 
L 3475 3500 
L 3475 0 
L 2900 0 
L 2900 538 
Q 2691 219 2414 64 
Q 2138 -91 1772 -91 
Q 1169 -91 856 284 
Q 544 659 544 1381 
z
M 1991 3584 
L 1991 3584 
z
" transform="scale(0.015625)"/>
      <path id="DejaVuSans-6d" d="M 3328 2828 
Q 3544 3216 3844 3400 
Q 4144 3584 4550 3584 
Q 5097 3584 5394 3201 
Q 5691 2819 5691 2113 
L 5691 0 
L 5113 0 
L 5113 2094 
Q 5113 2597 4934 2840 
Q 4756 3084 4391 3084 
Q 3944 3084 3684 2787 
Q 3425 2491 3425 1978 
L 3425 0 
L 2847 0 
L 2847 2094 
Q 2847 2600 2669 2842 
Q 2491 3084 2119 3084 
Q 1678 3084 1418 2786 
Q 1159 2488 1159 1978 
L 1159 0 
L 581 0 
L 581 3500 
L 1159 3500 
L 1159 2956 
Q 1356 3278 1631 3431 
Q 1906 3584 2284 3584 
Q 2666 3584 2933 3390 
Q 3200 3197 3328 2828 
z
" transform="scale(0.015625)"/>
      <path id="DejaVuSans-61" d="M 2194 1759 
Q 1497 1759 1228 1600 
Q 959 1441 959 1056 
Q 959 750 1161 570 
Q 1363 391 1709 391 
Q 2188 391 2477 730 
Q 2766 1069 2766 1631 
L 2766 1759 
L 2194 1759 
z
M 3341 1997 
L 3341 0 
L 2766 0 
L 2766 531 
Q 2569 213 2275 61 
Q 1981 -91 1556 -91 
Q 1019 -91 701 211 
Q 384 513 384 1019 
Q 384 1609 779 1909 
Q 1175 2209 1959 2209 
L 2766 2209 
L 2766 2266 
Q 2766 2663 2505 2880 
Q 2244 3097 1772 3097 
Q 1472 3097 1187 3025 
Q 903 2953 641 2809 
L 641 3341 
Q 956 3463 1253 3523 
Q 1550 3584 1831 3584 
Q 2591 3584 2966 3190 
Q 3341 2797 3341 1997 
z
" transform="scale(0.015625)"/>
      <path id="DejaVuSans-63" d="M 3122 3366 
L 3122 2828 
Q 2878 2963 2633 3030 
Q 2388 3097 2138 3097 
Q 1578 3097 1268 2742 
Q 959 2388 959 1747 
Q 959 1106 1268 751 
Q 1578 397 2138 397 
Q 2388 397 2633 464 
Q 2878 531 3122 666 
L 3122 134 
Q 2881 22 2623 -34 
Q 2366 -91 2075 -91 
Q 1284 -91 818 406 
Q 353 903 353 1747 
Q 353 2603 823 3093 
Q 1294 3584 2113 3584 
Q 2378 3584 2631 3529 
Q 2884 3475 3122 3366 
z
" transform="scale(0.015625)"/>
      <path id="DejaVuSans-7a" d="M 353 3500 
L 3084 3500 
L 3084 2975 
L 922 459 
L 3084 459 
L 3084 0 
L 275 0 
L 275 525 
L 2438 3041 
L 353 3041 
L 353 3500 
z
" transform="scale(0.015625)"/>
      <path id="DejaVuSans-65" d="M 3597 1894 
L 3597 1613 
L 953 1613 
Q 991 1019 1311 708 
Q 1631 397 2203 397 
Q 2534 397 2845 478 
Q 3156 559 3463 722 
L 3463 178 
Q 3153 47 2828 -22 
Q 2503 -91 2169 -91 
Q 1331 -91 842 396 
Q 353 884 353 1716 
Q 353 2575 817 3079 
Q 1281 3584 2069 3584 
Q 2775 3584 3186 3129 
Q 3597 2675 3597 1894 
z
M 3022 2063 
Q 3016 2534 2758 2815 
Q 2500 3097 2075 3097 
Q 1594 3097 1305 2825 
Q 1016 2553 972 2059 
L 3022 2063 
z
" transform="scale(0.015625)"/>
      <path id="DejaVuSans-6e" d="M 3513 2113 
L 3513 0 
L 2938 0 
L 2938 2094 
Q 2938 2591 2744 2837 
Q 2550 3084 2163 3084 
Q 1697 3084 1428 2787 
Q 1159 2491 1159 1978 
L 1159 0 
L 581 0 
L 581 3500 
L 1159 3500 
L 1159 2956 
Q 1366 3272 1645 3428 
Q 1925 3584 2291 3584 
Q 2894 3584 3203 3211 
Q 3513 2838 3513 2113 
z
" transform="scale(0.015625)"/>
      <path id="DejaVuSans-69" d="M 603 3500 
L 1178 3500 
L 1178 0 
L 603 0 
L 603 3500 
z
M 603 4863 
L 1178 4863 
L 1178 4134 
L 603 4134 
L 603 4863 
z
" transform="scale(0.015625)"/>
      <path id="DejaVuSans-64" d="M 2906 2969 
L 2906 4863 
L 3481 4863 
L 3481 0 
L 2906 0 
L 2906 525 
Q 2725 213 2448 61 
Q 2172 -91 1784 -91 
Q 1150 -91 751 415 
Q 353 922 353 1747 
Q 353 2572 751 3078 
Q 1150 3584 1784 3584 
Q 2172 3584 2448 3432 
Q 2725 3281 2906 2969 
z
M 947 1747 
Q 947 1113 1208 752 
Q 1469 391 1925 391 
Q 2381 391 2643 752 
Q 2906 1113 2906 1747 
Q 2906 2381 2643 2742 
Q 2381 3103 1925 3103 
Q 1469 3103 1208 2742 
Q 947 2381 947 1747 
z
" transform="scale(0.015625)"/>
      <path id="DejaVuSans-72" d="M 2631 2963 
Q 2534 3019 2420 3045 
Q 2306 3072 2169 3072 
Q 1681 3072 1420 2755 
Q 1159 2438 1159 1844 
L 1159 0 
L 581 0 
L 581 3500 
L 1159 3500 
L 1159 2956 
Q 1341 3275 1631 3429 
Q 1922 3584 2338 3584 
Q 2397 3584 2469 3576 
Q 2541 3569 2628 3553 
L 2631 2963 
z
" transform="scale(0.015625)"/>
      <path id="DejaVuSans-105" d="M 2194 1759 
Q 1497 1759 1228 1600 
Q 959 1441 959 1056 
Q 959 750 1161 570 
Q 1363 391 1709 391 
Q 2188 391 2477 730 
Q 2766 1069 2766 1631 
L 2766 1759 
L 2194 1759 
z
M 3341 1997 
L 3341 0 
L 2766 0 
L 2766 531 
Q 2569 213 2275 61 
Q 1981 -91 1556 -91 
Q 1019 -91 701 211 
Q 384 513 384 1019 
Q 384 1609 779 1909 
Q 1175 2209 1959 2209 
L 2766 2209 
L 2766 2266 
Q 2766 2663 2505 2880 
Q 2244 3097 1772 3097 
Q 1472 3097 1187 3025 
Q 903 2953 641 2809 
L 641 3341 
Q 956 3463 1253 3523 
Q 1550 3584 1831 3584 
Q 2591 3584 2966 3190 
Q 3341 2797 3341 1997 
z
M 2775 0 
L 3147 0 
Q 3006 -191 2939 -328 
Q 2872 -466 2872 -563 
Q 2872 -706 2958 -778 
Q 3044 -850 3213 -850 
Q 3313 -850 3409 -826 
Q 3506 -803 3603 -756 
L 3603 -1172 
Q 3484 -1203 3378 -1218 
Q 3272 -1234 3178 -1234 
Q 2797 -1234 2617 -1098 
Q 2438 -963 2438 -672 
Q 2438 -522 2520 -358 
Q 2603 -194 2775 0 
z
" transform="scale(0.015625)"/>
      <path id="DejaVuSans-6b" d="M 581 4863 
L 1159 4863 
L 1159 1991 
L 2875 3500 
L 3609 3500 
L 1753 1863 
L 3688 0 
L 2938 0 
L 1159 1709 
L 1159 0 
L 581 0 
L 581 4863 
z
" transform="scale(0.015625)"/>
      <path id="DejaVuSans-6a" d="M 603 3500 
L 1178 3500 
L 1178 -63 
Q 1178 -731 923 -1031 
Q 669 -1331 103 -1331 
L -116 -1331 
L -116 -844 
L 38 -844 
Q 366 -844 484 -692 
Q 603 -541 603 -63 
L 603 3500 
z
M 603 4863 
L 1178 4863 
L 1178 4134 
L 603 4134 
L 603 4863 
z
" transform="scale(0.015625)"/>
      <path id="DejaVuSans-79" d="M 2059 -325 
Q 1816 -950 1584 -1140 
Q 1353 -1331 966 -1331 
L 506 -1331 
L 506 -850 
L 844 -850 
Q 1081 -850 1212 -737 
Q 1344 -625 1503 -206 
L 1606 56 
L 191 3500 
L 800 3500 
L 1894 763 
L 2988 3500 
L 3597 3500 
L 2059 -325 
z
" transform="scale(0.015625)"/>
      <path id="DejaVuSans-f3" d="M 1959 3097 
Q 1497 3097 1228 2736 
Q 959 2375 959 1747 
Q 959 1119 1226 758 
Q 1494 397 1959 397 
Q 2419 397 2687 759 
Q 2956 1122 2956 1747 
Q 2956 2369 2687 2733 
Q 2419 3097 1959 3097 
z
M 1959 3584 
Q 2709 3584 3137 3096 
Q 3566 2609 3566 1747 
Q 3566 888 3137 398 
Q 2709 -91 1959 -91 
Q 1206 -91 779 398 
Q 353 888 353 1747 
Q 353 2609 779 3096 
Q 1206 3584 1959 3584 
z
M 2394 5119 
L 3016 5119 
L 1998 3944 
L 1519 3944 
L 2394 5119 
z
" transform="scale(0.015625)"/>
      <path id="DejaVuSans-77" d="M 269 3500 
L 844 3500 
L 1563 769 
L 2278 3500 
L 2956 3500 
L 3675 769 
L 4391 3500 
L 4966 3500 
L 4050 0 
L 3372 0 
L 2619 2869 
L 1863 0 
L 1184 0 
L 269 3500 
z
" transform="scale(0.015625)"/>
     </defs>
     <use xlink:href="#DejaVuSans-50"/>
     <use xlink:href="#DejaVuSans-6f" transform="translate(56.677734 0)"/>
     <use xlink:href="#DejaVuSans-73" transform="translate(117.859375 0)"/>
     <use xlink:href="#DejaVuSans-74" transform="translate(169.958984 0)"/>
     <use xlink:href="#DejaVuSans-119" transform="translate(209.167969 0)"/>
     <use xlink:href="#DejaVuSans-70" transform="translate(270.691406 0)"/>
     <use xlink:href="#DejaVuSans-20" transform="translate(334.167969 0)"/>
     <use xlink:href="#DejaVuSans-74" transform="translate(365.955078 0)"/>
     <use xlink:href="#DejaVuSans-142" transform="translate(405.164062 0)"/>
     <use xlink:href="#DejaVuSans-75" transform="translate(433.582031 0)"/>
     <use xlink:href="#DejaVuSans-6d" transform="translate(496.960938 0)"/>
     <use xlink:href="#DejaVuSans-61" transform="translate(594.373047 0)"/>
     <use xlink:href="#DejaVuSans-63" transform="translate(655.652344 0)"/>
     <use xlink:href="#DejaVuSans-7a" transform="translate(710.632812 0)"/>
     <use xlink:href="#DejaVuSans-65" transform="translate(763.123047 0)"/>
     <use xlink:href="#DejaVuSans-6e" transform="translate(824.646484 0)"/>
     <use xlink:href="#DejaVuSans-69" transform="translate(888.025391 0)"/>
     <use xlink:href="#DejaVuSans-61" transform="translate(915.808594 0)"/>
     <use xlink:href="#DejaVuSans-20" transform="translate(977.087891 0)"/>
     <use xlink:href="#DejaVuSans-64" transform="translate(1008.875 0)"/>
     <use xlink:href="#DejaVuSans-6f" transform="translate(1072.351562 0)"/>
     <use xlink:href="#DejaVuSans-20" transform="translate(1133.533203 0)"/>
     <use xlink:href="#DejaVuSans-64" transform="translate(1165.320312 0)"/>
     <use xlink:href="#DejaVuSans-6f" transform="translate(1228.796875 0)"/>
     <use xlink:href="#DejaVuSans-64" transform="translate(1289.978516 0)"/>
     <use xlink:href="#DejaVuSans-61" transform="translate(1353.455078 0)"/>
     <use xlink:href="#DejaVuSans-6e" transform="translate(1414.734375 0)"/>
     <use xlink:href="#DejaVuSans-69" transform="translate(1478.113281 0)"/>
     <use xlink:href="#DejaVuSans-61" transform="translate(1505.896484 0)"/>
     <use xlink:href="#DejaVuSans-20" transform="translate(1567.175781 0)"/>
     <use xlink:href="#DejaVuSans-64" transform="translate(1598.962891 0)"/>
     <use xlink:href="#DejaVuSans-6f" transform="translate(1662.439453 0)"/>
     <use xlink:href="#DejaVuSans-20" transform="translate(1723.621094 0)"/>
     <use xlink:href="#DejaVuSans-70" transform="translate(1755.408203 0)"/>
     <use xlink:href="#DejaVuSans-72" transform="translate(1818.884766 0)"/>
     <use xlink:href="#DejaVuSans-7a" transform="translate(1859.998047 0)"/>
     <use xlink:href="#DejaVuSans-65" transform="translate(1912.488281 0)"/>
     <use xlink:href="#DejaVuSans-142" transform="translate(1974.011719 0)"/>
     <use xlink:href="#DejaVuSans-105" transform="translate(2002.429688 0)"/>
     <use xlink:href="#DejaVuSans-63" transform="translate(2063.708984 0)"/>
     <use xlink:href="#DejaVuSans-7a" transform="translate(2118.689453 0)"/>
     <use xlink:href="#DejaVuSans-6e" transform="translate(2171.179688 0)"/>
     <use xlink:href="#DejaVuSans-69" transform="translate(2234.558594 0)"/>
     <use xlink:href="#DejaVuSans-6b" transform="translate(2262.341797 0)"/>
     <use xlink:href="#DejaVuSans-61" transform="translate(2318.501953 0)"/>
     <use xlink:href="#DejaVuSans-20" transform="translate(2379.78125 0)"/>
     <use xlink:href="#DejaVuSans-6a" transform="translate(2411.568359 0)"/>
     <use xlink:href="#DejaVuSans-119" transform="translate(2439.351562 0)"/>
     <use xlink:href="#DejaVuSans-7a" transform="translate(2500.875 0)"/>
     <use xlink:href="#DejaVuSans-79" transform="translate(2553.365234 0)"/>
     <use xlink:href="#DejaVuSans-6b" transform="translate(2612.544922 0)"/>
     <use xlink:href="#DejaVuSans-f3" transform="translate(2666.830078 0)"/>
     <use xlink:href="#DejaVuSans-77" transform="translate(2728.011719 0)"/>
    </g>
   </g>
  </g>
 </g>
 <defs>
  <clipPath id="p6789a384da">
   <rect x="57.6" y="41.472" width="357.12" height="235.008"/>
  </clipPath>
 </defs>
</svg>
