<?xml version="1.0" encoding="utf-8" standalone="no"?>
<!DOCTYPE svg PUBLIC "-//W3C//DTD SVG 1.1//EN"
  "http://www.w3.org/Graphics/SVG/1.1/DTD/svg11.dtd">
<svg xmlns:xlink="http://www.w3.org/1999/xlink" width="460.8pt" height="345.6pt" viewBox="0 0 460.8 345.6" xmlns="http://www.w3.org/2000/svg" version="1.1">
 <metadata>
  <rdf:RDF xmlns:dc="http://purl.org/dc/elements/1.1/" xmlns:cc="http://creativecommons.org/ns#" xmlns:rdf="http://www.w3.org/1999/02/22-rdf-syntax-ns#">
   <cc:Work>
    <dc:type rdf:resource="http://purl.org/dc/dcmitype/StillImage"/>
    <dc:date>2024-12-06T02:36:50.080547</dc:date>
    <dc:format>image/svg+xml</dc:format>
    <dc:creator>
     <cc:Agent>
      <dc:title>Matplotlib v3.9.3, https://matplotlib.org/</dc:title>
     </cc:Agent>
    </dc:creator>
   </cc:Work>
  </rdf:RDF>
 </metadata>
 <defs>
  <style type="text/css">*{stroke-linejoin: round; stroke-linecap: butt}</style>
 </defs>
 <g id="figure_1">
  <g id="patch_1">
   <path d="M 0 345.6 
L 460.8 345.6 
L 460.8 0 
L 0 0 
z
" style="fill: #ffffff"/>
  </g>
  <g id="axes_1">
   <g id="patch_2">
    <path d="M 57.6 276.48 
L 414.72 276.48 
L 414.72 41.472 
L 57.6 41.472 
z
" style="fill: #ffffff"/>
   </g>
   <g id="matplotlib.axis_1">
    <g id="xtick_1">
     <g id="line2d_1">
      <path d="M 77.577402 276.48 
L 77.577402 41.472 
" clip-path="url(#pa86d00384c)" style="fill: none; stroke: #b0b0b0; stroke-width: 0.8; stroke-linecap: square"/>
     </g>
     <g id="line2d_2">
      <defs>
       <path id="m7f185b1550" d="M 0 0 
L 0 3.5 
" style="stroke: #000000; stroke-width: 0.8"/>
      </defs>
      <g>
       <use xlink:href="#m7f185b1550" x="77.577402" y="276.48" style="stroke: #000000; stroke-width: 0.8"/>
      </g>
     </g>
     <g id="text_1">
      <!-- 2020 -->
      <g transform="translate(54.497212 302.78544) rotate(-30) scale(0.1 -0.1)">
       <defs>
        <path id="DejaVuSans-32" d="M 1228 531 
L 3431 531 
L 3431 0 
L 469 0 
L 469 531 
Q 828 903 1448 1529 
Q 2069 2156 2228 2338 
Q 2531 2678 2651 2914 
Q 2772 3150 2772 3378 
Q 2772 3750 2511 3984 
Q 2250 4219 1831 4219 
Q 1534 4219 1204 4116 
Q 875 4013 500 3803 
L 500 4441 
Q 881 4594 1212 4672 
Q 1544 4750 1819 4750 
Q 2544 4750 2975 4387 
Q 3406 4025 3406 3419 
Q 3406 3131 3298 2873 
Q 3191 2616 2906 2266 
Q 2828 2175 2409 1742 
Q 1991 1309 1228 531 
z
" transform="scale(0.015625)"/>
        <path id="DejaVuSans-30" d="M 2034 4250 
Q 1547 4250 1301 3770 
Q 1056 3291 1056 2328 
Q 1056 1369 1301 889 
Q 1547 409 2034 409 
Q 2525 409 2770 889 
Q 3016 1369 3016 2328 
Q 3016 3291 2770 3770 
Q 2525 4250 2034 4250 
z
M 2034 4750 
Q 2819 4750 3233 4129 
Q 3647 3509 3647 2328 
Q 3647 1150 3233 529 
Q 2819 -91 2034 -91 
Q 1250 -91 836 529 
Q 422 1150 422 2328 
Q 422 3509 836 4129 
Q 1250 4750 2034 4750 
z
" transform="scale(0.015625)"/>
       </defs>
       <use xlink:href="#DejaVuSans-32"/>
       <use xlink:href="#DejaVuSans-30" x="63.623047"/>
       <use xlink:href="#DejaVuSans-32" x="127.246094"/>
       <use xlink:href="#DejaVuSans-30" x="190.869141"/>
      </g>
     </g>
    </g>
    <g id="xtick_2">
     <g id="line2d_3">
      <path d="M 142.788907 276.48 
L 142.788907 41.472 
" clip-path="url(#pa86d00384c)" style="fill: none; stroke: #b0b0b0; stroke-width: 0.8; stroke-linecap: square"/>
     </g>
     <g id="line2d_4">
      <g>
       <use xlink:href="#m7f185b1550" x="142.788907" y="276.48" style="stroke: #000000; stroke-width: 0.8"/>
      </g>
     </g>
     <g id="text_2">
      <!-- 2021 -->
      <g transform="translate(119.708717 302.78544) rotate(-30) scale(0.1 -0.1)">
       <defs>
        <path id="DejaVuSans-31" d="M 794 531 
L 1825 531 
L 1825 4091 
L 703 3866 
L 703 4441 
L 1819 4666 
L 2450 4666 
L 2450 531 
L 3481 531 
L 3481 0 
L 794 0 
L 794 531 
z
" transform="scale(0.015625)"/>
       </defs>
       <use xlink:href="#DejaVuSans-32"/>
       <use xlink:href="#DejaVuSans-30" x="63.623047"/>
       <use xlink:href="#DejaVuSans-32" x="127.246094"/>
       <use xlink:href="#DejaVuSans-31" x="190.869141"/>
      </g>
     </g>
    </g>
    <g id="xtick_3">
     <g id="line2d_5">
      <path d="M 207.822238 276.48 
L 207.822238 41.472 
" clip-path="url(#pa86d00384c)" style="fill: none; stroke: #b0b0b0; stroke-width: 0.8; stroke-linecap: square"/>
     </g>
     <g id="line2d_6">
      <g>
       <use xlink:href="#m7f185b1550" x="207.822238" y="276.48" style="stroke: #000000; stroke-width: 0.8"/>
      </g>
     </g>
     <g id="text_3">
      <!-- 2022 -->
      <g transform="translate(184.742048 302.78544) rotate(-30) scale(0.1 -0.1)">
       <use xlink:href="#DejaVuSans-32"/>
       <use xlink:href="#DejaVuSans-30" x="63.623047"/>
       <use xlink:href="#DejaVuSans-32" x="127.246094"/>
       <use xlink:href="#DejaVuSans-32" x="190.869141"/>
      </g>
     </g>
    </g>
    <g id="xtick_4">
     <g id="line2d_7">
      <path d="M 272.85557 276.48 
L 272.85557 41.472 
" clip-path="url(#pa86d00384c)" style="fill: none; stroke: #b0b0b0; stroke-width: 0.8; stroke-linecap: square"/>
     </g>
     <g id="line2d_8">
      <g>
       <use xlink:href="#m7f185b1550" x="272.85557" y="276.48" style="stroke: #000000; stroke-width: 0.8"/>
      </g>
     </g>
     <g id="text_4">
      <!-- 2023 -->
      <g transform="translate(249.775379 302.78544) rotate(-30) scale(0.1 -0.1)">
       <defs>
        <path id="DejaVuSans-33" d="M 2597 2516 
Q 3050 2419 3304 2112 
Q 3559 1806 3559 1356 
Q 3559 666 3084 287 
Q 2609 -91 1734 -91 
Q 1441 -91 1130 -33 
Q 819 25 488 141 
L 488 750 
Q 750 597 1062 519 
Q 1375 441 1716 441 
Q 2309 441 2620 675 
Q 2931 909 2931 1356 
Q 2931 1769 2642 2001 
Q 2353 2234 1838 2234 
L 1294 2234 
L 1294 2753 
L 1863 2753 
Q 2328 2753 2575 2939 
Q 2822 3125 2822 3475 
Q 2822 3834 2567 4026 
Q 2313 4219 1838 4219 
Q 1578 4219 1281 4162 
Q 984 4106 628 3988 
L 628 4550 
Q 988 4650 1302 4700 
Q 1616 4750 1894 4750 
Q 2613 4750 3031 4423 
Q 3450 4097 3450 3541 
Q 3450 3153 3228 2886 
Q 3006 2619 2597 2516 
z
" transform="scale(0.015625)"/>
       </defs>
       <use xlink:href="#DejaVuSans-32"/>
       <use xlink:href="#DejaVuSans-30" x="63.623047"/>
       <use xlink:href="#DejaVuSans-32" x="127.246094"/>
       <use xlink:href="#DejaVuSans-33" x="190.869141"/>
      </g>
     </g>
    </g>
    <g id="xtick_5">
     <g id="line2d_9">
      <path d="M 337.888901 276.48 
L 337.888901 41.472 
" clip-path="url(#pa86d00384c)" style="fill: none; stroke: #b0b0b0; stroke-width: 0.8; stroke-linecap: square"/>
     </g>
     <g id="line2d_10">
      <g>
       <use xlink:href="#m7f185b1550" x="337.888901" y="276.48" style="stroke: #000000; stroke-width: 0.8"/>
      </g>
     </g>
     <g id="text_5">
      <!-- 2024 -->
      <g transform="translate(314.808711 302.78544) rotate(-30) scale(0.1 -0.1)">
       <defs>
        <path id="DejaVuSans-34" d="M 2419 4116 
L 825 1625 
L 2419 1625 
L 2419 4116 
z
M 2253 4666 
L 3047 4666 
L 3047 1625 
L 3713 1625 
L 3713 1100 
L 3047 1100 
L 3047 0 
L 2419 0 
L 2419 1100 
L 313 1100 
L 313 1709 
L 2253 4666 
z
" transform="scale(0.015625)"/>
       </defs>
       <use xlink:href="#DejaVuSans-32"/>
       <use xlink:href="#DejaVuSans-30" x="63.623047"/>
       <use xlink:href="#DejaVuSans-32" x="127.246094"/>
       <use xlink:href="#DejaVuSans-34" x="190.869141"/>
      </g>
     </g>
    </g>
    <g id="xtick_6">
     <g id="line2d_11">
      <path d="M 403.100406 276.48 
L 403.100406 41.472 
" clip-path="url(#pa86d00384c)" style="fill: none; stroke: #b0b0b0; stroke-width: 0.8; stroke-linecap: square"/>
     </g>
     <g id="line2d_12">
      <g>
       <use xlink:href="#m7f185b1550" x="403.100406" y="276.48" style="stroke: #000000; stroke-width: 0.8"/>
      </g>
     </g>
     <g id="text_6">
      <!-- 2025 -->
      <g transform="translate(380.020215 302.78544) rotate(-30) scale(0.1 -0.1)">
       <defs>
        <path id="DejaVuSans-35" d="M 691 4666 
L 3169 4666 
L 3169 4134 
L 1269 4134 
L 1269 2991 
Q 1406 3038 1543 3061 
Q 1681 3084 1819 3084 
Q 2600 3084 3056 2656 
Q 3513 2228 3513 1497 
Q 3513 744 3044 326 
Q 2575 -91 1722 -91 
Q 1428 -91 1123 -41 
Q 819 9 494 109 
L 494 744 
Q 775 591 1075 516 
Q 1375 441 1709 441 
Q 2250 441 2565 725 
Q 2881 1009 2881 1497 
Q 2881 1984 2565 2268 
Q 2250 2553 1709 2553 
Q 1456 2553 1204 2497 
Q 953 2441 691 2322 
L 691 4666 
z
" transform="scale(0.015625)"/>
       </defs>
       <use xlink:href="#DejaVuSans-32"/>
       <use xlink:href="#DejaVuSans-30" x="63.623047"/>
       <use xlink:href="#DejaVuSans-32" x="127.246094"/>
       <use xlink:href="#DejaVuSans-35" x="190.869141"/>
      </g>
     </g>
    </g>
   </g>
   <g id="matplotlib.axis_2">
    <g id="ytick_1">
     <g id="line2d_13">
      <path d="M 57.6 276.48 
L 414.72 276.48 
" clip-path="url(#pa86d00384c)" style="fill: none; stroke: #b0b0b0; stroke-width: 0.8; stroke-linecap: square"/>
     </g>
     <g id="line2d_14">
      <defs>
       <path id="mf963ac4bbf" d="M 0 0 
L -3.5 0 
" style="stroke: #000000; stroke-width: 0.8"/>
      </defs>
      <g>
       <use xlink:href="#mf963ac4bbf" x="57.6" y="276.48" style="stroke: #000000; stroke-width: 0.8"/>
      </g>
     </g>
     <g id="text_7">
      <!-- 0% -->
      <g transform="translate(34.735937 280.279219) scale(0.1 -0.1)">
       <defs>
        <path id="DejaVuSans-25" d="M 4653 2053 
Q 4381 2053 4226 1822 
Q 4072 1591 4072 1178 
Q 4072 772 4226 539 
Q 4381 306 4653 306 
Q 4919 306 5073 539 
Q 5228 772 5228 1178 
Q 5228 1588 5073 1820 
Q 4919 2053 4653 2053 
z
M 4653 2450 
Q 5147 2450 5437 2106 
Q 5728 1763 5728 1178 
Q 5728 594 5436 251 
Q 5144 -91 4653 -91 
Q 4153 -91 3862 251 
Q 3572 594 3572 1178 
Q 3572 1766 3864 2108 
Q 4156 2450 4653 2450 
z
M 1428 4353 
Q 1159 4353 1004 4120 
Q 850 3888 850 3481 
Q 850 3069 1003 2837 
Q 1156 2606 1428 2606 
Q 1700 2606 1854 2837 
Q 2009 3069 2009 3481 
Q 2009 3884 1853 4118 
Q 1697 4353 1428 4353 
z
M 4250 4750 
L 4750 4750 
L 1831 -91 
L 1331 -91 
L 4250 4750 
z
M 1428 4750 
Q 1922 4750 2215 4408 
Q 2509 4066 2509 3481 
Q 2509 2891 2217 2550 
Q 1925 2209 1428 2209 
Q 931 2209 642 2551 
Q 353 2894 353 3481 
Q 353 4063 643 4406 
Q 934 4750 1428 4750 
z
" transform="scale(0.015625)"/>
       </defs>
       <use xlink:href="#DejaVuSans-30"/>
       <use xlink:href="#DejaVuSans-25" x="63.623047"/>
      </g>
     </g>
    </g>
    <g id="ytick_2">
     <g id="line2d_15">
      <path d="M 57.6 249.3824 
L 414.72 249.3824 
" clip-path="url(#pa86d00384c)" style="fill: none; stroke: #b0b0b0; stroke-width: 0.8; stroke-linecap: square"/>
     </g>
     <g id="line2d_16">
      <g>
       <use xlink:href="#mf963ac4bbf" x="57.6" y="249.3824" style="stroke: #000000; stroke-width: 0.8"/>
      </g>
     </g>
     <g id="text_8">
      <!-- 10% -->
      <g transform="translate(28.373438 253.181619) scale(0.1 -0.1)">
       <use xlink:href="#DejaVuSans-31"/>
       <use xlink:href="#DejaVuSans-30" x="63.623047"/>
       <use xlink:href="#DejaVuSans-25" x="127.246094"/>
      </g>
     </g>
    </g>
    <g id="ytick_3">
     <g id="line2d_17">
      <path d="M 57.6 222.2848 
L 414.72 222.2848 
" clip-path="url(#pa86d00384c)" style="fill: none; stroke: #b0b0b0; stroke-width: 0.8; stroke-linecap: square"/>
     </g>
     <g id="line2d_18">
      <g>
       <use xlink:href="#mf963ac4bbf" x="57.6" y="222.2848" style="stroke: #000000; stroke-width: 0.8"/>
      </g>
     </g>
     <g id="text_9">
      <!-- 20% -->
      <g transform="translate(28.373438 226.084019) scale(0.1 -0.1)">
       <use xlink:href="#DejaVuSans-32"/>
       <use xlink:href="#DejaVuSans-30" x="63.623047"/>
       <use xlink:href="#DejaVuSans-25" x="127.246094"/>
      </g>
     </g>
    </g>
    <g id="ytick_4">
     <g id="line2d_19">
      <path d="M 57.6 195.1872 
L 414.72 195.1872 
" clip-path="url(#pa86d00384c)" style="fill: none; stroke: #b0b0b0; stroke-width: 0.8; stroke-linecap: square"/>
     </g>
     <g id="line2d_20">
      <g>
       <use xlink:href="#mf963ac4bbf" x="57.6" y="195.1872" style="stroke: #000000; stroke-width: 0.8"/>
      </g>
     </g>
     <g id="text_10">
      <!-- 30% -->
      <g transform="translate(28.373438 198.986419) scale(0.1 -0.1)">
       <use xlink:href="#DejaVuSans-33"/>
       <use xlink:href="#DejaVuSans-30" x="63.623047"/>
       <use xlink:href="#DejaVuSans-25" x="127.246094"/>
      </g>
     </g>
    </g>
    <g id="ytick_5">
     <g id="line2d_21">
      <path d="M 57.6 168.0896 
L 414.72 168.0896 
" clip-path="url(#pa86d00384c)" style="fill: none; stroke: #b0b0b0; stroke-width: 0.8; stroke-linecap: square"/>
     </g>
     <g id="line2d_22">
      <g>
       <use xlink:href="#mf963ac4bbf" x="57.6" y="168.0896" style="stroke: #000000; stroke-width: 0.8"/>
      </g>
     </g>
     <g id="text_11">
      <!-- 40% -->
      <g transform="translate(28.373438 171.888819) scale(0.1 -0.1)">
       <use xlink:href="#DejaVuSans-34"/>
       <use xlink:href="#DejaVuSans-30" x="63.623047"/>
       <use xlink:href="#DejaVuSans-25" x="127.246094"/>
      </g>
     </g>
    </g>
    <g id="ytick_6">
     <g id="line2d_23">
      <path d="M 57.6 140.992 
L 414.72 140.992 
" clip-path="url(#pa86d00384c)" style="fill: none; stroke: #b0b0b0; stroke-width: 0.8; stroke-linecap: square"/>
     </g>
     <g id="line2d_24">
      <g>
       <use xlink:href="#mf963ac4bbf" x="57.6" y="140.992" style="stroke: #000000; stroke-width: 0.8"/>
      </g>
     </g>
     <g id="text_12">
      <!-- 50% -->
      <g transform="translate(28.373438 144.791219) scale(0.1 -0.1)">
       <use xlink:href="#DejaVuSans-35"/>
       <use xlink:href="#DejaVuSans-30" x="63.623047"/>
       <use xlink:href="#DejaVuSans-25" x="127.246094"/>
      </g>
     </g>
    </g>
    <g id="ytick_7">
     <g id="line2d_25">
      <path d="M 57.6 113.8944 
L 414.72 113.8944 
" clip-path="url(#pa86d00384c)" style="fill: none; stroke: #b0b0b0; stroke-width: 0.8; stroke-linecap: square"/>
     </g>
     <g id="line2d_26">
      <g>
       <use xlink:href="#mf963ac4bbf" x="57.6" y="113.8944" style="stroke: #000000; stroke-width: 0.8"/>
      </g>
     </g>
     <g id="text_13">
      <!-- 60% -->
      <g transform="translate(28.373438 117.693619) scale(0.1 -0.1)">
       <defs>
        <path id="DejaVuSans-36" d="M 2113 2584 
Q 1688 2584 1439 2293 
Q 1191 2003 1191 1497 
Q 1191 994 1439 701 
Q 1688 409 2113 409 
Q 2538 409 2786 701 
Q 3034 994 3034 1497 
Q 3034 2003 2786 2293 
Q 2538 2584 2113 2584 
z
M 3366 4563 
L 3366 3988 
Q 3128 4100 2886 4159 
Q 2644 4219 2406 4219 
Q 1781 4219 1451 3797 
Q 1122 3375 1075 2522 
Q 1259 2794 1537 2939 
Q 1816 3084 2150 3084 
Q 2853 3084 3261 2657 
Q 3669 2231 3669 1497 
Q 3669 778 3244 343 
Q 2819 -91 2113 -91 
Q 1303 -91 875 529 
Q 447 1150 447 2328 
Q 447 3434 972 4092 
Q 1497 4750 2381 4750 
Q 2619 4750 2861 4703 
Q 3103 4656 3366 4563 
z
" transform="scale(0.015625)"/>
       </defs>
       <use xlink:href="#DejaVuSans-36"/>
       <use xlink:href="#DejaVuSans-30" x="63.623047"/>
       <use xlink:href="#DejaVuSans-25" x="127.246094"/>
      </g>
     </g>
    </g>
    <g id="ytick_8">
     <g id="line2d_27">
      <path d="M 57.6 86.796801 
L 414.72 86.796801 
" clip-path="url(#pa86d00384c)" style="fill: none; stroke: #b0b0b0; stroke-width: 0.8; stroke-linecap: square"/>
     </g>
     <g id="line2d_28">
      <g>
       <use xlink:href="#mf963ac4bbf" x="57.6" y="86.796801" style="stroke: #000000; stroke-width: 0.8"/>
      </g>
     </g>
     <g id="text_14">
      <!-- 70% -->
      <g transform="translate(28.373438 90.596019) scale(0.1 -0.1)">
       <defs>
        <path id="DejaVuSans-37" d="M 525 4666 
L 3525 4666 
L 3525 4397 
L 1831 0 
L 1172 0 
L 2766 4134 
L 525 4134 
L 525 4666 
z
" transform="scale(0.015625)"/>
       </defs>
       <use xlink:href="#DejaVuSans-37"/>
       <use xlink:href="#DejaVuSans-30" x="63.623047"/>
       <use xlink:href="#DejaVuSans-25" x="127.246094"/>
      </g>
     </g>
    </g>
    <g id="ytick_9">
     <g id="line2d_29">
      <path d="M 57.6 59.699201 
L 414.72 59.699201 
" clip-path="url(#pa86d00384c)" style="fill: none; stroke: #b0b0b0; stroke-width: 0.8; stroke-linecap: square"/>
     </g>
     <g id="line2d_30">
      <g>
       <use xlink:href="#mf963ac4bbf" x="57.6" y="59.699201" style="stroke: #000000; stroke-width: 0.8"/>
      </g>
     </g>
     <g id="text_15">
      <!-- 80% -->
      <g transform="translate(28.373438 63.498419) scale(0.1 -0.1)">
       <defs>
        <path id="DejaVuSans-38" d="M 2034 2216 
Q 1584 2216 1326 1975 
Q 1069 1734 1069 1313 
Q 1069 891 1326 650 
Q 1584 409 2034 409 
Q 2484 409 2743 651 
Q 3003 894 3003 1313 
Q 3003 1734 2745 1975 
Q 2488 2216 2034 2216 
z
M 1403 2484 
Q 997 2584 770 2862 
Q 544 3141 544 3541 
Q 544 4100 942 4425 
Q 1341 4750 2034 4750 
Q 2731 4750 3128 4425 
Q 3525 4100 3525 3541 
Q 3525 3141 3298 2862 
Q 3072 2584 2669 2484 
Q 3125 2378 3379 2068 
Q 3634 1759 3634 1313 
Q 3634 634 3220 271 
Q 2806 -91 2034 -91 
Q 1263 -91 848 271 
Q 434 634 434 1313 
Q 434 1759 690 2068 
Q 947 2378 1403 2484 
z
M 1172 3481 
Q 1172 3119 1398 2916 
Q 1625 2713 2034 2713 
Q 2441 2713 2670 2916 
Q 2900 3119 2900 3481 
Q 2900 3844 2670 4047 
Q 2441 4250 2034 4250 
Q 1625 4250 1398 4047 
Q 1172 3844 1172 3481 
z
" transform="scale(0.015625)"/>
       </defs>
       <use xlink:href="#DejaVuSans-38"/>
       <use xlink:href="#DejaVuSans-30" x="63.623047"/>
       <use xlink:href="#DejaVuSans-25" x="127.246094"/>
      </g>
     </g>
    </g>
   </g>
   <g id="line2d_31">
    <path d="M 398.487273 51.46153 
L 398.479954 51.678311 
L 397.896708 52.437044 
L 397.892815 53.520948 
L 397.374076 53.520948 
L 397.329747 57.504295 
L 397.173625 57.070733 
L 397.066013 60.94569 
L 397.010159 60.94569 
L 396.92778 68.885287 
L 396.756672 68.885287 
L 396.84693 68.885287 
L 396.765727 86.146458 
L 396.653733 86.363239 
L 396.647107 90.861441 
L 396.49049 93.273127 
L 396.479385 94.113152 
L 393.298074 94.167348 
L 392.412975 94.790592 
L 392.340666 95.061568 
L 392.050936 94.655104 
L 392.047371 94.736397 
L 391.315942 95.413837 
L 391.130301 94.898983 
L 390.785319 94.898983 
L 390.087464 95.901594 
L 390.076073 102.025652 
L 389.846278 103.407629 
L 389.445652 102.892775 
L 389.289224 102.892775 
L 389.197098 105.412852 
L 388.814064 105.602535 
L 388.599064 105.873511 
L 388.283402 105.114778 
L 387.967601 110.615591 
L 387.868016 111.022055 
L 387.351979 111.997568 
L 387.249564 111.807885 
L 387.147508 115.384768 
L 386.962107 115.384768 
L 386.583476 115.764135 
L 386.323468 115.764135 
L 386.319589 119.368116 
L 386.104682 120.587508 
L 385.466402 114.327962 
L 384.293239 114.327962 
L 383.610057 114.653133 
L 383.305628 114.653133 
L 382.923408 114.897012 
L 382.782459 116.116404 
L 382.777065 118.663578 
L 382.496427 118.663578 
L 382.363102 119.259725 
L 382.054751 119.259725 
L 381.973191 122.430144 
L 381.650121 125.1941 
L 381.602103 131.29106 
L 381.464376 132.889818 
L 381.34204 138.336436 
L 381.26778 139.501632 
L 381.18236 106.33417 
L 381.115723 107.174196 
L 380.622128 107.092903 
L 380.592373 107.960026 
L 379.676532 107.960026 
L 379.512107 108.501978 
L 379.504669 110.859469 
L 379.223722 113.10857 
L 379.222231 115.14089 
L 377.392505 115.167988 
L 377.374023 115.466061 
L 376.616903 115.167988 
L 376.34936 115.222183 
L 376.126769 115.466061 
L 375.191179 115.303476 
L 373.632241 115.303476 
L 372.255276 113.406644 
L 372.188663 116.170599 
L 372.069573 116.414477 
L 371.624354 116.793844 
L 371.193679 116.793844 
L 371.137785 124.73344 
L 370.67547 124.73344 
L 370.462312 125.329588 
L 369.890649 127.118029 
L 367.258934 127.118029 
L 366.149109 127.416103 
L 365.480915 127.253517 
L 365.458546 128.337421 
L 364.91297 128.635495 
L 364.901791 129.014861 
L 364.656699 128.445812 
L 363.654521 128.445812 
L 363.480362 127.009639 
L 361.345652 127.009639 
L 361.24096 129.638106 
L 361.160357 127.470298 
L 360.92769 127.118029 
L 357.418516 127.090932 
L 356.72056 126.982541 
L 356.592339 128.879373 
L 352.136457 128.879373 
L 351.182459 129.448423 
L 350.785419 128.879373 
L 349.935202 129.177447 
L 349.298487 129.014861 
L 343.702966 128.987764 
L 342.451881 128.608397 
L 341.204644 128.5813 
L 341.0266 127.985152 
L 336.215847 127.985152 
L 335.922688 127.497396 
L 333.944123 127.497396 
L 333.899563 128.500007 
L 333.721356 129.041959 
L 332.474154 127.958055 
L 331.226997 127.958055 
L 329.979742 127.659981 
L 327.735469 127.659981 
L 327.485574 128.445812 
L 326.295516 128.445812 
L 326.29474 128.283226 
L 323.743776 128.283226 
L 323.435798 127.985152 
L 321.653912 127.985152 
L 321.249238 129.773594 
L 320.76303 128.283226 
L 320.595951 128.5813 
L 320.002075 128.987764 
L 319.686753 128.987764 
L 318.754982 129.854887 
L 318.450532 129.854887 
L 318.094255 131.805914 
L 317.912266 131.995597 
L 317.507637 132.64594 
L 317.214672 132.64594 
L 316.965672 133.160794 
L 316.138044 133.160794 
L 315.592299 135.978944 
L 315.369514 136.520896 
L 315.169205 138.011264 
L 315.013227 143.837248 
L 314.972744 138.011264 
L 314.359887 138.011264 
L 314.170594 148.687719 
L 313.765973 148.958695 
L 313.562061 148.687719 
L 311.704037 148.687719 
L 311.271515 149.229671 
L 310.024294 148.44384 
L 308.561995 146.276032 
L 308.502187 146.276032 
L 308.496295 146.438618 
L 306.282733 146.438618 
L 305.035438 146.167642 
L 302.136699 146.167642 
L 302.132797 146.519911 
L 301.000639 146.519911 
L 300.76976 147.603815 
L 298.947577 147.603815 
L 298.75339 148.091572 
L 298.799089 148.091572 
L 298.664807 141.967514 
L 298.216463 141.967514 
L 297.529528 142.563661 
L 297.282665 143.051418 
L 296.995082 142.943028 
L 296.623823 142.943028 
L 296.620216 143.864346 
L 296.304697 144.27081 
L 295.633335 144.27081 
L 295.239405 143.945639 
L 293.810177 144.352103 
L 291.721727 144.352103 
L 292.299575 144.352103 
L 290.819062 144.704372 
L 289.055274 144.731469 
L 288.821448 144.94825 
L 287.299216 144.94825 
L 286.571942 145.192128 
L 286.538594 145.923764 
L 286.536746 145.463104 
L 283.98099 145.463104 
L 283.836358 145.679885 
L 283.528138 145.571495 
L 282.832548 146.140544 
L 282.831397 126.386394 
L 273.559303 126.386394 
L 280.89215 126.386394 
L 280.8685 129.096154 
L 272.609039 129.014861 
L 272.24649 134.732455 
L 272.126817 136.114432 
L 271.971984 136.114432 
L 271.911475 139.935194 
L 270.913381 139.908096 
L 270.751646 140.395853 
L 269.715738 140.395853 
L 269.564833 140.612634 
L 269.507844 147.224448 
L 268.561264 147.224448 
L 268.479888 148.633524 
L 268.228983 148.633524 
L 268.172898 149.79872 
L 265.709882 149.79872 
L 265.105494 150.286477 
L 264.389086 150.286477 
L 264.248882 150.421965 
L 264.159958 152.50848 
L 263.913798 152.50848 
L 263.803933 153.131725 
L 263.491246 153.131725 
L 263.42374 154.351117 
L 263.338848 154.351117 
L 263.171977 155.949876 
L 262.848696 157.060877 
L 262.681613 154.567898 
L 262.676711 155.462119 
L 262.633238 155.462119 
L 262.629755 152.914944 
L 261.627896 151.343284 
L 261.25315 151.803943 
L 259.861507 151.803943 
L 259.855735 152.047821 
L 251.421905 152.2917 
L 251.03147 152.535578 
L 249.319849 153.267213 
L 247.708748 153.511092 
L 245.94204 153.971751 
L 245.826516 155.976973 
L 238.273098 155.976973 
L 238.246992 156.329242 
L 237.449538 156.329242 
L 237.026164 154.486605 
L 235.721026 154.486605 
L 234.977498 154.703386 
L 234.822662 154.947264 
L 234.71739 154.947264 
L 234.709524 155.191143 
L 231.851679 155.191143 
L 231.339137 155.6789 
L 223.941546 156.871194 
L 218.480821 157.358951 
L 216.242622 158.307367 
L 213.989199 158.551245 
L 213.514678 159.039002 
L 213.50653 159.526759 
L 211.970371 159.526759 
L 208.318089 159.770637 
L 205.036423 159.770637 
L 203.970593 160.393882 
L 197.817146 160.393882 
L 197.812618 160.63776 
L 195.896137 160.63776 
L 195.676113 161.830055 
L 194.950718 161.830055 
L 193.191275 162.073933 
L 193.11697 162.4533 
L 191.224044 164.160448 
L 191.209177 166.409549 
L 190.15524 167.656039 
L 188.546875 167.899917 
L 183.338422 167.818624 
L 182.805997 167.710234 
L 182.238657 167.710234 
L 182.074442 167.927015 
L 181.885215 171.205824 
L 181.435523 171.124531 
L 181.374437 172.235533 
L 180.540725 172.235533 
L 180.48518 178.332493 
L 179.667357 178.332493 
L 179.769904 178.332493 
L 179.59509 177.871834 
L 178.755763 177.871834 
L 178.751527 178.467981 
L 178.522265 178.657664 
L 177.631649 177.817639 
L 176.450861 177.817639 
L 176.448469 178.224103 
L 176.446819 174.701415 
L 176.446106 174.701415 
L 174.555633 174.701415 
L 172.595799 174.430439 
L 169.256739 174.430439 
L 168.674132 174.836903 
L 168.139308 174.836903 
L 167.888562 174.674317 
L 167.870108 177.411175 
L 167.713317 177.817639 
L 167.605042 178.224103 
L 167.362581 178.224103 
L 166.713644 179.253811 
L 166.451465 179.253811 
L 166.357528 179.470592 
L 164.278216 179.416397 
L 164.041621 180.446106 
L 163.78295 180.446106 
L 163.68463 180.662887 
L 161.311035 180.662887 
L 160.474474 181.909376 
L 158.974564 181.909376 
L 158.870739 182.31584 
L 157.569035 181.990669 
L 155.664443 185.106893 
L 151.739684 185.106893 
L 151.561591 184.91721 
L 140.925515 184.91721 
L 140.868745 185.946919 
L 137.769312 185.974016 
L 135.657098 186.190797 
L 135.453011 187.003725 
L 135.29356 188.466995 
L 134.889692 190.119949 
L 134.765455 190.716096 
L 134.654589 198.818279 
L 134.569571 198.818279 
L 134.493052 208.139853 
L 133.76274 208.329536 
L 132.768549 208.329536 
L 132.58273 213.938739 
L 132.580578 213.938739 
L 132.31534 214.15552 
L 131.211576 214.15552 
L 131.202228 214.561984 
L 131.064709 214.561984 
L 130.887841 214.372301 
L 128.670609 214.372301 
L 128.66268 215.320717 
L 121.413314 215.320717 
L 120.84408 215.483303 
L 120.608899 215.672986 
L 120.606287 216.783987 
L 119.964435 216.783987 
L 119.606038 216.973671 
L 116.947275 216.973671 
L 119.094257 216.919475 
L 118.737861 218.22016 
L 117.650955 218.762112 
L 117.134118 218.762112 
L 116.778412 219.520845 
L 112.14522 219.520845 
L 111.967659 219.900211 
L 108.403234 219.873114 
L 108.225632 220.442163 
L 107.690466 220.442163 
L 107.512282 220.604749 
L 107.450379 221.580263 
L 106.977919 221.580263 
L 106.800296 222.068019 
L 104.661541 222.068019 
L 104.483434 221.173799 
L 104.127029 221.173799 
L 103.949736 221.959629 
L 101.989128 221.959629 
L 101.811031 222.366093 
L 98.959898 222.366093 
L 98.781949 223.179021 
L 98.603702 223.368704 
L 96.643422 223.368704 
L 96.465945 224.181632 
L 96.287155 224.181632 
L 96.10951 224.588096 
L 90.407654 224.588096 
L 90.229992 224.804877 
L 86.665841 224.804877 
L 86.48846 225.915879 
L 85.418691 225.915879 
L 85.063235 230.901837 
L 83.993146 230.901837 
L 83.814981 231.09152 
L 82.56777 231.09152 
L 82.389595 231.470887 
L 82.047244 231.470887 
L 81.99745 234.614208 
L 81.778462 248.488179 
L 81.739447 248.461082 
L 80.964229 248.461082 
L 79.896005 248.650765 
L 79.509094 248.840448 
L 79.432799 249.030131 
L 79.004653 249.030131 
L 79.00457 249.219814 
L 78.292004 249.219814 
L 78.291936 249.409498 
L 78.113775 249.409498 
L 78.113696 249.599181 
L 77.738076 249.599181 
L 77.73404 250.899866 
L 77.422072 250.899866 
L 77.401007 251.089549 
L 77.302083 251.089549 
L 77.231589 251.252134 
L 73.832727 251.252134 
L 73.832727 251.252134 
" clip-path="url(#pa86d00384c)" style="fill: none; stroke: #1f77b4; stroke-width: 1.5; stroke-linecap: square"/>
   </g>
   <g id="patch_3">
    <path d="M 57.6 276.48 
L 57.6 41.472 
" style="fill: none; stroke: #000000; stroke-width: 0.8; stroke-linejoin: miter; stroke-linecap: square"/>
   </g>
   <g id="patch_4">
    <path d="M 414.72 276.48 
L 414.72 41.472 
" style="fill: none; stroke: #000000; stroke-width: 0.8; stroke-linejoin: miter; stroke-linecap: square"/>
   </g>
   <g id="patch_5">
    <path d="M 57.6 276.48 
L 414.72 276.48 
" style="fill: none; stroke: #000000; stroke-width: 0.8; stroke-linejoin: miter; stroke-linecap: square"/>
   </g>
   <g id="patch_6">
    <path d="M 57.6 41.472 
L 414.72 41.472 
" style="fill: none; stroke: #000000; stroke-width: 0.8; stroke-linejoin: miter; stroke-linecap: square"/>
   </g>
   <g id="text_16">
    <!-- Postęp tłumaczenia do dodania do przełącznika języków -->
    <g transform="translate(67.57125 35.472) scale(0.12 -0.12)">
     <defs>
      <path id="DejaVuSans-50" d="M 1259 4147 
L 1259 2394 
L 2053 2394 
Q 2494 2394 2734 2622 
Q 2975 2850 2975 3272 
Q 2975 3691 2734 3919 
Q 2494 4147 2053 4147 
L 1259 4147 
z
M 628 4666 
L 2053 4666 
Q 2838 4666 3239 4311 
Q 3641 3956 3641 3272 
Q 3641 2581 3239 2228 
Q 2838 1875 2053 1875 
L 1259 1875 
L 1259 0 
L 628 0 
L 628 4666 
z
" transform="scale(0.015625)"/>
      <path id="DejaVuSans-6f" d="M 1959 3097 
Q 1497 3097 1228 2736 
Q 959 2375 959 1747 
Q 959 1119 1226 758 
Q 1494 397 1959 397 
Q 2419 397 2687 759 
Q 2956 1122 2956 1747 
Q 2956 2369 2687 2733 
Q 2419 3097 1959 3097 
z
M 1959 3584 
Q 2709 3584 3137 3096 
Q 3566 2609 3566 1747 
Q 3566 888 3137 398 
Q 2709 -91 1959 -91 
Q 1206 -91 779 398 
Q 353 888 353 1747 
Q 353 2609 779 3096 
Q 1206 3584 1959 3584 
z
" transform="scale(0.015625)"/>
      <path id="DejaVuSans-73" d="M 2834 3397 
L 2834 2853 
Q 2591 2978 2328 3040 
Q 2066 3103 1784 3103 
Q 1356 3103 1142 2972 
Q 928 2841 928 2578 
Q 928 2378 1081 2264 
Q 1234 2150 1697 2047 
L 1894 2003 
Q 2506 1872 2764 1633 
Q 3022 1394 3022 966 
Q 3022 478 2636 193 
Q 2250 -91 1575 -91 
Q 1294 -91 989 -36 
Q 684 19 347 128 
L 347 722 
Q 666 556 975 473 
Q 1284 391 1588 391 
Q 1994 391 2212 530 
Q 2431 669 2431 922 
Q 2431 1156 2273 1281 
Q 2116 1406 1581 1522 
L 1381 1569 
Q 847 1681 609 1914 
Q 372 2147 372 2553 
Q 372 3047 722 3315 
Q 1072 3584 1716 3584 
Q 2034 3584 2315 3537 
Q 2597 3491 2834 3397 
z
" transform="scale(0.015625)"/>
      <path id="DejaVuSans-74" d="M 1172 4494 
L 1172 3500 
L 2356 3500 
L 2356 3053 
L 1172 3053 
L 1172 1153 
Q 1172 725 1289 603 
Q 1406 481 1766 481 
L 2356 481 
L 2356 0 
L 1766 0 
Q 1100 0 847 248 
Q 594 497 594 1153 
L 594 3053 
L 172 3053 
L 172 3500 
L 594 3500 
L 594 4494 
L 1172 4494 
z
" transform="scale(0.015625)"/>
      <path id="DejaVuSans-119" d="M 3597 1894 
L 3597 1613 
L 953 1613 
Q 991 1019 1311 708 
Q 1631 397 2203 397 
Q 2534 397 2845 478 
Q 3156 559 3463 722 
L 3463 178 
Q 3153 47 2828 -22 
Q 2503 -91 2169 -91 
Q 1331 -91 842 396 
Q 353 884 353 1716 
Q 353 2575 817 3079 
Q 1281 3584 2069 3584 
Q 2775 3584 3186 3129 
Q 3597 2675 3597 1894 
z
M 3022 2063 
Q 3016 2534 2758 2815 
Q 2500 3097 2075 3097 
Q 1594 3097 1305 2825 
Q 1016 2553 972 2059 
L 3022 2063 
z
M 2551 0 
L 2923 0 
Q 2782 -191 2715 -328 
Q 2648 -466 2648 -563 
Q 2648 -706 2734 -778 
Q 2820 -850 2989 -850 
Q 3089 -850 3185 -826 
Q 3282 -803 3379 -756 
L 3379 -1172 
Q 3260 -1203 3154 -1218 
Q 3048 -1234 2954 -1234 
Q 2573 -1234 2393 -1098 
Q 2214 -963 2214 -672 
Q 2214 -522 2296 -358 
Q 2379 -194 2551 0 
z
" transform="scale(0.015625)"/>
      <path id="DejaVuSans-70" d="M 1159 525 
L 1159 -1331 
L 581 -1331 
L 581 3500 
L 1159 3500 
L 1159 2969 
Q 1341 3281 1617 3432 
Q 1894 3584 2278 3584 
Q 2916 3584 3314 3078 
Q 3713 2572 3713 1747 
Q 3713 922 3314 415 
Q 2916 -91 2278 -91 
Q 1894 -91 1617 61 
Q 1341 213 1159 525 
z
M 3116 1747 
Q 3116 2381 2855 2742 
Q 2594 3103 2138 3103 
Q 1681 3103 1420 2742 
Q 1159 2381 1159 1747 
Q 1159 1113 1420 752 
Q 1681 391 2138 391 
Q 2594 391 2855 752 
Q 3116 1113 3116 1747 
z
" transform="scale(0.015625)"/>
      <path id="DejaVuSans-20" transform="scale(0.015625)"/>
      <path id="DejaVuSans-142" d="M 622 4863 
L 1197 4863 
L 1197 2981 
L 1588 3263 
L 1825 2931 
L 1197 2491 
L 1197 0 
L 622 0 
L 622 2081 
L 238 1806 
L 6 2138 
L 622 2578 
L 622 4863 
z
" transform="scale(0.015625)"/>
      <path id="DejaVuSans-75" d="M 544 1381 
L 544 3500 
L 1119 3500 
L 1119 1403 
Q 1119 906 1312 657 
Q 1506 409 1894 409 
Q 2359 409 2629 706 
Q 2900 1003 2900 1516 
L 2900 3500 
L 3475 3500 
L 3475 0 
L 2900 0 
L 2900 538 
Q 2691 219 2414 64 
Q 2138 -91 1772 -91 
Q 1169 -91 856 284 
Q 544 659 544 1381 
z
M 1991 3584 
L 1991 3584 
z
" transform="scale(0.015625)"/>
      <path id="DejaVuSans-6d" d="M 3328 2828 
Q 3544 3216 3844 3400 
Q 4144 3584 4550 3584 
Q 5097 3584 5394 3201 
Q 5691 2819 5691 2113 
L 5691 0 
L 5113 0 
L 5113 2094 
Q 5113 2597 4934 2840 
Q 4756 3084 4391 3084 
Q 3944 3084 3684 2787 
Q 3425 2491 3425 1978 
L 3425 0 
L 2847 0 
L 2847 2094 
Q 2847 2600 2669 2842 
Q 2491 3084 2119 3084 
Q 1678 3084 1418 2786 
Q 1159 2488 1159 1978 
L 1159 0 
L 581 0 
L 581 3500 
L 1159 3500 
L 1159 2956 
Q 1356 3278 1631 3431 
Q 1906 3584 2284 3584 
Q 2666 3584 2933 3390 
Q 3200 3197 3328 2828 
z
" transform="scale(0.015625)"/>
      <path id="DejaVuSans-61" d="M 2194 1759 
Q 1497 1759 1228 1600 
Q 959 1441 959 1056 
Q 959 750 1161 570 
Q 1363 391 1709 391 
Q 2188 391 2477 730 
Q 2766 1069 2766 1631 
L 2766 1759 
L 2194 1759 
z
M 3341 1997 
L 3341 0 
L 2766 0 
L 2766 531 
Q 2569 213 2275 61 
Q 1981 -91 1556 -91 
Q 1019 -91 701 211 
Q 384 513 384 1019 
Q 384 1609 779 1909 
Q 1175 2209 1959 2209 
L 2766 2209 
L 2766 2266 
Q 2766 2663 2505 2880 
Q 2244 3097 1772 3097 
Q 1472 3097 1187 3025 
Q 903 2953 641 2809 
L 641 3341 
Q 956 3463 1253 3523 
Q 1550 3584 1831 3584 
Q 2591 3584 2966 3190 
Q 3341 2797 3341 1997 
z
" transform="scale(0.015625)"/>
      <path id="DejaVuSans-63" d="M 3122 3366 
L 3122 2828 
Q 2878 2963 2633 3030 
Q 2388 3097 2138 3097 
Q 1578 3097 1268 2742 
Q 959 2388 959 1747 
Q 959 1106 1268 751 
Q 1578 397 2138 397 
Q 2388 397 2633 464 
Q 2878 531 3122 666 
L 3122 134 
Q 2881 22 2623 -34 
Q 2366 -91 2075 -91 
Q 1284 -91 818 406 
Q 353 903 353 1747 
Q 353 2603 823 3093 
Q 1294 3584 2113 3584 
Q 2378 3584 2631 3529 
Q 2884 3475 3122 3366 
z
" transform="scale(0.015625)"/>
      <path id="DejaVuSans-7a" d="M 353 3500 
L 3084 3500 
L 3084 2975 
L 922 459 
L 3084 459 
L 3084 0 
L 275 0 
L 275 525 
L 2438 3041 
L 353 3041 
L 353 3500 
z
" transform="scale(0.015625)"/>
      <path id="DejaVuSans-65" d="M 3597 1894 
L 3597 1613 
L 953 1613 
Q 991 1019 1311 708 
Q 1631 397 2203 397 
Q 2534 397 2845 478 
Q 3156 559 3463 722 
L 3463 178 
Q 3153 47 2828 -22 
Q 2503 -91 2169 -91 
Q 1331 -91 842 396 
Q 353 884 353 1716 
Q 353 2575 817 3079 
Q 1281 3584 2069 3584 
Q 2775 3584 3186 3129 
Q 3597 2675 3597 1894 
z
M 3022 2063 
Q 3016 2534 2758 2815 
Q 2500 3097 2075 3097 
Q 1594 3097 1305 2825 
Q 1016 2553 972 2059 
L 3022 2063 
z
" transform="scale(0.015625)"/>
      <path id="DejaVuSans-6e" d="M 3513 2113 
L 3513 0 
L 2938 0 
L 2938 2094 
Q 2938 2591 2744 2837 
Q 2550 3084 2163 3084 
Q 1697 3084 1428 2787 
Q 1159 2491 1159 1978 
L 1159 0 
L 581 0 
L 581 3500 
L 1159 3500 
L 1159 2956 
Q 1366 3272 1645 3428 
Q 1925 3584 2291 3584 
Q 2894 3584 3203 3211 
Q 3513 2838 3513 2113 
z
" transform="scale(0.015625)"/>
      <path id="DejaVuSans-69" d="M 603 3500 
L 1178 3500 
L 1178 0 
L 603 0 
L 603 3500 
z
M 603 4863 
L 1178 4863 
L 1178 4134 
L 603 4134 
L 603 4863 
z
" transform="scale(0.015625)"/>
      <path id="DejaVuSans-64" d="M 2906 2969 
L 2906 4863 
L 3481 4863 
L 3481 0 
L 2906 0 
L 2906 525 
Q 2725 213 2448 61 
Q 2172 -91 1784 -91 
Q 1150 -91 751 415 
Q 353 922 353 1747 
Q 353 2572 751 3078 
Q 1150 3584 1784 3584 
Q 2172 3584 2448 3432 
Q 2725 3281 2906 2969 
z
M 947 1747 
Q 947 1113 1208 752 
Q 1469 391 1925 391 
Q 2381 391 2643 752 
Q 2906 1113 2906 1747 
Q 2906 2381 2643 2742 
Q 2381 3103 1925 3103 
Q 1469 3103 1208 2742 
Q 947 2381 947 1747 
z
" transform="scale(0.015625)"/>
      <path id="DejaVuSans-72" d="M 2631 2963 
Q 2534 3019 2420 3045 
Q 2306 3072 2169 3072 
Q 1681 3072 1420 2755 
Q 1159 2438 1159 1844 
L 1159 0 
L 581 0 
L 581 3500 
L 1159 3500 
L 1159 2956 
Q 1341 3275 1631 3429 
Q 1922 3584 2338 3584 
Q 2397 3584 2469 3576 
Q 2541 3569 2628 3553 
L 2631 2963 
z
" transform="scale(0.015625)"/>
      <path id="DejaVuSans-105" d="M 2194 1759 
Q 1497 1759 1228 1600 
Q 959 1441 959 1056 
Q 959 750 1161 570 
Q 1363 391 1709 391 
Q 2188 391 2477 730 
Q 2766 1069 2766 1631 
L 2766 1759 
L 2194 1759 
z
M 3341 1997 
L 3341 0 
L 2766 0 
L 2766 531 
Q 2569 213 2275 61 
Q 1981 -91 1556 -91 
Q 1019 -91 701 211 
Q 384 513 384 1019 
Q 384 1609 779 1909 
Q 1175 2209 1959 2209 
L 2766 2209 
L 2766 2266 
Q 2766 2663 2505 2880 
Q 2244 3097 1772 3097 
Q 1472 3097 1187 3025 
Q 903 2953 641 2809 
L 641 3341 
Q 956 3463 1253 3523 
Q 1550 3584 1831 3584 
Q 2591 3584 2966 3190 
Q 3341 2797 3341 1997 
z
M 2775 0 
L 3147 0 
Q 3006 -191 2939 -328 
Q 2872 -466 2872 -563 
Q 2872 -706 2958 -778 
Q 3044 -850 3213 -850 
Q 3313 -850 3409 -826 
Q 3506 -803 3603 -756 
L 3603 -1172 
Q 3484 -1203 3378 -1218 
Q 3272 -1234 3178 -1234 
Q 2797 -1234 2617 -1098 
Q 2438 -963 2438 -672 
Q 2438 -522 2520 -358 
Q 2603 -194 2775 0 
z
" transform="scale(0.015625)"/>
      <path id="DejaVuSans-6b" d="M 581 4863 
L 1159 4863 
L 1159 1991 
L 2875 3500 
L 3609 3500 
L 1753 1863 
L 3688 0 
L 2938 0 
L 1159 1709 
L 1159 0 
L 581 0 
L 581 4863 
z
" transform="scale(0.015625)"/>
      <path id="DejaVuSans-6a" d="M 603 3500 
L 1178 3500 
L 1178 -63 
Q 1178 -731 923 -1031 
Q 669 -1331 103 -1331 
L -116 -1331 
L -116 -844 
L 38 -844 
Q 366 -844 484 -692 
Q 603 -541 603 -63 
L 603 3500 
z
M 603 4863 
L 1178 4863 
L 1178 4134 
L 603 4134 
L 603 4863 
z
" transform="scale(0.015625)"/>
      <path id="DejaVuSans-79" d="M 2059 -325 
Q 1816 -950 1584 -1140 
Q 1353 -1331 966 -1331 
L 506 -1331 
L 506 -850 
L 844 -850 
Q 1081 -850 1212 -737 
Q 1344 -625 1503 -206 
L 1606 56 
L 191 3500 
L 800 3500 
L 1894 763 
L 2988 3500 
L 3597 3500 
L 2059 -325 
z
" transform="scale(0.015625)"/>
      <path id="DejaVuSans-f3" d="M 1959 3097 
Q 1497 3097 1228 2736 
Q 959 2375 959 1747 
Q 959 1119 1226 758 
Q 1494 397 1959 397 
Q 2419 397 2687 759 
Q 2956 1122 2956 1747 
Q 2956 2369 2687 2733 
Q 2419 3097 1959 3097 
z
M 1959 3584 
Q 2709 3584 3137 3096 
Q 3566 2609 3566 1747 
Q 3566 888 3137 398 
Q 2709 -91 1959 -91 
Q 1206 -91 779 398 
Q 353 888 353 1747 
Q 353 2609 779 3096 
Q 1206 3584 1959 3584 
z
M 2394 5119 
L 3016 5119 
L 1998 3944 
L 1519 3944 
L 2394 5119 
z
" transform="scale(0.015625)"/>
      <path id="DejaVuSans-77" d="M 269 3500 
L 844 3500 
L 1563 769 
L 2278 3500 
L 2956 3500 
L 3675 769 
L 4391 3500 
L 4966 3500 
L 4050 0 
L 3372 0 
L 2619 2869 
L 1863 0 
L 1184 0 
L 269 3500 
z
" transform="scale(0.015625)"/>
     </defs>
     <use xlink:href="#DejaVuSans-50"/>
     <use xlink:href="#DejaVuSans-6f" x="56.677734"/>
     <use xlink:href="#DejaVuSans-73" x="117.859375"/>
     <use xlink:href="#DejaVuSans-74" x="169.958984"/>
     <use xlink:href="#DejaVuSans-119" x="209.167969"/>
     <use xlink:href="#DejaVuSans-70" x="270.691406"/>
     <use xlink:href="#DejaVuSans-20" x="334.167969"/>
     <use xlink:href="#DejaVuSans-74" x="365.955078"/>
     <use xlink:href="#DejaVuSans-142" x="405.164062"/>
     <use xlink:href="#DejaVuSans-75" x="433.582031"/>
     <use xlink:href="#DejaVuSans-6d" x="496.960938"/>
     <use xlink:href="#DejaVuSans-61" x="594.373047"/>
     <use xlink:href="#DejaVuSans-63" x="655.652344"/>
     <use xlink:href="#DejaVuSans-7a" x="710.632812"/>
     <use xlink:href="#DejaVuSans-65" x="763.123047"/>
     <use xlink:href="#DejaVuSans-6e" x="824.646484"/>
     <use xlink:href="#DejaVuSans-69" x="888.025391"/>
     <use xlink:href="#DejaVuSans-61" x="915.808594"/>
     <use xlink:href="#DejaVuSans-20" x="977.087891"/>
     <use xlink:href="#DejaVuSans-64" x="1008.875"/>
     <use xlink:href="#DejaVuSans-6f" x="1072.351562"/>
     <use xlink:href="#DejaVuSans-20" x="1133.533203"/>
     <use xlink:href="#DejaVuSans-64" x="1165.320312"/>
     <use xlink:href="#DejaVuSans-6f" x="1228.796875"/>
     <use xlink:href="#DejaVuSans-64" x="1289.978516"/>
     <use xlink:href="#DejaVuSans-61" x="1353.455078"/>
     <use xlink:href="#DejaVuSans-6e" x="1414.734375"/>
     <use xlink:href="#DejaVuSans-69" x="1478.113281"/>
     <use xlink:href="#DejaVuSans-61" x="1505.896484"/>
     <use xlink:href="#DejaVuSans-20" x="1567.175781"/>
     <use xlink:href="#DejaVuSans-64" x="1598.962891"/>
     <use xlink:href="#DejaVuSans-6f" x="1662.439453"/>
     <use xlink:href="#DejaVuSans-20" x="1723.621094"/>
     <use xlink:href="#DejaVuSans-70" x="1755.408203"/>
     <use xlink:href="#DejaVuSans-72" x="1818.884766"/>
     <use xlink:href="#DejaVuSans-7a" x="1859.998047"/>
     <use xlink:href="#DejaVuSans-65" x="1912.488281"/>
     <use xlink:href="#DejaVuSans-142" x="1974.011719"/>
     <use xlink:href="#DejaVuSans-105" x="2002.429688"/>
     <use xlink:href="#DejaVuSans-63" x="2063.708984"/>
     <use xlink:href="#DejaVuSans-7a" x="2118.689453"/>
     <use xlink:href="#DejaVuSans-6e" x="2171.179688"/>
     <use xlink:href="#DejaVuSans-69" x="2234.558594"/>
     <use xlink:href="#DejaVuSans-6b" x="2262.341797"/>
     <use xlink:href="#DejaVuSans-61" x="2318.501953"/>
     <use xlink:href="#DejaVuSans-20" x="2379.78125"/>
     <use xlink:href="#DejaVuSans-6a" x="2411.568359"/>
     <use xlink:href="#DejaVuSans-119" x="2439.351562"/>
     <use xlink:href="#DejaVuSans-7a" x="2500.875"/>
     <use xlink:href="#DejaVuSans-79" x="2553.365234"/>
     <use xlink:href="#DejaVuSans-6b" x="2612.544922"/>
     <use xlink:href="#DejaVuSans-f3" x="2666.830078"/>
     <use xlink:href="#DejaVuSans-77" x="2728.011719"/>
    </g>
   </g>
  </g>
 </g>
 <defs>
  <clipPath id="pa86d00384c">
   <rect x="57.6" y="41.472" width="357.12" height="235.008"/>
  </clipPath>
 </defs>
</svg>
