<?xml version="1.0" encoding="utf-8" standalone="no"?>
<!DOCTYPE svg PUBLIC "-//W3C//DTD SVG 1.1//EN"
  "http://www.w3.org/Graphics/SVG/1.1/DTD/svg11.dtd">
<svg xmlns:xlink="http://www.w3.org/1999/xlink" width="460.8pt" height="345.6pt" viewBox="0 0 460.8 345.6" xmlns="http://www.w3.org/2000/svg" version="1.1">
 <metadata>
  <rdf:RDF xmlns:dc="http://purl.org/dc/elements/1.1/" xmlns:cc="http://creativecommons.org/ns#" xmlns:rdf="http://www.w3.org/1999/02/22-rdf-syntax-ns#">
   <cc:Work>
    <dc:type rdf:resource="http://purl.org/dc/dcmitype/StillImage"/>
    <dc:date>2024-12-27T11:09:29.791637</dc:date>
    <dc:format>image/svg+xml</dc:format>
    <dc:creator>
     <cc:Agent>
      <dc:title>Matplotlib v3.10.0, https://matplotlib.org/</dc:title>
     </cc:Agent>
    </dc:creator>
   </cc:Work>
  </rdf:RDF>
 </metadata>
 <defs>
  <style type="text/css">*{stroke-linejoin: round; stroke-linecap: butt}</style>
 </defs>
 <g id="figure_1">
  <g id="patch_1">
   <path d="M 0 345.6 
L 460.8 345.6 
L 460.8 0 
L 0 0 
z
" style="fill: #ffffff"/>
  </g>
  <g id="axes_1">
   <g id="patch_2">
    <path d="M 57.6 276.48 
L 414.72 276.48 
L 414.72 41.472 
L 57.6 41.472 
z
" style="fill: #ffffff"/>
   </g>
   <g id="matplotlib.axis_1">
    <g id="xtick_1">
     <g id="line2d_1">
      <path d="M 77.534022 276.48 
L 77.534022 41.472 
" clip-path="url(#p7ca4c4fb11)" style="fill: none; stroke: #b0b0b0; stroke-width: 0.8; stroke-linecap: square"/>
     </g>
     <g id="line2d_2">
      <defs>
       <path id="mcf7e94b249" d="M 0 0 
L 0 3.5 
" style="stroke: #000000; stroke-width: 0.8"/>
      </defs>
      <g>
       <use xlink:href="#mcf7e94b249" x="77.534022" y="276.48" style="stroke: #000000; stroke-width: 0.8"/>
      </g>
     </g>
     <g id="text_1">
      <!-- 2020 -->
      <g transform="translate(54.453831 302.78544) rotate(-30) scale(0.1 -0.1)">
       <defs>
        <path id="DejaVuSans-32" d="M 1228 531 
L 3431 531 
L 3431 0 
L 469 0 
L 469 531 
Q 828 903 1448 1529 
Q 2069 2156 2228 2338 
Q 2531 2678 2651 2914 
Q 2772 3150 2772 3378 
Q 2772 3750 2511 3984 
Q 2250 4219 1831 4219 
Q 1534 4219 1204 4116 
Q 875 4013 500 3803 
L 500 4441 
Q 881 4594 1212 4672 
Q 1544 4750 1819 4750 
Q 2544 4750 2975 4387 
Q 3406 4025 3406 3419 
Q 3406 3131 3298 2873 
Q 3191 2616 2906 2266 
Q 2828 2175 2409 1742 
Q 1991 1309 1228 531 
z
" transform="scale(0.015625)"/>
        <path id="DejaVuSans-30" d="M 2034 4250 
Q 1547 4250 1301 3770 
Q 1056 3291 1056 2328 
Q 1056 1369 1301 889 
Q 1547 409 2034 409 
Q 2525 409 2770 889 
Q 3016 1369 3016 2328 
Q 3016 3291 2770 3770 
Q 2525 4250 2034 4250 
z
M 2034 4750 
Q 2819 4750 3233 4129 
Q 3647 3509 3647 2328 
Q 3647 1150 3233 529 
Q 2819 -91 2034 -91 
Q 1250 -91 836 529 
Q 422 1150 422 2328 
Q 422 3509 836 4129 
Q 1250 4750 2034 4750 
z
" transform="scale(0.015625)"/>
       </defs>
       <use xlink:href="#DejaVuSans-32"/>
       <use xlink:href="#DejaVuSans-30" transform="translate(63.623047 0)"/>
       <use xlink:href="#DejaVuSans-32" transform="translate(127.246094 0)"/>
       <use xlink:href="#DejaVuSans-30" transform="translate(190.869141 0)"/>
      </g>
     </g>
    </g>
    <g id="xtick_2">
     <g id="line2d_3">
      <path d="M 141.990076 276.48 
L 141.990076 41.472 
" clip-path="url(#p7ca4c4fb11)" style="fill: none; stroke: #b0b0b0; stroke-width: 0.8; stroke-linecap: square"/>
     </g>
     <g id="line2d_4">
      <g>
       <use xlink:href="#mcf7e94b249" x="141.990076" y="276.48" style="stroke: #000000; stroke-width: 0.8"/>
      </g>
     </g>
     <g id="text_2">
      <!-- 2021 -->
      <g transform="translate(118.909886 302.78544) rotate(-30) scale(0.1 -0.1)">
       <defs>
        <path id="DejaVuSans-31" d="M 794 531 
L 1825 531 
L 1825 4091 
L 703 3866 
L 703 4441 
L 1819 4666 
L 2450 4666 
L 2450 531 
L 3481 531 
L 3481 0 
L 794 0 
L 794 531 
z
" transform="scale(0.015625)"/>
       </defs>
       <use xlink:href="#DejaVuSans-32"/>
       <use xlink:href="#DejaVuSans-30" transform="translate(63.623047 0)"/>
       <use xlink:href="#DejaVuSans-32" transform="translate(127.246094 0)"/>
       <use xlink:href="#DejaVuSans-31" transform="translate(190.869141 0)"/>
      </g>
     </g>
    </g>
    <g id="xtick_3">
     <g id="line2d_5">
      <path d="M 206.27002 276.48 
L 206.27002 41.472 
" clip-path="url(#p7ca4c4fb11)" style="fill: none; stroke: #b0b0b0; stroke-width: 0.8; stroke-linecap: square"/>
     </g>
     <g id="line2d_6">
      <g>
       <use xlink:href="#mcf7e94b249" x="206.27002" y="276.48" style="stroke: #000000; stroke-width: 0.8"/>
      </g>
     </g>
     <g id="text_3">
      <!-- 2022 -->
      <g transform="translate(183.18983 302.78544) rotate(-30) scale(0.1 -0.1)">
       <use xlink:href="#DejaVuSans-32"/>
       <use xlink:href="#DejaVuSans-30" transform="translate(63.623047 0)"/>
       <use xlink:href="#DejaVuSans-32" transform="translate(127.246094 0)"/>
       <use xlink:href="#DejaVuSans-32" transform="translate(190.869141 0)"/>
      </g>
     </g>
    </g>
    <g id="xtick_4">
     <g id="line2d_7">
      <path d="M 270.549965 276.48 
L 270.549965 41.472 
" clip-path="url(#p7ca4c4fb11)" style="fill: none; stroke: #b0b0b0; stroke-width: 0.8; stroke-linecap: square"/>
     </g>
     <g id="line2d_8">
      <g>
       <use xlink:href="#mcf7e94b249" x="270.549965" y="276.48" style="stroke: #000000; stroke-width: 0.8"/>
      </g>
     </g>
     <g id="text_4">
      <!-- 2023 -->
      <g transform="translate(247.469775 302.78544) rotate(-30) scale(0.1 -0.1)">
       <defs>
        <path id="DejaVuSans-33" d="M 2597 2516 
Q 3050 2419 3304 2112 
Q 3559 1806 3559 1356 
Q 3559 666 3084 287 
Q 2609 -91 1734 -91 
Q 1441 -91 1130 -33 
Q 819 25 488 141 
L 488 750 
Q 750 597 1062 519 
Q 1375 441 1716 441 
Q 2309 441 2620 675 
Q 2931 909 2931 1356 
Q 2931 1769 2642 2001 
Q 2353 2234 1838 2234 
L 1294 2234 
L 1294 2753 
L 1863 2753 
Q 2328 2753 2575 2939 
Q 2822 3125 2822 3475 
Q 2822 3834 2567 4026 
Q 2313 4219 1838 4219 
Q 1578 4219 1281 4162 
Q 984 4106 628 3988 
L 628 4550 
Q 988 4650 1302 4700 
Q 1616 4750 1894 4750 
Q 2613 4750 3031 4423 
Q 3450 4097 3450 3541 
Q 3450 3153 3228 2886 
Q 3006 2619 2597 2516 
z
" transform="scale(0.015625)"/>
       </defs>
       <use xlink:href="#DejaVuSans-32"/>
       <use xlink:href="#DejaVuSans-30" transform="translate(63.623047 0)"/>
       <use xlink:href="#DejaVuSans-32" transform="translate(127.246094 0)"/>
       <use xlink:href="#DejaVuSans-33" transform="translate(190.869141 0)"/>
      </g>
     </g>
    </g>
    <g id="xtick_5">
     <g id="line2d_9">
      <path d="M 334.82991 276.48 
L 334.82991 41.472 
" clip-path="url(#p7ca4c4fb11)" style="fill: none; stroke: #b0b0b0; stroke-width: 0.8; stroke-linecap: square"/>
     </g>
     <g id="line2d_10">
      <g>
       <use xlink:href="#mcf7e94b249" x="334.82991" y="276.48" style="stroke: #000000; stroke-width: 0.8"/>
      </g>
     </g>
     <g id="text_5">
      <!-- 2024 -->
      <g transform="translate(311.749719 302.78544) rotate(-30) scale(0.1 -0.1)">
       <defs>
        <path id="DejaVuSans-34" d="M 2419 4116 
L 825 1625 
L 2419 1625 
L 2419 4116 
z
M 2253 4666 
L 3047 4666 
L 3047 1625 
L 3713 1625 
L 3713 1100 
L 3047 1100 
L 3047 0 
L 2419 0 
L 2419 1100 
L 313 1100 
L 313 1709 
L 2253 4666 
z
" transform="scale(0.015625)"/>
       </defs>
       <use xlink:href="#DejaVuSans-32"/>
       <use xlink:href="#DejaVuSans-30" transform="translate(63.623047 0)"/>
       <use xlink:href="#DejaVuSans-32" transform="translate(127.246094 0)"/>
       <use xlink:href="#DejaVuSans-34" transform="translate(190.869141 0)"/>
      </g>
     </g>
    </g>
    <g id="xtick_6">
     <g id="line2d_11">
      <path d="M 399.285964 276.48 
L 399.285964 41.472 
" clip-path="url(#p7ca4c4fb11)" style="fill: none; stroke: #b0b0b0; stroke-width: 0.8; stroke-linecap: square"/>
     </g>
     <g id="line2d_12">
      <g>
       <use xlink:href="#mcf7e94b249" x="399.285964" y="276.48" style="stroke: #000000; stroke-width: 0.8"/>
      </g>
     </g>
     <g id="text_6">
      <!-- 2025 -->
      <g transform="translate(376.205773 302.78544) rotate(-30) scale(0.1 -0.1)">
       <defs>
        <path id="DejaVuSans-35" d="M 691 4666 
L 3169 4666 
L 3169 4134 
L 1269 4134 
L 1269 2991 
Q 1406 3038 1543 3061 
Q 1681 3084 1819 3084 
Q 2600 3084 3056 2656 
Q 3513 2228 3513 1497 
Q 3513 744 3044 326 
Q 2575 -91 1722 -91 
Q 1428 -91 1123 -41 
Q 819 9 494 109 
L 494 744 
Q 775 591 1075 516 
Q 1375 441 1709 441 
Q 2250 441 2565 725 
Q 2881 1009 2881 1497 
Q 2881 1984 2565 2268 
Q 2250 2553 1709 2553 
Q 1456 2553 1204 2497 
Q 953 2441 691 2322 
L 691 4666 
z
" transform="scale(0.015625)"/>
       </defs>
       <use xlink:href="#DejaVuSans-32"/>
       <use xlink:href="#DejaVuSans-30" transform="translate(63.623047 0)"/>
       <use xlink:href="#DejaVuSans-32" transform="translate(127.246094 0)"/>
       <use xlink:href="#DejaVuSans-35" transform="translate(190.869141 0)"/>
      </g>
     </g>
    </g>
   </g>
   <g id="matplotlib.axis_2">
    <g id="ytick_1">
     <g id="line2d_13">
      <path d="M 57.6 276.48 
L 414.72 276.48 
" clip-path="url(#p7ca4c4fb11)" style="fill: none; stroke: #b0b0b0; stroke-width: 0.8; stroke-linecap: square"/>
     </g>
     <g id="line2d_14">
      <defs>
       <path id="m5b4cfb9faf" d="M 0 0 
L -3.5 0 
" style="stroke: #000000; stroke-width: 0.8"/>
      </defs>
      <g>
       <use xlink:href="#m5b4cfb9faf" x="57.6" y="276.48" style="stroke: #000000; stroke-width: 0.8"/>
      </g>
     </g>
     <g id="text_7">
      <!-- 0% -->
      <g transform="translate(34.735937 280.279219) scale(0.1 -0.1)">
       <defs>
        <path id="DejaVuSans-25" d="M 4653 2053 
Q 4381 2053 4226 1822 
Q 4072 1591 4072 1178 
Q 4072 772 4226 539 
Q 4381 306 4653 306 
Q 4919 306 5073 539 
Q 5228 772 5228 1178 
Q 5228 1588 5073 1820 
Q 4919 2053 4653 2053 
z
M 4653 2450 
Q 5147 2450 5437 2106 
Q 5728 1763 5728 1178 
Q 5728 594 5436 251 
Q 5144 -91 4653 -91 
Q 4153 -91 3862 251 
Q 3572 594 3572 1178 
Q 3572 1766 3864 2108 
Q 4156 2450 4653 2450 
z
M 1428 4353 
Q 1159 4353 1004 4120 
Q 850 3888 850 3481 
Q 850 3069 1003 2837 
Q 1156 2606 1428 2606 
Q 1700 2606 1854 2837 
Q 2009 3069 2009 3481 
Q 2009 3884 1853 4118 
Q 1697 4353 1428 4353 
z
M 4250 4750 
L 4750 4750 
L 1831 -91 
L 1331 -91 
L 4250 4750 
z
M 1428 4750 
Q 1922 4750 2215 4408 
Q 2509 4066 2509 3481 
Q 2509 2891 2217 2550 
Q 1925 2209 1428 2209 
Q 931 2209 642 2551 
Q 353 2894 353 3481 
Q 353 4063 643 4406 
Q 934 4750 1428 4750 
z
" transform="scale(0.015625)"/>
       </defs>
       <use xlink:href="#DejaVuSans-30"/>
       <use xlink:href="#DejaVuSans-25" transform="translate(63.623047 0)"/>
      </g>
     </g>
    </g>
    <g id="ytick_2">
     <g id="line2d_15">
      <path d="M 57.6 227.832912 
L 414.72 227.832912 
" clip-path="url(#p7ca4c4fb11)" style="fill: none; stroke: #b0b0b0; stroke-width: 0.8; stroke-linecap: square"/>
     </g>
     <g id="line2d_16">
      <g>
       <use xlink:href="#m5b4cfb9faf" x="57.6" y="227.832912" style="stroke: #000000; stroke-width: 0.8"/>
      </g>
     </g>
     <g id="text_8">
      <!-- 20% -->
      <g transform="translate(28.373438 231.632131) scale(0.1 -0.1)">
       <use xlink:href="#DejaVuSans-32"/>
       <use xlink:href="#DejaVuSans-30" transform="translate(63.623047 0)"/>
       <use xlink:href="#DejaVuSans-25" transform="translate(127.246094 0)"/>
      </g>
     </g>
    </g>
    <g id="ytick_3">
     <g id="line2d_17">
      <path d="M 57.6 179.185825 
L 414.72 179.185825 
" clip-path="url(#p7ca4c4fb11)" style="fill: none; stroke: #b0b0b0; stroke-width: 0.8; stroke-linecap: square"/>
     </g>
     <g id="line2d_18">
      <g>
       <use xlink:href="#m5b4cfb9faf" x="57.6" y="179.185825" style="stroke: #000000; stroke-width: 0.8"/>
      </g>
     </g>
     <g id="text_9">
      <!-- 40% -->
      <g transform="translate(28.373438 182.985043) scale(0.1 -0.1)">
       <use xlink:href="#DejaVuSans-34"/>
       <use xlink:href="#DejaVuSans-30" transform="translate(63.623047 0)"/>
       <use xlink:href="#DejaVuSans-25" transform="translate(127.246094 0)"/>
      </g>
     </g>
    </g>
    <g id="ytick_4">
     <g id="line2d_19">
      <path d="M 57.6 130.538737 
L 414.72 130.538737 
" clip-path="url(#p7ca4c4fb11)" style="fill: none; stroke: #b0b0b0; stroke-width: 0.8; stroke-linecap: square"/>
     </g>
     <g id="line2d_20">
      <g>
       <use xlink:href="#m5b4cfb9faf" x="57.6" y="130.538737" style="stroke: #000000; stroke-width: 0.8"/>
      </g>
     </g>
     <g id="text_10">
      <!-- 60% -->
      <g transform="translate(28.373438 134.337956) scale(0.1 -0.1)">
       <defs>
        <path id="DejaVuSans-36" d="M 2113 2584 
Q 1688 2584 1439 2293 
Q 1191 2003 1191 1497 
Q 1191 994 1439 701 
Q 1688 409 2113 409 
Q 2538 409 2786 701 
Q 3034 994 3034 1497 
Q 3034 2003 2786 2293 
Q 2538 2584 2113 2584 
z
M 3366 4563 
L 3366 3988 
Q 3128 4100 2886 4159 
Q 2644 4219 2406 4219 
Q 1781 4219 1451 3797 
Q 1122 3375 1075 2522 
Q 1259 2794 1537 2939 
Q 1816 3084 2150 3084 
Q 2853 3084 3261 2657 
Q 3669 2231 3669 1497 
Q 3669 778 3244 343 
Q 2819 -91 2113 -91 
Q 1303 -91 875 529 
Q 447 1150 447 2328 
Q 447 3434 972 4092 
Q 1497 4750 2381 4750 
Q 2619 4750 2861 4703 
Q 3103 4656 3366 4563 
z
" transform="scale(0.015625)"/>
       </defs>
       <use xlink:href="#DejaVuSans-36"/>
       <use xlink:href="#DejaVuSans-30" transform="translate(63.623047 0)"/>
       <use xlink:href="#DejaVuSans-25" transform="translate(127.246094 0)"/>
      </g>
     </g>
    </g>
    <g id="ytick_5">
     <g id="line2d_21">
      <path d="M 57.6 81.891649 
L 414.72 81.891649 
" clip-path="url(#p7ca4c4fb11)" style="fill: none; stroke: #b0b0b0; stroke-width: 0.8; stroke-linecap: square"/>
     </g>
     <g id="line2d_22">
      <g>
       <use xlink:href="#m5b4cfb9faf" x="57.6" y="81.891649" style="stroke: #000000; stroke-width: 0.8"/>
      </g>
     </g>
     <g id="text_11">
      <!-- 80% -->
      <g transform="translate(28.373438 85.690868) scale(0.1 -0.1)">
       <defs>
        <path id="DejaVuSans-38" d="M 2034 2216 
Q 1584 2216 1326 1975 
Q 1069 1734 1069 1313 
Q 1069 891 1326 650 
Q 1584 409 2034 409 
Q 2484 409 2743 651 
Q 3003 894 3003 1313 
Q 3003 1734 2745 1975 
Q 2488 2216 2034 2216 
z
M 1403 2484 
Q 997 2584 770 2862 
Q 544 3141 544 3541 
Q 544 4100 942 4425 
Q 1341 4750 2034 4750 
Q 2731 4750 3128 4425 
Q 3525 4100 3525 3541 
Q 3525 3141 3298 2862 
Q 3072 2584 2669 2484 
Q 3125 2378 3379 2068 
Q 3634 1759 3634 1313 
Q 3634 634 3220 271 
Q 2806 -91 2034 -91 
Q 1263 -91 848 271 
Q 434 634 434 1313 
Q 434 1759 690 2068 
Q 947 2378 1403 2484 
z
M 1172 3481 
Q 1172 3119 1398 2916 
Q 1625 2713 2034 2713 
Q 2441 2713 2670 2916 
Q 2900 3119 2900 3481 
Q 2900 3844 2670 4047 
Q 2441 4250 2034 4250 
Q 1625 4250 1398 4047 
Q 1172 3844 1172 3481 
z
" transform="scale(0.015625)"/>
       </defs>
       <use xlink:href="#DejaVuSans-38"/>
       <use xlink:href="#DejaVuSans-30" transform="translate(63.623047 0)"/>
       <use xlink:href="#DejaVuSans-25" transform="translate(127.246094 0)"/>
      </g>
     </g>
    </g>
   </g>
   <g id="line2d_23">
    <path d="M 398.487273 51.584513 
L 398.326308 61.654461 
L 397.738903 63.113873 
L 397.295205 63.113873 
L 397.280252 65.278669 
L 396.403307 65.278669 
L 396.263975 67.613729 
L 395.897331 67.613729 
L 395.746549 68.343435 
L 395.715273 69.729877 
L 395.71741 69.729877 
L 395.545002 70.678495 
L 395.439322 75.129704 
L 394.815 75.640498 
L 394.726272 74.497292 
L 394.719038 74.69188 
L 394.142549 75.372939 
L 394.138701 76.345881 
L 393.625971 76.345881 
L 393.582156 79.921442 
L 393.427842 79.532265 
L 393.321477 83.010532 
L 393.26627 83.010532 
L 393.184846 90.13733 
L 393.01572 90.13733 
L 393.104932 90.13733 
L 393.02467 105.631428 
L 392.913974 105.826016 
L 392.907425 109.863724 
L 392.752622 112.02852 
L 392.741645 112.78255 
L 389.597189 112.831197 
L 388.722343 113.390638 
L 388.650872 113.633874 
L 388.364498 113.269021 
L 388.360974 113.341991 
L 387.638018 113.95008 
L 387.454528 113.487933 
L 387.113542 113.487933 
L 386.423772 114.387904 
L 386.412513 119.885025 
L 386.18538 121.125525 
L 385.789395 120.663378 
L 385.634779 120.663378 
L 385.54372 122.925468 
L 385.165124 123.095732 
L 384.952614 123.338968 
L 384.640609 122.657909 
L 384.328467 127.595588 
L 384.230036 127.960441 
L 383.719977 128.836089 
L 383.618748 128.665824 
L 383.517875 131.876532 
L 383.334621 131.876532 
L 382.960376 132.217061 
L 382.703381 132.217061 
L 382.699547 135.452093 
L 382.487129 136.546652 
L 381.856243 130.927913 
L 380.696671 130.927913 
L 380.021403 131.219796 
L 379.720501 131.219796 
L 379.342709 131.438708 
L 379.203393 132.533267 
L 379.198061 134.81968 
L 378.920674 134.81968 
L 378.788894 135.354798 
L 378.484115 135.354798 
L 378.4035 138.200653 
L 378.084173 140.681655 
L 378.036711 146.154452 
L 377.900579 147.589541 
L 377.779661 152.478573 
L 377.706261 153.524486 
L 377.621831 123.752468 
L 377.555965 124.506498 
L 377.068089 124.433527 
L 377.038678 125.211881 
L 376.133447 125.211881 
L 375.970927 125.698352 
L 375.963575 127.8145 
L 375.685882 129.833354 
L 375.684409 131.65762 
L 373.875879 131.681943 
L 373.857612 131.949502 
L 373.109263 131.681943 
L 372.844819 131.73059 
L 372.624807 131.949502 
L 371.700055 131.803561 
L 370.159177 131.803561 
L 368.798163 130.100913 
L 368.732322 132.581914 
L 368.614612 132.800826 
L 368.17455 133.141356 
L 367.748865 133.141356 
L 367.693618 140.268154 
L 367.236659 140.268154 
L 367.02597 140.803272 
L 366.46093 142.408626 
L 363.859702 142.408626 
L 362.762733 142.676185 
L 362.10228 142.530244 
L 362.080171 143.503186 
L 361.540915 143.770745 
L 361.529865 144.111274 
L 361.287613 143.60048 
L 360.297044 143.60048 
L 360.124904 142.311332 
L 358.014923 142.311332 
L 357.911444 144.670716 
L 357.831775 142.724832 
L 357.601804 142.408626 
L 354.133281 142.384303 
L 353.443411 142.287008 
L 353.316676 143.989657 
L 348.912413 143.989657 
L 347.969467 144.500451 
L 347.577027 143.989657 
L 346.736658 144.257216 
L 346.10732 144.111274 
L 340.576621 144.086951 
L 339.34003 143.746421 
L 338.107241 143.722098 
L 337.93126 143.18698 
L 333.176238 143.18698 
L 332.886475 142.749156 
L 330.93083 142.749156 
L 330.886787 143.649127 
L 330.710645 144.135598 
L 329.477891 143.162656 
L 328.245182 143.162656 
L 327.012375 142.895097 
L 324.794101 142.895097 
L 324.547102 143.60048 
L 323.370829 143.60048 
L 323.370063 143.454539 
L 320.848651 143.454539 
L 320.54424 143.18698 
L 318.782997 143.18698 
L 318.383011 144.792333 
L 317.902436 143.454539 
L 317.737292 143.722098 
L 317.150295 144.086951 
L 316.838627 144.086951 
L 315.91765 144.865304 
L 315.616727 144.865304 
L 315.264577 146.616599 
L 315.084697 146.786864 
L 314.684755 147.370629 
L 314.395184 147.370629 
L 314.149069 147.832776 
L 313.331028 147.832776 
L 312.791605 150.362425 
L 312.571401 150.848896 
L 312.373413 152.186691 
L 312.219241 157.416253 
L 312.179227 152.186691 
L 311.57347 152.186691 
L 311.38637 161.770167 
L 310.986437 162.013403 
L 310.784887 161.770167 
L 308.948388 161.770167 
L 308.520876 162.256638 
L 307.288104 161.551255 
L 305.842745 159.605372 
L 305.78363 159.605372 
L 305.777806 159.751313 
L 303.589887 159.751313 
L 302.357042 159.508078 
L 299.491884 159.508078 
L 299.488027 159.824284 
L 298.368984 159.824284 
L 298.14078 160.797225 
L 296.339706 160.797225 
L 296.147769 161.235049 
L 296.192938 161.235049 
L 296.060212 155.737928 
L 295.617062 155.737928 
L 294.938085 156.273046 
L 294.694082 156.71087 
L 294.40983 156.613576 
L 294.042872 156.613576 
L 294.039307 157.440576 
L 293.727443 157.805429 
L 293.063859 157.805429 
L 292.674492 157.513547 
L 291.261821 157.8784 
L 289.197566 157.8784 
L 289.768719 157.8784 
L 288.305357 158.194606 
L 286.562002 158.21893 
L 286.330885 158.413518 
L 284.826287 158.413518 
L 284.107438 158.63243 
L 284.074477 159.289166 
L 284.07265 158.875665 
L 281.546501 158.875665 
L 281.403545 159.070254 
L 281.098896 158.97296 
L 280.411364 159.483754 
L 280.410226 141.75189 
L 271.245546 141.75189 
L 278.493444 141.75189 
L 278.470069 144.184245 
L 270.30629 144.111274 
L 269.947942 149.243542 
L 269.829655 150.484043 
L 269.676615 150.484043 
L 269.616807 153.913662 
L 268.630276 153.889339 
L 268.470414 154.327163 
L 267.446507 154.327163 
L 267.29735 154.521751 
L 267.241022 160.456696 
L 266.305408 160.456696 
L 266.224974 161.72152 
L 265.976976 161.72152 
L 265.92154 162.767432 
L 263.487057 162.767432 
L 262.889671 163.205256 
L 262.181563 163.205256 
L 262.042982 163.326874 
L 261.955089 165.199787 
L 261.71178 165.199787 
L 261.603188 165.759228 
L 261.294124 165.759228 
L 261.2274 166.853788 
L 261.143491 166.853788 
L 260.978554 168.288877 
L 260.659017 169.286142 
L 260.49387 167.048376 
L 260.489024 167.851053 
L 260.446055 167.851053 
L 260.442612 165.56464 
L 259.45236 164.153874 
L 259.081955 164.567375 
L 257.706434 164.567375 
L 257.700729 164.786287 
L 249.364601 165.005198 
L 248.978689 165.22411 
L 247.286897 165.880846 
L 245.69446 166.099758 
L 243.948219 166.513258 
L 243.831061 168.3132 
L 236.368118 168.3132 
L 236.342315 168.629406 
L 235.554099 168.629406 
L 235.135629 166.975405 
L 233.845611 166.975405 
L 233.110697 167.169994 
L 232.957655 167.388906 
L 232.853601 167.388906 
L 232.845827 167.607818 
L 230.021089 167.607818 
L 229.514485 168.045641 
L 222.202592 169.115877 
L 216.805127 169.553701 
L 214.592857 170.405025 
L 212.365539 170.623937 
L 211.896515 171.061761 
L 211.888462 171.499585 
L 210.370099 171.499585 
L 206.760126 171.718497 
L 203.516478 171.718497 
L 202.462995 172.277938 
L 196.380833 172.277938 
L 196.376357 172.49685 
L 194.482078 172.49685 
L 194.264603 173.567086 
L 193.547612 173.567086 
L 191.808551 173.785998 
L 191.735107 174.126527 
L 189.86411 175.658911 
L 189.849415 177.677765 
L 188.807687 178.796648 
L 187.217955 179.01556 
L 182.06984 178.942589 
L 181.543583 178.845295 
L 180.982815 178.845295 
L 180.820503 179.039883 
L 180.633468 181.983032 
L 180.188985 181.910061 
L 180.128607 182.907327 
L 179.304553 182.907327 
L 179.249651 188.380124 
L 178.441303 188.380124 
L 178.542662 188.380124 
L 178.369873 187.966624 
L 177.540269 187.966624 
L 177.536082 188.501742 
L 177.309476 188.672007 
L 176.429177 187.917977 
L 175.262069 187.917977 
L 175.259705 188.28283 
L 175.258074 185.120769 
L 175.257369 185.120769 
L 173.388797 185.120769 
L 171.451666 184.877534 
L 168.151288 184.877534 
L 167.57543 185.242387 
L 167.046802 185.242387 
L 166.798961 185.096446 
L 166.78072 187.553124 
L 166.625746 187.917977 
L 166.518725 188.28283 
L 166.279073 188.28283 
L 165.637654 189.207125 
L 165.378512 189.207125 
L 165.285663 189.401713 
L 163.230439 189.353066 
L 162.996585 190.277361 
L 162.74091 190.277361 
L 162.64373 190.471949 
L 160.297632 190.471949 
L 159.470762 191.590832 
L 157.988228 191.590832 
L 157.885606 191.955685 
L 156.598981 191.663803 
L 154.716453 194.46101 
L 150.837162 194.46101 
L 150.661132 194.290745 
L 140.148271 194.290745 
L 140.092158 195.21504 
L 137.028631 195.239363 
L 134.940886 195.433952 
L 134.739163 196.163658 
L 134.581559 197.47713 
L 134.18237 198.960866 
L 134.059572 199.495984 
L 133.949991 206.768723 
L 133.865958 206.768723 
L 133.790325 215.136022 
L 133.068474 215.306287 
L 132.085799 215.306287 
L 131.902134 220.341261 
L 131.900006 220.341261 
L 131.637841 220.535849 
L 130.546864 220.535849 
L 130.537624 220.900702 
L 130.401698 220.900702 
L 130.226879 220.730437 
L 128.035333 220.730437 
L 128.027496 221.581761 
L 120.86211 221.581761 
L 120.067015 221.897968 
L 120.064433 222.895233 
L 119.430017 222.895233 
L 119.075772 223.065498 
L 116.447809 223.065498 
L 118.56992 223.016851 
L 118.217652 224.184381 
L 117.143337 224.670852 
L 116.632488 224.670852 
L 116.280903 225.351911 
L 111.701385 225.351911 
L 111.525881 225.69244 
L 108.002748 225.668117 
L 107.827203 226.178911 
L 107.298237 226.178911 
L 107.122117 226.324853 
L 107.060932 227.2005 
L 106.593944 227.2005 
L 106.418379 227.638324 
L 104.304401 227.638324 
L 104.128357 226.835647 
L 103.776081 226.835647 
L 103.600842 227.54103 
L 101.662947 227.54103 
L 101.486913 227.905883 
L 98.668809 227.905883 
L 98.492922 228.635589 
L 98.316739 228.805854 
L 96.379169 228.805854 
L 96.203748 229.53556 
L 96.027029 229.53556 
L 95.851442 229.900413 
L 90.21564 229.900413 
L 90.040036 230.095002 
L 86.517175 230.095002 
L 86.341848 231.092267 
L 85.284472 231.092267 
L 84.933133 235.567799 
L 83.875441 235.567799 
L 83.69934 235.738064 
L 82.466578 235.738064 
L 82.290467 236.078594 
L 81.952082 236.078594 
L 81.902865 238.900125 
L 81.686413 251.353779 
L 81.647851 251.329456 
L 80.881613 251.329456 
L 79.443335 251.669985 
L 79.367924 251.84025 
L 78.944738 251.84025 
L 78.944656 252.010515 
L 78.240345 252.010515 
L 78.240278 252.18078 
L 78.06418 252.18078 
L 78.064103 252.351044 
L 77.692834 252.351044 
L 77.688845 253.518575 
L 77.380491 253.518575 
L 77.359669 253.688839 
L 77.261892 253.688839 
L 77.192215 253.834781 
L 73.832727 253.834781 
L 73.832727 253.834781 
" clip-path="url(#p7ca4c4fb11)" style="fill: none; stroke: #1f77b4; stroke-width: 1.5; stroke-linecap: square"/>
   </g>
   <g id="patch_3">
    <path d="M 57.6 276.48 
L 57.6 41.472 
" style="fill: none; stroke: #000000; stroke-width: 0.8; stroke-linejoin: miter; stroke-linecap: square"/>
   </g>
   <g id="patch_4">
    <path d="M 414.72 276.48 
L 414.72 41.472 
" style="fill: none; stroke: #000000; stroke-width: 0.8; stroke-linejoin: miter; stroke-linecap: square"/>
   </g>
   <g id="patch_5">
    <path d="M 57.6 276.48 
L 414.72 276.48 
" style="fill: none; stroke: #000000; stroke-width: 0.8; stroke-linejoin: miter; stroke-linecap: square"/>
   </g>
   <g id="patch_6">
    <path d="M 57.6 41.472 
L 414.72 41.472 
" style="fill: none; stroke: #000000; stroke-width: 0.8; stroke-linejoin: miter; stroke-linecap: square"/>
   </g>
   <g id="text_12">
    <!-- Postęp tłumaczenia do dodania do przełącznika języków -->
    <g transform="translate(67.57125 35.472) scale(0.12 -0.12)">
     <defs>
      <path id="DejaVuSans-50" d="M 1259 4147 
L 1259 2394 
L 2053 2394 
Q 2494 2394 2734 2622 
Q 2975 2850 2975 3272 
Q 2975 3691 2734 3919 
Q 2494 4147 2053 4147 
L 1259 4147 
z
M 628 4666 
L 2053 4666 
Q 2838 4666 3239 4311 
Q 3641 3956 3641 3272 
Q 3641 2581 3239 2228 
Q 2838 1875 2053 1875 
L 1259 1875 
L 1259 0 
L 628 0 
L 628 4666 
z
" transform="scale(0.015625)"/>
      <path id="DejaVuSans-6f" d="M 1959 3097 
Q 1497 3097 1228 2736 
Q 959 2375 959 1747 
Q 959 1119 1226 758 
Q 1494 397 1959 397 
Q 2419 397 2687 759 
Q 2956 1122 2956 1747 
Q 2956 2369 2687 2733 
Q 2419 3097 1959 3097 
z
M 1959 3584 
Q 2709 3584 3137 3096 
Q 3566 2609 3566 1747 
Q 3566 888 3137 398 
Q 2709 -91 1959 -91 
Q 1206 -91 779 398 
Q 353 888 353 1747 
Q 353 2609 779 3096 
Q 1206 3584 1959 3584 
z
" transform="scale(0.015625)"/>
      <path id="DejaVuSans-73" d="M 2834 3397 
L 2834 2853 
Q 2591 2978 2328 3040 
Q 2066 3103 1784 3103 
Q 1356 3103 1142 2972 
Q 928 2841 928 2578 
Q 928 2378 1081 2264 
Q 1234 2150 1697 2047 
L 1894 2003 
Q 2506 1872 2764 1633 
Q 3022 1394 3022 966 
Q 3022 478 2636 193 
Q 2250 -91 1575 -91 
Q 1294 -91 989 -36 
Q 684 19 347 128 
L 347 722 
Q 666 556 975 473 
Q 1284 391 1588 391 
Q 1994 391 2212 530 
Q 2431 669 2431 922 
Q 2431 1156 2273 1281 
Q 2116 1406 1581 1522 
L 1381 1569 
Q 847 1681 609 1914 
Q 372 2147 372 2553 
Q 372 3047 722 3315 
Q 1072 3584 1716 3584 
Q 2034 3584 2315 3537 
Q 2597 3491 2834 3397 
z
" transform="scale(0.015625)"/>
      <path id="DejaVuSans-74" d="M 1172 4494 
L 1172 3500 
L 2356 3500 
L 2356 3053 
L 1172 3053 
L 1172 1153 
Q 1172 725 1289 603 
Q 1406 481 1766 481 
L 2356 481 
L 2356 0 
L 1766 0 
Q 1100 0 847 248 
Q 594 497 594 1153 
L 594 3053 
L 172 3053 
L 172 3500 
L 594 3500 
L 594 4494 
L 1172 4494 
z
" transform="scale(0.015625)"/>
      <path id="DejaVuSans-119" d="M 3597 1894 
L 3597 1613 
L 953 1613 
Q 991 1019 1311 708 
Q 1631 397 2203 397 
Q 2534 397 2845 478 
Q 3156 559 3463 722 
L 3463 178 
Q 3153 47 2828 -22 
Q 2503 -91 2169 -91 
Q 1331 -91 842 396 
Q 353 884 353 1716 
Q 353 2575 817 3079 
Q 1281 3584 2069 3584 
Q 2775 3584 3186 3129 
Q 3597 2675 3597 1894 
z
M 3022 2063 
Q 3016 2534 2758 2815 
Q 2500 3097 2075 3097 
Q 1594 3097 1305 2825 
Q 1016 2553 972 2059 
L 3022 2063 
z
M 2551 0 
L 2923 0 
Q 2782 -191 2715 -328 
Q 2648 -466 2648 -563 
Q 2648 -706 2734 -778 
Q 2820 -850 2989 -850 
Q 3089 -850 3185 -826 
Q 3282 -803 3379 -756 
L 3379 -1172 
Q 3260 -1203 3154 -1218 
Q 3048 -1234 2954 -1234 
Q 2573 -1234 2393 -1098 
Q 2214 -963 2214 -672 
Q 2214 -522 2296 -358 
Q 2379 -194 2551 0 
z
" transform="scale(0.015625)"/>
      <path id="DejaVuSans-70" d="M 1159 525 
L 1159 -1331 
L 581 -1331 
L 581 3500 
L 1159 3500 
L 1159 2969 
Q 1341 3281 1617 3432 
Q 1894 3584 2278 3584 
Q 2916 3584 3314 3078 
Q 3713 2572 3713 1747 
Q 3713 922 3314 415 
Q 2916 -91 2278 -91 
Q 1894 -91 1617 61 
Q 1341 213 1159 525 
z
M 3116 1747 
Q 3116 2381 2855 2742 
Q 2594 3103 2138 3103 
Q 1681 3103 1420 2742 
Q 1159 2381 1159 1747 
Q 1159 1113 1420 752 
Q 1681 391 2138 391 
Q 2594 391 2855 752 
Q 3116 1113 3116 1747 
z
" transform="scale(0.015625)"/>
      <path id="DejaVuSans-20" transform="scale(0.015625)"/>
      <path id="DejaVuSans-142" d="M 622 4863 
L 1197 4863 
L 1197 2981 
L 1588 3263 
L 1825 2931 
L 1197 2491 
L 1197 0 
L 622 0 
L 622 2081 
L 238 1806 
L 6 2138 
L 622 2578 
L 622 4863 
z
" transform="scale(0.015625)"/>
      <path id="DejaVuSans-75" d="M 544 1381 
L 544 3500 
L 1119 3500 
L 1119 1403 
Q 1119 906 1312 657 
Q 1506 409 1894 409 
Q 2359 409 2629 706 
Q 2900 1003 2900 1516 
L 2900 3500 
L 3475 3500 
L 3475 0 
L 2900 0 
L 2900 538 
Q 2691 219 2414 64 
Q 2138 -91 1772 -91 
Q 1169 -91 856 284 
Q 544 659 544 1381 
z
M 1991 3584 
L 1991 3584 
z
" transform="scale(0.015625)"/>
      <path id="DejaVuSans-6d" d="M 3328 2828 
Q 3544 3216 3844 3400 
Q 4144 3584 4550 3584 
Q 5097 3584 5394 3201 
Q 5691 2819 5691 2113 
L 5691 0 
L 5113 0 
L 5113 2094 
Q 5113 2597 4934 2840 
Q 4756 3084 4391 3084 
Q 3944 3084 3684 2787 
Q 3425 2491 3425 1978 
L 3425 0 
L 2847 0 
L 2847 2094 
Q 2847 2600 2669 2842 
Q 2491 3084 2119 3084 
Q 1678 3084 1418 2786 
Q 1159 2488 1159 1978 
L 1159 0 
L 581 0 
L 581 3500 
L 1159 3500 
L 1159 2956 
Q 1356 3278 1631 3431 
Q 1906 3584 2284 3584 
Q 2666 3584 2933 3390 
Q 3200 3197 3328 2828 
z
" transform="scale(0.015625)"/>
      <path id="DejaVuSans-61" d="M 2194 1759 
Q 1497 1759 1228 1600 
Q 959 1441 959 1056 
Q 959 750 1161 570 
Q 1363 391 1709 391 
Q 2188 391 2477 730 
Q 2766 1069 2766 1631 
L 2766 1759 
L 2194 1759 
z
M 3341 1997 
L 3341 0 
L 2766 0 
L 2766 531 
Q 2569 213 2275 61 
Q 1981 -91 1556 -91 
Q 1019 -91 701 211 
Q 384 513 384 1019 
Q 384 1609 779 1909 
Q 1175 2209 1959 2209 
L 2766 2209 
L 2766 2266 
Q 2766 2663 2505 2880 
Q 2244 3097 1772 3097 
Q 1472 3097 1187 3025 
Q 903 2953 641 2809 
L 641 3341 
Q 956 3463 1253 3523 
Q 1550 3584 1831 3584 
Q 2591 3584 2966 3190 
Q 3341 2797 3341 1997 
z
" transform="scale(0.015625)"/>
      <path id="DejaVuSans-63" d="M 3122 3366 
L 3122 2828 
Q 2878 2963 2633 3030 
Q 2388 3097 2138 3097 
Q 1578 3097 1268 2742 
Q 959 2388 959 1747 
Q 959 1106 1268 751 
Q 1578 397 2138 397 
Q 2388 397 2633 464 
Q 2878 531 3122 666 
L 3122 134 
Q 2881 22 2623 -34 
Q 2366 -91 2075 -91 
Q 1284 -91 818 406 
Q 353 903 353 1747 
Q 353 2603 823 3093 
Q 1294 3584 2113 3584 
Q 2378 3584 2631 3529 
Q 2884 3475 3122 3366 
z
" transform="scale(0.015625)"/>
      <path id="DejaVuSans-7a" d="M 353 3500 
L 3084 3500 
L 3084 2975 
L 922 459 
L 3084 459 
L 3084 0 
L 275 0 
L 275 525 
L 2438 3041 
L 353 3041 
L 353 3500 
z
" transform="scale(0.015625)"/>
      <path id="DejaVuSans-65" d="M 3597 1894 
L 3597 1613 
L 953 1613 
Q 991 1019 1311 708 
Q 1631 397 2203 397 
Q 2534 397 2845 478 
Q 3156 559 3463 722 
L 3463 178 
Q 3153 47 2828 -22 
Q 2503 -91 2169 -91 
Q 1331 -91 842 396 
Q 353 884 353 1716 
Q 353 2575 817 3079 
Q 1281 3584 2069 3584 
Q 2775 3584 3186 3129 
Q 3597 2675 3597 1894 
z
M 3022 2063 
Q 3016 2534 2758 2815 
Q 2500 3097 2075 3097 
Q 1594 3097 1305 2825 
Q 1016 2553 972 2059 
L 3022 2063 
z
" transform="scale(0.015625)"/>
      <path id="DejaVuSans-6e" d="M 3513 2113 
L 3513 0 
L 2938 0 
L 2938 2094 
Q 2938 2591 2744 2837 
Q 2550 3084 2163 3084 
Q 1697 3084 1428 2787 
Q 1159 2491 1159 1978 
L 1159 0 
L 581 0 
L 581 3500 
L 1159 3500 
L 1159 2956 
Q 1366 3272 1645 3428 
Q 1925 3584 2291 3584 
Q 2894 3584 3203 3211 
Q 3513 2838 3513 2113 
z
" transform="scale(0.015625)"/>
      <path id="DejaVuSans-69" d="M 603 3500 
L 1178 3500 
L 1178 0 
L 603 0 
L 603 3500 
z
M 603 4863 
L 1178 4863 
L 1178 4134 
L 603 4134 
L 603 4863 
z
" transform="scale(0.015625)"/>
      <path id="DejaVuSans-64" d="M 2906 2969 
L 2906 4863 
L 3481 4863 
L 3481 0 
L 2906 0 
L 2906 525 
Q 2725 213 2448 61 
Q 2172 -91 1784 -91 
Q 1150 -91 751 415 
Q 353 922 353 1747 
Q 353 2572 751 3078 
Q 1150 3584 1784 3584 
Q 2172 3584 2448 3432 
Q 2725 3281 2906 2969 
z
M 947 1747 
Q 947 1113 1208 752 
Q 1469 391 1925 391 
Q 2381 391 2643 752 
Q 2906 1113 2906 1747 
Q 2906 2381 2643 2742 
Q 2381 3103 1925 3103 
Q 1469 3103 1208 2742 
Q 947 2381 947 1747 
z
" transform="scale(0.015625)"/>
      <path id="DejaVuSans-72" d="M 2631 2963 
Q 2534 3019 2420 3045 
Q 2306 3072 2169 3072 
Q 1681 3072 1420 2755 
Q 1159 2438 1159 1844 
L 1159 0 
L 581 0 
L 581 3500 
L 1159 3500 
L 1159 2956 
Q 1341 3275 1631 3429 
Q 1922 3584 2338 3584 
Q 2397 3584 2469 3576 
Q 2541 3569 2628 3553 
L 2631 2963 
z
" transform="scale(0.015625)"/>
      <path id="DejaVuSans-105" d="M 2194 1759 
Q 1497 1759 1228 1600 
Q 959 1441 959 1056 
Q 959 750 1161 570 
Q 1363 391 1709 391 
Q 2188 391 2477 730 
Q 2766 1069 2766 1631 
L 2766 1759 
L 2194 1759 
z
M 3341 1997 
L 3341 0 
L 2766 0 
L 2766 531 
Q 2569 213 2275 61 
Q 1981 -91 1556 -91 
Q 1019 -91 701 211 
Q 384 513 384 1019 
Q 384 1609 779 1909 
Q 1175 2209 1959 2209 
L 2766 2209 
L 2766 2266 
Q 2766 2663 2505 2880 
Q 2244 3097 1772 3097 
Q 1472 3097 1187 3025 
Q 903 2953 641 2809 
L 641 3341 
Q 956 3463 1253 3523 
Q 1550 3584 1831 3584 
Q 2591 3584 2966 3190 
Q 3341 2797 3341 1997 
z
M 2775 0 
L 3147 0 
Q 3006 -191 2939 -328 
Q 2872 -466 2872 -563 
Q 2872 -706 2958 -778 
Q 3044 -850 3213 -850 
Q 3313 -850 3409 -826 
Q 3506 -803 3603 -756 
L 3603 -1172 
Q 3484 -1203 3378 -1218 
Q 3272 -1234 3178 -1234 
Q 2797 -1234 2617 -1098 
Q 2438 -963 2438 -672 
Q 2438 -522 2520 -358 
Q 2603 -194 2775 0 
z
" transform="scale(0.015625)"/>
      <path id="DejaVuSans-6b" d="M 581 4863 
L 1159 4863 
L 1159 1991 
L 2875 3500 
L 3609 3500 
L 1753 1863 
L 3688 0 
L 2938 0 
L 1159 1709 
L 1159 0 
L 581 0 
L 581 4863 
z
" transform="scale(0.015625)"/>
      <path id="DejaVuSans-6a" d="M 603 3500 
L 1178 3500 
L 1178 -63 
Q 1178 -731 923 -1031 
Q 669 -1331 103 -1331 
L -116 -1331 
L -116 -844 
L 38 -844 
Q 366 -844 484 -692 
Q 603 -541 603 -63 
L 603 3500 
z
M 603 4863 
L 1178 4863 
L 1178 4134 
L 603 4134 
L 603 4863 
z
" transform="scale(0.015625)"/>
      <path id="DejaVuSans-79" d="M 2059 -325 
Q 1816 -950 1584 -1140 
Q 1353 -1331 966 -1331 
L 506 -1331 
L 506 -850 
L 844 -850 
Q 1081 -850 1212 -737 
Q 1344 -625 1503 -206 
L 1606 56 
L 191 3500 
L 800 3500 
L 1894 763 
L 2988 3500 
L 3597 3500 
L 2059 -325 
z
" transform="scale(0.015625)"/>
      <path id="DejaVuSans-f3" d="M 1959 3097 
Q 1497 3097 1228 2736 
Q 959 2375 959 1747 
Q 959 1119 1226 758 
Q 1494 397 1959 397 
Q 2419 397 2687 759 
Q 2956 1122 2956 1747 
Q 2956 2369 2687 2733 
Q 2419 3097 1959 3097 
z
M 1959 3584 
Q 2709 3584 3137 3096 
Q 3566 2609 3566 1747 
Q 3566 888 3137 398 
Q 2709 -91 1959 -91 
Q 1206 -91 779 398 
Q 353 888 353 1747 
Q 353 2609 779 3096 
Q 1206 3584 1959 3584 
z
M 2394 5119 
L 3016 5119 
L 1998 3944 
L 1519 3944 
L 2394 5119 
z
" transform="scale(0.015625)"/>
      <path id="DejaVuSans-77" d="M 269 3500 
L 844 3500 
L 1563 769 
L 2278 3500 
L 2956 3500 
L 3675 769 
L 4391 3500 
L 4966 3500 
L 4050 0 
L 3372 0 
L 2619 2869 
L 1863 0 
L 1184 0 
L 269 3500 
z
" transform="scale(0.015625)"/>
     </defs>
     <use xlink:href="#DejaVuSans-50"/>
     <use xlink:href="#DejaVuSans-6f" transform="translate(56.677734 0)"/>
     <use xlink:href="#DejaVuSans-73" transform="translate(117.859375 0)"/>
     <use xlink:href="#DejaVuSans-74" transform="translate(169.958984 0)"/>
     <use xlink:href="#DejaVuSans-119" transform="translate(209.167969 0)"/>
     <use xlink:href="#DejaVuSans-70" transform="translate(270.691406 0)"/>
     <use xlink:href="#DejaVuSans-20" transform="translate(334.167969 0)"/>
     <use xlink:href="#DejaVuSans-74" transform="translate(365.955078 0)"/>
     <use xlink:href="#DejaVuSans-142" transform="translate(405.164062 0)"/>
     <use xlink:href="#DejaVuSans-75" transform="translate(433.582031 0)"/>
     <use xlink:href="#DejaVuSans-6d" transform="translate(496.960938 0)"/>
     <use xlink:href="#DejaVuSans-61" transform="translate(594.373047 0)"/>
     <use xlink:href="#DejaVuSans-63" transform="translate(655.652344 0)"/>
     <use xlink:href="#DejaVuSans-7a" transform="translate(710.632812 0)"/>
     <use xlink:href="#DejaVuSans-65" transform="translate(763.123047 0)"/>
     <use xlink:href="#DejaVuSans-6e" transform="translate(824.646484 0)"/>
     <use xlink:href="#DejaVuSans-69" transform="translate(888.025391 0)"/>
     <use xlink:href="#DejaVuSans-61" transform="translate(915.808594 0)"/>
     <use xlink:href="#DejaVuSans-20" transform="translate(977.087891 0)"/>
     <use xlink:href="#DejaVuSans-64" transform="translate(1008.875 0)"/>
     <use xlink:href="#DejaVuSans-6f" transform="translate(1072.351562 0)"/>
     <use xlink:href="#DejaVuSans-20" transform="translate(1133.533203 0)"/>
     <use xlink:href="#DejaVuSans-64" transform="translate(1165.320312 0)"/>
     <use xlink:href="#DejaVuSans-6f" transform="translate(1228.796875 0)"/>
     <use xlink:href="#DejaVuSans-64" transform="translate(1289.978516 0)"/>
     <use xlink:href="#DejaVuSans-61" transform="translate(1353.455078 0)"/>
     <use xlink:href="#DejaVuSans-6e" transform="translate(1414.734375 0)"/>
     <use xlink:href="#DejaVuSans-69" transform="translate(1478.113281 0)"/>
     <use xlink:href="#DejaVuSans-61" transform="translate(1505.896484 0)"/>
     <use xlink:href="#DejaVuSans-20" transform="translate(1567.175781 0)"/>
     <use xlink:href="#DejaVuSans-64" transform="translate(1598.962891 0)"/>
     <use xlink:href="#DejaVuSans-6f" transform="translate(1662.439453 0)"/>
     <use xlink:href="#DejaVuSans-20" transform="translate(1723.621094 0)"/>
     <use xlink:href="#DejaVuSans-70" transform="translate(1755.408203 0)"/>
     <use xlink:href="#DejaVuSans-72" transform="translate(1818.884766 0)"/>
     <use xlink:href="#DejaVuSans-7a" transform="translate(1859.998047 0)"/>
     <use xlink:href="#DejaVuSans-65" transform="translate(1912.488281 0)"/>
     <use xlink:href="#DejaVuSans-142" transform="translate(1974.011719 0)"/>
     <use xlink:href="#DejaVuSans-105" transform="translate(2002.429688 0)"/>
     <use xlink:href="#DejaVuSans-63" transform="translate(2063.708984 0)"/>
     <use xlink:href="#DejaVuSans-7a" transform="translate(2118.689453 0)"/>
     <use xlink:href="#DejaVuSans-6e" transform="translate(2171.179688 0)"/>
     <use xlink:href="#DejaVuSans-69" transform="translate(2234.558594 0)"/>
     <use xlink:href="#DejaVuSans-6b" transform="translate(2262.341797 0)"/>
     <use xlink:href="#DejaVuSans-61" transform="translate(2318.501953 0)"/>
     <use xlink:href="#DejaVuSans-20" transform="translate(2379.78125 0)"/>
     <use xlink:href="#DejaVuSans-6a" transform="translate(2411.568359 0)"/>
     <use xlink:href="#DejaVuSans-119" transform="translate(2439.351562 0)"/>
     <use xlink:href="#DejaVuSans-7a" transform="translate(2500.875 0)"/>
     <use xlink:href="#DejaVuSans-79" transform="translate(2553.365234 0)"/>
     <use xlink:href="#DejaVuSans-6b" transform="translate(2612.544922 0)"/>
     <use xlink:href="#DejaVuSans-f3" transform="translate(2666.830078 0)"/>
     <use xlink:href="#DejaVuSans-77" transform="translate(2728.011719 0)"/>
    </g>
   </g>
  </g>
 </g>
 <defs>
  <clipPath id="p7ca4c4fb11">
   <rect x="57.6" y="41.472" width="357.12" height="235.008"/>
  </clipPath>
 </defs>
</svg>
