<?xml version="1.0" encoding="utf-8" standalone="no"?>
<!DOCTYPE svg PUBLIC "-//W3C//DTD SVG 1.1//EN"
  "http://www.w3.org/Graphics/SVG/1.1/DTD/svg11.dtd">
<svg xmlns:xlink="http://www.w3.org/1999/xlink" width="460.8pt" height="345.6pt" viewBox="0 0 460.8 345.6" xmlns="http://www.w3.org/2000/svg" version="1.1">
 <metadata>
  <rdf:RDF xmlns:dc="http://purl.org/dc/elements/1.1/" xmlns:cc="http://creativecommons.org/ns#" xmlns:rdf="http://www.w3.org/1999/02/22-rdf-syntax-ns#">
   <cc:Work>
    <dc:type rdf:resource="http://purl.org/dc/dcmitype/StillImage"/>
    <dc:date>2024-12-20T16:42:17.767075</dc:date>
    <dc:format>image/svg+xml</dc:format>
    <dc:creator>
     <cc:Agent>
      <dc:title>Matplotlib v3.10.0, https://matplotlib.org/</dc:title>
     </cc:Agent>
    </dc:creator>
   </cc:Work>
  </rdf:RDF>
 </metadata>
 <defs>
  <style type="text/css">*{stroke-linejoin: round; stroke-linecap: butt}</style>
 </defs>
 <g id="figure_1">
  <g id="patch_1">
   <path d="M 0 345.6 
L 460.8 345.6 
L 460.8 0 
L 0 0 
z
" style="fill: #ffffff"/>
  </g>
  <g id="axes_1">
   <g id="patch_2">
    <path d="M 57.6 276.48 
L 414.72 276.48 
L 414.72 41.472 
L 57.6 41.472 
z
" style="fill: #ffffff"/>
   </g>
   <g id="matplotlib.axis_1">
    <g id="xtick_1">
     <g id="line2d_1">
      <path d="M 77.547662 276.48 
L 77.547662 41.472 
" clip-path="url(#p0316e339dd)" style="fill: none; stroke: #b0b0b0; stroke-width: 0.8; stroke-linecap: square"/>
     </g>
     <g id="line2d_2">
      <defs>
       <path id="me9de6dc7c9" d="M 0 0 
L 0 3.5 
" style="stroke: #000000; stroke-width: 0.8"/>
      </defs>
      <g>
       <use xlink:href="#me9de6dc7c9" x="77.547662" y="276.48" style="stroke: #000000; stroke-width: 0.8"/>
      </g>
     </g>
     <g id="text_1">
      <!-- 2020 -->
      <g transform="translate(54.467472 302.78544) rotate(-30) scale(0.1 -0.1)">
       <defs>
        <path id="DejaVuSans-32" d="M 1228 531 
L 3431 531 
L 3431 0 
L 469 0 
L 469 531 
Q 828 903 1448 1529 
Q 2069 2156 2228 2338 
Q 2531 2678 2651 2914 
Q 2772 3150 2772 3378 
Q 2772 3750 2511 3984 
Q 2250 4219 1831 4219 
Q 1534 4219 1204 4116 
Q 875 4013 500 3803 
L 500 4441 
Q 881 4594 1212 4672 
Q 1544 4750 1819 4750 
Q 2544 4750 2975 4387 
Q 3406 4025 3406 3419 
Q 3406 3131 3298 2873 
Q 3191 2616 2906 2266 
Q 2828 2175 2409 1742 
Q 1991 1309 1228 531 
z
" transform="scale(0.015625)"/>
        <path id="DejaVuSans-30" d="M 2034 4250 
Q 1547 4250 1301 3770 
Q 1056 3291 1056 2328 
Q 1056 1369 1301 889 
Q 1547 409 2034 409 
Q 2525 409 2770 889 
Q 3016 1369 3016 2328 
Q 3016 3291 2770 3770 
Q 2525 4250 2034 4250 
z
M 2034 4750 
Q 2819 4750 3233 4129 
Q 3647 3509 3647 2328 
Q 3647 1150 3233 529 
Q 2819 -91 2034 -91 
Q 1250 -91 836 529 
Q 422 1150 422 2328 
Q 422 3509 836 4129 
Q 1250 4750 2034 4750 
z
" transform="scale(0.015625)"/>
       </defs>
       <use xlink:href="#DejaVuSans-32"/>
       <use xlink:href="#DejaVuSans-30" transform="translate(63.623047 0)"/>
       <use xlink:href="#DejaVuSans-32" transform="translate(127.246094 0)"/>
       <use xlink:href="#DejaVuSans-30" transform="translate(190.869141 0)"/>
      </g>
     </g>
    </g>
    <g id="xtick_2">
     <g id="line2d_3">
      <path d="M 142.241258 276.48 
L 142.241258 41.472 
" clip-path="url(#p0316e339dd)" style="fill: none; stroke: #b0b0b0; stroke-width: 0.8; stroke-linecap: square"/>
     </g>
     <g id="line2d_4">
      <g>
       <use xlink:href="#me9de6dc7c9" x="142.241258" y="276.48" style="stroke: #000000; stroke-width: 0.8"/>
      </g>
     </g>
     <g id="text_2">
      <!-- 2021 -->
      <g transform="translate(119.161068 302.78544) rotate(-30) scale(0.1 -0.1)">
       <defs>
        <path id="DejaVuSans-31" d="M 794 531 
L 1825 531 
L 1825 4091 
L 703 3866 
L 703 4441 
L 1819 4666 
L 2450 4666 
L 2450 531 
L 3481 531 
L 3481 0 
L 794 0 
L 794 531 
z
" transform="scale(0.015625)"/>
       </defs>
       <use xlink:href="#DejaVuSans-32"/>
       <use xlink:href="#DejaVuSans-30" transform="translate(63.623047 0)"/>
       <use xlink:href="#DejaVuSans-32" transform="translate(127.246094 0)"/>
       <use xlink:href="#DejaVuSans-31" transform="translate(190.869141 0)"/>
      </g>
     </g>
    </g>
    <g id="xtick_3">
     <g id="line2d_5">
      <path d="M 206.758096 276.48 
L 206.758096 41.472 
" clip-path="url(#p0316e339dd)" style="fill: none; stroke: #b0b0b0; stroke-width: 0.8; stroke-linecap: square"/>
     </g>
     <g id="line2d_6">
      <g>
       <use xlink:href="#me9de6dc7c9" x="206.758096" y="276.48" style="stroke: #000000; stroke-width: 0.8"/>
      </g>
     </g>
     <g id="text_3">
      <!-- 2022 -->
      <g transform="translate(183.677906 302.78544) rotate(-30) scale(0.1 -0.1)">
       <use xlink:href="#DejaVuSans-32"/>
       <use xlink:href="#DejaVuSans-30" transform="translate(63.623047 0)"/>
       <use xlink:href="#DejaVuSans-32" transform="translate(127.246094 0)"/>
       <use xlink:href="#DejaVuSans-32" transform="translate(190.869141 0)"/>
      </g>
     </g>
    </g>
    <g id="xtick_4">
     <g id="line2d_7">
      <path d="M 271.274934 276.48 
L 271.274934 41.472 
" clip-path="url(#p0316e339dd)" style="fill: none; stroke: #b0b0b0; stroke-width: 0.8; stroke-linecap: square"/>
     </g>
     <g id="line2d_8">
      <g>
       <use xlink:href="#me9de6dc7c9" x="271.274934" y="276.48" style="stroke: #000000; stroke-width: 0.8"/>
      </g>
     </g>
     <g id="text_4">
      <!-- 2023 -->
      <g transform="translate(248.194743 302.78544) rotate(-30) scale(0.1 -0.1)">
       <defs>
        <path id="DejaVuSans-33" d="M 2597 2516 
Q 3050 2419 3304 2112 
Q 3559 1806 3559 1356 
Q 3559 666 3084 287 
Q 2609 -91 1734 -91 
Q 1441 -91 1130 -33 
Q 819 25 488 141 
L 488 750 
Q 750 597 1062 519 
Q 1375 441 1716 441 
Q 2309 441 2620 675 
Q 2931 909 2931 1356 
Q 2931 1769 2642 2001 
Q 2353 2234 1838 2234 
L 1294 2234 
L 1294 2753 
L 1863 2753 
Q 2328 2753 2575 2939 
Q 2822 3125 2822 3475 
Q 2822 3834 2567 4026 
Q 2313 4219 1838 4219 
Q 1578 4219 1281 4162 
Q 984 4106 628 3988 
L 628 4550 
Q 988 4650 1302 4700 
Q 1616 4750 1894 4750 
Q 2613 4750 3031 4423 
Q 3450 4097 3450 3541 
Q 3450 3153 3228 2886 
Q 3006 2619 2597 2516 
z
" transform="scale(0.015625)"/>
       </defs>
       <use xlink:href="#DejaVuSans-32"/>
       <use xlink:href="#DejaVuSans-30" transform="translate(63.623047 0)"/>
       <use xlink:href="#DejaVuSans-32" transform="translate(127.246094 0)"/>
       <use xlink:href="#DejaVuSans-33" transform="translate(190.869141 0)"/>
      </g>
     </g>
    </g>
    <g id="xtick_5">
     <g id="line2d_9">
      <path d="M 335.791771 276.48 
L 335.791771 41.472 
" clip-path="url(#p0316e339dd)" style="fill: none; stroke: #b0b0b0; stroke-width: 0.8; stroke-linecap: square"/>
     </g>
     <g id="line2d_10">
      <g>
       <use xlink:href="#me9de6dc7c9" x="335.791771" y="276.48" style="stroke: #000000; stroke-width: 0.8"/>
      </g>
     </g>
     <g id="text_5">
      <!-- 2024 -->
      <g transform="translate(312.711581 302.78544) rotate(-30) scale(0.1 -0.1)">
       <defs>
        <path id="DejaVuSans-34" d="M 2419 4116 
L 825 1625 
L 2419 1625 
L 2419 4116 
z
M 2253 4666 
L 3047 4666 
L 3047 1625 
L 3713 1625 
L 3713 1100 
L 3047 1100 
L 3047 0 
L 2419 0 
L 2419 1100 
L 313 1100 
L 313 1709 
L 2253 4666 
z
" transform="scale(0.015625)"/>
       </defs>
       <use xlink:href="#DejaVuSans-32"/>
       <use xlink:href="#DejaVuSans-30" transform="translate(63.623047 0)"/>
       <use xlink:href="#DejaVuSans-32" transform="translate(127.246094 0)"/>
       <use xlink:href="#DejaVuSans-34" transform="translate(190.869141 0)"/>
      </g>
     </g>
    </g>
    <g id="xtick_6">
     <g id="line2d_11">
      <path d="M 400.485368 276.48 
L 400.485368 41.472 
" clip-path="url(#p0316e339dd)" style="fill: none; stroke: #b0b0b0; stroke-width: 0.8; stroke-linecap: square"/>
     </g>
     <g id="line2d_12">
      <g>
       <use xlink:href="#me9de6dc7c9" x="400.485368" y="276.48" style="stroke: #000000; stroke-width: 0.8"/>
      </g>
     </g>
     <g id="text_6">
      <!-- 2025 -->
      <g transform="translate(377.405177 302.78544) rotate(-30) scale(0.1 -0.1)">
       <defs>
        <path id="DejaVuSans-35" d="M 691 4666 
L 3169 4666 
L 3169 4134 
L 1269 4134 
L 1269 2991 
Q 1406 3038 1543 3061 
Q 1681 3084 1819 3084 
Q 2600 3084 3056 2656 
Q 3513 2228 3513 1497 
Q 3513 744 3044 326 
Q 2575 -91 1722 -91 
Q 1428 -91 1123 -41 
Q 819 9 494 109 
L 494 744 
Q 775 591 1075 516 
Q 1375 441 1709 441 
Q 2250 441 2565 725 
Q 2881 1009 2881 1497 
Q 2881 1984 2565 2268 
Q 2250 2553 1709 2553 
Q 1456 2553 1204 2497 
Q 953 2441 691 2322 
L 691 4666 
z
" transform="scale(0.015625)"/>
       </defs>
       <use xlink:href="#DejaVuSans-32"/>
       <use xlink:href="#DejaVuSans-30" transform="translate(63.623047 0)"/>
       <use xlink:href="#DejaVuSans-32" transform="translate(127.246094 0)"/>
       <use xlink:href="#DejaVuSans-35" transform="translate(190.869141 0)"/>
      </g>
     </g>
    </g>
   </g>
   <g id="matplotlib.axis_2">
    <g id="ytick_1">
     <g id="line2d_13">
      <path d="M 57.6 276.48 
L 414.72 276.48 
" clip-path="url(#p0316e339dd)" style="fill: none; stroke: #b0b0b0; stroke-width: 0.8; stroke-linecap: square"/>
     </g>
     <g id="line2d_14">
      <defs>
       <path id="m7856775b24" d="M 0 0 
L -3.5 0 
" style="stroke: #000000; stroke-width: 0.8"/>
      </defs>
      <g>
       <use xlink:href="#m7856775b24" x="57.6" y="276.48" style="stroke: #000000; stroke-width: 0.8"/>
      </g>
     </g>
     <g id="text_7">
      <!-- 0% -->
      <g transform="translate(34.735937 280.279219) scale(0.1 -0.1)">
       <defs>
        <path id="DejaVuSans-25" d="M 4653 2053 
Q 4381 2053 4226 1822 
Q 4072 1591 4072 1178 
Q 4072 772 4226 539 
Q 4381 306 4653 306 
Q 4919 306 5073 539 
Q 5228 772 5228 1178 
Q 5228 1588 5073 1820 
Q 4919 2053 4653 2053 
z
M 4653 2450 
Q 5147 2450 5437 2106 
Q 5728 1763 5728 1178 
Q 5728 594 5436 251 
Q 5144 -91 4653 -91 
Q 4153 -91 3862 251 
Q 3572 594 3572 1178 
Q 3572 1766 3864 2108 
Q 4156 2450 4653 2450 
z
M 1428 4353 
Q 1159 4353 1004 4120 
Q 850 3888 850 3481 
Q 850 3069 1003 2837 
Q 1156 2606 1428 2606 
Q 1700 2606 1854 2837 
Q 2009 3069 2009 3481 
Q 2009 3884 1853 4118 
Q 1697 4353 1428 4353 
z
M 4250 4750 
L 4750 4750 
L 1831 -91 
L 1331 -91 
L 4250 4750 
z
M 1428 4750 
Q 1922 4750 2215 4408 
Q 2509 4066 2509 3481 
Q 2509 2891 2217 2550 
Q 1925 2209 1428 2209 
Q 931 2209 642 2551 
Q 353 2894 353 3481 
Q 353 4063 643 4406 
Q 934 4750 1428 4750 
z
" transform="scale(0.015625)"/>
       </defs>
       <use xlink:href="#DejaVuSans-30"/>
       <use xlink:href="#DejaVuSans-25" transform="translate(63.623047 0)"/>
      </g>
     </g>
    </g>
    <g id="ytick_2">
     <g id="line2d_15">
      <path d="M 57.6 225.190887 
L 414.72 225.190887 
" clip-path="url(#p0316e339dd)" style="fill: none; stroke: #b0b0b0; stroke-width: 0.8; stroke-linecap: square"/>
     </g>
     <g id="line2d_16">
      <g>
       <use xlink:href="#m7856775b24" x="57.6" y="225.190887" style="stroke: #000000; stroke-width: 0.8"/>
      </g>
     </g>
     <g id="text_8">
      <!-- 20% -->
      <g transform="translate(28.373438 228.990105) scale(0.1 -0.1)">
       <use xlink:href="#DejaVuSans-32"/>
       <use xlink:href="#DejaVuSans-30" transform="translate(63.623047 0)"/>
       <use xlink:href="#DejaVuSans-25" transform="translate(127.246094 0)"/>
      </g>
     </g>
    </g>
    <g id="ytick_3">
     <g id="line2d_17">
      <path d="M 57.6 173.901773 
L 414.72 173.901773 
" clip-path="url(#p0316e339dd)" style="fill: none; stroke: #b0b0b0; stroke-width: 0.8; stroke-linecap: square"/>
     </g>
     <g id="line2d_18">
      <g>
       <use xlink:href="#m7856775b24" x="57.6" y="173.901773" style="stroke: #000000; stroke-width: 0.8"/>
      </g>
     </g>
     <g id="text_9">
      <!-- 40% -->
      <g transform="translate(28.373438 177.700992) scale(0.1 -0.1)">
       <use xlink:href="#DejaVuSans-34"/>
       <use xlink:href="#DejaVuSans-30" transform="translate(63.623047 0)"/>
       <use xlink:href="#DejaVuSans-25" transform="translate(127.246094 0)"/>
      </g>
     </g>
    </g>
    <g id="ytick_4">
     <g id="line2d_19">
      <path d="M 57.6 122.61266 
L 414.72 122.61266 
" clip-path="url(#p0316e339dd)" style="fill: none; stroke: #b0b0b0; stroke-width: 0.8; stroke-linecap: square"/>
     </g>
     <g id="line2d_20">
      <g>
       <use xlink:href="#m7856775b24" x="57.6" y="122.61266" style="stroke: #000000; stroke-width: 0.8"/>
      </g>
     </g>
     <g id="text_10">
      <!-- 60% -->
      <g transform="translate(28.373438 126.411878) scale(0.1 -0.1)">
       <defs>
        <path id="DejaVuSans-36" d="M 2113 2584 
Q 1688 2584 1439 2293 
Q 1191 2003 1191 1497 
Q 1191 994 1439 701 
Q 1688 409 2113 409 
Q 2538 409 2786 701 
Q 3034 994 3034 1497 
Q 3034 2003 2786 2293 
Q 2538 2584 2113 2584 
z
M 3366 4563 
L 3366 3988 
Q 3128 4100 2886 4159 
Q 2644 4219 2406 4219 
Q 1781 4219 1451 3797 
Q 1122 3375 1075 2522 
Q 1259 2794 1537 2939 
Q 1816 3084 2150 3084 
Q 2853 3084 3261 2657 
Q 3669 2231 3669 1497 
Q 3669 778 3244 343 
Q 2819 -91 2113 -91 
Q 1303 -91 875 529 
Q 447 1150 447 2328 
Q 447 3434 972 4092 
Q 1497 4750 2381 4750 
Q 2619 4750 2861 4703 
Q 3103 4656 3366 4563 
z
" transform="scale(0.015625)"/>
       </defs>
       <use xlink:href="#DejaVuSans-36"/>
       <use xlink:href="#DejaVuSans-30" transform="translate(63.623047 0)"/>
       <use xlink:href="#DejaVuSans-25" transform="translate(127.246094 0)"/>
      </g>
     </g>
    </g>
    <g id="ytick_5">
     <g id="line2d_21">
      <path d="M 57.6 71.323546 
L 414.72 71.323546 
" clip-path="url(#p0316e339dd)" style="fill: none; stroke: #b0b0b0; stroke-width: 0.8; stroke-linecap: square"/>
     </g>
     <g id="line2d_22">
      <g>
       <use xlink:href="#m7856775b24" x="57.6" y="71.323546" style="stroke: #000000; stroke-width: 0.8"/>
      </g>
     </g>
     <g id="text_11">
      <!-- 80% -->
      <g transform="translate(28.373438 75.122765) scale(0.1 -0.1)">
       <defs>
        <path id="DejaVuSans-38" d="M 2034 2216 
Q 1584 2216 1326 1975 
Q 1069 1734 1069 1313 
Q 1069 891 1326 650 
Q 1584 409 2034 409 
Q 2484 409 2743 651 
Q 3003 894 3003 1313 
Q 3003 1734 2745 1975 
Q 2488 2216 2034 2216 
z
M 1403 2484 
Q 997 2584 770 2862 
Q 544 3141 544 3541 
Q 544 4100 942 4425 
Q 1341 4750 2034 4750 
Q 2731 4750 3128 4425 
Q 3525 4100 3525 3541 
Q 3525 3141 3298 2862 
Q 3072 2584 2669 2484 
Q 3125 2378 3379 2068 
Q 3634 1759 3634 1313 
Q 3634 634 3220 271 
Q 2806 -91 2034 -91 
Q 1263 -91 848 271 
Q 434 634 434 1313 
Q 434 1759 690 2068 
Q 947 2378 1403 2484 
z
M 1172 3481 
Q 1172 3119 1398 2916 
Q 1625 2713 2034 2713 
Q 2441 2713 2670 2916 
Q 2900 3119 2900 3481 
Q 2900 3844 2670 4047 
Q 2441 4250 2034 4250 
Q 1625 4250 1398 4047 
Q 1172 3844 1172 3481 
z
" transform="scale(0.015625)"/>
       </defs>
       <use xlink:href="#DejaVuSans-38"/>
       <use xlink:href="#DejaVuSans-30" transform="translate(63.623047 0)"/>
       <use xlink:href="#DejaVuSans-25" transform="translate(127.246094 0)"/>
      </g>
     </g>
    </g>
   </g>
   <g id="line2d_23">
    <path d="M 398.487273 51.525948 
L 398.472265 53.808314 
L 397.592087 53.808314 
L 397.452241 56.270191 
L 397.084246 56.270191 
L 396.932909 57.039528 
L 396.901518 58.501268 
L 396.903662 58.501268 
L 396.730619 59.501406 
L 396.62455 64.194359 
L 395.997926 64.732895 
L 395.908872 63.527601 
L 395.901612 63.732757 
L 395.322998 64.450805 
L 395.319135 65.476587 
L 394.804516 65.476587 
L 394.76054 69.246337 
L 394.605657 68.836024 
L 394.4989 72.503196 
L 394.443489 72.503196 
L 394.361765 80.017051 
L 394.192016 80.017051 
L 394.281557 80.017051 
L 394.200999 96.352634 
L 394.089895 96.55779 
L 394.083321 100.814786 
L 393.927948 103.097152 
L 393.916931 103.892133 
L 390.760886 103.943422 
L 389.882816 104.533247 
L 389.811082 104.789693 
L 389.523653 104.405024 
L 389.520116 104.481958 
L 388.794496 105.123072 
L 388.610329 104.635825 
L 388.268087 104.635825 
L 387.575775 105.584674 
L 387.564474 111.380344 
L 387.336504 112.688216 
L 386.93906 112.20097 
L 386.783874 112.20097 
L 386.692479 114.585913 
L 386.312488 114.765425 
L 386.099195 115.021871 
L 385.78604 114.303823 
L 385.472748 119.509668 
L 385.373953 119.894337 
L 384.862015 120.817541 
L 384.760413 120.638029 
L 384.659168 124.02311 
L 384.475239 124.02311 
L 384.099615 124.382134 
L 383.841672 124.382134 
L 383.837824 127.79286 
L 383.624624 128.946865 
L 382.991413 123.022973 
L 381.827567 123.022973 
L 381.149811 123.330707 
L 380.847799 123.330707 
L 380.468616 123.561508 
L 380.328786 124.715513 
L 380.323434 127.126102 
L 380.045025 127.126102 
L 379.912759 127.690282 
L 379.606857 127.690282 
L 379.525945 130.690695 
L 379.205441 133.30644 
L 379.157804 139.076465 
L 379.02117 140.589494 
L 378.899807 145.74405 
L 378.826137 146.846766 
L 378.741395 115.457828 
L 378.675286 116.25281 
L 378.185612 116.175876 
L 378.156093 116.996502 
L 377.247526 116.996502 
L 377.084407 117.509393 
L 377.077028 119.740469 
L 376.798312 121.868968 
L 376.796833 123.792309 
L 374.981638 123.817954 
L 374.963304 124.100044 
L 374.212197 123.817954 
L 373.946779 123.869243 
L 373.725956 124.100044 
L 372.797796 123.946177 
L 371.251239 123.946177 
L 369.885209 122.151058 
L 369.819125 124.766802 
L 369.700981 124.997603 
L 369.259298 125.356627 
L 368.832044 125.356627 
L 368.776594 132.870482 
L 368.317951 132.870482 
L 368.106485 133.434663 
L 367.539362 135.127203 
L 364.928548 135.127203 
L 363.827537 135.409293 
L 363.16465 135.255426 
L 363.142459 136.281208 
L 362.601216 136.563299 
L 362.590126 136.922322 
L 362.34698 136.383787 
L 361.352761 136.383787 
L 361.179986 135.024625 
L 359.062229 135.024625 
L 358.958369 137.512147 
L 358.878407 135.460583 
L 358.647587 135.127203 
L 355.166283 135.101559 
L 354.47387 134.998981 
L 354.346667 136.7941 
L 349.926174 136.7941 
L 348.979753 137.332635 
L 348.585866 136.7941 
L 347.742401 137.07619 
L 347.110743 136.922322 
L 341.559662 136.896678 
L 340.318513 136.537654 
L 339.081181 136.512009 
L 338.904551 135.947829 
L 334.132005 135.947829 
L 333.841174 135.486227 
L 331.878323 135.486227 
L 331.834117 136.435076 
L 331.657326 136.947967 
L 330.420029 135.922185 
L 329.182777 135.922185 
L 327.945427 135.640094 
L 325.718978 135.640094 
L 325.471068 136.383787 
L 324.290461 136.383787 
L 324.289691 136.229919 
L 321.758987 136.229919 
L 321.453455 135.947829 
L 319.685721 135.947829 
L 319.28426 137.64037 
L 318.801914 136.229919 
L 318.636162 136.512009 
L 318.047002 136.896678 
L 317.734184 136.896678 
L 316.809813 137.717304 
L 316.507782 137.717304 
L 316.154334 139.563712 
L 315.973791 139.743224 
L 315.572375 140.358693 
L 315.281737 140.358693 
L 315.034715 140.84594 
L 314.213659 140.84594 
L 313.672248 143.512973 
L 313.451233 144.025865 
L 313.252515 145.436315 
L 313.097775 150.949895 
L 313.057614 145.436315 
L 312.449624 145.436315 
L 312.261835 155.540271 
L 311.860427 155.796716 
L 311.658135 155.540271 
L 309.814867 155.540271 
L 309.38578 156.053162 
L 308.148465 155.30947 
L 306.697779 153.257905 
L 306.638446 153.257905 
L 306.632601 153.411772 
L 304.436619 153.411772 
L 303.19923 153.155327 
L 300.323513 153.155327 
L 300.319642 153.488706 
L 299.196475 153.488706 
L 298.96743 154.514488 
L 297.159719 154.514488 
L 296.967074 154.97609 
L 297.01241 154.97609 
L 296.879194 149.18042 
L 296.434412 149.18042 
L 295.752932 149.744601 
L 295.50803 150.206203 
L 295.22273 150.103624 
L 294.85442 150.103624 
L 294.850842 150.975539 
L 294.537828 151.360208 
L 293.871799 151.360208 
L 293.480997 151.052473 
L 292.06312 151.437141 
L 289.991257 151.437141 
L 290.564515 151.437141 
L 289.09576 151.770521 
L 287.345981 151.796165 
L 287.114012 152.001322 
L 285.603868 152.001322 
L 284.882371 152.232123 
L 284.849288 152.924526 
L 284.847455 152.488568 
L 282.311996 152.488568 
L 282.168513 152.693725 
L 281.862741 152.591146 
L 281.172675 153.129682 
L 281.171533 134.4348 
L 271.973079 134.4348 
L 279.247687 134.4348 
L 279.224226 136.999256 
L 271.030361 136.922322 
L 270.670692 142.333324 
L 270.551969 143.641196 
L 270.398365 143.641196 
L 270.338337 147.257079 
L 269.34817 147.231434 
L 269.187719 147.693036 
L 268.160038 147.693036 
L 268.010332 147.898193 
L 267.953796 154.155464 
L 267.014734 154.155464 
L 266.934004 155.488981 
L 266.685091 155.488981 
L 266.629451 156.591697 
L 264.185997 156.591697 
L 263.586409 157.053299 
L 262.875691 157.053299 
L 262.7366 157.181522 
L 262.648382 159.156153 
L 262.404177 159.156153 
L 262.295185 159.745978 
L 261.984982 159.745978 
L 261.918012 160.899983 
L 261.833794 160.899983 
L 261.668249 162.413012 
L 261.347534 163.464439 
L 261.181778 161.105139 
L 261.176915 161.95141 
L 261.133787 161.95141 
L 261.130332 159.540821 
L 260.13643 158.053437 
L 259.76466 158.489395 
L 258.38407 158.489395 
L 258.378344 158.720196 
L 250.011495 158.950997 
L 249.62416 159.181798 
L 247.926133 159.874201 
L 246.327828 160.105002 
L 244.575151 160.540959 
L 244.460545 162.438656 
L 236.967115 162.438656 
L 236.941217 162.772036 
L 236.150096 162.772036 
L 235.730084 161.028206 
L 234.435312 161.028206 
L 233.697689 161.233362 
L 233.544083 161.464163 
L 233.439646 161.464163 
L 233.431844 161.694964 
L 230.596695 161.694964 
L 230.088224 162.156566 
L 222.749385 163.284927 
L 217.332029 163.746529 
L 215.111605 164.644088 
L 212.876079 164.874889 
L 212.405326 165.336491 
L 212.397243 165.798093 
L 210.873285 165.798093 
L 207.250008 166.028894 
L 203.994406 166.028894 
L 202.937041 166.618719 
L 196.832464 166.618719 
L 196.827972 166.84952 
L 194.926711 166.84952 
L 194.708435 167.977881 
L 193.988801 167.977881 
L 192.243332 168.208682 
L 192.169617 168.567705 
L 190.291724 170.183312 
L 190.276976 172.311811 
L 189.231408 173.49146 
L 187.635818 173.722261 
L 182.46873 173.645328 
L 181.940533 173.542749 
L 181.377699 173.542749 
L 181.214788 173.747906 
L 181.027064 176.850897 
L 180.580944 176.773963 
L 180.520342 177.82539 
L 179.693252 177.82539 
L 179.638148 183.595416 
L 178.82682 183.595416 
L 178.928553 183.595416 
L 178.755127 183.159458 
L 177.922466 183.159458 
L 177.918264 183.723638 
L 177.690822 183.90315 
L 176.807279 183.108169 
L 175.63587 183.108169 
L 175.633497 183.492837 
L 175.63186 180.159045 
L 175.631152 180.159045 
L 173.755694 180.159045 
L 171.811425 179.902599 
L 168.498883 179.902599 
L 167.920903 180.287268 
L 167.390327 180.287268 
L 167.141572 180.1334 
L 167.123264 182.723501 
L 166.967719 183.108169 
L 166.860303 183.492837 
L 166.619769 183.492837 
L 165.975985 184.46733 
L 165.715889 184.46733 
L 165.622698 184.672487 
L 163.5599 184.621198 
L 163.325183 185.595691 
L 163.068567 185.595691 
L 162.971028 185.800847 
L 160.616284 185.800847 
L 159.786366 186.980497 
L 158.298369 186.980497 
L 158.195369 187.365165 
L 156.904003 187.057431 
L 155.014537 190.006555 
L 151.120949 190.006555 
L 150.94427 189.827043 
L 140.392666 189.827043 
L 140.336346 190.801536 
L 137.261529 190.827181 
L 135.16609 191.032337 
L 134.963624 191.801674 
L 134.805439 193.18648 
L 134.404778 194.750798 
L 134.281528 195.314978 
L 134.171543 202.9827 
L 134.0872 202.9827 
L 134.011288 211.804428 
L 133.286777 211.98394 
L 132.300481 211.98394 
L 132.116139 217.292363 
L 132.114003 217.292363 
L 131.850872 217.49752 
L 130.755874 217.49752 
L 130.746601 217.882188 
L 130.610173 217.882188 
L 130.43471 217.702676 
L 128.235088 217.702676 
L 128.227222 218.600235 
L 121.035429 218.600235 
L 120.470717 218.754103 
L 120.237404 218.933615 
L 120.234812 219.985042 
L 119.598058 219.985042 
L 119.242507 220.164553 
L 116.60486 220.164553 
L 118.734791 220.113264 
L 118.381225 221.344203 
L 117.302952 221.857094 
L 116.790219 221.857094 
L 116.437338 222.575142 
L 111.840943 222.575142 
L 111.664792 222.934166 
L 108.128676 222.908521 
L 107.952484 223.447057 
L 107.421569 223.447057 
L 107.2448 223.600924 
L 107.183389 224.524128 
L 106.71468 224.524128 
L 106.538468 224.98573 
L 104.416699 224.98573 
L 104.240006 224.13946 
L 103.886432 224.13946 
L 103.710547 224.883152 
L 101.765511 224.883152 
L 101.588828 225.26782 
L 98.760339 225.26782 
L 98.583803 226.037157 
L 98.406971 226.216669 
L 96.46226 226.216669 
L 96.286193 226.986006 
L 96.108823 226.986006 
L 95.932588 227.370674 
L 90.276016 227.370674 
L 90.099765 227.57583 
L 86.563921 227.57583 
L 86.387948 228.627257 
L 85.326675 228.627257 
L 84.974042 233.345856 
L 83.912452 233.345856 
L 83.735702 233.525367 
L 82.498397 233.525367 
L 82.321636 233.884391 
L 81.982004 233.884391 
L 81.932606 236.85916 
L 81.715357 249.989173 
L 81.676652 249.963528 
L 80.907591 249.963528 
L 79.84785 250.14304 
L 79.464012 250.322552 
L 79.388323 250.502064 
L 78.963577 250.502064 
L 78.963495 250.681576 
L 78.256588 250.681576 
L 78.256521 250.861088 
L 78.079775 250.861088 
L 78.079697 251.0406 
L 77.70706 251.0406 
L 77.703056 252.271538 
L 77.393565 252.271538 
L 77.372667 252.45105 
L 77.27453 252.45105 
L 77.204595 252.604918 
L 73.832727 252.604918 
L 73.832727 252.604918 
" clip-path="url(#p0316e339dd)" style="fill: none; stroke: #1f77b4; stroke-width: 1.5; stroke-linecap: square"/>
   </g>
   <g id="patch_3">
    <path d="M 57.6 276.48 
L 57.6 41.472 
" style="fill: none; stroke: #000000; stroke-width: 0.8; stroke-linejoin: miter; stroke-linecap: square"/>
   </g>
   <g id="patch_4">
    <path d="M 414.72 276.48 
L 414.72 41.472 
" style="fill: none; stroke: #000000; stroke-width: 0.8; stroke-linejoin: miter; stroke-linecap: square"/>
   </g>
   <g id="patch_5">
    <path d="M 57.6 276.48 
L 414.72 276.48 
" style="fill: none; stroke: #000000; stroke-width: 0.8; stroke-linejoin: miter; stroke-linecap: square"/>
   </g>
   <g id="patch_6">
    <path d="M 57.6 41.472 
L 414.72 41.472 
" style="fill: none; stroke: #000000; stroke-width: 0.8; stroke-linejoin: miter; stroke-linecap: square"/>
   </g>
   <g id="text_12">
    <!-- Postęp tłumaczenia do dodania do przełącznika języków -->
    <g transform="translate(67.57125 35.472) scale(0.12 -0.12)">
     <defs>
      <path id="DejaVuSans-50" d="M 1259 4147 
L 1259 2394 
L 2053 2394 
Q 2494 2394 2734 2622 
Q 2975 2850 2975 3272 
Q 2975 3691 2734 3919 
Q 2494 4147 2053 4147 
L 1259 4147 
z
M 628 4666 
L 2053 4666 
Q 2838 4666 3239 4311 
Q 3641 3956 3641 3272 
Q 3641 2581 3239 2228 
Q 2838 1875 2053 1875 
L 1259 1875 
L 1259 0 
L 628 0 
L 628 4666 
z
" transform="scale(0.015625)"/>
      <path id="DejaVuSans-6f" d="M 1959 3097 
Q 1497 3097 1228 2736 
Q 959 2375 959 1747 
Q 959 1119 1226 758 
Q 1494 397 1959 397 
Q 2419 397 2687 759 
Q 2956 1122 2956 1747 
Q 2956 2369 2687 2733 
Q 2419 3097 1959 3097 
z
M 1959 3584 
Q 2709 3584 3137 3096 
Q 3566 2609 3566 1747 
Q 3566 888 3137 398 
Q 2709 -91 1959 -91 
Q 1206 -91 779 398 
Q 353 888 353 1747 
Q 353 2609 779 3096 
Q 1206 3584 1959 3584 
z
" transform="scale(0.015625)"/>
      <path id="DejaVuSans-73" d="M 2834 3397 
L 2834 2853 
Q 2591 2978 2328 3040 
Q 2066 3103 1784 3103 
Q 1356 3103 1142 2972 
Q 928 2841 928 2578 
Q 928 2378 1081 2264 
Q 1234 2150 1697 2047 
L 1894 2003 
Q 2506 1872 2764 1633 
Q 3022 1394 3022 966 
Q 3022 478 2636 193 
Q 2250 -91 1575 -91 
Q 1294 -91 989 -36 
Q 684 19 347 128 
L 347 722 
Q 666 556 975 473 
Q 1284 391 1588 391 
Q 1994 391 2212 530 
Q 2431 669 2431 922 
Q 2431 1156 2273 1281 
Q 2116 1406 1581 1522 
L 1381 1569 
Q 847 1681 609 1914 
Q 372 2147 372 2553 
Q 372 3047 722 3315 
Q 1072 3584 1716 3584 
Q 2034 3584 2315 3537 
Q 2597 3491 2834 3397 
z
" transform="scale(0.015625)"/>
      <path id="DejaVuSans-74" d="M 1172 4494 
L 1172 3500 
L 2356 3500 
L 2356 3053 
L 1172 3053 
L 1172 1153 
Q 1172 725 1289 603 
Q 1406 481 1766 481 
L 2356 481 
L 2356 0 
L 1766 0 
Q 1100 0 847 248 
Q 594 497 594 1153 
L 594 3053 
L 172 3053 
L 172 3500 
L 594 3500 
L 594 4494 
L 1172 4494 
z
" transform="scale(0.015625)"/>
      <path id="DejaVuSans-119" d="M 3597 1894 
L 3597 1613 
L 953 1613 
Q 991 1019 1311 708 
Q 1631 397 2203 397 
Q 2534 397 2845 478 
Q 3156 559 3463 722 
L 3463 178 
Q 3153 47 2828 -22 
Q 2503 -91 2169 -91 
Q 1331 -91 842 396 
Q 353 884 353 1716 
Q 353 2575 817 3079 
Q 1281 3584 2069 3584 
Q 2775 3584 3186 3129 
Q 3597 2675 3597 1894 
z
M 3022 2063 
Q 3016 2534 2758 2815 
Q 2500 3097 2075 3097 
Q 1594 3097 1305 2825 
Q 1016 2553 972 2059 
L 3022 2063 
z
M 2551 0 
L 2923 0 
Q 2782 -191 2715 -328 
Q 2648 -466 2648 -563 
Q 2648 -706 2734 -778 
Q 2820 -850 2989 -850 
Q 3089 -850 3185 -826 
Q 3282 -803 3379 -756 
L 3379 -1172 
Q 3260 -1203 3154 -1218 
Q 3048 -1234 2954 -1234 
Q 2573 -1234 2393 -1098 
Q 2214 -963 2214 -672 
Q 2214 -522 2296 -358 
Q 2379 -194 2551 0 
z
" transform="scale(0.015625)"/>
      <path id="DejaVuSans-70" d="M 1159 525 
L 1159 -1331 
L 581 -1331 
L 581 3500 
L 1159 3500 
L 1159 2969 
Q 1341 3281 1617 3432 
Q 1894 3584 2278 3584 
Q 2916 3584 3314 3078 
Q 3713 2572 3713 1747 
Q 3713 922 3314 415 
Q 2916 -91 2278 -91 
Q 1894 -91 1617 61 
Q 1341 213 1159 525 
z
M 3116 1747 
Q 3116 2381 2855 2742 
Q 2594 3103 2138 3103 
Q 1681 3103 1420 2742 
Q 1159 2381 1159 1747 
Q 1159 1113 1420 752 
Q 1681 391 2138 391 
Q 2594 391 2855 752 
Q 3116 1113 3116 1747 
z
" transform="scale(0.015625)"/>
      <path id="DejaVuSans-20" transform="scale(0.015625)"/>
      <path id="DejaVuSans-142" d="M 622 4863 
L 1197 4863 
L 1197 2981 
L 1588 3263 
L 1825 2931 
L 1197 2491 
L 1197 0 
L 622 0 
L 622 2081 
L 238 1806 
L 6 2138 
L 622 2578 
L 622 4863 
z
" transform="scale(0.015625)"/>
      <path id="DejaVuSans-75" d="M 544 1381 
L 544 3500 
L 1119 3500 
L 1119 1403 
Q 1119 906 1312 657 
Q 1506 409 1894 409 
Q 2359 409 2629 706 
Q 2900 1003 2900 1516 
L 2900 3500 
L 3475 3500 
L 3475 0 
L 2900 0 
L 2900 538 
Q 2691 219 2414 64 
Q 2138 -91 1772 -91 
Q 1169 -91 856 284 
Q 544 659 544 1381 
z
M 1991 3584 
L 1991 3584 
z
" transform="scale(0.015625)"/>
      <path id="DejaVuSans-6d" d="M 3328 2828 
Q 3544 3216 3844 3400 
Q 4144 3584 4550 3584 
Q 5097 3584 5394 3201 
Q 5691 2819 5691 2113 
L 5691 0 
L 5113 0 
L 5113 2094 
Q 5113 2597 4934 2840 
Q 4756 3084 4391 3084 
Q 3944 3084 3684 2787 
Q 3425 2491 3425 1978 
L 3425 0 
L 2847 0 
L 2847 2094 
Q 2847 2600 2669 2842 
Q 2491 3084 2119 3084 
Q 1678 3084 1418 2786 
Q 1159 2488 1159 1978 
L 1159 0 
L 581 0 
L 581 3500 
L 1159 3500 
L 1159 2956 
Q 1356 3278 1631 3431 
Q 1906 3584 2284 3584 
Q 2666 3584 2933 3390 
Q 3200 3197 3328 2828 
z
" transform="scale(0.015625)"/>
      <path id="DejaVuSans-61" d="M 2194 1759 
Q 1497 1759 1228 1600 
Q 959 1441 959 1056 
Q 959 750 1161 570 
Q 1363 391 1709 391 
Q 2188 391 2477 730 
Q 2766 1069 2766 1631 
L 2766 1759 
L 2194 1759 
z
M 3341 1997 
L 3341 0 
L 2766 0 
L 2766 531 
Q 2569 213 2275 61 
Q 1981 -91 1556 -91 
Q 1019 -91 701 211 
Q 384 513 384 1019 
Q 384 1609 779 1909 
Q 1175 2209 1959 2209 
L 2766 2209 
L 2766 2266 
Q 2766 2663 2505 2880 
Q 2244 3097 1772 3097 
Q 1472 3097 1187 3025 
Q 903 2953 641 2809 
L 641 3341 
Q 956 3463 1253 3523 
Q 1550 3584 1831 3584 
Q 2591 3584 2966 3190 
Q 3341 2797 3341 1997 
z
" transform="scale(0.015625)"/>
      <path id="DejaVuSans-63" d="M 3122 3366 
L 3122 2828 
Q 2878 2963 2633 3030 
Q 2388 3097 2138 3097 
Q 1578 3097 1268 2742 
Q 959 2388 959 1747 
Q 959 1106 1268 751 
Q 1578 397 2138 397 
Q 2388 397 2633 464 
Q 2878 531 3122 666 
L 3122 134 
Q 2881 22 2623 -34 
Q 2366 -91 2075 -91 
Q 1284 -91 818 406 
Q 353 903 353 1747 
Q 353 2603 823 3093 
Q 1294 3584 2113 3584 
Q 2378 3584 2631 3529 
Q 2884 3475 3122 3366 
z
" transform="scale(0.015625)"/>
      <path id="DejaVuSans-7a" d="M 353 3500 
L 3084 3500 
L 3084 2975 
L 922 459 
L 3084 459 
L 3084 0 
L 275 0 
L 275 525 
L 2438 3041 
L 353 3041 
L 353 3500 
z
" transform="scale(0.015625)"/>
      <path id="DejaVuSans-65" d="M 3597 1894 
L 3597 1613 
L 953 1613 
Q 991 1019 1311 708 
Q 1631 397 2203 397 
Q 2534 397 2845 478 
Q 3156 559 3463 722 
L 3463 178 
Q 3153 47 2828 -22 
Q 2503 -91 2169 -91 
Q 1331 -91 842 396 
Q 353 884 353 1716 
Q 353 2575 817 3079 
Q 1281 3584 2069 3584 
Q 2775 3584 3186 3129 
Q 3597 2675 3597 1894 
z
M 3022 2063 
Q 3016 2534 2758 2815 
Q 2500 3097 2075 3097 
Q 1594 3097 1305 2825 
Q 1016 2553 972 2059 
L 3022 2063 
z
" transform="scale(0.015625)"/>
      <path id="DejaVuSans-6e" d="M 3513 2113 
L 3513 0 
L 2938 0 
L 2938 2094 
Q 2938 2591 2744 2837 
Q 2550 3084 2163 3084 
Q 1697 3084 1428 2787 
Q 1159 2491 1159 1978 
L 1159 0 
L 581 0 
L 581 3500 
L 1159 3500 
L 1159 2956 
Q 1366 3272 1645 3428 
Q 1925 3584 2291 3584 
Q 2894 3584 3203 3211 
Q 3513 2838 3513 2113 
z
" transform="scale(0.015625)"/>
      <path id="DejaVuSans-69" d="M 603 3500 
L 1178 3500 
L 1178 0 
L 603 0 
L 603 3500 
z
M 603 4863 
L 1178 4863 
L 1178 4134 
L 603 4134 
L 603 4863 
z
" transform="scale(0.015625)"/>
      <path id="DejaVuSans-64" d="M 2906 2969 
L 2906 4863 
L 3481 4863 
L 3481 0 
L 2906 0 
L 2906 525 
Q 2725 213 2448 61 
Q 2172 -91 1784 -91 
Q 1150 -91 751 415 
Q 353 922 353 1747 
Q 353 2572 751 3078 
Q 1150 3584 1784 3584 
Q 2172 3584 2448 3432 
Q 2725 3281 2906 2969 
z
M 947 1747 
Q 947 1113 1208 752 
Q 1469 391 1925 391 
Q 2381 391 2643 752 
Q 2906 1113 2906 1747 
Q 2906 2381 2643 2742 
Q 2381 3103 1925 3103 
Q 1469 3103 1208 2742 
Q 947 2381 947 1747 
z
" transform="scale(0.015625)"/>
      <path id="DejaVuSans-72" d="M 2631 2963 
Q 2534 3019 2420 3045 
Q 2306 3072 2169 3072 
Q 1681 3072 1420 2755 
Q 1159 2438 1159 1844 
L 1159 0 
L 581 0 
L 581 3500 
L 1159 3500 
L 1159 2956 
Q 1341 3275 1631 3429 
Q 1922 3584 2338 3584 
Q 2397 3584 2469 3576 
Q 2541 3569 2628 3553 
L 2631 2963 
z
" transform="scale(0.015625)"/>
      <path id="DejaVuSans-105" d="M 2194 1759 
Q 1497 1759 1228 1600 
Q 959 1441 959 1056 
Q 959 750 1161 570 
Q 1363 391 1709 391 
Q 2188 391 2477 730 
Q 2766 1069 2766 1631 
L 2766 1759 
L 2194 1759 
z
M 3341 1997 
L 3341 0 
L 2766 0 
L 2766 531 
Q 2569 213 2275 61 
Q 1981 -91 1556 -91 
Q 1019 -91 701 211 
Q 384 513 384 1019 
Q 384 1609 779 1909 
Q 1175 2209 1959 2209 
L 2766 2209 
L 2766 2266 
Q 2766 2663 2505 2880 
Q 2244 3097 1772 3097 
Q 1472 3097 1187 3025 
Q 903 2953 641 2809 
L 641 3341 
Q 956 3463 1253 3523 
Q 1550 3584 1831 3584 
Q 2591 3584 2966 3190 
Q 3341 2797 3341 1997 
z
M 2775 0 
L 3147 0 
Q 3006 -191 2939 -328 
Q 2872 -466 2872 -563 
Q 2872 -706 2958 -778 
Q 3044 -850 3213 -850 
Q 3313 -850 3409 -826 
Q 3506 -803 3603 -756 
L 3603 -1172 
Q 3484 -1203 3378 -1218 
Q 3272 -1234 3178 -1234 
Q 2797 -1234 2617 -1098 
Q 2438 -963 2438 -672 
Q 2438 -522 2520 -358 
Q 2603 -194 2775 0 
z
" transform="scale(0.015625)"/>
      <path id="DejaVuSans-6b" d="M 581 4863 
L 1159 4863 
L 1159 1991 
L 2875 3500 
L 3609 3500 
L 1753 1863 
L 3688 0 
L 2938 0 
L 1159 1709 
L 1159 0 
L 581 0 
L 581 4863 
z
" transform="scale(0.015625)"/>
      <path id="DejaVuSans-6a" d="M 603 3500 
L 1178 3500 
L 1178 -63 
Q 1178 -731 923 -1031 
Q 669 -1331 103 -1331 
L -116 -1331 
L -116 -844 
L 38 -844 
Q 366 -844 484 -692 
Q 603 -541 603 -63 
L 603 3500 
z
M 603 4863 
L 1178 4863 
L 1178 4134 
L 603 4134 
L 603 4863 
z
" transform="scale(0.015625)"/>
      <path id="DejaVuSans-79" d="M 2059 -325 
Q 1816 -950 1584 -1140 
Q 1353 -1331 966 -1331 
L 506 -1331 
L 506 -850 
L 844 -850 
Q 1081 -850 1212 -737 
Q 1344 -625 1503 -206 
L 1606 56 
L 191 3500 
L 800 3500 
L 1894 763 
L 2988 3500 
L 3597 3500 
L 2059 -325 
z
" transform="scale(0.015625)"/>
      <path id="DejaVuSans-f3" d="M 1959 3097 
Q 1497 3097 1228 2736 
Q 959 2375 959 1747 
Q 959 1119 1226 758 
Q 1494 397 1959 397 
Q 2419 397 2687 759 
Q 2956 1122 2956 1747 
Q 2956 2369 2687 2733 
Q 2419 3097 1959 3097 
z
M 1959 3584 
Q 2709 3584 3137 3096 
Q 3566 2609 3566 1747 
Q 3566 888 3137 398 
Q 2709 -91 1959 -91 
Q 1206 -91 779 398 
Q 353 888 353 1747 
Q 353 2609 779 3096 
Q 1206 3584 1959 3584 
z
M 2394 5119 
L 3016 5119 
L 1998 3944 
L 1519 3944 
L 2394 5119 
z
" transform="scale(0.015625)"/>
      <path id="DejaVuSans-77" d="M 269 3500 
L 844 3500 
L 1563 769 
L 2278 3500 
L 2956 3500 
L 3675 769 
L 4391 3500 
L 4966 3500 
L 4050 0 
L 3372 0 
L 2619 2869 
L 1863 0 
L 1184 0 
L 269 3500 
z
" transform="scale(0.015625)"/>
     </defs>
     <use xlink:href="#DejaVuSans-50"/>
     <use xlink:href="#DejaVuSans-6f" transform="translate(56.677734 0)"/>
     <use xlink:href="#DejaVuSans-73" transform="translate(117.859375 0)"/>
     <use xlink:href="#DejaVuSans-74" transform="translate(169.958984 0)"/>
     <use xlink:href="#DejaVuSans-119" transform="translate(209.167969 0)"/>
     <use xlink:href="#DejaVuSans-70" transform="translate(270.691406 0)"/>
     <use xlink:href="#DejaVuSans-20" transform="translate(334.167969 0)"/>
     <use xlink:href="#DejaVuSans-74" transform="translate(365.955078 0)"/>
     <use xlink:href="#DejaVuSans-142" transform="translate(405.164062 0)"/>
     <use xlink:href="#DejaVuSans-75" transform="translate(433.582031 0)"/>
     <use xlink:href="#DejaVuSans-6d" transform="translate(496.960938 0)"/>
     <use xlink:href="#DejaVuSans-61" transform="translate(594.373047 0)"/>
     <use xlink:href="#DejaVuSans-63" transform="translate(655.652344 0)"/>
     <use xlink:href="#DejaVuSans-7a" transform="translate(710.632812 0)"/>
     <use xlink:href="#DejaVuSans-65" transform="translate(763.123047 0)"/>
     <use xlink:href="#DejaVuSans-6e" transform="translate(824.646484 0)"/>
     <use xlink:href="#DejaVuSans-69" transform="translate(888.025391 0)"/>
     <use xlink:href="#DejaVuSans-61" transform="translate(915.808594 0)"/>
     <use xlink:href="#DejaVuSans-20" transform="translate(977.087891 0)"/>
     <use xlink:href="#DejaVuSans-64" transform="translate(1008.875 0)"/>
     <use xlink:href="#DejaVuSans-6f" transform="translate(1072.351562 0)"/>
     <use xlink:href="#DejaVuSans-20" transform="translate(1133.533203 0)"/>
     <use xlink:href="#DejaVuSans-64" transform="translate(1165.320312 0)"/>
     <use xlink:href="#DejaVuSans-6f" transform="translate(1228.796875 0)"/>
     <use xlink:href="#DejaVuSans-64" transform="translate(1289.978516 0)"/>
     <use xlink:href="#DejaVuSans-61" transform="translate(1353.455078 0)"/>
     <use xlink:href="#DejaVuSans-6e" transform="translate(1414.734375 0)"/>
     <use xlink:href="#DejaVuSans-69" transform="translate(1478.113281 0)"/>
     <use xlink:href="#DejaVuSans-61" transform="translate(1505.896484 0)"/>
     <use xlink:href="#DejaVuSans-20" transform="translate(1567.175781 0)"/>
     <use xlink:href="#DejaVuSans-64" transform="translate(1598.962891 0)"/>
     <use xlink:href="#DejaVuSans-6f" transform="translate(1662.439453 0)"/>
     <use xlink:href="#DejaVuSans-20" transform="translate(1723.621094 0)"/>
     <use xlink:href="#DejaVuSans-70" transform="translate(1755.408203 0)"/>
     <use xlink:href="#DejaVuSans-72" transform="translate(1818.884766 0)"/>
     <use xlink:href="#DejaVuSans-7a" transform="translate(1859.998047 0)"/>
     <use xlink:href="#DejaVuSans-65" transform="translate(1912.488281 0)"/>
     <use xlink:href="#DejaVuSans-142" transform="translate(1974.011719 0)"/>
     <use xlink:href="#DejaVuSans-105" transform="translate(2002.429688 0)"/>
     <use xlink:href="#DejaVuSans-63" transform="translate(2063.708984 0)"/>
     <use xlink:href="#DejaVuSans-7a" transform="translate(2118.689453 0)"/>
     <use xlink:href="#DejaVuSans-6e" transform="translate(2171.179688 0)"/>
     <use xlink:href="#DejaVuSans-69" transform="translate(2234.558594 0)"/>
     <use xlink:href="#DejaVuSans-6b" transform="translate(2262.341797 0)"/>
     <use xlink:href="#DejaVuSans-61" transform="translate(2318.501953 0)"/>
     <use xlink:href="#DejaVuSans-20" transform="translate(2379.78125 0)"/>
     <use xlink:href="#DejaVuSans-6a" transform="translate(2411.568359 0)"/>
     <use xlink:href="#DejaVuSans-119" transform="translate(2439.351562 0)"/>
     <use xlink:href="#DejaVuSans-7a" transform="translate(2500.875 0)"/>
     <use xlink:href="#DejaVuSans-79" transform="translate(2553.365234 0)"/>
     <use xlink:href="#DejaVuSans-6b" transform="translate(2612.544922 0)"/>
     <use xlink:href="#DejaVuSans-f3" transform="translate(2666.830078 0)"/>
     <use xlink:href="#DejaVuSans-77" transform="translate(2728.011719 0)"/>
    </g>
   </g>
  </g>
 </g>
 <defs>
  <clipPath id="p0316e339dd">
   <rect x="57.6" y="41.472" width="357.12" height="235.008"/>
  </clipPath>
 </defs>
</svg>
