<?xml version="1.0" encoding="utf-8" standalone="no"?>
<!DOCTYPE svg PUBLIC "-//W3C//DTD SVG 1.1//EN"
  "http://www.w3.org/Graphics/SVG/1.1/DTD/svg11.dtd">
<svg xmlns:xlink="http://www.w3.org/1999/xlink" width="460.8pt" height="345.6pt" viewBox="0 0 460.8 345.6" xmlns="http://www.w3.org/2000/svg" version="1.1">
 <metadata>
  <rdf:RDF xmlns:dc="http://purl.org/dc/elements/1.1/" xmlns:cc="http://creativecommons.org/ns#" xmlns:rdf="http://www.w3.org/1999/02/22-rdf-syntax-ns#">
   <cc:Work>
    <dc:type rdf:resource="http://purl.org/dc/dcmitype/StillImage"/>
    <dc:date>2024-12-27T13:39:14.939916</dc:date>
    <dc:format>image/svg+xml</dc:format>
    <dc:creator>
     <cc:Agent>
      <dc:title>Matplotlib v3.10.0, https://matplotlib.org/</dc:title>
     </cc:Agent>
    </dc:creator>
   </cc:Work>
  </rdf:RDF>
 </metadata>
 <defs>
  <style type="text/css">*{stroke-linejoin: round; stroke-linecap: butt}</style>
 </defs>
 <g id="figure_1">
  <g id="patch_1">
   <path d="M 0 345.6 
L 460.8 345.6 
L 460.8 0 
L 0 0 
z
" style="fill: #ffffff"/>
  </g>
  <g id="axes_1">
   <g id="patch_2">
    <path d="M 57.6 276.48 
L 414.72 276.48 
L 414.72 41.472 
L 57.6 41.472 
z
" style="fill: #ffffff"/>
   </g>
   <g id="matplotlib.axis_1">
    <g id="xtick_1">
     <g id="line2d_1">
      <path d="M 77.533813 276.48 
L 77.533813 41.472 
" clip-path="url(#pd9677b10c3)" style="fill: none; stroke: #b0b0b0; stroke-width: 0.8; stroke-linecap: square"/>
     </g>
     <g id="line2d_2">
      <defs>
       <path id="meb272a9d91" d="M 0 0 
L 0 3.5 
" style="stroke: #000000; stroke-width: 0.8"/>
      </defs>
      <g>
       <use xlink:href="#meb272a9d91" x="77.533813" y="276.48" style="stroke: #000000; stroke-width: 0.8"/>
      </g>
     </g>
     <g id="text_1">
      <!-- 2020 -->
      <g transform="translate(54.453623 302.78544) rotate(-30) scale(0.1 -0.1)">
       <defs>
        <path id="DejaVuSans-32" d="M 1228 531 
L 3431 531 
L 3431 0 
L 469 0 
L 469 531 
Q 828 903 1448 1529 
Q 2069 2156 2228 2338 
Q 2531 2678 2651 2914 
Q 2772 3150 2772 3378 
Q 2772 3750 2511 3984 
Q 2250 4219 1831 4219 
Q 1534 4219 1204 4116 
Q 875 4013 500 3803 
L 500 4441 
Q 881 4594 1212 4672 
Q 1544 4750 1819 4750 
Q 2544 4750 2975 4387 
Q 3406 4025 3406 3419 
Q 3406 3131 3298 2873 
Q 3191 2616 2906 2266 
Q 2828 2175 2409 1742 
Q 1991 1309 1228 531 
z
" transform="scale(0.015625)"/>
        <path id="DejaVuSans-30" d="M 2034 4250 
Q 1547 4250 1301 3770 
Q 1056 3291 1056 2328 
Q 1056 1369 1301 889 
Q 1547 409 2034 409 
Q 2525 409 2770 889 
Q 3016 1369 3016 2328 
Q 3016 3291 2770 3770 
Q 2525 4250 2034 4250 
z
M 2034 4750 
Q 2819 4750 3233 4129 
Q 3647 3509 3647 2328 
Q 3647 1150 3233 529 
Q 2819 -91 2034 -91 
Q 1250 -91 836 529 
Q 422 1150 422 2328 
Q 422 3509 836 4129 
Q 1250 4750 2034 4750 
z
" transform="scale(0.015625)"/>
       </defs>
       <use xlink:href="#DejaVuSans-32"/>
       <use xlink:href="#DejaVuSans-30" transform="translate(63.623047 0)"/>
       <use xlink:href="#DejaVuSans-32" transform="translate(127.246094 0)"/>
       <use xlink:href="#DejaVuSans-30" transform="translate(190.869141 0)"/>
      </g>
     </g>
    </g>
    <g id="xtick_2">
     <g id="line2d_3">
      <path d="M 141.986232 276.48 
L 141.986232 41.472 
" clip-path="url(#pd9677b10c3)" style="fill: none; stroke: #b0b0b0; stroke-width: 0.8; stroke-linecap: square"/>
     </g>
     <g id="line2d_4">
      <g>
       <use xlink:href="#meb272a9d91" x="141.986232" y="276.48" style="stroke: #000000; stroke-width: 0.8"/>
      </g>
     </g>
     <g id="text_2">
      <!-- 2021 -->
      <g transform="translate(118.906041 302.78544) rotate(-30) scale(0.1 -0.1)">
       <defs>
        <path id="DejaVuSans-31" d="M 794 531 
L 1825 531 
L 1825 4091 
L 703 3866 
L 703 4441 
L 1819 4666 
L 2450 4666 
L 2450 531 
L 3481 531 
L 3481 0 
L 794 0 
L 794 531 
z
" transform="scale(0.015625)"/>
       </defs>
       <use xlink:href="#DejaVuSans-32"/>
       <use xlink:href="#DejaVuSans-30" transform="translate(63.623047 0)"/>
       <use xlink:href="#DejaVuSans-32" transform="translate(127.246094 0)"/>
       <use xlink:href="#DejaVuSans-31" transform="translate(190.869141 0)"/>
      </g>
     </g>
    </g>
    <g id="xtick_3">
     <g id="line2d_5">
      <path d="M 206.262551 276.48 
L 206.262551 41.472 
" clip-path="url(#pd9677b10c3)" style="fill: none; stroke: #b0b0b0; stroke-width: 0.8; stroke-linecap: square"/>
     </g>
     <g id="line2d_6">
      <g>
       <use xlink:href="#meb272a9d91" x="206.262551" y="276.48" style="stroke: #000000; stroke-width: 0.8"/>
      </g>
     </g>
     <g id="text_3">
      <!-- 2022 -->
      <g transform="translate(183.18236 302.78544) rotate(-30) scale(0.1 -0.1)">
       <use xlink:href="#DejaVuSans-32"/>
       <use xlink:href="#DejaVuSans-30" transform="translate(63.623047 0)"/>
       <use xlink:href="#DejaVuSans-32" transform="translate(127.246094 0)"/>
       <use xlink:href="#DejaVuSans-32" transform="translate(190.869141 0)"/>
      </g>
     </g>
    </g>
    <g id="xtick_4">
     <g id="line2d_7">
      <path d="M 270.53887 276.48 
L 270.53887 41.472 
" clip-path="url(#pd9677b10c3)" style="fill: none; stroke: #b0b0b0; stroke-width: 0.8; stroke-linecap: square"/>
     </g>
     <g id="line2d_8">
      <g>
       <use xlink:href="#meb272a9d91" x="270.53887" y="276.48" style="stroke: #000000; stroke-width: 0.8"/>
      </g>
     </g>
     <g id="text_4">
      <!-- 2023 -->
      <g transform="translate(247.45868 302.78544) rotate(-30) scale(0.1 -0.1)">
       <defs>
        <path id="DejaVuSans-33" d="M 2597 2516 
Q 3050 2419 3304 2112 
Q 3559 1806 3559 1356 
Q 3559 666 3084 287 
Q 2609 -91 1734 -91 
Q 1441 -91 1130 -33 
Q 819 25 488 141 
L 488 750 
Q 750 597 1062 519 
Q 1375 441 1716 441 
Q 2309 441 2620 675 
Q 2931 909 2931 1356 
Q 2931 1769 2642 2001 
Q 2353 2234 1838 2234 
L 1294 2234 
L 1294 2753 
L 1863 2753 
Q 2328 2753 2575 2939 
Q 2822 3125 2822 3475 
Q 2822 3834 2567 4026 
Q 2313 4219 1838 4219 
Q 1578 4219 1281 4162 
Q 984 4106 628 3988 
L 628 4550 
Q 988 4650 1302 4700 
Q 1616 4750 1894 4750 
Q 2613 4750 3031 4423 
Q 3450 4097 3450 3541 
Q 3450 3153 3228 2886 
Q 3006 2619 2597 2516 
z
" transform="scale(0.015625)"/>
       </defs>
       <use xlink:href="#DejaVuSans-32"/>
       <use xlink:href="#DejaVuSans-30" transform="translate(63.623047 0)"/>
       <use xlink:href="#DejaVuSans-32" transform="translate(127.246094 0)"/>
       <use xlink:href="#DejaVuSans-33" transform="translate(190.869141 0)"/>
      </g>
     </g>
    </g>
    <g id="xtick_5">
     <g id="line2d_9">
      <path d="M 334.815189 276.48 
L 334.815189 41.472 
" clip-path="url(#pd9677b10c3)" style="fill: none; stroke: #b0b0b0; stroke-width: 0.8; stroke-linecap: square"/>
     </g>
     <g id="line2d_10">
      <g>
       <use xlink:href="#meb272a9d91" x="334.815189" y="276.48" style="stroke: #000000; stroke-width: 0.8"/>
      </g>
     </g>
     <g id="text_5">
      <!-- 2024 -->
      <g transform="translate(311.734999 302.78544) rotate(-30) scale(0.1 -0.1)">
       <defs>
        <path id="DejaVuSans-34" d="M 2419 4116 
L 825 1625 
L 2419 1625 
L 2419 4116 
z
M 2253 4666 
L 3047 4666 
L 3047 1625 
L 3713 1625 
L 3713 1100 
L 3047 1100 
L 3047 0 
L 2419 0 
L 2419 1100 
L 313 1100 
L 313 1709 
L 2253 4666 
z
" transform="scale(0.015625)"/>
       </defs>
       <use xlink:href="#DejaVuSans-32"/>
       <use xlink:href="#DejaVuSans-30" transform="translate(63.623047 0)"/>
       <use xlink:href="#DejaVuSans-32" transform="translate(127.246094 0)"/>
       <use xlink:href="#DejaVuSans-34" transform="translate(190.869141 0)"/>
      </g>
     </g>
    </g>
    <g id="xtick_6">
     <g id="line2d_11">
      <path d="M 399.267608 276.48 
L 399.267608 41.472 
" clip-path="url(#pd9677b10c3)" style="fill: none; stroke: #b0b0b0; stroke-width: 0.8; stroke-linecap: square"/>
     </g>
     <g id="line2d_12">
      <g>
       <use xlink:href="#meb272a9d91" x="399.267608" y="276.48" style="stroke: #000000; stroke-width: 0.8"/>
      </g>
     </g>
     <g id="text_6">
      <!-- 2025 -->
      <g transform="translate(376.187417 302.78544) rotate(-30) scale(0.1 -0.1)">
       <defs>
        <path id="DejaVuSans-35" d="M 691 4666 
L 3169 4666 
L 3169 4134 
L 1269 4134 
L 1269 2991 
Q 1406 3038 1543 3061 
Q 1681 3084 1819 3084 
Q 2600 3084 3056 2656 
Q 3513 2228 3513 1497 
Q 3513 744 3044 326 
Q 2575 -91 1722 -91 
Q 1428 -91 1123 -41 
Q 819 9 494 109 
L 494 744 
Q 775 591 1075 516 
Q 1375 441 1709 441 
Q 2250 441 2565 725 
Q 2881 1009 2881 1497 
Q 2881 1984 2565 2268 
Q 2250 2553 1709 2553 
Q 1456 2553 1204 2497 
Q 953 2441 691 2322 
L 691 4666 
z
" transform="scale(0.015625)"/>
       </defs>
       <use xlink:href="#DejaVuSans-32"/>
       <use xlink:href="#DejaVuSans-30" transform="translate(63.623047 0)"/>
       <use xlink:href="#DejaVuSans-32" transform="translate(127.246094 0)"/>
       <use xlink:href="#DejaVuSans-35" transform="translate(190.869141 0)"/>
      </g>
     </g>
    </g>
   </g>
   <g id="matplotlib.axis_2">
    <g id="ytick_1">
     <g id="line2d_13">
      <path d="M 57.6 276.48 
L 414.72 276.48 
" clip-path="url(#pd9677b10c3)" style="fill: none; stroke: #b0b0b0; stroke-width: 0.8; stroke-linecap: square"/>
     </g>
     <g id="line2d_14">
      <defs>
       <path id="m13cc1ac88e" d="M 0 0 
L -3.5 0 
" style="stroke: #000000; stroke-width: 0.8"/>
      </defs>
      <g>
       <use xlink:href="#m13cc1ac88e" x="57.6" y="276.48" style="stroke: #000000; stroke-width: 0.8"/>
      </g>
     </g>
     <g id="text_7">
      <!-- 0% -->
      <g transform="translate(34.735937 280.279219) scale(0.1 -0.1)">
       <defs>
        <path id="DejaVuSans-25" d="M 4653 2053 
Q 4381 2053 4226 1822 
Q 4072 1591 4072 1178 
Q 4072 772 4226 539 
Q 4381 306 4653 306 
Q 4919 306 5073 539 
Q 5228 772 5228 1178 
Q 5228 1588 5073 1820 
Q 4919 2053 4653 2053 
z
M 4653 2450 
Q 5147 2450 5437 2106 
Q 5728 1763 5728 1178 
Q 5728 594 5436 251 
Q 5144 -91 4653 -91 
Q 4153 -91 3862 251 
Q 3572 594 3572 1178 
Q 3572 1766 3864 2108 
Q 4156 2450 4653 2450 
z
M 1428 4353 
Q 1159 4353 1004 4120 
Q 850 3888 850 3481 
Q 850 3069 1003 2837 
Q 1156 2606 1428 2606 
Q 1700 2606 1854 2837 
Q 2009 3069 2009 3481 
Q 2009 3884 1853 4118 
Q 1697 4353 1428 4353 
z
M 4250 4750 
L 4750 4750 
L 1831 -91 
L 1331 -91 
L 4250 4750 
z
M 1428 4750 
Q 1922 4750 2215 4408 
Q 2509 4066 2509 3481 
Q 2509 2891 2217 2550 
Q 1925 2209 1428 2209 
Q 931 2209 642 2551 
Q 353 2894 353 3481 
Q 353 4063 643 4406 
Q 934 4750 1428 4750 
z
" transform="scale(0.015625)"/>
       </defs>
       <use xlink:href="#DejaVuSans-30"/>
       <use xlink:href="#DejaVuSans-25" transform="translate(63.623047 0)"/>
      </g>
     </g>
    </g>
    <g id="ytick_2">
     <g id="line2d_15">
      <path d="M 57.6 227.880447 
L 414.72 227.880447 
" clip-path="url(#pd9677b10c3)" style="fill: none; stroke: #b0b0b0; stroke-width: 0.8; stroke-linecap: square"/>
     </g>
     <g id="line2d_16">
      <g>
       <use xlink:href="#m13cc1ac88e" x="57.6" y="227.880447" style="stroke: #000000; stroke-width: 0.8"/>
      </g>
     </g>
     <g id="text_8">
      <!-- 20% -->
      <g transform="translate(28.373438 231.679665) scale(0.1 -0.1)">
       <use xlink:href="#DejaVuSans-32"/>
       <use xlink:href="#DejaVuSans-30" transform="translate(63.623047 0)"/>
       <use xlink:href="#DejaVuSans-25" transform="translate(127.246094 0)"/>
      </g>
     </g>
    </g>
    <g id="ytick_3">
     <g id="line2d_17">
      <path d="M 57.6 179.280893 
L 414.72 179.280893 
" clip-path="url(#pd9677b10c3)" style="fill: none; stroke: #b0b0b0; stroke-width: 0.8; stroke-linecap: square"/>
     </g>
     <g id="line2d_18">
      <g>
       <use xlink:href="#m13cc1ac88e" x="57.6" y="179.280893" style="stroke: #000000; stroke-width: 0.8"/>
      </g>
     </g>
     <g id="text_9">
      <!-- 40% -->
      <g transform="translate(28.373438 183.080112) scale(0.1 -0.1)">
       <use xlink:href="#DejaVuSans-34"/>
       <use xlink:href="#DejaVuSans-30" transform="translate(63.623047 0)"/>
       <use xlink:href="#DejaVuSans-25" transform="translate(127.246094 0)"/>
      </g>
     </g>
    </g>
    <g id="ytick_4">
     <g id="line2d_19">
      <path d="M 57.6 130.68134 
L 414.72 130.68134 
" clip-path="url(#pd9677b10c3)" style="fill: none; stroke: #b0b0b0; stroke-width: 0.8; stroke-linecap: square"/>
     </g>
     <g id="line2d_20">
      <g>
       <use xlink:href="#m13cc1ac88e" x="57.6" y="130.68134" style="stroke: #000000; stroke-width: 0.8"/>
      </g>
     </g>
     <g id="text_10">
      <!-- 60% -->
      <g transform="translate(28.373438 134.480559) scale(0.1 -0.1)">
       <defs>
        <path id="DejaVuSans-36" d="M 2113 2584 
Q 1688 2584 1439 2293 
Q 1191 2003 1191 1497 
Q 1191 994 1439 701 
Q 1688 409 2113 409 
Q 2538 409 2786 701 
Q 3034 994 3034 1497 
Q 3034 2003 2786 2293 
Q 2538 2584 2113 2584 
z
M 3366 4563 
L 3366 3988 
Q 3128 4100 2886 4159 
Q 2644 4219 2406 4219 
Q 1781 4219 1451 3797 
Q 1122 3375 1075 2522 
Q 1259 2794 1537 2939 
Q 1816 3084 2150 3084 
Q 2853 3084 3261 2657 
Q 3669 2231 3669 1497 
Q 3669 778 3244 343 
Q 2819 -91 2113 -91 
Q 1303 -91 875 529 
Q 447 1150 447 2328 
Q 447 3434 972 4092 
Q 1497 4750 2381 4750 
Q 2619 4750 2861 4703 
Q 3103 4656 3366 4563 
z
" transform="scale(0.015625)"/>
       </defs>
       <use xlink:href="#DejaVuSans-36"/>
       <use xlink:href="#DejaVuSans-30" transform="translate(63.623047 0)"/>
       <use xlink:href="#DejaVuSans-25" transform="translate(127.246094 0)"/>
      </g>
     </g>
    </g>
    <g id="ytick_5">
     <g id="line2d_21">
      <path d="M 57.6 82.081787 
L 414.72 82.081787 
" clip-path="url(#pd9677b10c3)" style="fill: none; stroke: #b0b0b0; stroke-width: 0.8; stroke-linecap: square"/>
     </g>
     <g id="line2d_22">
      <g>
       <use xlink:href="#m13cc1ac88e" x="57.6" y="82.081787" style="stroke: #000000; stroke-width: 0.8"/>
      </g>
     </g>
     <g id="text_11">
      <!-- 80% -->
      <g transform="translate(28.373438 85.881005) scale(0.1 -0.1)">
       <defs>
        <path id="DejaVuSans-38" d="M 2034 2216 
Q 1584 2216 1326 1975 
Q 1069 1734 1069 1313 
Q 1069 891 1326 650 
Q 1584 409 2034 409 
Q 2484 409 2743 651 
Q 3003 894 3003 1313 
Q 3003 1734 2745 1975 
Q 2488 2216 2034 2216 
z
M 1403 2484 
Q 997 2584 770 2862 
Q 544 3141 544 3541 
Q 544 4100 942 4425 
Q 1341 4750 2034 4750 
Q 2731 4750 3128 4425 
Q 3525 4100 3525 3541 
Q 3525 3141 3298 2862 
Q 3072 2584 2669 2484 
Q 3125 2378 3379 2068 
Q 3634 1759 3634 1313 
Q 3634 634 3220 271 
Q 2806 -91 2034 -91 
Q 1263 -91 848 271 
Q 434 634 434 1313 
Q 434 1759 690 2068 
Q 947 2378 1403 2484 
z
M 1172 3481 
Q 1172 3119 1398 2916 
Q 1625 2713 2034 2713 
Q 2441 2713 2670 2916 
Q 2900 3119 2900 3481 
Q 2900 3844 2670 4047 
Q 2441 4250 2034 4250 
Q 1625 4250 1398 4047 
Q 1172 3844 1172 3481 
z
" transform="scale(0.015625)"/>
       </defs>
       <use xlink:href="#DejaVuSans-38"/>
       <use xlink:href="#DejaVuSans-30" transform="translate(63.623047 0)"/>
       <use xlink:href="#DejaVuSans-25" transform="translate(127.246094 0)"/>
      </g>
     </g>
    </g>
   </g>
   <g id="line2d_23">
    <path d="M 398.487273 51.585567 
L 398.308006 61.864373 
L 397.720635 63.322359 
L 397.276962 63.322359 
L 397.262009 65.485039 
L 396.385113 65.485039 
L 396.245789 67.817818 
L 395.879166 67.817818 
L 395.728393 68.546811 
L 395.697119 69.931898 
L 395.699255 69.931898 
L 395.526857 70.87959 
L 395.421183 75.326449 
L 394.796896 75.836744 
L 394.708173 74.694655 
L 394.70094 74.889053 
L 394.124483 75.569447 
L 394.120635 76.541438 
L 393.607935 76.541438 
L 393.564122 80.113505 
L 393.409817 79.724708 
L 393.303458 83.199576 
L 393.248253 83.199576 
L 393.166834 90.319411 
L 392.997717 90.319411 
L 393.086925 90.319411 
L 393.006667 105.798369 
L 392.895977 105.992767 
L 392.889428 110.02653 
L 392.734634 112.18921 
L 392.723658 112.942503 
L 389.579379 112.991103 
L 388.704582 113.549998 
L 388.633115 113.792995 
L 388.346758 113.428499 
L 388.343234 113.501398 
L 387.620319 114.108892 
L 387.436839 113.647197 
L 387.095873 113.647197 
L 386.406142 114.546288 
L 386.394883 120.038038 
L 386.167763 121.277326 
L 385.7718 120.815631 
L 385.617193 120.815631 
L 385.526139 123.07551 
L 385.147564 123.245608 
L 384.935067 123.488606 
L 384.623079 122.808212 
L 384.310955 127.741067 
L 384.212529 128.105564 
L 383.702498 128.980356 
L 383.601276 128.810257 
L 383.500408 132.017828 
L 383.317165 132.017828 
L 382.942941 132.358025 
L 382.68596 132.358025 
L 382.682126 135.589895 
L 382.46972 136.683385 
L 381.83887 131.070136 
L 380.679363 131.070136 
L 380.004134 131.361734 
L 379.703248 131.361734 
L 379.325478 131.580432 
L 379.18617 132.673922 
L 379.180838 134.958101 
L 378.903467 134.958101 
L 378.771694 135.492696 
L 378.466932 135.492696 
L 378.386321 138.33577 
L 378.067013 140.814347 
L 378.019553 146.281797 
L 377.883429 147.715483 
L 377.762517 152.599739 
L 377.689122 153.644629 
L 377.604696 123.901702 
L 377.538834 124.654995 
L 377.050986 124.582096 
L 377.021577 125.359689 
L 376.116397 125.359689 
L 375.953886 125.845685 
L 375.946534 127.959765 
L 375.668857 129.976647 
L 375.667384 131.79913 
L 373.858956 131.82343 
L 373.84069 132.090727 
L 373.092383 131.82343 
L 372.827955 131.872029 
L 372.607955 132.090727 
L 371.683255 131.944928 
L 370.142464 131.944928 
L 368.781526 130.243944 
L 368.715689 132.722521 
L 368.597985 132.941219 
L 368.157949 133.281416 
L 367.732287 133.281416 
L 367.677044 140.401251 
L 367.220111 140.401251 
L 367.009433 140.935846 
L 366.444425 142.539631 
L 363.843344 142.539631 
L 362.746437 142.806929 
L 362.086021 142.66113 
L 362.063913 143.633121 
L 361.524688 143.900419 
L 361.513639 144.240615 
L 361.2714 143.73032 
L 360.280887 143.73032 
L 360.108756 142.442432 
L 357.998895 142.442432 
L 357.895422 144.79951 
L 357.815757 142.855528 
L 357.585799 142.539631 
L 354.117472 142.515331 
L 353.427641 142.418132 
L 353.300912 144.119117 
L 348.896898 144.119117 
L 347.954006 144.629412 
L 347.561587 144.119117 
L 346.721266 144.386414 
L 346.091963 144.240615 
L 340.561577 144.216316 
L 339.325054 143.876119 
L 338.092335 143.851819 
L 337.916364 143.317224 
L 333.161611 143.317224 
L 332.871864 142.879828 
L 330.91633 142.879828 
L 330.872288 143.77892 
L 330.696156 144.264915 
L 329.463472 143.292924 
L 328.230833 143.292924 
L 326.998095 143.025627 
L 324.779947 143.025627 
L 324.532961 143.73032 
L 323.356755 143.73032 
L 323.355989 143.584521 
L 320.834719 143.584521 
L 320.530325 143.317224 
L 318.769181 143.317224 
L 318.369217 144.921009 
L 317.88867 143.584521 
L 317.723536 143.851819 
L 317.136572 144.216316 
L 316.824921 144.216316 
L 315.903996 144.993909 
L 315.60309 144.993909 
L 315.25096 146.743492 
L 315.07109 146.913591 
L 314.671171 147.496786 
L 314.381615 147.496786 
L 314.135514 147.958481 
L 313.31752 147.958481 
L 312.778128 150.485658 
L 312.557936 150.971654 
L 312.359958 152.308141 
L 312.205796 157.532593 
L 312.165784 152.308141 
L 311.560061 152.308141 
L 311.372972 161.882253 
L 310.973061 162.125251 
L 310.771523 161.882253 
L 308.935127 161.882253 
L 308.507639 162.368249 
L 307.274936 161.663555 
L 305.829659 159.719573 
L 305.770547 159.719573 
L 305.764724 159.865372 
L 303.576928 159.865372 
L 302.344152 159.622374 
L 299.479156 159.622374 
L 299.4753 159.938271 
L 298.35632 159.938271 
L 298.128128 160.910262 
L 296.327156 160.910262 
L 296.13523 161.347658 
L 296.180397 161.347658 
L 296.047678 155.855909 
L 295.604553 155.855909 
L 294.925614 156.390504 
L 294.681625 156.8279 
L 294.397389 156.730701 
L 294.030452 156.730701 
L 294.026887 157.556893 
L 293.71504 157.92139 
L 293.051494 157.92139 
L 292.662149 157.629792 
L 291.249558 157.994289 
L 289.185419 157.994289 
L 289.756539 157.994289 
L 288.293261 158.310186 
L 286.550004 158.334486 
L 286.3189 158.528884 
L 284.814386 158.528884 
L 284.095578 158.747582 
L 284.062619 159.403676 
L 284.060793 158.99058 
L 281.534786 158.99058 
L 281.391837 159.184978 
L 281.087206 159.087779 
L 280.399712 159.598074 
L 280.398575 141.883537 
L 271.234412 141.883537 
L 278.481901 141.883537 
L 278.458527 144.313515 
L 270.295208 144.240615 
L 269.936881 149.367868 
L 269.8186 150.607157 
L 269.665569 150.607157 
L 269.605765 154.033425 
L 268.619289 154.009126 
L 268.459436 154.446522 
L 267.435587 154.446522 
L 267.286438 154.64092 
L 267.230113 160.570065 
L 266.294552 160.570065 
L 266.214123 161.833654 
L 265.966138 161.833654 
L 265.910706 162.878544 
L 263.47636 162.878544 
L 262.879008 163.31594 
L 262.170939 163.31594 
L 262.032367 163.437439 
L 261.944478 165.308522 
L 261.701184 165.308522 
L 261.592597 165.867417 
L 261.283551 165.867417 
L 261.216831 166.960907 
L 261.132927 166.960907 
L 260.967998 168.394593 
L 260.64848 169.390884 
L 260.483342 167.155305 
L 260.478497 167.957197 
L 260.43553 167.957197 
L 260.432087 165.673018 
L 259.44189 164.263631 
L 259.071507 164.676728 
L 257.696063 164.676728 
L 257.690359 164.895426 
L 249.354701 165.114124 
L 248.96881 165.332822 
L 247.277114 165.988916 
L 245.684767 166.207614 
L 243.938624 166.62071 
L 243.821473 168.418893 
L 236.358951 168.418893 
L 236.333149 168.73479 
L 235.544978 168.73479 
L 235.126531 167.082405 
L 233.836586 167.082405 
L 233.101713 167.276804 
L 232.94868 167.495502 
L 232.844632 167.495502 
L 232.836859 167.7142 
L 230.01228 167.7142 
L 229.505704 168.151596 
L 222.194224 169.220786 
L 216.797064 169.658182 
L 214.584918 170.508674 
L 212.357726 170.727372 
L 211.888728 171.164768 
L 211.880675 171.602164 
L 210.362398 171.602164 
L 206.752629 171.820862 
L 203.509164 171.820862 
L 202.45574 172.379757 
L 196.373922 172.379757 
L 196.369446 172.598455 
L 194.475273 172.598455 
L 194.257811 173.667645 
L 193.54086 173.667645 
L 191.801897 173.886343 
L 191.728457 174.22654 
L 189.857565 175.757426 
L 189.842872 177.774307 
L 188.801203 178.892097 
L 187.21156 179.110795 
L 182.063735 179.037896 
L 181.537508 178.940697 
L 180.976771 178.940697 
L 180.814468 179.135095 
L 180.627444 182.075368 
L 180.182987 182.002468 
L 180.122611 182.998759 
L 179.298604 182.998759 
L 179.243706 188.466209 
L 178.435403 188.466209 
L 178.536756 188.466209 
L 178.363977 188.053113 
L 177.534419 188.053113 
L 177.530233 188.587708 
L 177.303639 188.757806 
L 176.423391 188.004513 
L 175.256348 188.004513 
L 175.253984 188.36901 
L 175.252353 185.210039 
L 175.251648 185.210039 
L 173.383181 185.210039 
L 171.44616 184.967041 
L 168.145968 184.967041 
L 167.570143 185.331538 
L 167.041545 185.331538 
L 166.793717 185.185739 
L 166.775478 187.640017 
L 166.620512 188.004513 
L 166.513497 188.36901 
L 166.273859 188.36901 
L 165.632476 189.292401 
L 165.373348 189.292401 
L 165.280505 189.4868 
L 163.225397 189.4382 
L 162.991556 190.361592 
L 162.735896 190.361592 
L 162.638721 190.55599 
L 160.292755 190.55599 
L 159.465932 191.673779 
L 157.983482 191.673779 
L 157.880865 192.038276 
L 156.594313 191.746679 
L 154.711891 194.541153 
L 150.832818 194.541153 
L 150.656798 194.371055 
L 140.14453 194.371055 
L 140.088421 195.294446 
L 137.025066 195.318746 
L 134.937439 195.513144 
L 134.735728 196.242137 
L 134.578133 197.554325 
L 134.178966 199.036612 
L 134.056175 199.571207 
L 133.9466 206.83684 
L 133.862572 206.83684 
L 133.786943 215.195963 
L 133.065133 215.366062 
L 132.082514 215.366062 
L 131.898859 220.396115 
L 131.896731 220.396115 
L 131.634581 220.590514 
L 130.543665 220.590514 
L 130.534426 220.95501 
L 130.398507 220.95501 
L 130.223698 220.784912 
L 128.032276 220.784912 
L 128.024439 221.635404 
L 120.859458 221.635404 
L 120.064407 221.951301 
L 120.061825 222.947592 
L 119.427445 222.947592 
L 119.07322 223.11769 
L 116.445406 223.11769 
L 118.567396 223.069091 
L 118.215149 224.23548 
L 117.140895 224.721476 
L 116.630074 224.721476 
L 116.278509 225.401869 
L 111.699249 225.401869 
L 111.523755 225.742066 
L 108.000821 225.717767 
L 107.825286 226.228062 
L 107.296349 226.228062 
L 107.12024 226.373861 
L 107.059057 227.248652 
L 106.592096 227.248652 
L 106.416541 227.686048 
L 104.302682 227.686048 
L 104.126648 226.884156 
L 103.774392 226.884156 
L 103.599163 227.588849 
L 101.661377 227.588849 
L 101.485353 227.953346 
L 98.667409 227.953346 
L 98.491531 228.682339 
L 98.315358 228.852438 
L 96.377897 228.852438 
L 96.202486 229.581431 
L 96.025777 229.581431 
L 95.8502 229.945928 
L 90.214716 229.945928 
L 90.039122 230.140326 
L 86.516459 230.140326 
L 86.341142 231.136617 
L 85.283826 231.136617 
L 84.932507 235.607776 
L 83.874875 235.607776 
L 83.698784 235.777874 
L 82.466091 235.777874 
L 82.28999 236.118071 
L 81.951624 236.118071 
L 81.90241 238.936845 
L 81.68597 251.378331 
L 81.64741 251.354031 
L 80.881216 251.354031 
L 79.443019 251.694228 
L 79.367612 251.864326 
L 78.94445 251.864326 
L 78.944368 252.034425 
L 78.240096 252.034425 
L 78.240029 252.204523 
L 78.063942 252.204523 
L 78.063864 252.374622 
L 77.692616 252.374622 
L 77.688628 253.541011 
L 77.380291 253.541011 
L 77.35947 253.711109 
L 77.261699 253.711109 
L 77.192025 253.856908 
L 73.832727 253.856908 
L 73.832727 253.856908 
" clip-path="url(#pd9677b10c3)" style="fill: none; stroke: #1f77b4; stroke-width: 1.5; stroke-linecap: square"/>
   </g>
   <g id="patch_3">
    <path d="M 57.6 276.48 
L 57.6 41.472 
" style="fill: none; stroke: #000000; stroke-width: 0.8; stroke-linejoin: miter; stroke-linecap: square"/>
   </g>
   <g id="patch_4">
    <path d="M 414.72 276.48 
L 414.72 41.472 
" style="fill: none; stroke: #000000; stroke-width: 0.8; stroke-linejoin: miter; stroke-linecap: square"/>
   </g>
   <g id="patch_5">
    <path d="M 57.6 276.48 
L 414.72 276.48 
" style="fill: none; stroke: #000000; stroke-width: 0.8; stroke-linejoin: miter; stroke-linecap: square"/>
   </g>
   <g id="patch_6">
    <path d="M 57.6 41.472 
L 414.72 41.472 
" style="fill: none; stroke: #000000; stroke-width: 0.8; stroke-linejoin: miter; stroke-linecap: square"/>
   </g>
   <g id="text_12">
    <!-- Postęp tłumaczenia do dodania do przełącznika języków -->
    <g transform="translate(67.57125 35.472) scale(0.12 -0.12)">
     <defs>
      <path id="DejaVuSans-50" d="M 1259 4147 
L 1259 2394 
L 2053 2394 
Q 2494 2394 2734 2622 
Q 2975 2850 2975 3272 
Q 2975 3691 2734 3919 
Q 2494 4147 2053 4147 
L 1259 4147 
z
M 628 4666 
L 2053 4666 
Q 2838 4666 3239 4311 
Q 3641 3956 3641 3272 
Q 3641 2581 3239 2228 
Q 2838 1875 2053 1875 
L 1259 1875 
L 1259 0 
L 628 0 
L 628 4666 
z
" transform="scale(0.015625)"/>
      <path id="DejaVuSans-6f" d="M 1959 3097 
Q 1497 3097 1228 2736 
Q 959 2375 959 1747 
Q 959 1119 1226 758 
Q 1494 397 1959 397 
Q 2419 397 2687 759 
Q 2956 1122 2956 1747 
Q 2956 2369 2687 2733 
Q 2419 3097 1959 3097 
z
M 1959 3584 
Q 2709 3584 3137 3096 
Q 3566 2609 3566 1747 
Q 3566 888 3137 398 
Q 2709 -91 1959 -91 
Q 1206 -91 779 398 
Q 353 888 353 1747 
Q 353 2609 779 3096 
Q 1206 3584 1959 3584 
z
" transform="scale(0.015625)"/>
      <path id="DejaVuSans-73" d="M 2834 3397 
L 2834 2853 
Q 2591 2978 2328 3040 
Q 2066 3103 1784 3103 
Q 1356 3103 1142 2972 
Q 928 2841 928 2578 
Q 928 2378 1081 2264 
Q 1234 2150 1697 2047 
L 1894 2003 
Q 2506 1872 2764 1633 
Q 3022 1394 3022 966 
Q 3022 478 2636 193 
Q 2250 -91 1575 -91 
Q 1294 -91 989 -36 
Q 684 19 347 128 
L 347 722 
Q 666 556 975 473 
Q 1284 391 1588 391 
Q 1994 391 2212 530 
Q 2431 669 2431 922 
Q 2431 1156 2273 1281 
Q 2116 1406 1581 1522 
L 1381 1569 
Q 847 1681 609 1914 
Q 372 2147 372 2553 
Q 372 3047 722 3315 
Q 1072 3584 1716 3584 
Q 2034 3584 2315 3537 
Q 2597 3491 2834 3397 
z
" transform="scale(0.015625)"/>
      <path id="DejaVuSans-74" d="M 1172 4494 
L 1172 3500 
L 2356 3500 
L 2356 3053 
L 1172 3053 
L 1172 1153 
Q 1172 725 1289 603 
Q 1406 481 1766 481 
L 2356 481 
L 2356 0 
L 1766 0 
Q 1100 0 847 248 
Q 594 497 594 1153 
L 594 3053 
L 172 3053 
L 172 3500 
L 594 3500 
L 594 4494 
L 1172 4494 
z
" transform="scale(0.015625)"/>
      <path id="DejaVuSans-119" d="M 3597 1894 
L 3597 1613 
L 953 1613 
Q 991 1019 1311 708 
Q 1631 397 2203 397 
Q 2534 397 2845 478 
Q 3156 559 3463 722 
L 3463 178 
Q 3153 47 2828 -22 
Q 2503 -91 2169 -91 
Q 1331 -91 842 396 
Q 353 884 353 1716 
Q 353 2575 817 3079 
Q 1281 3584 2069 3584 
Q 2775 3584 3186 3129 
Q 3597 2675 3597 1894 
z
M 3022 2063 
Q 3016 2534 2758 2815 
Q 2500 3097 2075 3097 
Q 1594 3097 1305 2825 
Q 1016 2553 972 2059 
L 3022 2063 
z
M 2551 0 
L 2923 0 
Q 2782 -191 2715 -328 
Q 2648 -466 2648 -563 
Q 2648 -706 2734 -778 
Q 2820 -850 2989 -850 
Q 3089 -850 3185 -826 
Q 3282 -803 3379 -756 
L 3379 -1172 
Q 3260 -1203 3154 -1218 
Q 3048 -1234 2954 -1234 
Q 2573 -1234 2393 -1098 
Q 2214 -963 2214 -672 
Q 2214 -522 2296 -358 
Q 2379 -194 2551 0 
z
" transform="scale(0.015625)"/>
      <path id="DejaVuSans-70" d="M 1159 525 
L 1159 -1331 
L 581 -1331 
L 581 3500 
L 1159 3500 
L 1159 2969 
Q 1341 3281 1617 3432 
Q 1894 3584 2278 3584 
Q 2916 3584 3314 3078 
Q 3713 2572 3713 1747 
Q 3713 922 3314 415 
Q 2916 -91 2278 -91 
Q 1894 -91 1617 61 
Q 1341 213 1159 525 
z
M 3116 1747 
Q 3116 2381 2855 2742 
Q 2594 3103 2138 3103 
Q 1681 3103 1420 2742 
Q 1159 2381 1159 1747 
Q 1159 1113 1420 752 
Q 1681 391 2138 391 
Q 2594 391 2855 752 
Q 3116 1113 3116 1747 
z
" transform="scale(0.015625)"/>
      <path id="DejaVuSans-20" transform="scale(0.015625)"/>
      <path id="DejaVuSans-142" d="M 622 4863 
L 1197 4863 
L 1197 2981 
L 1588 3263 
L 1825 2931 
L 1197 2491 
L 1197 0 
L 622 0 
L 622 2081 
L 238 1806 
L 6 2138 
L 622 2578 
L 622 4863 
z
" transform="scale(0.015625)"/>
      <path id="DejaVuSans-75" d="M 544 1381 
L 544 3500 
L 1119 3500 
L 1119 1403 
Q 1119 906 1312 657 
Q 1506 409 1894 409 
Q 2359 409 2629 706 
Q 2900 1003 2900 1516 
L 2900 3500 
L 3475 3500 
L 3475 0 
L 2900 0 
L 2900 538 
Q 2691 219 2414 64 
Q 2138 -91 1772 -91 
Q 1169 -91 856 284 
Q 544 659 544 1381 
z
M 1991 3584 
L 1991 3584 
z
" transform="scale(0.015625)"/>
      <path id="DejaVuSans-6d" d="M 3328 2828 
Q 3544 3216 3844 3400 
Q 4144 3584 4550 3584 
Q 5097 3584 5394 3201 
Q 5691 2819 5691 2113 
L 5691 0 
L 5113 0 
L 5113 2094 
Q 5113 2597 4934 2840 
Q 4756 3084 4391 3084 
Q 3944 3084 3684 2787 
Q 3425 2491 3425 1978 
L 3425 0 
L 2847 0 
L 2847 2094 
Q 2847 2600 2669 2842 
Q 2491 3084 2119 3084 
Q 1678 3084 1418 2786 
Q 1159 2488 1159 1978 
L 1159 0 
L 581 0 
L 581 3500 
L 1159 3500 
L 1159 2956 
Q 1356 3278 1631 3431 
Q 1906 3584 2284 3584 
Q 2666 3584 2933 3390 
Q 3200 3197 3328 2828 
z
" transform="scale(0.015625)"/>
      <path id="DejaVuSans-61" d="M 2194 1759 
Q 1497 1759 1228 1600 
Q 959 1441 959 1056 
Q 959 750 1161 570 
Q 1363 391 1709 391 
Q 2188 391 2477 730 
Q 2766 1069 2766 1631 
L 2766 1759 
L 2194 1759 
z
M 3341 1997 
L 3341 0 
L 2766 0 
L 2766 531 
Q 2569 213 2275 61 
Q 1981 -91 1556 -91 
Q 1019 -91 701 211 
Q 384 513 384 1019 
Q 384 1609 779 1909 
Q 1175 2209 1959 2209 
L 2766 2209 
L 2766 2266 
Q 2766 2663 2505 2880 
Q 2244 3097 1772 3097 
Q 1472 3097 1187 3025 
Q 903 2953 641 2809 
L 641 3341 
Q 956 3463 1253 3523 
Q 1550 3584 1831 3584 
Q 2591 3584 2966 3190 
Q 3341 2797 3341 1997 
z
" transform="scale(0.015625)"/>
      <path id="DejaVuSans-63" d="M 3122 3366 
L 3122 2828 
Q 2878 2963 2633 3030 
Q 2388 3097 2138 3097 
Q 1578 3097 1268 2742 
Q 959 2388 959 1747 
Q 959 1106 1268 751 
Q 1578 397 2138 397 
Q 2388 397 2633 464 
Q 2878 531 3122 666 
L 3122 134 
Q 2881 22 2623 -34 
Q 2366 -91 2075 -91 
Q 1284 -91 818 406 
Q 353 903 353 1747 
Q 353 2603 823 3093 
Q 1294 3584 2113 3584 
Q 2378 3584 2631 3529 
Q 2884 3475 3122 3366 
z
" transform="scale(0.015625)"/>
      <path id="DejaVuSans-7a" d="M 353 3500 
L 3084 3500 
L 3084 2975 
L 922 459 
L 3084 459 
L 3084 0 
L 275 0 
L 275 525 
L 2438 3041 
L 353 3041 
L 353 3500 
z
" transform="scale(0.015625)"/>
      <path id="DejaVuSans-65" d="M 3597 1894 
L 3597 1613 
L 953 1613 
Q 991 1019 1311 708 
Q 1631 397 2203 397 
Q 2534 397 2845 478 
Q 3156 559 3463 722 
L 3463 178 
Q 3153 47 2828 -22 
Q 2503 -91 2169 -91 
Q 1331 -91 842 396 
Q 353 884 353 1716 
Q 353 2575 817 3079 
Q 1281 3584 2069 3584 
Q 2775 3584 3186 3129 
Q 3597 2675 3597 1894 
z
M 3022 2063 
Q 3016 2534 2758 2815 
Q 2500 3097 2075 3097 
Q 1594 3097 1305 2825 
Q 1016 2553 972 2059 
L 3022 2063 
z
" transform="scale(0.015625)"/>
      <path id="DejaVuSans-6e" d="M 3513 2113 
L 3513 0 
L 2938 0 
L 2938 2094 
Q 2938 2591 2744 2837 
Q 2550 3084 2163 3084 
Q 1697 3084 1428 2787 
Q 1159 2491 1159 1978 
L 1159 0 
L 581 0 
L 581 3500 
L 1159 3500 
L 1159 2956 
Q 1366 3272 1645 3428 
Q 1925 3584 2291 3584 
Q 2894 3584 3203 3211 
Q 3513 2838 3513 2113 
z
" transform="scale(0.015625)"/>
      <path id="DejaVuSans-69" d="M 603 3500 
L 1178 3500 
L 1178 0 
L 603 0 
L 603 3500 
z
M 603 4863 
L 1178 4863 
L 1178 4134 
L 603 4134 
L 603 4863 
z
" transform="scale(0.015625)"/>
      <path id="DejaVuSans-64" d="M 2906 2969 
L 2906 4863 
L 3481 4863 
L 3481 0 
L 2906 0 
L 2906 525 
Q 2725 213 2448 61 
Q 2172 -91 1784 -91 
Q 1150 -91 751 415 
Q 353 922 353 1747 
Q 353 2572 751 3078 
Q 1150 3584 1784 3584 
Q 2172 3584 2448 3432 
Q 2725 3281 2906 2969 
z
M 947 1747 
Q 947 1113 1208 752 
Q 1469 391 1925 391 
Q 2381 391 2643 752 
Q 2906 1113 2906 1747 
Q 2906 2381 2643 2742 
Q 2381 3103 1925 3103 
Q 1469 3103 1208 2742 
Q 947 2381 947 1747 
z
" transform="scale(0.015625)"/>
      <path id="DejaVuSans-72" d="M 2631 2963 
Q 2534 3019 2420 3045 
Q 2306 3072 2169 3072 
Q 1681 3072 1420 2755 
Q 1159 2438 1159 1844 
L 1159 0 
L 581 0 
L 581 3500 
L 1159 3500 
L 1159 2956 
Q 1341 3275 1631 3429 
Q 1922 3584 2338 3584 
Q 2397 3584 2469 3576 
Q 2541 3569 2628 3553 
L 2631 2963 
z
" transform="scale(0.015625)"/>
      <path id="DejaVuSans-105" d="M 2194 1759 
Q 1497 1759 1228 1600 
Q 959 1441 959 1056 
Q 959 750 1161 570 
Q 1363 391 1709 391 
Q 2188 391 2477 730 
Q 2766 1069 2766 1631 
L 2766 1759 
L 2194 1759 
z
M 3341 1997 
L 3341 0 
L 2766 0 
L 2766 531 
Q 2569 213 2275 61 
Q 1981 -91 1556 -91 
Q 1019 -91 701 211 
Q 384 513 384 1019 
Q 384 1609 779 1909 
Q 1175 2209 1959 2209 
L 2766 2209 
L 2766 2266 
Q 2766 2663 2505 2880 
Q 2244 3097 1772 3097 
Q 1472 3097 1187 3025 
Q 903 2953 641 2809 
L 641 3341 
Q 956 3463 1253 3523 
Q 1550 3584 1831 3584 
Q 2591 3584 2966 3190 
Q 3341 2797 3341 1997 
z
M 2775 0 
L 3147 0 
Q 3006 -191 2939 -328 
Q 2872 -466 2872 -563 
Q 2872 -706 2958 -778 
Q 3044 -850 3213 -850 
Q 3313 -850 3409 -826 
Q 3506 -803 3603 -756 
L 3603 -1172 
Q 3484 -1203 3378 -1218 
Q 3272 -1234 3178 -1234 
Q 2797 -1234 2617 -1098 
Q 2438 -963 2438 -672 
Q 2438 -522 2520 -358 
Q 2603 -194 2775 0 
z
" transform="scale(0.015625)"/>
      <path id="DejaVuSans-6b" d="M 581 4863 
L 1159 4863 
L 1159 1991 
L 2875 3500 
L 3609 3500 
L 1753 1863 
L 3688 0 
L 2938 0 
L 1159 1709 
L 1159 0 
L 581 0 
L 581 4863 
z
" transform="scale(0.015625)"/>
      <path id="DejaVuSans-6a" d="M 603 3500 
L 1178 3500 
L 1178 -63 
Q 1178 -731 923 -1031 
Q 669 -1331 103 -1331 
L -116 -1331 
L -116 -844 
L 38 -844 
Q 366 -844 484 -692 
Q 603 -541 603 -63 
L 603 3500 
z
M 603 4863 
L 1178 4863 
L 1178 4134 
L 603 4134 
L 603 4863 
z
" transform="scale(0.015625)"/>
      <path id="DejaVuSans-79" d="M 2059 -325 
Q 1816 -950 1584 -1140 
Q 1353 -1331 966 -1331 
L 506 -1331 
L 506 -850 
L 844 -850 
Q 1081 -850 1212 -737 
Q 1344 -625 1503 -206 
L 1606 56 
L 191 3500 
L 800 3500 
L 1894 763 
L 2988 3500 
L 3597 3500 
L 2059 -325 
z
" transform="scale(0.015625)"/>
      <path id="DejaVuSans-f3" d="M 1959 3097 
Q 1497 3097 1228 2736 
Q 959 2375 959 1747 
Q 959 1119 1226 758 
Q 1494 397 1959 397 
Q 2419 397 2687 759 
Q 2956 1122 2956 1747 
Q 2956 2369 2687 2733 
Q 2419 3097 1959 3097 
z
M 1959 3584 
Q 2709 3584 3137 3096 
Q 3566 2609 3566 1747 
Q 3566 888 3137 398 
Q 2709 -91 1959 -91 
Q 1206 -91 779 398 
Q 353 888 353 1747 
Q 353 2609 779 3096 
Q 1206 3584 1959 3584 
z
M 2394 5119 
L 3016 5119 
L 1998 3944 
L 1519 3944 
L 2394 5119 
z
" transform="scale(0.015625)"/>
      <path id="DejaVuSans-77" d="M 269 3500 
L 844 3500 
L 1563 769 
L 2278 3500 
L 2956 3500 
L 3675 769 
L 4391 3500 
L 4966 3500 
L 4050 0 
L 3372 0 
L 2619 2869 
L 1863 0 
L 1184 0 
L 269 3500 
z
" transform="scale(0.015625)"/>
     </defs>
     <use xlink:href="#DejaVuSans-50"/>
     <use xlink:href="#DejaVuSans-6f" transform="translate(56.677734 0)"/>
     <use xlink:href="#DejaVuSans-73" transform="translate(117.859375 0)"/>
     <use xlink:href="#DejaVuSans-74" transform="translate(169.958984 0)"/>
     <use xlink:href="#DejaVuSans-119" transform="translate(209.167969 0)"/>
     <use xlink:href="#DejaVuSans-70" transform="translate(270.691406 0)"/>
     <use xlink:href="#DejaVuSans-20" transform="translate(334.167969 0)"/>
     <use xlink:href="#DejaVuSans-74" transform="translate(365.955078 0)"/>
     <use xlink:href="#DejaVuSans-142" transform="translate(405.164062 0)"/>
     <use xlink:href="#DejaVuSans-75" transform="translate(433.582031 0)"/>
     <use xlink:href="#DejaVuSans-6d" transform="translate(496.960938 0)"/>
     <use xlink:href="#DejaVuSans-61" transform="translate(594.373047 0)"/>
     <use xlink:href="#DejaVuSans-63" transform="translate(655.652344 0)"/>
     <use xlink:href="#DejaVuSans-7a" transform="translate(710.632812 0)"/>
     <use xlink:href="#DejaVuSans-65" transform="translate(763.123047 0)"/>
     <use xlink:href="#DejaVuSans-6e" transform="translate(824.646484 0)"/>
     <use xlink:href="#DejaVuSans-69" transform="translate(888.025391 0)"/>
     <use xlink:href="#DejaVuSans-61" transform="translate(915.808594 0)"/>
     <use xlink:href="#DejaVuSans-20" transform="translate(977.087891 0)"/>
     <use xlink:href="#DejaVuSans-64" transform="translate(1008.875 0)"/>
     <use xlink:href="#DejaVuSans-6f" transform="translate(1072.351562 0)"/>
     <use xlink:href="#DejaVuSans-20" transform="translate(1133.533203 0)"/>
     <use xlink:href="#DejaVuSans-64" transform="translate(1165.320312 0)"/>
     <use xlink:href="#DejaVuSans-6f" transform="translate(1228.796875 0)"/>
     <use xlink:href="#DejaVuSans-64" transform="translate(1289.978516 0)"/>
     <use xlink:href="#DejaVuSans-61" transform="translate(1353.455078 0)"/>
     <use xlink:href="#DejaVuSans-6e" transform="translate(1414.734375 0)"/>
     <use xlink:href="#DejaVuSans-69" transform="translate(1478.113281 0)"/>
     <use xlink:href="#DejaVuSans-61" transform="translate(1505.896484 0)"/>
     <use xlink:href="#DejaVuSans-20" transform="translate(1567.175781 0)"/>
     <use xlink:href="#DejaVuSans-64" transform="translate(1598.962891 0)"/>
     <use xlink:href="#DejaVuSans-6f" transform="translate(1662.439453 0)"/>
     <use xlink:href="#DejaVuSans-20" transform="translate(1723.621094 0)"/>
     <use xlink:href="#DejaVuSans-70" transform="translate(1755.408203 0)"/>
     <use xlink:href="#DejaVuSans-72" transform="translate(1818.884766 0)"/>
     <use xlink:href="#DejaVuSans-7a" transform="translate(1859.998047 0)"/>
     <use xlink:href="#DejaVuSans-65" transform="translate(1912.488281 0)"/>
     <use xlink:href="#DejaVuSans-142" transform="translate(1974.011719 0)"/>
     <use xlink:href="#DejaVuSans-105" transform="translate(2002.429688 0)"/>
     <use xlink:href="#DejaVuSans-63" transform="translate(2063.708984 0)"/>
     <use xlink:href="#DejaVuSans-7a" transform="translate(2118.689453 0)"/>
     <use xlink:href="#DejaVuSans-6e" transform="translate(2171.179688 0)"/>
     <use xlink:href="#DejaVuSans-69" transform="translate(2234.558594 0)"/>
     <use xlink:href="#DejaVuSans-6b" transform="translate(2262.341797 0)"/>
     <use xlink:href="#DejaVuSans-61" transform="translate(2318.501953 0)"/>
     <use xlink:href="#DejaVuSans-20" transform="translate(2379.78125 0)"/>
     <use xlink:href="#DejaVuSans-6a" transform="translate(2411.568359 0)"/>
     <use xlink:href="#DejaVuSans-119" transform="translate(2439.351562 0)"/>
     <use xlink:href="#DejaVuSans-7a" transform="translate(2500.875 0)"/>
     <use xlink:href="#DejaVuSans-79" transform="translate(2553.365234 0)"/>
     <use xlink:href="#DejaVuSans-6b" transform="translate(2612.544922 0)"/>
     <use xlink:href="#DejaVuSans-f3" transform="translate(2666.830078 0)"/>
     <use xlink:href="#DejaVuSans-77" transform="translate(2728.011719 0)"/>
    </g>
   </g>
  </g>
 </g>
 <defs>
  <clipPath id="pd9677b10c3">
   <rect x="57.6" y="41.472" width="357.12" height="235.008"/>
  </clipPath>
 </defs>
</svg>
