<?xml version="1.0" encoding="utf-8" standalone="no"?>
<!DOCTYPE svg PUBLIC "-//W3C//DTD SVG 1.1//EN"
  "http://www.w3.org/Graphics/SVG/1.1/DTD/svg11.dtd">
<svg xmlns:xlink="http://www.w3.org/1999/xlink" width="460.8pt" height="345.6pt" viewBox="0 0 460.8 345.6" xmlns="http://www.w3.org/2000/svg" version="1.1">
 <metadata>
  <rdf:RDF xmlns:dc="http://purl.org/dc/elements/1.1/" xmlns:cc="http://creativecommons.org/ns#" xmlns:rdf="http://www.w3.org/1999/02/22-rdf-syntax-ns#">
   <cc:Work>
    <dc:type rdf:resource="http://purl.org/dc/dcmitype/StillImage"/>
    <dc:date>2024-11-28T17:09:54.426571</dc:date>
    <dc:format>image/svg+xml</dc:format>
    <dc:creator>
     <cc:Agent>
      <dc:title>Matplotlib v3.9.2, https://matplotlib.org/</dc:title>
     </cc:Agent>
    </dc:creator>
   </cc:Work>
  </rdf:RDF>
 </metadata>
 <defs>
  <style type="text/css">*{stroke-linejoin: round; stroke-linecap: butt}</style>
 </defs>
 <g id="figure_1">
  <g id="patch_1">
   <path d="M 0 345.6 
L 460.8 345.6 
L 460.8 0 
L 0 0 
z
" style="fill: #ffffff"/>
  </g>
  <g id="axes_1">
   <g id="patch_2">
    <path d="M 57.6 276.48 
L 414.72 276.48 
L 414.72 41.472 
L 57.6 41.472 
z
" style="fill: #ffffff"/>
   </g>
   <g id="matplotlib.axis_1">
    <g id="xtick_1">
     <g id="line2d_1">
      <path d="M 77.592659 276.48 
L 77.592659 41.472 
" clip-path="url(#p0f455638b4)" style="fill: none; stroke: #b0b0b0; stroke-width: 0.8; stroke-linecap: square"/>
     </g>
     <g id="line2d_2">
      <defs>
       <path id="m9ba6ec90e4" d="M 0 0 
L 0 3.5 
" style="stroke: #000000; stroke-width: 0.8"/>
      </defs>
      <g>
       <use xlink:href="#m9ba6ec90e4" x="77.592659" y="276.48" style="stroke: #000000; stroke-width: 0.8"/>
      </g>
     </g>
     <g id="text_1">
      <!-- 2020 -->
      <g transform="translate(54.512469 302.78544) rotate(-30) scale(0.1 -0.1)">
       <defs>
        <path id="DejaVuSans-32" d="M 1228 531 
L 3431 531 
L 3431 0 
L 469 0 
L 469 531 
Q 828 903 1448 1529 
Q 2069 2156 2228 2338 
Q 2531 2678 2651 2914 
Q 2772 3150 2772 3378 
Q 2772 3750 2511 3984 
Q 2250 4219 1831 4219 
Q 1534 4219 1204 4116 
Q 875 4013 500 3803 
L 500 4441 
Q 881 4594 1212 4672 
Q 1544 4750 1819 4750 
Q 2544 4750 2975 4387 
Q 3406 4025 3406 3419 
Q 3406 3131 3298 2873 
Q 3191 2616 2906 2266 
Q 2828 2175 2409 1742 
Q 1991 1309 1228 531 
z
" transform="scale(0.015625)"/>
        <path id="DejaVuSans-30" d="M 2034 4250 
Q 1547 4250 1301 3770 
Q 1056 3291 1056 2328 
Q 1056 1369 1301 889 
Q 1547 409 2034 409 
Q 2525 409 2770 889 
Q 3016 1369 3016 2328 
Q 3016 3291 2770 3770 
Q 2525 4250 2034 4250 
z
M 2034 4750 
Q 2819 4750 3233 4129 
Q 3647 3509 3647 2328 
Q 3647 1150 3233 529 
Q 2819 -91 2034 -91 
Q 1250 -91 836 529 
Q 422 1150 422 2328 
Q 422 3509 836 4129 
Q 1250 4750 2034 4750 
z
" transform="scale(0.015625)"/>
       </defs>
       <use xlink:href="#DejaVuSans-32"/>
       <use xlink:href="#DejaVuSans-30" x="63.623047"/>
       <use xlink:href="#DejaVuSans-32" x="127.246094"/>
       <use xlink:href="#DejaVuSans-30" x="190.869141"/>
      </g>
     </g>
    </g>
    <g id="xtick_2">
     <g id="line2d_3">
      <path d="M 143.069853 276.48 
L 143.069853 41.472 
" clip-path="url(#p0f455638b4)" style="fill: none; stroke: #b0b0b0; stroke-width: 0.8; stroke-linecap: square"/>
     </g>
     <g id="line2d_4">
      <g>
       <use xlink:href="#m9ba6ec90e4" x="143.069853" y="276.48" style="stroke: #000000; stroke-width: 0.8"/>
      </g>
     </g>
     <g id="text_2">
      <!-- 2021 -->
      <g transform="translate(119.989663 302.78544) rotate(-30) scale(0.1 -0.1)">
       <defs>
        <path id="DejaVuSans-31" d="M 794 531 
L 1825 531 
L 1825 4091 
L 703 3866 
L 703 4441 
L 1819 4666 
L 2450 4666 
L 2450 531 
L 3481 531 
L 3481 0 
L 794 0 
L 794 531 
z
" transform="scale(0.015625)"/>
       </defs>
       <use xlink:href="#DejaVuSans-32"/>
       <use xlink:href="#DejaVuSans-30" x="63.623047"/>
       <use xlink:href="#DejaVuSans-32" x="127.246094"/>
       <use xlink:href="#DejaVuSans-31" x="190.869141"/>
      </g>
     </g>
    </g>
    <g id="xtick_3">
     <g id="line2d_5">
      <path d="M 208.368147 276.48 
L 208.368147 41.472 
" clip-path="url(#p0f455638b4)" style="fill: none; stroke: #b0b0b0; stroke-width: 0.8; stroke-linecap: square"/>
     </g>
     <g id="line2d_6">
      <g>
       <use xlink:href="#m9ba6ec90e4" x="208.368147" y="276.48" style="stroke: #000000; stroke-width: 0.8"/>
      </g>
     </g>
     <g id="text_3">
      <!-- 2022 -->
      <g transform="translate(185.287957 302.78544) rotate(-30) scale(0.1 -0.1)">
       <use xlink:href="#DejaVuSans-32"/>
       <use xlink:href="#DejaVuSans-30" x="63.623047"/>
       <use xlink:href="#DejaVuSans-32" x="127.246094"/>
       <use xlink:href="#DejaVuSans-32" x="190.869141"/>
      </g>
     </g>
    </g>
    <g id="xtick_4">
     <g id="line2d_7">
      <path d="M 273.666442 276.48 
L 273.666442 41.472 
" clip-path="url(#p0f455638b4)" style="fill: none; stroke: #b0b0b0; stroke-width: 0.8; stroke-linecap: square"/>
     </g>
     <g id="line2d_8">
      <g>
       <use xlink:href="#m9ba6ec90e4" x="273.666442" y="276.48" style="stroke: #000000; stroke-width: 0.8"/>
      </g>
     </g>
     <g id="text_4">
      <!-- 2023 -->
      <g transform="translate(250.586252 302.78544) rotate(-30) scale(0.1 -0.1)">
       <defs>
        <path id="DejaVuSans-33" d="M 2597 2516 
Q 3050 2419 3304 2112 
Q 3559 1806 3559 1356 
Q 3559 666 3084 287 
Q 2609 -91 1734 -91 
Q 1441 -91 1130 -33 
Q 819 25 488 141 
L 488 750 
Q 750 597 1062 519 
Q 1375 441 1716 441 
Q 2309 441 2620 675 
Q 2931 909 2931 1356 
Q 2931 1769 2642 2001 
Q 2353 2234 1838 2234 
L 1294 2234 
L 1294 2753 
L 1863 2753 
Q 2328 2753 2575 2939 
Q 2822 3125 2822 3475 
Q 2822 3834 2567 4026 
Q 2313 4219 1838 4219 
Q 1578 4219 1281 4162 
Q 984 4106 628 3988 
L 628 4550 
Q 988 4650 1302 4700 
Q 1616 4750 1894 4750 
Q 2613 4750 3031 4423 
Q 3450 4097 3450 3541 
Q 3450 3153 3228 2886 
Q 3006 2619 2597 2516 
z
" transform="scale(0.015625)"/>
       </defs>
       <use xlink:href="#DejaVuSans-32"/>
       <use xlink:href="#DejaVuSans-30" x="63.623047"/>
       <use xlink:href="#DejaVuSans-32" x="127.246094"/>
       <use xlink:href="#DejaVuSans-33" x="190.869141"/>
      </g>
     </g>
    </g>
    <g id="xtick_5">
     <g id="line2d_9">
      <path d="M 338.964736 276.48 
L 338.964736 41.472 
" clip-path="url(#p0f455638b4)" style="fill: none; stroke: #b0b0b0; stroke-width: 0.8; stroke-linecap: square"/>
     </g>
     <g id="line2d_10">
      <g>
       <use xlink:href="#m9ba6ec90e4" x="338.964736" y="276.48" style="stroke: #000000; stroke-width: 0.8"/>
      </g>
     </g>
     <g id="text_5">
      <!-- 2024 -->
      <g transform="translate(315.884546 302.78544) rotate(-30) scale(0.1 -0.1)">
       <defs>
        <path id="DejaVuSans-34" d="M 2419 4116 
L 825 1625 
L 2419 1625 
L 2419 4116 
z
M 2253 4666 
L 3047 4666 
L 3047 1625 
L 3713 1625 
L 3713 1100 
L 3047 1100 
L 3047 0 
L 2419 0 
L 2419 1100 
L 313 1100 
L 313 1709 
L 2253 4666 
z
" transform="scale(0.015625)"/>
       </defs>
       <use xlink:href="#DejaVuSans-32"/>
       <use xlink:href="#DejaVuSans-30" x="63.623047"/>
       <use xlink:href="#DejaVuSans-32" x="127.246094"/>
       <use xlink:href="#DejaVuSans-34" x="190.869141"/>
      </g>
     </g>
    </g>
    <g id="xtick_6">
     <g id="line2d_11">
      <path d="M 404.44193 276.48 
L 404.44193 41.472 
" clip-path="url(#p0f455638b4)" style="fill: none; stroke: #b0b0b0; stroke-width: 0.8; stroke-linecap: square"/>
     </g>
     <g id="line2d_12">
      <g>
       <use xlink:href="#m9ba6ec90e4" x="404.44193" y="276.48" style="stroke: #000000; stroke-width: 0.8"/>
      </g>
     </g>
     <g id="text_6">
      <!-- 2025 -->
      <g transform="translate(381.36174 302.78544) rotate(-30) scale(0.1 -0.1)">
       <defs>
        <path id="DejaVuSans-35" d="M 691 4666 
L 3169 4666 
L 3169 4134 
L 1269 4134 
L 1269 2991 
Q 1406 3038 1543 3061 
Q 1681 3084 1819 3084 
Q 2600 3084 3056 2656 
Q 3513 2228 3513 1497 
Q 3513 744 3044 326 
Q 2575 -91 1722 -91 
Q 1428 -91 1123 -41 
Q 819 9 494 109 
L 494 744 
Q 775 591 1075 516 
Q 1375 441 1709 441 
Q 2250 441 2565 725 
Q 2881 1009 2881 1497 
Q 2881 1984 2565 2268 
Q 2250 2553 1709 2553 
Q 1456 2553 1204 2497 
Q 953 2441 691 2322 
L 691 4666 
z
" transform="scale(0.015625)"/>
       </defs>
       <use xlink:href="#DejaVuSans-32"/>
       <use xlink:href="#DejaVuSans-30" x="63.623047"/>
       <use xlink:href="#DejaVuSans-32" x="127.246094"/>
       <use xlink:href="#DejaVuSans-35" x="190.869141"/>
      </g>
     </g>
    </g>
   </g>
   <g id="matplotlib.axis_2">
    <g id="ytick_1">
     <g id="line2d_13">
      <path d="M 57.6 276.48 
L 414.72 276.48 
" clip-path="url(#p0f455638b4)" style="fill: none; stroke: #b0b0b0; stroke-width: 0.8; stroke-linecap: square"/>
     </g>
     <g id="line2d_14">
      <defs>
       <path id="m814a9e6b0a" d="M 0 0 
L -3.5 0 
" style="stroke: #000000; stroke-width: 0.8"/>
      </defs>
      <g>
       <use xlink:href="#m814a9e6b0a" x="57.6" y="276.48" style="stroke: #000000; stroke-width: 0.8"/>
      </g>
     </g>
     <g id="text_7">
      <!-- 0% -->
      <g transform="translate(34.735937 280.279219) scale(0.1 -0.1)">
       <defs>
        <path id="DejaVuSans-25" d="M 4653 2053 
Q 4381 2053 4226 1822 
Q 4072 1591 4072 1178 
Q 4072 772 4226 539 
Q 4381 306 4653 306 
Q 4919 306 5073 539 
Q 5228 772 5228 1178 
Q 5228 1588 5073 1820 
Q 4919 2053 4653 2053 
z
M 4653 2450 
Q 5147 2450 5437 2106 
Q 5728 1763 5728 1178 
Q 5728 594 5436 251 
Q 5144 -91 4653 -91 
Q 4153 -91 3862 251 
Q 3572 594 3572 1178 
Q 3572 1766 3864 2108 
Q 4156 2450 4653 2450 
z
M 1428 4353 
Q 1159 4353 1004 4120 
Q 850 3888 850 3481 
Q 850 3069 1003 2837 
Q 1156 2606 1428 2606 
Q 1700 2606 1854 2837 
Q 2009 3069 2009 3481 
Q 2009 3884 1853 4118 
Q 1697 4353 1428 4353 
z
M 4250 4750 
L 4750 4750 
L 1831 -91 
L 1331 -91 
L 4250 4750 
z
M 1428 4750 
Q 1922 4750 2215 4408 
Q 2509 4066 2509 3481 
Q 2509 2891 2217 2550 
Q 1925 2209 1428 2209 
Q 931 2209 642 2551 
Q 353 2894 353 3481 
Q 353 4063 643 4406 
Q 934 4750 1428 4750 
z
" transform="scale(0.015625)"/>
       </defs>
       <use xlink:href="#DejaVuSans-30"/>
       <use xlink:href="#DejaVuSans-25" x="63.623047"/>
      </g>
     </g>
    </g>
    <g id="ytick_2">
     <g id="line2d_15">
      <path d="M 57.6 248.536622 
L 414.72 248.536622 
" clip-path="url(#p0f455638b4)" style="fill: none; stroke: #b0b0b0; stroke-width: 0.8; stroke-linecap: square"/>
     </g>
     <g id="line2d_16">
      <g>
       <use xlink:href="#m814a9e6b0a" x="57.6" y="248.536622" style="stroke: #000000; stroke-width: 0.8"/>
      </g>
     </g>
     <g id="text_8">
      <!-- 10% -->
      <g transform="translate(28.373438 252.335841) scale(0.1 -0.1)">
       <use xlink:href="#DejaVuSans-31"/>
       <use xlink:href="#DejaVuSans-30" x="63.623047"/>
       <use xlink:href="#DejaVuSans-25" x="127.246094"/>
      </g>
     </g>
    </g>
    <g id="ytick_3">
     <g id="line2d_17">
      <path d="M 57.6 220.593244 
L 414.72 220.593244 
" clip-path="url(#p0f455638b4)" style="fill: none; stroke: #b0b0b0; stroke-width: 0.8; stroke-linecap: square"/>
     </g>
     <g id="line2d_18">
      <g>
       <use xlink:href="#m814a9e6b0a" x="57.6" y="220.593244" style="stroke: #000000; stroke-width: 0.8"/>
      </g>
     </g>
     <g id="text_9">
      <!-- 20% -->
      <g transform="translate(28.373438 224.392463) scale(0.1 -0.1)">
       <use xlink:href="#DejaVuSans-32"/>
       <use xlink:href="#DejaVuSans-30" x="63.623047"/>
       <use xlink:href="#DejaVuSans-25" x="127.246094"/>
      </g>
     </g>
    </g>
    <g id="ytick_4">
     <g id="line2d_19">
      <path d="M 57.6 192.649866 
L 414.72 192.649866 
" clip-path="url(#p0f455638b4)" style="fill: none; stroke: #b0b0b0; stroke-width: 0.8; stroke-linecap: square"/>
     </g>
     <g id="line2d_20">
      <g>
       <use xlink:href="#m814a9e6b0a" x="57.6" y="192.649866" style="stroke: #000000; stroke-width: 0.8"/>
      </g>
     </g>
     <g id="text_10">
      <!-- 30% -->
      <g transform="translate(28.373438 196.449085) scale(0.1 -0.1)">
       <use xlink:href="#DejaVuSans-33"/>
       <use xlink:href="#DejaVuSans-30" x="63.623047"/>
       <use xlink:href="#DejaVuSans-25" x="127.246094"/>
      </g>
     </g>
    </g>
    <g id="ytick_5">
     <g id="line2d_21">
      <path d="M 57.6 164.706488 
L 414.72 164.706488 
" clip-path="url(#p0f455638b4)" style="fill: none; stroke: #b0b0b0; stroke-width: 0.8; stroke-linecap: square"/>
     </g>
     <g id="line2d_22">
      <g>
       <use xlink:href="#m814a9e6b0a" x="57.6" y="164.706488" style="stroke: #000000; stroke-width: 0.8"/>
      </g>
     </g>
     <g id="text_11">
      <!-- 40% -->
      <g transform="translate(28.373438 168.505707) scale(0.1 -0.1)">
       <use xlink:href="#DejaVuSans-34"/>
       <use xlink:href="#DejaVuSans-30" x="63.623047"/>
       <use xlink:href="#DejaVuSans-25" x="127.246094"/>
      </g>
     </g>
    </g>
    <g id="ytick_6">
     <g id="line2d_23">
      <path d="M 57.6 136.76311 
L 414.72 136.76311 
" clip-path="url(#p0f455638b4)" style="fill: none; stroke: #b0b0b0; stroke-width: 0.8; stroke-linecap: square"/>
     </g>
     <g id="line2d_24">
      <g>
       <use xlink:href="#m814a9e6b0a" x="57.6" y="136.76311" style="stroke: #000000; stroke-width: 0.8"/>
      </g>
     </g>
     <g id="text_12">
      <!-- 50% -->
      <g transform="translate(28.373438 140.562329) scale(0.1 -0.1)">
       <use xlink:href="#DejaVuSans-35"/>
       <use xlink:href="#DejaVuSans-30" x="63.623047"/>
       <use xlink:href="#DejaVuSans-25" x="127.246094"/>
      </g>
     </g>
    </g>
    <g id="ytick_7">
     <g id="line2d_25">
      <path d="M 57.6 108.819732 
L 414.72 108.819732 
" clip-path="url(#p0f455638b4)" style="fill: none; stroke: #b0b0b0; stroke-width: 0.8; stroke-linecap: square"/>
     </g>
     <g id="line2d_26">
      <g>
       <use xlink:href="#m814a9e6b0a" x="57.6" y="108.819732" style="stroke: #000000; stroke-width: 0.8"/>
      </g>
     </g>
     <g id="text_13">
      <!-- 60% -->
      <g transform="translate(28.373438 112.618951) scale(0.1 -0.1)">
       <defs>
        <path id="DejaVuSans-36" d="M 2113 2584 
Q 1688 2584 1439 2293 
Q 1191 2003 1191 1497 
Q 1191 994 1439 701 
Q 1688 409 2113 409 
Q 2538 409 2786 701 
Q 3034 994 3034 1497 
Q 3034 2003 2786 2293 
Q 2538 2584 2113 2584 
z
M 3366 4563 
L 3366 3988 
Q 3128 4100 2886 4159 
Q 2644 4219 2406 4219 
Q 1781 4219 1451 3797 
Q 1122 3375 1075 2522 
Q 1259 2794 1537 2939 
Q 1816 3084 2150 3084 
Q 2853 3084 3261 2657 
Q 3669 2231 3669 1497 
Q 3669 778 3244 343 
Q 2819 -91 2113 -91 
Q 1303 -91 875 529 
Q 447 1150 447 2328 
Q 447 3434 972 4092 
Q 1497 4750 2381 4750 
Q 2619 4750 2861 4703 
Q 3103 4656 3366 4563 
z
" transform="scale(0.015625)"/>
       </defs>
       <use xlink:href="#DejaVuSans-36"/>
       <use xlink:href="#DejaVuSans-30" x="63.623047"/>
       <use xlink:href="#DejaVuSans-25" x="127.246094"/>
      </g>
     </g>
    </g>
    <g id="ytick_8">
     <g id="line2d_27">
      <path d="M 57.6 80.876354 
L 414.72 80.876354 
" clip-path="url(#p0f455638b4)" style="fill: none; stroke: #b0b0b0; stroke-width: 0.8; stroke-linecap: square"/>
     </g>
     <g id="line2d_28">
      <g>
       <use xlink:href="#m814a9e6b0a" x="57.6" y="80.876354" style="stroke: #000000; stroke-width: 0.8"/>
      </g>
     </g>
     <g id="text_14">
      <!-- 70% -->
      <g transform="translate(28.373438 84.675573) scale(0.1 -0.1)">
       <defs>
        <path id="DejaVuSans-37" d="M 525 4666 
L 3525 4666 
L 3525 4397 
L 1831 0 
L 1172 0 
L 2766 4134 
L 525 4134 
L 525 4666 
z
" transform="scale(0.015625)"/>
       </defs>
       <use xlink:href="#DejaVuSans-37"/>
       <use xlink:href="#DejaVuSans-30" x="63.623047"/>
       <use xlink:href="#DejaVuSans-25" x="127.246094"/>
      </g>
     </g>
    </g>
    <g id="ytick_9">
     <g id="line2d_29">
      <path d="M 57.6 52.932976 
L 414.72 52.932976 
" clip-path="url(#p0f455638b4)" style="fill: none; stroke: #b0b0b0; stroke-width: 0.8; stroke-linecap: square"/>
     </g>
     <g id="line2d_30">
      <g>
       <use xlink:href="#m814a9e6b0a" x="57.6" y="52.932976" style="stroke: #000000; stroke-width: 0.8"/>
      </g>
     </g>
     <g id="text_15">
      <!-- 80% -->
      <g transform="translate(28.373438 56.732195) scale(0.1 -0.1)">
       <defs>
        <path id="DejaVuSans-38" d="M 2034 2216 
Q 1584 2216 1326 1975 
Q 1069 1734 1069 1313 
Q 1069 891 1326 650 
Q 1584 409 2034 409 
Q 2484 409 2743 651 
Q 3003 894 3003 1313 
Q 3003 1734 2745 1975 
Q 2488 2216 2034 2216 
z
M 1403 2484 
Q 997 2584 770 2862 
Q 544 3141 544 3541 
Q 544 4100 942 4425 
Q 1341 4750 2034 4750 
Q 2731 4750 3128 4425 
Q 3525 4100 3525 3541 
Q 3525 3141 3298 2862 
Q 3072 2584 2669 2484 
Q 3125 2378 3379 2068 
Q 3634 1759 3634 1313 
Q 3634 634 3220 271 
Q 2806 -91 2034 -91 
Q 1263 -91 848 271 
Q 434 634 434 1313 
Q 434 1759 690 2068 
Q 947 2378 1403 2484 
z
M 1172 3481 
Q 1172 3119 1398 2916 
Q 1625 2713 2034 2713 
Q 2441 2713 2670 2916 
Q 2900 3119 2900 3481 
Q 2900 3844 2670 4047 
Q 2441 4250 2034 4250 
Q 1625 4250 1398 4047 
Q 1172 3844 1172 3481 
z
" transform="scale(0.015625)"/>
       </defs>
       <use xlink:href="#DejaVuSans-38"/>
       <use xlink:href="#DejaVuSans-30" x="63.623047"/>
       <use xlink:href="#DejaVuSans-25" x="127.246094"/>
      </g>
     </g>
    </g>
   </g>
   <g id="line2d_31">
    <path d="M 398.487273 51.424034 
L 398.382952 54.218372 
L 398.32687 54.218372 
L 398.244156 62.405782 
L 398.07235 62.405782 
L 398.162976 62.405782 
L 398.081442 80.205713 
L 397.968992 80.42926 
L 397.96234 85.067861 
L 397.805084 87.554822 
L 397.793934 88.421066 
L 394.599662 88.476953 
L 393.710956 89.119651 
L 393.638353 89.399085 
L 393.347442 88.979934 
L 393.343862 89.063764 
L 392.609453 89.762349 
L 392.535351 89.231424 
L 392.076668 89.231424 
L 391.37597 90.265329 
L 391.364532 96.580533 
L 391.133802 98.005645 
L 390.731543 97.474721 
L 390.574478 97.474721 
L 390.481976 100.073455 
L 390.097382 100.269059 
L 389.881506 100.548492 
L 389.564558 99.766078 
L 389.247471 105.438584 
L 389.14748 105.857734 
L 388.62934 106.863696 
L 388.526508 106.668092 
L 388.424037 110.356618 
L 388.23788 110.356618 
L 387.857706 110.747825 
L 387.596639 110.747825 
L 387.592744 114.464295 
L 387.376961 115.721747 
L 386.736081 109.266826 
L 385.558138 109.266826 
L 384.872173 109.602147 
L 384.566503 109.602147 
L 384.182726 109.853637 
L 384.041203 111.111089 
L 384.035787 113.737767 
L 383.754005 113.737767 
L 383.620137 114.352521 
L 383.31053 114.352521 
L 383.228637 117.621896 
L 382.904252 120.472121 
L 382.856038 126.759381 
L 382.717749 128.40804 
L 382.594915 134.024659 
L 382.520353 135.226225 
L 382.434585 101.02353 
L 382.367676 101.889775 
L 381.87207 101.805944 
L 381.842194 102.700133 
L 380.922622 102.700133 
L 380.757527 103.259 
L 380.750058 105.690074 
L 380.467967 108.009374 
L 380.466469 110.105128 
L 378.629288 110.133071 
L 378.610732 110.440448 
L 377.850527 110.133071 
L 377.581894 110.188958 
L 377.358396 110.440448 
L 376.418994 110.272788 
L 374.853705 110.272788 
L 373.471129 108.316752 
L 373.404244 111.166976 
L 373.28467 111.418466 
L 372.837636 111.809674 
L 372.405207 111.809674 
L 372.349086 119.997084 
L 371.884887 119.997084 
L 371.67086 120.611838 
L 371.096868 122.456101 
L 368.45443 122.456101 
L 367.340084 122.763478 
L 366.669167 122.595818 
L 366.646707 123.713553 
L 366.098909 124.02093 
L 366.087684 124.412137 
L 365.841594 123.825326 
L 364.835332 123.825326 
L 364.660464 122.344327 
L 362.517056 122.344327 
L 362.411938 125.054835 
L 362.331007 122.819365 
L 362.097392 122.456101 
L 358.57392 122.428157 
L 357.873121 122.316384 
L 357.744377 124.27242 
L 353.270341 124.27242 
L 352.312456 124.859231 
L 351.913798 124.27242 
L 351.060117 124.579798 
L 350.420808 124.412137 
L 344.80249 124.384194 
L 343.546307 123.992987 
L 342.293989 123.965043 
L 342.11522 123.350289 
L 337.284866 123.350289 
L 336.990513 122.847308 
L 335.003886 122.847308 
L 334.959145 123.881213 
L 334.780212 124.440081 
L 333.527929 123.322345 
L 332.27569 123.322345 
L 331.023353 123.014968 
L 328.769937 123.014968 
L 328.519024 123.825326 
L 327.324116 123.825326 
L 327.323338 123.657666 
L 324.76198 123.657666 
L 324.452747 123.350289 
L 322.663602 123.350289 
L 322.257279 125.194552 
L 321.76909 123.657666 
L 321.601331 123.965043 
L 321.005034 124.384194 
L 320.688428 124.384194 
L 319.75286 125.278382 
L 319.44717 125.278382 
L 319.089442 127.290305 
L 318.906712 127.485909 
L 318.500434 128.15655 
L 318.206275 128.15655 
L 317.956261 128.687474 
L 317.12526 128.687474 
L 316.577292 131.593585 
L 316.353599 132.152453 
L 316.152474 133.689339 
L 315.99586 139.697165 
L 315.955213 133.689339 
L 315.339859 133.689339 
L 315.149794 144.69903 
L 314.743525 144.978463 
L 314.538782 144.69903 
L 312.673188 144.69903 
L 312.238904 145.257897 
L 310.986602 144.447539 
L 309.518345 142.212069 
L 309.458293 142.212069 
L 309.452377 142.379729 
L 307.229796 142.379729 
L 305.977419 142.100295 
L 303.066871 142.100295 
L 303.062953 142.463559 
L 301.926182 142.463559 
L 301.694362 143.581295 
L 299.864755 143.581295 
L 299.669777 144.084275 
L 299.715662 144.084275 
L 299.580833 137.769072 
L 299.130663 137.769072 
L 298.440929 138.383826 
L 298.19306 138.886807 
L 297.904305 138.775034 
L 297.531534 138.775034 
L 297.527912 139.725108 
L 297.211107 140.144259 
L 296.53701 140.144259 
L 296.141475 139.808938 
L 294.706424 140.228089 
L 292.609465 140.228089 
L 293.189667 140.228089 
L 291.703122 140.591353 
L 289.932148 140.619296 
L 289.69737 140.842843 
L 288.168935 140.842843 
L 287.438698 141.094334 
L 287.405215 141.848805 
L 287.403359 141.373768 
L 284.83719 141.373768 
L 284.691969 141.597315 
L 284.382493 141.485541 
L 283.684069 142.072352 
L 283.682914 121.70163 
L 274.373043 121.70163 
L 281.735765 121.70163 
L 281.71202 124.495967 
L 273.418906 124.412137 
L 273.054881 130.30819 
L 272.93472 131.733302 
L 272.779256 131.733302 
L 272.718501 135.673319 
L 271.716341 135.645375 
L 271.553946 136.148356 
L 270.513818 136.148356 
L 270.362298 136.371903 
L 270.305077 143.190087 
L 269.35464 143.190087 
L 269.272933 144.643143 
L 269.021005 144.643143 
L 268.964691 145.844708 
L 266.491641 145.844708 
L 265.884791 146.347689 
L 265.165464 146.347689 
L 265.024688 146.487406 
L 264.935402 148.639046 
L 264.688239 148.639046 
L 264.577926 149.281744 
L 264.263966 149.281744 
L 264.196185 150.539196 
L 264.110947 150.539196 
L 263.943396 152.187855 
L 263.618797 153.333533 
L 263.451033 150.762743 
L 263.446112 151.684874 
L 263.402461 151.684874 
L 263.398964 149.058197 
L 262.393023 147.437481 
L 262.016751 147.912518 
L 260.619438 147.912518 
L 260.613643 148.164008 
L 252.14545 148.415499 
L 251.753425 148.666989 
L 250.034831 149.42146 
L 248.417165 149.672951 
L 246.64326 150.147988 
L 246.527265 152.215798 
L 238.943072 152.215798 
L 238.91686 152.579062 
L 238.116157 152.579062 
L 237.691057 150.678913 
L 236.380602 150.678913 
L 235.634045 150.90246 
L 235.478578 151.15395 
L 235.372877 151.15395 
L 235.364979 151.40544 
L 232.49549 151.40544 
L 231.98086 151.908421 
L 224.55313 153.13793 
L 219.070156 153.640911 
L 216.822838 154.618929 
L 214.560234 154.870419 
L 214.083779 155.3734 
L 214.075599 155.876381 
L 212.533181 155.876381 
L 208.866018 156.127871 
L 205.570982 156.127871 
L 204.50081 156.770569 
L 198.322292 156.770569 
L 198.317745 157.022059 
L 196.393456 157.022059 
L 196.172536 158.251568 
L 195.444185 158.251568 
L 193.677574 158.503058 
L 193.602966 158.894266 
L 191.702327 160.654698 
L 191.6874 162.973999 
L 190.629169 164.259394 
L 189.014251 164.510885 
L 183.784578 164.427054 
L 183.249983 164.315281 
L 182.680331 164.315281 
L 182.515448 164.538828 
L 182.32545 167.919977 
L 181.873926 167.836147 
L 181.81259 168.981825 
L 180.975482 168.981825 
L 180.91971 175.269085 
L 180.098556 175.269085 
L 180.20152 175.269085 
L 180.025994 174.794048 
L 179.183247 174.794048 
L 179.178994 175.408802 
L 178.948798 175.604406 
L 178.054553 174.738161 
L 176.868955 174.738161 
L 176.866553 175.157312 
L 176.864897 171.524672 
L 176.86418 171.524672 
L 174.966005 171.524672 
L 172.998186 171.245239 
L 169.645522 171.245239 
L 169.060541 171.664389 
L 168.523539 171.664389 
L 168.271771 171.496729 
L 168.253241 174.31901 
L 168.095812 174.738161 
L 167.987095 175.157312 
L 167.743647 175.157312 
L 167.092066 176.21916 
L 166.828818 176.21916 
L 166.734499 176.442707 
L 164.646715 176.38682 
L 164.409156 177.448669 
L 164.149431 177.448669 
L 164.050711 177.672216 
L 161.667445 177.672216 
L 160.827475 178.957611 
L 159.321455 178.957611 
L 159.217206 179.376762 
L 157.910199 179.041441 
L 155.997847 182.25493 
L 152.057098 182.25493 
L 151.878279 182.059326 
L 141.198869 182.059326 
L 141.141868 183.121174 
L 138.029807 183.149118 
L 135.908987 183.372665 
L 135.704068 184.210966 
L 135.543968 185.719908 
L 135.138454 187.424454 
L 135.013711 188.039209 
L 134.902394 196.394279 
L 134.817029 196.394279 
L 134.740198 206.006801 
L 134.008319 206.202404 
L 133.008669 206.202404 
L 132.822094 211.986684 
L 132.819932 211.986684 
L 132.553614 212.210231 
L 131.445353 212.210231 
L 131.435967 212.629381 
L 131.297887 212.629381 
L 131.120298 212.433778 
L 128.894034 212.433778 
L 128.886072 213.411796 
L 121.60717 213.411796 
L 121.035617 213.579456 
L 120.799478 213.77506 
L 120.796855 214.920738 
L 120.152388 214.920738 
L 119.792531 215.116342 
L 117.122935 215.116342 
L 119.278665 215.060455 
L 118.920817 216.401737 
L 117.829482 216.960605 
L 117.310539 216.960605 
L 116.953384 217.74302 
L 112.301316 217.74302 
L 112.123031 218.134227 
L 108.544084 218.106283 
L 108.365758 218.693094 
L 107.828412 218.693094 
L 107.649502 218.860755 
L 107.587347 219.866716 
L 107.112961 219.866716 
L 106.934614 220.369697 
L 104.787146 220.369697 
L 104.608313 219.447566 
L 104.250456 219.447566 
L 104.072441 220.257924 
L 102.103845 220.257924 
L 101.925022 220.677074 
L 99.062273 220.677074 
L 98.883599 221.515376 
L 98.704625 221.710979 
L 96.736359 221.710979 
L 96.558159 222.549281 
L 96.378641 222.549281 
L 96.200271 222.968431 
L 90.475185 222.968431 
L 90.296799 223.191978 
L 86.718127 223.191978 
L 86.540023 224.337657 
L 85.465895 224.337657 
L 85.108991 229.479238 
L 84.034542 229.479238 
L 83.855651 229.674842 
L 82.603359 229.674842 
L 82.424458 230.066049 
L 82.080712 230.066049 
L 82.030715 233.307481 
L 81.810835 247.614491 
L 81.771661 247.586547 
L 80.993285 247.586547 
L 79.920708 247.782151 
L 79.532221 247.977754 
L 79.455615 248.173358 
L 79.025724 248.173358 
L 79.025642 248.368962 
L 78.310172 248.368962 
L 78.310104 248.564565 
L 78.131217 248.564565 
L 78.131138 248.760169 
L 77.753988 248.760169 
L 77.749935 250.101451 
L 77.436696 250.101451 
L 77.415545 250.297055 
L 77.316218 250.297055 
L 77.245437 250.464715 
L 73.832727 250.464715 
L 73.832727 250.464715 
" clip-path="url(#p0f455638b4)" style="fill: none; stroke: #1f77b4; stroke-width: 1.5; stroke-linecap: square"/>
   </g>
   <g id="patch_3">
    <path d="M 57.6 276.48 
L 57.6 41.472 
" style="fill: none; stroke: #000000; stroke-width: 0.8; stroke-linejoin: miter; stroke-linecap: square"/>
   </g>
   <g id="patch_4">
    <path d="M 414.72 276.48 
L 414.72 41.472 
" style="fill: none; stroke: #000000; stroke-width: 0.8; stroke-linejoin: miter; stroke-linecap: square"/>
   </g>
   <g id="patch_5">
    <path d="M 57.6 276.48 
L 414.72 276.48 
" style="fill: none; stroke: #000000; stroke-width: 0.8; stroke-linejoin: miter; stroke-linecap: square"/>
   </g>
   <g id="patch_6">
    <path d="M 57.6 41.472 
L 414.72 41.472 
" style="fill: none; stroke: #000000; stroke-width: 0.8; stroke-linejoin: miter; stroke-linecap: square"/>
   </g>
   <g id="text_16">
    <!-- Postęp tłumaczenia do dodania do przełącznika języków -->
    <g transform="translate(67.57125 35.472) scale(0.12 -0.12)">
     <defs>
      <path id="DejaVuSans-50" d="M 1259 4147 
L 1259 2394 
L 2053 2394 
Q 2494 2394 2734 2622 
Q 2975 2850 2975 3272 
Q 2975 3691 2734 3919 
Q 2494 4147 2053 4147 
L 1259 4147 
z
M 628 4666 
L 2053 4666 
Q 2838 4666 3239 4311 
Q 3641 3956 3641 3272 
Q 3641 2581 3239 2228 
Q 2838 1875 2053 1875 
L 1259 1875 
L 1259 0 
L 628 0 
L 628 4666 
z
" transform="scale(0.015625)"/>
      <path id="DejaVuSans-6f" d="M 1959 3097 
Q 1497 3097 1228 2736 
Q 959 2375 959 1747 
Q 959 1119 1226 758 
Q 1494 397 1959 397 
Q 2419 397 2687 759 
Q 2956 1122 2956 1747 
Q 2956 2369 2687 2733 
Q 2419 3097 1959 3097 
z
M 1959 3584 
Q 2709 3584 3137 3096 
Q 3566 2609 3566 1747 
Q 3566 888 3137 398 
Q 2709 -91 1959 -91 
Q 1206 -91 779 398 
Q 353 888 353 1747 
Q 353 2609 779 3096 
Q 1206 3584 1959 3584 
z
" transform="scale(0.015625)"/>
      <path id="DejaVuSans-73" d="M 2834 3397 
L 2834 2853 
Q 2591 2978 2328 3040 
Q 2066 3103 1784 3103 
Q 1356 3103 1142 2972 
Q 928 2841 928 2578 
Q 928 2378 1081 2264 
Q 1234 2150 1697 2047 
L 1894 2003 
Q 2506 1872 2764 1633 
Q 3022 1394 3022 966 
Q 3022 478 2636 193 
Q 2250 -91 1575 -91 
Q 1294 -91 989 -36 
Q 684 19 347 128 
L 347 722 
Q 666 556 975 473 
Q 1284 391 1588 391 
Q 1994 391 2212 530 
Q 2431 669 2431 922 
Q 2431 1156 2273 1281 
Q 2116 1406 1581 1522 
L 1381 1569 
Q 847 1681 609 1914 
Q 372 2147 372 2553 
Q 372 3047 722 3315 
Q 1072 3584 1716 3584 
Q 2034 3584 2315 3537 
Q 2597 3491 2834 3397 
z
" transform="scale(0.015625)"/>
      <path id="DejaVuSans-74" d="M 1172 4494 
L 1172 3500 
L 2356 3500 
L 2356 3053 
L 1172 3053 
L 1172 1153 
Q 1172 725 1289 603 
Q 1406 481 1766 481 
L 2356 481 
L 2356 0 
L 1766 0 
Q 1100 0 847 248 
Q 594 497 594 1153 
L 594 3053 
L 172 3053 
L 172 3500 
L 594 3500 
L 594 4494 
L 1172 4494 
z
" transform="scale(0.015625)"/>
      <path id="DejaVuSans-119" d="M 3597 1894 
L 3597 1613 
L 953 1613 
Q 991 1019 1311 708 
Q 1631 397 2203 397 
Q 2534 397 2845 478 
Q 3156 559 3463 722 
L 3463 178 
Q 3153 47 2828 -22 
Q 2503 -91 2169 -91 
Q 1331 -91 842 396 
Q 353 884 353 1716 
Q 353 2575 817 3079 
Q 1281 3584 2069 3584 
Q 2775 3584 3186 3129 
Q 3597 2675 3597 1894 
z
M 3022 2063 
Q 3016 2534 2758 2815 
Q 2500 3097 2075 3097 
Q 1594 3097 1305 2825 
Q 1016 2553 972 2059 
L 3022 2063 
z
M 2551 0 
L 2923 0 
Q 2782 -191 2715 -328 
Q 2648 -466 2648 -563 
Q 2648 -706 2734 -778 
Q 2820 -850 2989 -850 
Q 3089 -850 3185 -826 
Q 3282 -803 3379 -756 
L 3379 -1172 
Q 3260 -1203 3154 -1218 
Q 3048 -1234 2954 -1234 
Q 2573 -1234 2393 -1098 
Q 2214 -963 2214 -672 
Q 2214 -522 2296 -358 
Q 2379 -194 2551 0 
z
" transform="scale(0.015625)"/>
      <path id="DejaVuSans-70" d="M 1159 525 
L 1159 -1331 
L 581 -1331 
L 581 3500 
L 1159 3500 
L 1159 2969 
Q 1341 3281 1617 3432 
Q 1894 3584 2278 3584 
Q 2916 3584 3314 3078 
Q 3713 2572 3713 1747 
Q 3713 922 3314 415 
Q 2916 -91 2278 -91 
Q 1894 -91 1617 61 
Q 1341 213 1159 525 
z
M 3116 1747 
Q 3116 2381 2855 2742 
Q 2594 3103 2138 3103 
Q 1681 3103 1420 2742 
Q 1159 2381 1159 1747 
Q 1159 1113 1420 752 
Q 1681 391 2138 391 
Q 2594 391 2855 752 
Q 3116 1113 3116 1747 
z
" transform="scale(0.015625)"/>
      <path id="DejaVuSans-20" transform="scale(0.015625)"/>
      <path id="DejaVuSans-142" d="M 622 4863 
L 1197 4863 
L 1197 2981 
L 1588 3263 
L 1825 2931 
L 1197 2491 
L 1197 0 
L 622 0 
L 622 2081 
L 238 1806 
L 6 2138 
L 622 2578 
L 622 4863 
z
" transform="scale(0.015625)"/>
      <path id="DejaVuSans-75" d="M 544 1381 
L 544 3500 
L 1119 3500 
L 1119 1403 
Q 1119 906 1312 657 
Q 1506 409 1894 409 
Q 2359 409 2629 706 
Q 2900 1003 2900 1516 
L 2900 3500 
L 3475 3500 
L 3475 0 
L 2900 0 
L 2900 538 
Q 2691 219 2414 64 
Q 2138 -91 1772 -91 
Q 1169 -91 856 284 
Q 544 659 544 1381 
z
M 1991 3584 
L 1991 3584 
z
" transform="scale(0.015625)"/>
      <path id="DejaVuSans-6d" d="M 3328 2828 
Q 3544 3216 3844 3400 
Q 4144 3584 4550 3584 
Q 5097 3584 5394 3201 
Q 5691 2819 5691 2113 
L 5691 0 
L 5113 0 
L 5113 2094 
Q 5113 2597 4934 2840 
Q 4756 3084 4391 3084 
Q 3944 3084 3684 2787 
Q 3425 2491 3425 1978 
L 3425 0 
L 2847 0 
L 2847 2094 
Q 2847 2600 2669 2842 
Q 2491 3084 2119 3084 
Q 1678 3084 1418 2786 
Q 1159 2488 1159 1978 
L 1159 0 
L 581 0 
L 581 3500 
L 1159 3500 
L 1159 2956 
Q 1356 3278 1631 3431 
Q 1906 3584 2284 3584 
Q 2666 3584 2933 3390 
Q 3200 3197 3328 2828 
z
" transform="scale(0.015625)"/>
      <path id="DejaVuSans-61" d="M 2194 1759 
Q 1497 1759 1228 1600 
Q 959 1441 959 1056 
Q 959 750 1161 570 
Q 1363 391 1709 391 
Q 2188 391 2477 730 
Q 2766 1069 2766 1631 
L 2766 1759 
L 2194 1759 
z
M 3341 1997 
L 3341 0 
L 2766 0 
L 2766 531 
Q 2569 213 2275 61 
Q 1981 -91 1556 -91 
Q 1019 -91 701 211 
Q 384 513 384 1019 
Q 384 1609 779 1909 
Q 1175 2209 1959 2209 
L 2766 2209 
L 2766 2266 
Q 2766 2663 2505 2880 
Q 2244 3097 1772 3097 
Q 1472 3097 1187 3025 
Q 903 2953 641 2809 
L 641 3341 
Q 956 3463 1253 3523 
Q 1550 3584 1831 3584 
Q 2591 3584 2966 3190 
Q 3341 2797 3341 1997 
z
" transform="scale(0.015625)"/>
      <path id="DejaVuSans-63" d="M 3122 3366 
L 3122 2828 
Q 2878 2963 2633 3030 
Q 2388 3097 2138 3097 
Q 1578 3097 1268 2742 
Q 959 2388 959 1747 
Q 959 1106 1268 751 
Q 1578 397 2138 397 
Q 2388 397 2633 464 
Q 2878 531 3122 666 
L 3122 134 
Q 2881 22 2623 -34 
Q 2366 -91 2075 -91 
Q 1284 -91 818 406 
Q 353 903 353 1747 
Q 353 2603 823 3093 
Q 1294 3584 2113 3584 
Q 2378 3584 2631 3529 
Q 2884 3475 3122 3366 
z
" transform="scale(0.015625)"/>
      <path id="DejaVuSans-7a" d="M 353 3500 
L 3084 3500 
L 3084 2975 
L 922 459 
L 3084 459 
L 3084 0 
L 275 0 
L 275 525 
L 2438 3041 
L 353 3041 
L 353 3500 
z
" transform="scale(0.015625)"/>
      <path id="DejaVuSans-65" d="M 3597 1894 
L 3597 1613 
L 953 1613 
Q 991 1019 1311 708 
Q 1631 397 2203 397 
Q 2534 397 2845 478 
Q 3156 559 3463 722 
L 3463 178 
Q 3153 47 2828 -22 
Q 2503 -91 2169 -91 
Q 1331 -91 842 396 
Q 353 884 353 1716 
Q 353 2575 817 3079 
Q 1281 3584 2069 3584 
Q 2775 3584 3186 3129 
Q 3597 2675 3597 1894 
z
M 3022 2063 
Q 3016 2534 2758 2815 
Q 2500 3097 2075 3097 
Q 1594 3097 1305 2825 
Q 1016 2553 972 2059 
L 3022 2063 
z
" transform="scale(0.015625)"/>
      <path id="DejaVuSans-6e" d="M 3513 2113 
L 3513 0 
L 2938 0 
L 2938 2094 
Q 2938 2591 2744 2837 
Q 2550 3084 2163 3084 
Q 1697 3084 1428 2787 
Q 1159 2491 1159 1978 
L 1159 0 
L 581 0 
L 581 3500 
L 1159 3500 
L 1159 2956 
Q 1366 3272 1645 3428 
Q 1925 3584 2291 3584 
Q 2894 3584 3203 3211 
Q 3513 2838 3513 2113 
z
" transform="scale(0.015625)"/>
      <path id="DejaVuSans-69" d="M 603 3500 
L 1178 3500 
L 1178 0 
L 603 0 
L 603 3500 
z
M 603 4863 
L 1178 4863 
L 1178 4134 
L 603 4134 
L 603 4863 
z
" transform="scale(0.015625)"/>
      <path id="DejaVuSans-64" d="M 2906 2969 
L 2906 4863 
L 3481 4863 
L 3481 0 
L 2906 0 
L 2906 525 
Q 2725 213 2448 61 
Q 2172 -91 1784 -91 
Q 1150 -91 751 415 
Q 353 922 353 1747 
Q 353 2572 751 3078 
Q 1150 3584 1784 3584 
Q 2172 3584 2448 3432 
Q 2725 3281 2906 2969 
z
M 947 1747 
Q 947 1113 1208 752 
Q 1469 391 1925 391 
Q 2381 391 2643 752 
Q 2906 1113 2906 1747 
Q 2906 2381 2643 2742 
Q 2381 3103 1925 3103 
Q 1469 3103 1208 2742 
Q 947 2381 947 1747 
z
" transform="scale(0.015625)"/>
      <path id="DejaVuSans-72" d="M 2631 2963 
Q 2534 3019 2420 3045 
Q 2306 3072 2169 3072 
Q 1681 3072 1420 2755 
Q 1159 2438 1159 1844 
L 1159 0 
L 581 0 
L 581 3500 
L 1159 3500 
L 1159 2956 
Q 1341 3275 1631 3429 
Q 1922 3584 2338 3584 
Q 2397 3584 2469 3576 
Q 2541 3569 2628 3553 
L 2631 2963 
z
" transform="scale(0.015625)"/>
      <path id="DejaVuSans-105" d="M 2194 1759 
Q 1497 1759 1228 1600 
Q 959 1441 959 1056 
Q 959 750 1161 570 
Q 1363 391 1709 391 
Q 2188 391 2477 730 
Q 2766 1069 2766 1631 
L 2766 1759 
L 2194 1759 
z
M 3341 1997 
L 3341 0 
L 2766 0 
L 2766 531 
Q 2569 213 2275 61 
Q 1981 -91 1556 -91 
Q 1019 -91 701 211 
Q 384 513 384 1019 
Q 384 1609 779 1909 
Q 1175 2209 1959 2209 
L 2766 2209 
L 2766 2266 
Q 2766 2663 2505 2880 
Q 2244 3097 1772 3097 
Q 1472 3097 1187 3025 
Q 903 2953 641 2809 
L 641 3341 
Q 956 3463 1253 3523 
Q 1550 3584 1831 3584 
Q 2591 3584 2966 3190 
Q 3341 2797 3341 1997 
z
M 2775 0 
L 3147 0 
Q 3006 -191 2939 -328 
Q 2872 -466 2872 -563 
Q 2872 -706 2958 -778 
Q 3044 -850 3213 -850 
Q 3313 -850 3409 -826 
Q 3506 -803 3603 -756 
L 3603 -1172 
Q 3484 -1203 3378 -1218 
Q 3272 -1234 3178 -1234 
Q 2797 -1234 2617 -1098 
Q 2438 -963 2438 -672 
Q 2438 -522 2520 -358 
Q 2603 -194 2775 0 
z
" transform="scale(0.015625)"/>
      <path id="DejaVuSans-6b" d="M 581 4863 
L 1159 4863 
L 1159 1991 
L 2875 3500 
L 3609 3500 
L 1753 1863 
L 3688 0 
L 2938 0 
L 1159 1709 
L 1159 0 
L 581 0 
L 581 4863 
z
" transform="scale(0.015625)"/>
      <path id="DejaVuSans-6a" d="M 603 3500 
L 1178 3500 
L 1178 -63 
Q 1178 -731 923 -1031 
Q 669 -1331 103 -1331 
L -116 -1331 
L -116 -844 
L 38 -844 
Q 366 -844 484 -692 
Q 603 -541 603 -63 
L 603 3500 
z
M 603 4863 
L 1178 4863 
L 1178 4134 
L 603 4134 
L 603 4863 
z
" transform="scale(0.015625)"/>
      <path id="DejaVuSans-79" d="M 2059 -325 
Q 1816 -950 1584 -1140 
Q 1353 -1331 966 -1331 
L 506 -1331 
L 506 -850 
L 844 -850 
Q 1081 -850 1212 -737 
Q 1344 -625 1503 -206 
L 1606 56 
L 191 3500 
L 800 3500 
L 1894 763 
L 2988 3500 
L 3597 3500 
L 2059 -325 
z
" transform="scale(0.015625)"/>
      <path id="DejaVuSans-f3" d="M 1959 3097 
Q 1497 3097 1228 2736 
Q 959 2375 959 1747 
Q 959 1119 1226 758 
Q 1494 397 1959 397 
Q 2419 397 2687 759 
Q 2956 1122 2956 1747 
Q 2956 2369 2687 2733 
Q 2419 3097 1959 3097 
z
M 1959 3584 
Q 2709 3584 3137 3096 
Q 3566 2609 3566 1747 
Q 3566 888 3137 398 
Q 2709 -91 1959 -91 
Q 1206 -91 779 398 
Q 353 888 353 1747 
Q 353 2609 779 3096 
Q 1206 3584 1959 3584 
z
M 2394 5119 
L 3016 5119 
L 1998 3944 
L 1519 3944 
L 2394 5119 
z
" transform="scale(0.015625)"/>
      <path id="DejaVuSans-77" d="M 269 3500 
L 844 3500 
L 1563 769 
L 2278 3500 
L 2956 3500 
L 3675 769 
L 4391 3500 
L 4966 3500 
L 4050 0 
L 3372 0 
L 2619 2869 
L 1863 0 
L 1184 0 
L 269 3500 
z
" transform="scale(0.015625)"/>
     </defs>
     <use xlink:href="#DejaVuSans-50"/>
     <use xlink:href="#DejaVuSans-6f" x="56.677734"/>
     <use xlink:href="#DejaVuSans-73" x="117.859375"/>
     <use xlink:href="#DejaVuSans-74" x="169.958984"/>
     <use xlink:href="#DejaVuSans-119" x="209.167969"/>
     <use xlink:href="#DejaVuSans-70" x="270.691406"/>
     <use xlink:href="#DejaVuSans-20" x="334.167969"/>
     <use xlink:href="#DejaVuSans-74" x="365.955078"/>
     <use xlink:href="#DejaVuSans-142" x="405.164062"/>
     <use xlink:href="#DejaVuSans-75" x="433.582031"/>
     <use xlink:href="#DejaVuSans-6d" x="496.960938"/>
     <use xlink:href="#DejaVuSans-61" x="594.373047"/>
     <use xlink:href="#DejaVuSans-63" x="655.652344"/>
     <use xlink:href="#DejaVuSans-7a" x="710.632812"/>
     <use xlink:href="#DejaVuSans-65" x="763.123047"/>
     <use xlink:href="#DejaVuSans-6e" x="824.646484"/>
     <use xlink:href="#DejaVuSans-69" x="888.025391"/>
     <use xlink:href="#DejaVuSans-61" x="915.808594"/>
     <use xlink:href="#DejaVuSans-20" x="977.087891"/>
     <use xlink:href="#DejaVuSans-64" x="1008.875"/>
     <use xlink:href="#DejaVuSans-6f" x="1072.351562"/>
     <use xlink:href="#DejaVuSans-20" x="1133.533203"/>
     <use xlink:href="#DejaVuSans-64" x="1165.320312"/>
     <use xlink:href="#DejaVuSans-6f" x="1228.796875"/>
     <use xlink:href="#DejaVuSans-64" x="1289.978516"/>
     <use xlink:href="#DejaVuSans-61" x="1353.455078"/>
     <use xlink:href="#DejaVuSans-6e" x="1414.734375"/>
     <use xlink:href="#DejaVuSans-69" x="1478.113281"/>
     <use xlink:href="#DejaVuSans-61" x="1505.896484"/>
     <use xlink:href="#DejaVuSans-20" x="1567.175781"/>
     <use xlink:href="#DejaVuSans-64" x="1598.962891"/>
     <use xlink:href="#DejaVuSans-6f" x="1662.439453"/>
     <use xlink:href="#DejaVuSans-20" x="1723.621094"/>
     <use xlink:href="#DejaVuSans-70" x="1755.408203"/>
     <use xlink:href="#DejaVuSans-72" x="1818.884766"/>
     <use xlink:href="#DejaVuSans-7a" x="1859.998047"/>
     <use xlink:href="#DejaVuSans-65" x="1912.488281"/>
     <use xlink:href="#DejaVuSans-142" x="1974.011719"/>
     <use xlink:href="#DejaVuSans-105" x="2002.429688"/>
     <use xlink:href="#DejaVuSans-63" x="2063.708984"/>
     <use xlink:href="#DejaVuSans-7a" x="2118.689453"/>
     <use xlink:href="#DejaVuSans-6e" x="2171.179688"/>
     <use xlink:href="#DejaVuSans-69" x="2234.558594"/>
     <use xlink:href="#DejaVuSans-6b" x="2262.341797"/>
     <use xlink:href="#DejaVuSans-61" x="2318.501953"/>
     <use xlink:href="#DejaVuSans-20" x="2379.78125"/>
     <use xlink:href="#DejaVuSans-6a" x="2411.568359"/>
     <use xlink:href="#DejaVuSans-119" x="2439.351562"/>
     <use xlink:href="#DejaVuSans-7a" x="2500.875"/>
     <use xlink:href="#DejaVuSans-79" x="2553.365234"/>
     <use xlink:href="#DejaVuSans-6b" x="2612.544922"/>
     <use xlink:href="#DejaVuSans-f3" x="2666.830078"/>
     <use xlink:href="#DejaVuSans-77" x="2728.011719"/>
    </g>
   </g>
  </g>
 </g>
 <defs>
  <clipPath id="p0f455638b4">
   <rect x="57.6" y="41.472" width="357.12" height="235.008"/>
  </clipPath>
 </defs>
</svg>
