<?xml version="1.0" encoding="utf-8" standalone="no"?>
<!DOCTYPE svg PUBLIC "-//W3C//DTD SVG 1.1//EN"
  "http://www.w3.org/Graphics/SVG/1.1/DTD/svg11.dtd">
<svg xmlns:xlink="http://www.w3.org/1999/xlink" width="460.8pt" height="345.6pt" viewBox="0 0 460.8 345.6" xmlns="http://www.w3.org/2000/svg" version="1.1">
 <metadata>
  <rdf:RDF xmlns:dc="http://purl.org/dc/elements/1.1/" xmlns:cc="http://creativecommons.org/ns#" xmlns:rdf="http://www.w3.org/1999/02/22-rdf-syntax-ns#">
   <cc:Work>
    <dc:type rdf:resource="http://purl.org/dc/dcmitype/StillImage"/>
    <dc:date>2024-12-10T18:11:23.079747</dc:date>
    <dc:format>image/svg+xml</dc:format>
    <dc:creator>
     <cc:Agent>
      <dc:title>Matplotlib v3.9.3, https://matplotlib.org/</dc:title>
     </cc:Agent>
    </dc:creator>
   </cc:Work>
  </rdf:RDF>
 </metadata>
 <defs>
  <style type="text/css">*{stroke-linejoin: round; stroke-linecap: butt}</style>
 </defs>
 <g id="figure_1">
  <g id="patch_1">
   <path d="M 0 345.6 
L 460.8 345.6 
L 460.8 0 
L 0 0 
z
" style="fill: #ffffff"/>
  </g>
  <g id="axes_1">
   <g id="patch_2">
    <path d="M 57.6 276.48 
L 414.72 276.48 
L 414.72 41.472 
L 57.6 41.472 
z
" style="fill: #ffffff"/>
   </g>
   <g id="matplotlib.axis_1">
    <g id="xtick_1">
     <g id="line2d_1">
      <path d="M 77.567873 276.48 
L 77.567873 41.472 
" clip-path="url(#p1cf11e580e)" style="fill: none; stroke: #b0b0b0; stroke-width: 0.8; stroke-linecap: square"/>
     </g>
     <g id="line2d_2">
      <defs>
       <path id="m0440e4a2e0" d="M 0 0 
L 0 3.5 
" style="stroke: #000000; stroke-width: 0.8"/>
      </defs>
      <g>
       <use xlink:href="#m0440e4a2e0" x="77.567873" y="276.48" style="stroke: #000000; stroke-width: 0.8"/>
      </g>
     </g>
     <g id="text_1">
      <!-- 2020 -->
      <g transform="translate(54.487682 302.78544) rotate(-30) scale(0.1 -0.1)">
       <defs>
        <path id="DejaVuSans-32" d="M 1228 531 
L 3431 531 
L 3431 0 
L 469 0 
L 469 531 
Q 828 903 1448 1529 
Q 2069 2156 2228 2338 
Q 2531 2678 2651 2914 
Q 2772 3150 2772 3378 
Q 2772 3750 2511 3984 
Q 2250 4219 1831 4219 
Q 1534 4219 1204 4116 
Q 875 4013 500 3803 
L 500 4441 
Q 881 4594 1212 4672 
Q 1544 4750 1819 4750 
Q 2544 4750 2975 4387 
Q 3406 4025 3406 3419 
Q 3406 3131 3298 2873 
Q 3191 2616 2906 2266 
Q 2828 2175 2409 1742 
Q 1991 1309 1228 531 
z
" transform="scale(0.015625)"/>
        <path id="DejaVuSans-30" d="M 2034 4250 
Q 1547 4250 1301 3770 
Q 1056 3291 1056 2328 
Q 1056 1369 1301 889 
Q 1547 409 2034 409 
Q 2525 409 2770 889 
Q 3016 1369 3016 2328 
Q 3016 3291 2770 3770 
Q 2525 4250 2034 4250 
z
M 2034 4750 
Q 2819 4750 3233 4129 
Q 3647 3509 3647 2328 
Q 3647 1150 3233 529 
Q 2819 -91 2034 -91 
Q 1250 -91 836 529 
Q 422 1150 422 2328 
Q 422 3509 836 4129 
Q 1250 4750 2034 4750 
z
" transform="scale(0.015625)"/>
       </defs>
       <use xlink:href="#DejaVuSans-32"/>
       <use xlink:href="#DejaVuSans-30" x="63.623047"/>
       <use xlink:href="#DejaVuSans-32" x="127.246094"/>
       <use xlink:href="#DejaVuSans-30" x="190.869141"/>
      </g>
     </g>
    </g>
    <g id="xtick_2">
     <g id="line2d_3">
      <path d="M 142.61342 276.48 
L 142.61342 41.472 
" clip-path="url(#p1cf11e580e)" style="fill: none; stroke: #b0b0b0; stroke-width: 0.8; stroke-linecap: square"/>
     </g>
     <g id="line2d_4">
      <g>
       <use xlink:href="#m0440e4a2e0" x="142.61342" y="276.48" style="stroke: #000000; stroke-width: 0.8"/>
      </g>
     </g>
     <g id="text_2">
      <!-- 2021 -->
      <g transform="translate(119.533229 302.78544) rotate(-30) scale(0.1 -0.1)">
       <defs>
        <path id="DejaVuSans-31" d="M 794 531 
L 1825 531 
L 1825 4091 
L 703 3866 
L 703 4441 
L 1819 4666 
L 2450 4666 
L 2450 531 
L 3481 531 
L 3481 0 
L 794 0 
L 794 531 
z
" transform="scale(0.015625)"/>
       </defs>
       <use xlink:href="#DejaVuSans-32"/>
       <use xlink:href="#DejaVuSans-30" x="63.623047"/>
       <use xlink:href="#DejaVuSans-32" x="127.246094"/>
       <use xlink:href="#DejaVuSans-31" x="190.869141"/>
      </g>
     </g>
    </g>
    <g id="xtick_3">
     <g id="line2d_5">
      <path d="M 207.481247 276.48 
L 207.481247 41.472 
" clip-path="url(#p1cf11e580e)" style="fill: none; stroke: #b0b0b0; stroke-width: 0.8; stroke-linecap: square"/>
     </g>
     <g id="line2d_6">
      <g>
       <use xlink:href="#m0440e4a2e0" x="207.481247" y="276.48" style="stroke: #000000; stroke-width: 0.8"/>
      </g>
     </g>
     <g id="text_3">
      <!-- 2022 -->
      <g transform="translate(184.401057 302.78544) rotate(-30) scale(0.1 -0.1)">
       <use xlink:href="#DejaVuSans-32"/>
       <use xlink:href="#DejaVuSans-30" x="63.623047"/>
       <use xlink:href="#DejaVuSans-32" x="127.246094"/>
       <use xlink:href="#DejaVuSans-32" x="190.869141"/>
      </g>
     </g>
    </g>
    <g id="xtick_4">
     <g id="line2d_7">
      <path d="M 272.349074 276.48 
L 272.349074 41.472 
" clip-path="url(#p1cf11e580e)" style="fill: none; stroke: #b0b0b0; stroke-width: 0.8; stroke-linecap: square"/>
     </g>
     <g id="line2d_8">
      <g>
       <use xlink:href="#m0440e4a2e0" x="272.349074" y="276.48" style="stroke: #000000; stroke-width: 0.8"/>
      </g>
     </g>
     <g id="text_4">
      <!-- 2023 -->
      <g transform="translate(249.268884 302.78544) rotate(-30) scale(0.1 -0.1)">
       <defs>
        <path id="DejaVuSans-33" d="M 2597 2516 
Q 3050 2419 3304 2112 
Q 3559 1806 3559 1356 
Q 3559 666 3084 287 
Q 2609 -91 1734 -91 
Q 1441 -91 1130 -33 
Q 819 25 488 141 
L 488 750 
Q 750 597 1062 519 
Q 1375 441 1716 441 
Q 2309 441 2620 675 
Q 2931 909 2931 1356 
Q 2931 1769 2642 2001 
Q 2353 2234 1838 2234 
L 1294 2234 
L 1294 2753 
L 1863 2753 
Q 2328 2753 2575 2939 
Q 2822 3125 2822 3475 
Q 2822 3834 2567 4026 
Q 2313 4219 1838 4219 
Q 1578 4219 1281 4162 
Q 984 4106 628 3988 
L 628 4550 
Q 988 4650 1302 4700 
Q 1616 4750 1894 4750 
Q 2613 4750 3031 4423 
Q 3450 4097 3450 3541 
Q 3450 3153 3228 2886 
Q 3006 2619 2597 2516 
z
" transform="scale(0.015625)"/>
       </defs>
       <use xlink:href="#DejaVuSans-32"/>
       <use xlink:href="#DejaVuSans-30" x="63.623047"/>
       <use xlink:href="#DejaVuSans-32" x="127.246094"/>
       <use xlink:href="#DejaVuSans-33" x="190.869141"/>
      </g>
     </g>
    </g>
    <g id="xtick_5">
     <g id="line2d_9">
      <path d="M 337.216901 276.48 
L 337.216901 41.472 
" clip-path="url(#p1cf11e580e)" style="fill: none; stroke: #b0b0b0; stroke-width: 0.8; stroke-linecap: square"/>
     </g>
     <g id="line2d_10">
      <g>
       <use xlink:href="#m0440e4a2e0" x="337.216901" y="276.48" style="stroke: #000000; stroke-width: 0.8"/>
      </g>
     </g>
     <g id="text_5">
      <!-- 2024 -->
      <g transform="translate(314.136711 302.78544) rotate(-30) scale(0.1 -0.1)">
       <defs>
        <path id="DejaVuSans-34" d="M 2419 4116 
L 825 1625 
L 2419 1625 
L 2419 4116 
z
M 2253 4666 
L 3047 4666 
L 3047 1625 
L 3713 1625 
L 3713 1100 
L 3047 1100 
L 3047 0 
L 2419 0 
L 2419 1100 
L 313 1100 
L 313 1709 
L 2253 4666 
z
" transform="scale(0.015625)"/>
       </defs>
       <use xlink:href="#DejaVuSans-32"/>
       <use xlink:href="#DejaVuSans-30" x="63.623047"/>
       <use xlink:href="#DejaVuSans-32" x="127.246094"/>
       <use xlink:href="#DejaVuSans-34" x="190.869141"/>
      </g>
     </g>
    </g>
    <g id="xtick_6">
     <g id="line2d_11">
      <path d="M 402.262448 276.48 
L 402.262448 41.472 
" clip-path="url(#p1cf11e580e)" style="fill: none; stroke: #b0b0b0; stroke-width: 0.8; stroke-linecap: square"/>
     </g>
     <g id="line2d_12">
      <g>
       <use xlink:href="#m0440e4a2e0" x="402.262448" y="276.48" style="stroke: #000000; stroke-width: 0.8"/>
      </g>
     </g>
     <g id="text_6">
      <!-- 2025 -->
      <g transform="translate(379.182258 302.78544) rotate(-30) scale(0.1 -0.1)">
       <defs>
        <path id="DejaVuSans-35" d="M 691 4666 
L 3169 4666 
L 3169 4134 
L 1269 4134 
L 1269 2991 
Q 1406 3038 1543 3061 
Q 1681 3084 1819 3084 
Q 2600 3084 3056 2656 
Q 3513 2228 3513 1497 
Q 3513 744 3044 326 
Q 2575 -91 1722 -91 
Q 1428 -91 1123 -41 
Q 819 9 494 109 
L 494 744 
Q 775 591 1075 516 
Q 1375 441 1709 441 
Q 2250 441 2565 725 
Q 2881 1009 2881 1497 
Q 2881 1984 2565 2268 
Q 2250 2553 1709 2553 
Q 1456 2553 1204 2497 
Q 953 2441 691 2322 
L 691 4666 
z
" transform="scale(0.015625)"/>
       </defs>
       <use xlink:href="#DejaVuSans-32"/>
       <use xlink:href="#DejaVuSans-30" x="63.623047"/>
       <use xlink:href="#DejaVuSans-32" x="127.246094"/>
       <use xlink:href="#DejaVuSans-35" x="190.869141"/>
      </g>
     </g>
    </g>
   </g>
   <g id="matplotlib.axis_2">
    <g id="ytick_1">
     <g id="line2d_13">
      <path d="M 57.6 276.48 
L 414.72 276.48 
" clip-path="url(#p1cf11e580e)" style="fill: none; stroke: #b0b0b0; stroke-width: 0.8; stroke-linecap: square"/>
     </g>
     <g id="line2d_14">
      <defs>
       <path id="m94d77b7492" d="M 0 0 
L -3.5 0 
" style="stroke: #000000; stroke-width: 0.8"/>
      </defs>
      <g>
       <use xlink:href="#m94d77b7492" x="57.6" y="276.48" style="stroke: #000000; stroke-width: 0.8"/>
      </g>
     </g>
     <g id="text_7">
      <!-- 0% -->
      <g transform="translate(34.735937 280.279219) scale(0.1 -0.1)">
       <defs>
        <path id="DejaVuSans-25" d="M 4653 2053 
Q 4381 2053 4226 1822 
Q 4072 1591 4072 1178 
Q 4072 772 4226 539 
Q 4381 306 4653 306 
Q 4919 306 5073 539 
Q 5228 772 5228 1178 
Q 5228 1588 5073 1820 
Q 4919 2053 4653 2053 
z
M 4653 2450 
Q 5147 2450 5437 2106 
Q 5728 1763 5728 1178 
Q 5728 594 5436 251 
Q 5144 -91 4653 -91 
Q 4153 -91 3862 251 
Q 3572 594 3572 1178 
Q 3572 1766 3864 2108 
Q 4156 2450 4653 2450 
z
M 1428 4353 
Q 1159 4353 1004 4120 
Q 850 3888 850 3481 
Q 850 3069 1003 2837 
Q 1156 2606 1428 2606 
Q 1700 2606 1854 2837 
Q 2009 3069 2009 3481 
Q 2009 3884 1853 4118 
Q 1697 4353 1428 4353 
z
M 4250 4750 
L 4750 4750 
L 1831 -91 
L 1331 -91 
L 4250 4750 
z
M 1428 4750 
Q 1922 4750 2215 4408 
Q 2509 4066 2509 3481 
Q 2509 2891 2217 2550 
Q 1925 2209 1428 2209 
Q 931 2209 642 2551 
Q 353 2894 353 3481 
Q 353 4063 643 4406 
Q 934 4750 1428 4750 
z
" transform="scale(0.015625)"/>
       </defs>
       <use xlink:href="#DejaVuSans-30"/>
       <use xlink:href="#DejaVuSans-25" x="63.623047"/>
      </g>
     </g>
    </g>
    <g id="ytick_2">
     <g id="line2d_15">
      <path d="M 57.6 249.887864 
L 414.72 249.887864 
" clip-path="url(#p1cf11e580e)" style="fill: none; stroke: #b0b0b0; stroke-width: 0.8; stroke-linecap: square"/>
     </g>
     <g id="line2d_16">
      <g>
       <use xlink:href="#m94d77b7492" x="57.6" y="249.887864" style="stroke: #000000; stroke-width: 0.8"/>
      </g>
     </g>
     <g id="text_8">
      <!-- 10% -->
      <g transform="translate(28.373438 253.687083) scale(0.1 -0.1)">
       <use xlink:href="#DejaVuSans-31"/>
       <use xlink:href="#DejaVuSans-30" x="63.623047"/>
       <use xlink:href="#DejaVuSans-25" x="127.246094"/>
      </g>
     </g>
    </g>
    <g id="ytick_3">
     <g id="line2d_17">
      <path d="M 57.6 223.295728 
L 414.72 223.295728 
" clip-path="url(#p1cf11e580e)" style="fill: none; stroke: #b0b0b0; stroke-width: 0.8; stroke-linecap: square"/>
     </g>
     <g id="line2d_18">
      <g>
       <use xlink:href="#m94d77b7492" x="57.6" y="223.295728" style="stroke: #000000; stroke-width: 0.8"/>
      </g>
     </g>
     <g id="text_9">
      <!-- 20% -->
      <g transform="translate(28.373438 227.094947) scale(0.1 -0.1)">
       <use xlink:href="#DejaVuSans-32"/>
       <use xlink:href="#DejaVuSans-30" x="63.623047"/>
       <use xlink:href="#DejaVuSans-25" x="127.246094"/>
      </g>
     </g>
    </g>
    <g id="ytick_4">
     <g id="line2d_19">
      <path d="M 57.6 196.703593 
L 414.72 196.703593 
" clip-path="url(#p1cf11e580e)" style="fill: none; stroke: #b0b0b0; stroke-width: 0.8; stroke-linecap: square"/>
     </g>
     <g id="line2d_20">
      <g>
       <use xlink:href="#m94d77b7492" x="57.6" y="196.703593" style="stroke: #000000; stroke-width: 0.8"/>
      </g>
     </g>
     <g id="text_10">
      <!-- 30% -->
      <g transform="translate(28.373438 200.502811) scale(0.1 -0.1)">
       <use xlink:href="#DejaVuSans-33"/>
       <use xlink:href="#DejaVuSans-30" x="63.623047"/>
       <use xlink:href="#DejaVuSans-25" x="127.246094"/>
      </g>
     </g>
    </g>
    <g id="ytick_5">
     <g id="line2d_21">
      <path d="M 57.6 170.111457 
L 414.72 170.111457 
" clip-path="url(#p1cf11e580e)" style="fill: none; stroke: #b0b0b0; stroke-width: 0.8; stroke-linecap: square"/>
     </g>
     <g id="line2d_22">
      <g>
       <use xlink:href="#m94d77b7492" x="57.6" y="170.111457" style="stroke: #000000; stroke-width: 0.8"/>
      </g>
     </g>
     <g id="text_11">
      <!-- 40% -->
      <g transform="translate(28.373438 173.910676) scale(0.1 -0.1)">
       <use xlink:href="#DejaVuSans-34"/>
       <use xlink:href="#DejaVuSans-30" x="63.623047"/>
       <use xlink:href="#DejaVuSans-25" x="127.246094"/>
      </g>
     </g>
    </g>
    <g id="ytick_6">
     <g id="line2d_23">
      <path d="M 57.6 143.519321 
L 414.72 143.519321 
" clip-path="url(#p1cf11e580e)" style="fill: none; stroke: #b0b0b0; stroke-width: 0.8; stroke-linecap: square"/>
     </g>
     <g id="line2d_24">
      <g>
       <use xlink:href="#m94d77b7492" x="57.6" y="143.519321" style="stroke: #000000; stroke-width: 0.8"/>
      </g>
     </g>
     <g id="text_12">
      <!-- 50% -->
      <g transform="translate(28.373438 147.31854) scale(0.1 -0.1)">
       <use xlink:href="#DejaVuSans-35"/>
       <use xlink:href="#DejaVuSans-30" x="63.623047"/>
       <use xlink:href="#DejaVuSans-25" x="127.246094"/>
      </g>
     </g>
    </g>
    <g id="ytick_7">
     <g id="line2d_25">
      <path d="M 57.6 116.927185 
L 414.72 116.927185 
" clip-path="url(#p1cf11e580e)" style="fill: none; stroke: #b0b0b0; stroke-width: 0.8; stroke-linecap: square"/>
     </g>
     <g id="line2d_26">
      <g>
       <use xlink:href="#m94d77b7492" x="57.6" y="116.927185" style="stroke: #000000; stroke-width: 0.8"/>
      </g>
     </g>
     <g id="text_13">
      <!-- 60% -->
      <g transform="translate(28.373438 120.726404) scale(0.1 -0.1)">
       <defs>
        <path id="DejaVuSans-36" d="M 2113 2584 
Q 1688 2584 1439 2293 
Q 1191 2003 1191 1497 
Q 1191 994 1439 701 
Q 1688 409 2113 409 
Q 2538 409 2786 701 
Q 3034 994 3034 1497 
Q 3034 2003 2786 2293 
Q 2538 2584 2113 2584 
z
M 3366 4563 
L 3366 3988 
Q 3128 4100 2886 4159 
Q 2644 4219 2406 4219 
Q 1781 4219 1451 3797 
Q 1122 3375 1075 2522 
Q 1259 2794 1537 2939 
Q 1816 3084 2150 3084 
Q 2853 3084 3261 2657 
Q 3669 2231 3669 1497 
Q 3669 778 3244 343 
Q 2819 -91 2113 -91 
Q 1303 -91 875 529 
Q 447 1150 447 2328 
Q 447 3434 972 4092 
Q 1497 4750 2381 4750 
Q 2619 4750 2861 4703 
Q 3103 4656 3366 4563 
z
" transform="scale(0.015625)"/>
       </defs>
       <use xlink:href="#DejaVuSans-36"/>
       <use xlink:href="#DejaVuSans-30" x="63.623047"/>
       <use xlink:href="#DejaVuSans-25" x="127.246094"/>
      </g>
     </g>
    </g>
    <g id="ytick_8">
     <g id="line2d_27">
      <path d="M 57.6 90.33505 
L 414.72 90.33505 
" clip-path="url(#p1cf11e580e)" style="fill: none; stroke: #b0b0b0; stroke-width: 0.8; stroke-linecap: square"/>
     </g>
     <g id="line2d_28">
      <g>
       <use xlink:href="#m94d77b7492" x="57.6" y="90.33505" style="stroke: #000000; stroke-width: 0.8"/>
      </g>
     </g>
     <g id="text_14">
      <!-- 70% -->
      <g transform="translate(28.373438 94.134268) scale(0.1 -0.1)">
       <defs>
        <path id="DejaVuSans-37" d="M 525 4666 
L 3525 4666 
L 3525 4397 
L 1831 0 
L 1172 0 
L 2766 4134 
L 525 4134 
L 525 4666 
z
" transform="scale(0.015625)"/>
       </defs>
       <use xlink:href="#DejaVuSans-37"/>
       <use xlink:href="#DejaVuSans-30" x="63.623047"/>
       <use xlink:href="#DejaVuSans-25" x="127.246094"/>
      </g>
     </g>
    </g>
    <g id="ytick_9">
     <g id="line2d_29">
      <path d="M 57.6 63.742914 
L 414.72 63.742914 
" clip-path="url(#p1cf11e580e)" style="fill: none; stroke: #b0b0b0; stroke-width: 0.8; stroke-linecap: square"/>
     </g>
     <g id="line2d_30">
      <g>
       <use xlink:href="#m94d77b7492" x="57.6" y="63.742914" style="stroke: #000000; stroke-width: 0.8"/>
      </g>
     </g>
     <g id="text_15">
      <!-- 80% -->
      <g transform="translate(28.373438 67.542132) scale(0.1 -0.1)">
       <defs>
        <path id="DejaVuSans-38" d="M 2034 2216 
Q 1584 2216 1326 1975 
Q 1069 1734 1069 1313 
Q 1069 891 1326 650 
Q 1584 409 2034 409 
Q 2484 409 2743 651 
Q 3003 894 3003 1313 
Q 3003 1734 2745 1975 
Q 2488 2216 2034 2216 
z
M 1403 2484 
Q 997 2584 770 2862 
Q 544 3141 544 3541 
Q 544 4100 942 4425 
Q 1341 4750 2034 4750 
Q 2731 4750 3128 4425 
Q 3525 4100 3525 3541 
Q 3525 3141 3298 2862 
Q 3072 2584 2669 2484 
Q 3125 2378 3379 2068 
Q 3634 1759 3634 1313 
Q 3634 634 3220 271 
Q 2806 -91 2034 -91 
Q 1263 -91 848 271 
Q 434 634 434 1313 
Q 434 1759 690 2068 
Q 947 2378 1403 2484 
z
M 1172 3481 
Q 1172 3119 1398 2916 
Q 1625 2713 2034 2713 
Q 2441 2713 2670 2916 
Q 2900 3119 2900 3481 
Q 2900 3844 2670 4047 
Q 2441 4250 2034 4250 
Q 1625 4250 1398 4047 
Q 1172 3844 1172 3481 
z
" transform="scale(0.015625)"/>
       </defs>
       <use xlink:href="#DejaVuSans-38"/>
       <use xlink:href="#DejaVuSans-30" x="63.623047"/>
       <use xlink:href="#DejaVuSans-25" x="127.246094"/>
      </g>
     </g>
    </g>
   </g>
   <g id="line2d_31">
    <path d="M 398.487273 51.483939 
L 398.380626 56.3503 
L 397.750594 56.908735 
L 397.661055 55.658904 
L 397.653755 55.871642 
L 397.071994 56.616221 
L 397.06811 57.679907 
L 396.550692 57.679907 
L 396.506476 61.588951 
L 396.35075 61.163477 
L 396.243413 64.966152 
L 396.1877 64.966152 
L 396.105532 72.757648 
L 395.934859 72.757648 
L 396.024887 72.757648 
L 395.943891 89.696838 
L 395.832182 89.909575 
L 395.825573 94.32387 
L 395.669354 96.69057 
L 395.658278 97.514926 
L 392.485063 97.56811 
L 391.602216 98.17973 
L 391.530091 98.445651 
L 391.241099 98.046769 
L 391.237542 98.126545 
L 390.507975 98.791349 
L 390.322806 98.286098 
L 389.978702 98.286098 
L 389.282624 99.270007 
L 389.271261 105.27983 
L 389.042051 106.636029 
L 388.642445 106.130778 
L 388.486415 106.130778 
L 388.394523 108.603847 
L 388.012464 108.789992 
L 387.798011 109.055913 
L 387.483152 108.311333 
L 387.168156 113.709537 
L 387.068824 114.108419 
L 386.5541 115.065736 
L 386.451946 114.879591 
L 386.35015 118.389753 
L 386.16522 118.389753 
L 385.787553 118.762043 
L 385.528207 118.762043 
L 385.524338 122.298797 
L 385.309977 123.495443 
L 384.673322 117.352659 
L 383.503144 117.352659 
L 382.821701 117.671765 
L 382.518046 117.671765 
L 382.1368 117.911094 
L 381.996209 119.10774 
L 381.990829 121.607401 
L 381.710905 121.607401 
L 381.577919 122.192428 
L 381.270353 122.192428 
L 381.189 125.303708 
L 380.866753 128.016106 
L 380.818857 133.999336 
L 380.68148 135.568272 
L 380.559456 140.913292 
L 380.485385 142.056754 
L 380.400182 109.507979 
L 380.333714 110.332336 
L 379.841376 110.252559 
L 379.811697 111.103508 
L 378.898187 111.103508 
L 378.73418 111.63535 
L 378.726761 113.948866 
L 378.446529 116.156013 
L 378.445042 118.150424 
L 376.619972 118.177016 
L 376.601537 118.469529 
L 375.846344 118.177016 
L 375.579482 118.2302 
L 375.357458 118.469529 
L 374.424248 118.309976 
L 372.869278 118.309976 
L 371.495816 116.448527 
L 371.429373 119.160925 
L 371.310586 119.400254 
L 370.8665 119.772544 
L 370.436921 119.772544 
L 370.38117 127.56404 
L 369.920032 127.56404 
L 369.707416 128.149067 
L 369.137208 129.904148 
L 366.51219 129.904148 
L 365.405189 130.196661 
L 364.738695 130.037108 
L 364.716384 131.100794 
L 364.172196 131.393307 
L 364.161046 131.765597 
L 363.916578 131.207162 
L 362.91695 131.207162 
L 362.743234 129.797779 
L 360.613957 129.797779 
L 360.509532 132.377216 
L 360.429134 130.249845 
L 360.197059 129.904148 
L 356.696815 129.877555 
L 356.000636 129.771187 
L 355.872741 131.632636 
L 351.428198 131.632636 
L 350.476629 132.191071 
L 350.080599 131.632636 
L 349.232545 131.92515 
L 348.597451 131.765597 
L 343.01617 131.739005 
L 341.768269 131.366715 
L 340.524206 131.340123 
L 340.346615 130.755096 
L 335.548105 130.755096 
L 335.255692 130.276437 
L 333.282162 130.276437 
L 333.237716 131.260346 
L 333.059963 131.792189 
L 331.815934 130.728504 
L 330.571952 130.728504 
L 329.32787 130.43599 
L 327.089309 130.43599 
L 326.84005 131.207162 
L 325.65302 131.207162 
L 325.652246 131.047609 
L 323.107774 131.047609 
L 322.80058 130.755096 
L 321.023229 130.755096 
L 320.619584 132.510177 
L 320.134614 131.047609 
L 319.96796 131.340123 
L 319.375595 131.739005 
L 319.061076 131.739005 
L 318.131676 132.589953 
L 317.828001 132.589953 
L 317.472631 134.504587 
L 317.291105 134.690732 
L 316.887506 135.328943 
L 316.595286 135.328943 
L 316.34692 135.834194 
L 315.521398 135.834194 
L 314.977042 138.599776 
L 314.754824 139.131619 
L 314.555024 140.594186 
L 314.399443 146.311495 
L 314.359063 140.594186 
L 313.747766 140.594186 
L 313.558955 151.071488 
L 313.155364 151.337409 
L 312.951971 151.071488 
L 311.098676 151.071488 
L 310.667254 151.60333 
L 309.423207 150.832158 
L 307.964629 148.704788 
L 307.904974 148.704788 
L 307.899097 148.86434 
L 305.691168 148.86434 
L 304.447047 148.598419 
L 301.555686 148.598419 
L 301.551794 148.944117 
L 300.422516 148.944117 
L 300.192225 150.007802 
L 298.374679 150.007802 
L 298.180987 150.486461 
L 298.226569 150.486461 
L 298.092629 144.476638 
L 297.645426 144.476638 
L 296.960239 145.061665 
L 296.714004 145.540323 
L 296.427153 145.433955 
L 296.056839 145.433955 
L 296.053242 146.338087 
L 295.738525 146.73697 
L 295.068872 146.73697 
L 294.675944 146.417864 
L 293.250353 146.816746 
L 291.167219 146.816746 
L 291.743596 146.816746 
L 290.266851 147.162444 
L 288.507552 147.189036 
L 288.274321 147.401773 
L 286.755962 147.401773 
L 286.030539 147.641102 
L 285.997276 148.35909 
L 285.995433 147.907023 
L 283.446181 147.907023 
L 283.301917 148.119761 
L 282.994482 148.013392 
L 282.300662 148.571827 
L 282.299514 129.18616 
L 273.051017 129.18616 
L 280.365202 129.18616 
L 280.341613 131.845373 
L 272.10317 131.765597 
L 271.741545 137.376538 
L 271.622176 138.732737 
L 271.467737 138.732737 
L 271.407382 142.482228 
L 270.411828 142.455636 
L 270.250504 142.934294 
L 269.217233 142.934294 
L 269.066712 143.147031 
L 269.009868 149.635512 
L 268.065697 149.635512 
L 267.984528 151.018303 
L 267.734262 151.018303 
L 267.678319 152.161765 
L 265.221571 152.161765 
L 264.618722 152.640424 
L 263.904137 152.640424 
L 263.764289 152.773384 
L 263.675592 154.820979 
L 263.430058 154.820979 
L 263.320472 155.432598 
L 263.008582 155.432598 
L 262.941248 156.629244 
L 262.856572 156.629244 
L 262.690126 158.19818 
L 262.367667 159.288458 
L 262.201009 156.841981 
L 262.196119 157.719522 
L 262.152757 157.719522 
L 262.149283 155.219861 
L 261.149974 153.677517 
L 260.776181 154.129583 
L 259.388081 154.129583 
L 259.382323 154.368912 
L 250.969956 154.608242 
L 250.580514 154.847571 
L 248.87325 155.565559 
L 247.266249 155.804888 
L 245.504037 156.256954 
L 245.388807 158.224772 
L 237.854611 158.224772 
L 237.828572 158.57047 
L 237.033148 158.57047 
L 236.610851 156.762205 
L 235.309035 156.762205 
L 234.567399 156.974942 
L 234.412957 157.214271 
L 234.307952 157.214271 
L 234.300107 157.4536 
L 231.449535 157.4536 
L 230.938297 157.932259 
L 223.559533 159.102313 
L 218.112704 159.580971 
L 215.880201 160.511696 
L 213.632513 160.751025 
L 213.1592 161.229684 
L 213.151073 161.708342 
L 211.618823 161.708342 
L 207.975835 161.947671 
L 204.702521 161.947671 
L 203.639404 162.55929 
L 197.501617 162.55929 
L 197.4971 162.79862 
L 195.585496 162.79862 
L 195.366032 163.968673 
L 194.642483 163.968673 
L 192.887518 164.208003 
L 192.813402 164.580293 
L 190.925293 166.255597 
L 190.910465 168.462744 
L 189.859209 169.685983 
L 188.254938 169.925312 
L 183.05974 169.845536 
L 182.52867 169.739167 
L 181.962773 169.739167 
L 181.798976 169.951904 
L 181.610231 173.169552 
L 181.161683 173.089776 
L 181.100753 174.180054 
L 180.269162 174.180054 
L 180.213759 180.163284 
L 179.398017 180.163284 
L 179.500303 180.163284 
L 179.325934 179.711218 
L 178.488743 179.711218 
L 178.484518 180.296245 
L 178.255839 180.48239 
L 177.367489 179.658034 
L 176.189707 179.658034 
L 176.187321 180.056916 
L 176.185676 176.599938 
L 176.184964 176.599938 
L 174.299302 176.599938 
L 172.344456 176.334017 
L 169.013893 176.334017 
L 168.432769 176.732899 
L 167.899306 176.732899 
L 167.649198 176.573346 
L 167.630791 179.259152 
L 167.474399 179.658034 
L 167.366399 180.056916 
L 167.124556 180.056916 
L 166.47727 181.067417 
L 166.215758 181.067417 
L 166.12206 181.280154 
L 164.04804 181.22697 
L 163.812047 182.237471 
L 163.554034 182.237471 
L 163.455965 182.450208 
L 161.088411 182.450208 
L 160.253978 183.673446 
L 158.757886 183.673446 
L 158.654325 184.072328 
L 157.355933 183.753223 
L 155.456188 186.811318 
L 151.541418 186.811318 
L 151.363778 186.625173 
L 140.75477 186.625173 
L 140.698144 187.635674 
L 137.606599 187.662266 
L 135.49976 187.875004 
L 135.296193 188.672768 
L 135.137148 190.108743 
L 134.734307 191.730863 
L 134.610387 192.31589 
L 134.499803 200.266939 
L 134.415001 200.266939 
L 134.338676 209.414634 
L 133.610224 209.600779 
L 132.618562 209.600779 
L 132.433217 215.105351 
L 132.431069 215.105351 
L 132.166507 215.318088 
L 131.065552 215.318088 
L 131.056228 215.71697 
L 130.919058 215.71697 
L 130.74264 215.530825 
L 128.531052 215.530825 
L 128.523143 216.46155 
L 121.292225 216.46155 
L 120.72444 216.621102 
L 120.489858 216.807247 
L 120.487252 217.897525 
L 119.847034 217.897525 
L 119.489549 218.08367 
L 116.837552 218.08367 
L 118.979071 218.030486 
L 118.623581 219.306908 
L 117.539442 219.838751 
L 117.02392 219.838751 
L 116.669119 220.583331 
L 112.047719 220.583331 
L 111.870609 220.95562 
L 108.315256 220.929028 
L 108.138105 221.487463 
L 107.604301 221.487463 
L 107.426571 221.647016 
L 107.364825 222.604333 
L 106.893567 222.604333 
L 106.716396 223.082991 
L 104.583085 223.082991 
L 104.40543 222.205451 
L 104.049933 222.205451 
L 103.873091 222.976623 
L 101.917473 222.976623 
L 101.739829 223.375505 
L 98.895952 223.375505 
L 98.718456 224.173269 
L 98.540662 224.359414 
L 96.585371 224.359414 
L 96.408346 225.157178 
L 96.230011 225.157178 
L 96.052817 225.55606 
L 90.365472 225.55606 
L 90.188263 225.768797 
L 86.633182 225.768797 
L 86.456252 226.859075 
L 85.389205 226.859075 
L 85.034654 231.752028 
L 83.967289 231.752028 
L 83.789577 231.938173 
L 82.54554 231.938173 
L 82.367818 232.310462 
L 82.026339 232.310462 
L 81.976672 235.39515 
L 81.75824 249.010324 
L 81.719325 248.983732 
L 80.94608 248.983732 
L 79.880574 249.169877 
L 79.494648 249.356021 
L 79.418547 249.542166 
L 78.991491 249.542166 
L 78.991408 249.728311 
L 78.280656 249.728311 
L 78.280588 249.914456 
L 78.10288 249.914456 
L 78.102802 250.100601 
L 77.728137 250.100601 
L 77.724112 251.377024 
L 77.412937 251.377024 
L 77.391926 251.563169 
L 77.293254 251.563169 
L 77.222939 251.722722 
L 73.832727 251.722722 
L 73.832727 251.722722 
" clip-path="url(#p1cf11e580e)" style="fill: none; stroke: #1f77b4; stroke-width: 1.5; stroke-linecap: square"/>
   </g>
   <g id="patch_3">
    <path d="M 57.6 276.48 
L 57.6 41.472 
" style="fill: none; stroke: #000000; stroke-width: 0.8; stroke-linejoin: miter; stroke-linecap: square"/>
   </g>
   <g id="patch_4">
    <path d="M 414.72 276.48 
L 414.72 41.472 
" style="fill: none; stroke: #000000; stroke-width: 0.8; stroke-linejoin: miter; stroke-linecap: square"/>
   </g>
   <g id="patch_5">
    <path d="M 57.6 276.48 
L 414.72 276.48 
" style="fill: none; stroke: #000000; stroke-width: 0.8; stroke-linejoin: miter; stroke-linecap: square"/>
   </g>
   <g id="patch_6">
    <path d="M 57.6 41.472 
L 414.72 41.472 
" style="fill: none; stroke: #000000; stroke-width: 0.8; stroke-linejoin: miter; stroke-linecap: square"/>
   </g>
   <g id="text_16">
    <!-- Postęp tłumaczenia do dodania do przełącznika języków -->
    <g transform="translate(67.57125 35.472) scale(0.12 -0.12)">
     <defs>
      <path id="DejaVuSans-50" d="M 1259 4147 
L 1259 2394 
L 2053 2394 
Q 2494 2394 2734 2622 
Q 2975 2850 2975 3272 
Q 2975 3691 2734 3919 
Q 2494 4147 2053 4147 
L 1259 4147 
z
M 628 4666 
L 2053 4666 
Q 2838 4666 3239 4311 
Q 3641 3956 3641 3272 
Q 3641 2581 3239 2228 
Q 2838 1875 2053 1875 
L 1259 1875 
L 1259 0 
L 628 0 
L 628 4666 
z
" transform="scale(0.015625)"/>
      <path id="DejaVuSans-6f" d="M 1959 3097 
Q 1497 3097 1228 2736 
Q 959 2375 959 1747 
Q 959 1119 1226 758 
Q 1494 397 1959 397 
Q 2419 397 2687 759 
Q 2956 1122 2956 1747 
Q 2956 2369 2687 2733 
Q 2419 3097 1959 3097 
z
M 1959 3584 
Q 2709 3584 3137 3096 
Q 3566 2609 3566 1747 
Q 3566 888 3137 398 
Q 2709 -91 1959 -91 
Q 1206 -91 779 398 
Q 353 888 353 1747 
Q 353 2609 779 3096 
Q 1206 3584 1959 3584 
z
" transform="scale(0.015625)"/>
      <path id="DejaVuSans-73" d="M 2834 3397 
L 2834 2853 
Q 2591 2978 2328 3040 
Q 2066 3103 1784 3103 
Q 1356 3103 1142 2972 
Q 928 2841 928 2578 
Q 928 2378 1081 2264 
Q 1234 2150 1697 2047 
L 1894 2003 
Q 2506 1872 2764 1633 
Q 3022 1394 3022 966 
Q 3022 478 2636 193 
Q 2250 -91 1575 -91 
Q 1294 -91 989 -36 
Q 684 19 347 128 
L 347 722 
Q 666 556 975 473 
Q 1284 391 1588 391 
Q 1994 391 2212 530 
Q 2431 669 2431 922 
Q 2431 1156 2273 1281 
Q 2116 1406 1581 1522 
L 1381 1569 
Q 847 1681 609 1914 
Q 372 2147 372 2553 
Q 372 3047 722 3315 
Q 1072 3584 1716 3584 
Q 2034 3584 2315 3537 
Q 2597 3491 2834 3397 
z
" transform="scale(0.015625)"/>
      <path id="DejaVuSans-74" d="M 1172 4494 
L 1172 3500 
L 2356 3500 
L 2356 3053 
L 1172 3053 
L 1172 1153 
Q 1172 725 1289 603 
Q 1406 481 1766 481 
L 2356 481 
L 2356 0 
L 1766 0 
Q 1100 0 847 248 
Q 594 497 594 1153 
L 594 3053 
L 172 3053 
L 172 3500 
L 594 3500 
L 594 4494 
L 1172 4494 
z
" transform="scale(0.015625)"/>
      <path id="DejaVuSans-119" d="M 3597 1894 
L 3597 1613 
L 953 1613 
Q 991 1019 1311 708 
Q 1631 397 2203 397 
Q 2534 397 2845 478 
Q 3156 559 3463 722 
L 3463 178 
Q 3153 47 2828 -22 
Q 2503 -91 2169 -91 
Q 1331 -91 842 396 
Q 353 884 353 1716 
Q 353 2575 817 3079 
Q 1281 3584 2069 3584 
Q 2775 3584 3186 3129 
Q 3597 2675 3597 1894 
z
M 3022 2063 
Q 3016 2534 2758 2815 
Q 2500 3097 2075 3097 
Q 1594 3097 1305 2825 
Q 1016 2553 972 2059 
L 3022 2063 
z
M 2551 0 
L 2923 0 
Q 2782 -191 2715 -328 
Q 2648 -466 2648 -563 
Q 2648 -706 2734 -778 
Q 2820 -850 2989 -850 
Q 3089 -850 3185 -826 
Q 3282 -803 3379 -756 
L 3379 -1172 
Q 3260 -1203 3154 -1218 
Q 3048 -1234 2954 -1234 
Q 2573 -1234 2393 -1098 
Q 2214 -963 2214 -672 
Q 2214 -522 2296 -358 
Q 2379 -194 2551 0 
z
" transform="scale(0.015625)"/>
      <path id="DejaVuSans-70" d="M 1159 525 
L 1159 -1331 
L 581 -1331 
L 581 3500 
L 1159 3500 
L 1159 2969 
Q 1341 3281 1617 3432 
Q 1894 3584 2278 3584 
Q 2916 3584 3314 3078 
Q 3713 2572 3713 1747 
Q 3713 922 3314 415 
Q 2916 -91 2278 -91 
Q 1894 -91 1617 61 
Q 1341 213 1159 525 
z
M 3116 1747 
Q 3116 2381 2855 2742 
Q 2594 3103 2138 3103 
Q 1681 3103 1420 2742 
Q 1159 2381 1159 1747 
Q 1159 1113 1420 752 
Q 1681 391 2138 391 
Q 2594 391 2855 752 
Q 3116 1113 3116 1747 
z
" transform="scale(0.015625)"/>
      <path id="DejaVuSans-20" transform="scale(0.015625)"/>
      <path id="DejaVuSans-142" d="M 622 4863 
L 1197 4863 
L 1197 2981 
L 1588 3263 
L 1825 2931 
L 1197 2491 
L 1197 0 
L 622 0 
L 622 2081 
L 238 1806 
L 6 2138 
L 622 2578 
L 622 4863 
z
" transform="scale(0.015625)"/>
      <path id="DejaVuSans-75" d="M 544 1381 
L 544 3500 
L 1119 3500 
L 1119 1403 
Q 1119 906 1312 657 
Q 1506 409 1894 409 
Q 2359 409 2629 706 
Q 2900 1003 2900 1516 
L 2900 3500 
L 3475 3500 
L 3475 0 
L 2900 0 
L 2900 538 
Q 2691 219 2414 64 
Q 2138 -91 1772 -91 
Q 1169 -91 856 284 
Q 544 659 544 1381 
z
M 1991 3584 
L 1991 3584 
z
" transform="scale(0.015625)"/>
      <path id="DejaVuSans-6d" d="M 3328 2828 
Q 3544 3216 3844 3400 
Q 4144 3584 4550 3584 
Q 5097 3584 5394 3201 
Q 5691 2819 5691 2113 
L 5691 0 
L 5113 0 
L 5113 2094 
Q 5113 2597 4934 2840 
Q 4756 3084 4391 3084 
Q 3944 3084 3684 2787 
Q 3425 2491 3425 1978 
L 3425 0 
L 2847 0 
L 2847 2094 
Q 2847 2600 2669 2842 
Q 2491 3084 2119 3084 
Q 1678 3084 1418 2786 
Q 1159 2488 1159 1978 
L 1159 0 
L 581 0 
L 581 3500 
L 1159 3500 
L 1159 2956 
Q 1356 3278 1631 3431 
Q 1906 3584 2284 3584 
Q 2666 3584 2933 3390 
Q 3200 3197 3328 2828 
z
" transform="scale(0.015625)"/>
      <path id="DejaVuSans-61" d="M 2194 1759 
Q 1497 1759 1228 1600 
Q 959 1441 959 1056 
Q 959 750 1161 570 
Q 1363 391 1709 391 
Q 2188 391 2477 730 
Q 2766 1069 2766 1631 
L 2766 1759 
L 2194 1759 
z
M 3341 1997 
L 3341 0 
L 2766 0 
L 2766 531 
Q 2569 213 2275 61 
Q 1981 -91 1556 -91 
Q 1019 -91 701 211 
Q 384 513 384 1019 
Q 384 1609 779 1909 
Q 1175 2209 1959 2209 
L 2766 2209 
L 2766 2266 
Q 2766 2663 2505 2880 
Q 2244 3097 1772 3097 
Q 1472 3097 1187 3025 
Q 903 2953 641 2809 
L 641 3341 
Q 956 3463 1253 3523 
Q 1550 3584 1831 3584 
Q 2591 3584 2966 3190 
Q 3341 2797 3341 1997 
z
" transform="scale(0.015625)"/>
      <path id="DejaVuSans-63" d="M 3122 3366 
L 3122 2828 
Q 2878 2963 2633 3030 
Q 2388 3097 2138 3097 
Q 1578 3097 1268 2742 
Q 959 2388 959 1747 
Q 959 1106 1268 751 
Q 1578 397 2138 397 
Q 2388 397 2633 464 
Q 2878 531 3122 666 
L 3122 134 
Q 2881 22 2623 -34 
Q 2366 -91 2075 -91 
Q 1284 -91 818 406 
Q 353 903 353 1747 
Q 353 2603 823 3093 
Q 1294 3584 2113 3584 
Q 2378 3584 2631 3529 
Q 2884 3475 3122 3366 
z
" transform="scale(0.015625)"/>
      <path id="DejaVuSans-7a" d="M 353 3500 
L 3084 3500 
L 3084 2975 
L 922 459 
L 3084 459 
L 3084 0 
L 275 0 
L 275 525 
L 2438 3041 
L 353 3041 
L 353 3500 
z
" transform="scale(0.015625)"/>
      <path id="DejaVuSans-65" d="M 3597 1894 
L 3597 1613 
L 953 1613 
Q 991 1019 1311 708 
Q 1631 397 2203 397 
Q 2534 397 2845 478 
Q 3156 559 3463 722 
L 3463 178 
Q 3153 47 2828 -22 
Q 2503 -91 2169 -91 
Q 1331 -91 842 396 
Q 353 884 353 1716 
Q 353 2575 817 3079 
Q 1281 3584 2069 3584 
Q 2775 3584 3186 3129 
Q 3597 2675 3597 1894 
z
M 3022 2063 
Q 3016 2534 2758 2815 
Q 2500 3097 2075 3097 
Q 1594 3097 1305 2825 
Q 1016 2553 972 2059 
L 3022 2063 
z
" transform="scale(0.015625)"/>
      <path id="DejaVuSans-6e" d="M 3513 2113 
L 3513 0 
L 2938 0 
L 2938 2094 
Q 2938 2591 2744 2837 
Q 2550 3084 2163 3084 
Q 1697 3084 1428 2787 
Q 1159 2491 1159 1978 
L 1159 0 
L 581 0 
L 581 3500 
L 1159 3500 
L 1159 2956 
Q 1366 3272 1645 3428 
Q 1925 3584 2291 3584 
Q 2894 3584 3203 3211 
Q 3513 2838 3513 2113 
z
" transform="scale(0.015625)"/>
      <path id="DejaVuSans-69" d="M 603 3500 
L 1178 3500 
L 1178 0 
L 603 0 
L 603 3500 
z
M 603 4863 
L 1178 4863 
L 1178 4134 
L 603 4134 
L 603 4863 
z
" transform="scale(0.015625)"/>
      <path id="DejaVuSans-64" d="M 2906 2969 
L 2906 4863 
L 3481 4863 
L 3481 0 
L 2906 0 
L 2906 525 
Q 2725 213 2448 61 
Q 2172 -91 1784 -91 
Q 1150 -91 751 415 
Q 353 922 353 1747 
Q 353 2572 751 3078 
Q 1150 3584 1784 3584 
Q 2172 3584 2448 3432 
Q 2725 3281 2906 2969 
z
M 947 1747 
Q 947 1113 1208 752 
Q 1469 391 1925 391 
Q 2381 391 2643 752 
Q 2906 1113 2906 1747 
Q 2906 2381 2643 2742 
Q 2381 3103 1925 3103 
Q 1469 3103 1208 2742 
Q 947 2381 947 1747 
z
" transform="scale(0.015625)"/>
      <path id="DejaVuSans-72" d="M 2631 2963 
Q 2534 3019 2420 3045 
Q 2306 3072 2169 3072 
Q 1681 3072 1420 2755 
Q 1159 2438 1159 1844 
L 1159 0 
L 581 0 
L 581 3500 
L 1159 3500 
L 1159 2956 
Q 1341 3275 1631 3429 
Q 1922 3584 2338 3584 
Q 2397 3584 2469 3576 
Q 2541 3569 2628 3553 
L 2631 2963 
z
" transform="scale(0.015625)"/>
      <path id="DejaVuSans-105" d="M 2194 1759 
Q 1497 1759 1228 1600 
Q 959 1441 959 1056 
Q 959 750 1161 570 
Q 1363 391 1709 391 
Q 2188 391 2477 730 
Q 2766 1069 2766 1631 
L 2766 1759 
L 2194 1759 
z
M 3341 1997 
L 3341 0 
L 2766 0 
L 2766 531 
Q 2569 213 2275 61 
Q 1981 -91 1556 -91 
Q 1019 -91 701 211 
Q 384 513 384 1019 
Q 384 1609 779 1909 
Q 1175 2209 1959 2209 
L 2766 2209 
L 2766 2266 
Q 2766 2663 2505 2880 
Q 2244 3097 1772 3097 
Q 1472 3097 1187 3025 
Q 903 2953 641 2809 
L 641 3341 
Q 956 3463 1253 3523 
Q 1550 3584 1831 3584 
Q 2591 3584 2966 3190 
Q 3341 2797 3341 1997 
z
M 2775 0 
L 3147 0 
Q 3006 -191 2939 -328 
Q 2872 -466 2872 -563 
Q 2872 -706 2958 -778 
Q 3044 -850 3213 -850 
Q 3313 -850 3409 -826 
Q 3506 -803 3603 -756 
L 3603 -1172 
Q 3484 -1203 3378 -1218 
Q 3272 -1234 3178 -1234 
Q 2797 -1234 2617 -1098 
Q 2438 -963 2438 -672 
Q 2438 -522 2520 -358 
Q 2603 -194 2775 0 
z
" transform="scale(0.015625)"/>
      <path id="DejaVuSans-6b" d="M 581 4863 
L 1159 4863 
L 1159 1991 
L 2875 3500 
L 3609 3500 
L 1753 1863 
L 3688 0 
L 2938 0 
L 1159 1709 
L 1159 0 
L 581 0 
L 581 4863 
z
" transform="scale(0.015625)"/>
      <path id="DejaVuSans-6a" d="M 603 3500 
L 1178 3500 
L 1178 -63 
Q 1178 -731 923 -1031 
Q 669 -1331 103 -1331 
L -116 -1331 
L -116 -844 
L 38 -844 
Q 366 -844 484 -692 
Q 603 -541 603 -63 
L 603 3500 
z
M 603 4863 
L 1178 4863 
L 1178 4134 
L 603 4134 
L 603 4863 
z
" transform="scale(0.015625)"/>
      <path id="DejaVuSans-79" d="M 2059 -325 
Q 1816 -950 1584 -1140 
Q 1353 -1331 966 -1331 
L 506 -1331 
L 506 -850 
L 844 -850 
Q 1081 -850 1212 -737 
Q 1344 -625 1503 -206 
L 1606 56 
L 191 3500 
L 800 3500 
L 1894 763 
L 2988 3500 
L 3597 3500 
L 2059 -325 
z
" transform="scale(0.015625)"/>
      <path id="DejaVuSans-f3" d="M 1959 3097 
Q 1497 3097 1228 2736 
Q 959 2375 959 1747 
Q 959 1119 1226 758 
Q 1494 397 1959 397 
Q 2419 397 2687 759 
Q 2956 1122 2956 1747 
Q 2956 2369 2687 2733 
Q 2419 3097 1959 3097 
z
M 1959 3584 
Q 2709 3584 3137 3096 
Q 3566 2609 3566 1747 
Q 3566 888 3137 398 
Q 2709 -91 1959 -91 
Q 1206 -91 779 398 
Q 353 888 353 1747 
Q 353 2609 779 3096 
Q 1206 3584 1959 3584 
z
M 2394 5119 
L 3016 5119 
L 1998 3944 
L 1519 3944 
L 2394 5119 
z
" transform="scale(0.015625)"/>
      <path id="DejaVuSans-77" d="M 269 3500 
L 844 3500 
L 1563 769 
L 2278 3500 
L 2956 3500 
L 3675 769 
L 4391 3500 
L 4966 3500 
L 4050 0 
L 3372 0 
L 2619 2869 
L 1863 0 
L 1184 0 
L 269 3500 
z
" transform="scale(0.015625)"/>
     </defs>
     <use xlink:href="#DejaVuSans-50"/>
     <use xlink:href="#DejaVuSans-6f" x="56.677734"/>
     <use xlink:href="#DejaVuSans-73" x="117.859375"/>
     <use xlink:href="#DejaVuSans-74" x="169.958984"/>
     <use xlink:href="#DejaVuSans-119" x="209.167969"/>
     <use xlink:href="#DejaVuSans-70" x="270.691406"/>
     <use xlink:href="#DejaVuSans-20" x="334.167969"/>
     <use xlink:href="#DejaVuSans-74" x="365.955078"/>
     <use xlink:href="#DejaVuSans-142" x="405.164062"/>
     <use xlink:href="#DejaVuSans-75" x="433.582031"/>
     <use xlink:href="#DejaVuSans-6d" x="496.960938"/>
     <use xlink:href="#DejaVuSans-61" x="594.373047"/>
     <use xlink:href="#DejaVuSans-63" x="655.652344"/>
     <use xlink:href="#DejaVuSans-7a" x="710.632812"/>
     <use xlink:href="#DejaVuSans-65" x="763.123047"/>
     <use xlink:href="#DejaVuSans-6e" x="824.646484"/>
     <use xlink:href="#DejaVuSans-69" x="888.025391"/>
     <use xlink:href="#DejaVuSans-61" x="915.808594"/>
     <use xlink:href="#DejaVuSans-20" x="977.087891"/>
     <use xlink:href="#DejaVuSans-64" x="1008.875"/>
     <use xlink:href="#DejaVuSans-6f" x="1072.351562"/>
     <use xlink:href="#DejaVuSans-20" x="1133.533203"/>
     <use xlink:href="#DejaVuSans-64" x="1165.320312"/>
     <use xlink:href="#DejaVuSans-6f" x="1228.796875"/>
     <use xlink:href="#DejaVuSans-64" x="1289.978516"/>
     <use xlink:href="#DejaVuSans-61" x="1353.455078"/>
     <use xlink:href="#DejaVuSans-6e" x="1414.734375"/>
     <use xlink:href="#DejaVuSans-69" x="1478.113281"/>
     <use xlink:href="#DejaVuSans-61" x="1505.896484"/>
     <use xlink:href="#DejaVuSans-20" x="1567.175781"/>
     <use xlink:href="#DejaVuSans-64" x="1598.962891"/>
     <use xlink:href="#DejaVuSans-6f" x="1662.439453"/>
     <use xlink:href="#DejaVuSans-20" x="1723.621094"/>
     <use xlink:href="#DejaVuSans-70" x="1755.408203"/>
     <use xlink:href="#DejaVuSans-72" x="1818.884766"/>
     <use xlink:href="#DejaVuSans-7a" x="1859.998047"/>
     <use xlink:href="#DejaVuSans-65" x="1912.488281"/>
     <use xlink:href="#DejaVuSans-142" x="1974.011719"/>
     <use xlink:href="#DejaVuSans-105" x="2002.429688"/>
     <use xlink:href="#DejaVuSans-63" x="2063.708984"/>
     <use xlink:href="#DejaVuSans-7a" x="2118.689453"/>
     <use xlink:href="#DejaVuSans-6e" x="2171.179688"/>
     <use xlink:href="#DejaVuSans-69" x="2234.558594"/>
     <use xlink:href="#DejaVuSans-6b" x="2262.341797"/>
     <use xlink:href="#DejaVuSans-61" x="2318.501953"/>
     <use xlink:href="#DejaVuSans-20" x="2379.78125"/>
     <use xlink:href="#DejaVuSans-6a" x="2411.568359"/>
     <use xlink:href="#DejaVuSans-119" x="2439.351562"/>
     <use xlink:href="#DejaVuSans-7a" x="2500.875"/>
     <use xlink:href="#DejaVuSans-79" x="2553.365234"/>
     <use xlink:href="#DejaVuSans-6b" x="2612.544922"/>
     <use xlink:href="#DejaVuSans-f3" x="2666.830078"/>
     <use xlink:href="#DejaVuSans-77" x="2728.011719"/>
    </g>
   </g>
  </g>
 </g>
 <defs>
  <clipPath id="p1cf11e580e">
   <rect x="57.6" y="41.472" width="357.12" height="235.008"/>
  </clipPath>
 </defs>
</svg>
