<?xml version="1.0" encoding="utf-8" standalone="no"?>
<!DOCTYPE svg PUBLIC "-//W3C//DTD SVG 1.1//EN"
  "http://www.w3.org/Graphics/SVG/1.1/DTD/svg11.dtd">
<svg xmlns:xlink="http://www.w3.org/1999/xlink" width="460.8pt" height="345.6pt" viewBox="0 0 460.8 345.6" xmlns="http://www.w3.org/2000/svg" version="1.1">
 <metadata>
  <rdf:RDF xmlns:dc="http://purl.org/dc/elements/1.1/" xmlns:cc="http://creativecommons.org/ns#" xmlns:rdf="http://www.w3.org/1999/02/22-rdf-syntax-ns#">
   <cc:Work>
    <dc:type rdf:resource="http://purl.org/dc/dcmitype/StillImage"/>
    <dc:date>2024-12-27T10:10:16.877770</dc:date>
    <dc:format>image/svg+xml</dc:format>
    <dc:creator>
     <cc:Agent>
      <dc:title>Matplotlib v3.10.0, https://matplotlib.org/</dc:title>
     </cc:Agent>
    </dc:creator>
   </cc:Work>
  </rdf:RDF>
 </metadata>
 <defs>
  <style type="text/css">*{stroke-linejoin: round; stroke-linecap: butt}</style>
 </defs>
 <g id="figure_1">
  <g id="patch_1">
   <path d="M 0 345.6 
L 460.8 345.6 
L 460.8 0 
L 0 0 
z
" style="fill: #ffffff"/>
  </g>
  <g id="axes_1">
   <g id="patch_2">
    <path d="M 57.6 276.48 
L 414.72 276.48 
L 414.72 41.472 
L 57.6 41.472 
z
" style="fill: #ffffff"/>
   </g>
   <g id="matplotlib.axis_1">
    <g id="xtick_1">
     <g id="line2d_1">
      <path d="M 77.534104 276.48 
L 77.534104 41.472 
" clip-path="url(#pa89cd7aa04)" style="fill: none; stroke: #b0b0b0; stroke-width: 0.8; stroke-linecap: square"/>
     </g>
     <g id="line2d_2">
      <defs>
       <path id="mfc737960bd" d="M 0 0 
L 0 3.5 
" style="stroke: #000000; stroke-width: 0.8"/>
      </defs>
      <g>
       <use xlink:href="#mfc737960bd" x="77.534104" y="276.48" style="stroke: #000000; stroke-width: 0.8"/>
      </g>
     </g>
     <g id="text_1">
      <!-- 2020 -->
      <g transform="translate(54.453914 302.78544) rotate(-30) scale(0.1 -0.1)">
       <defs>
        <path id="DejaVuSans-32" d="M 1228 531 
L 3431 531 
L 3431 0 
L 469 0 
L 469 531 
Q 828 903 1448 1529 
Q 2069 2156 2228 2338 
Q 2531 2678 2651 2914 
Q 2772 3150 2772 3378 
Q 2772 3750 2511 3984 
Q 2250 4219 1831 4219 
Q 1534 4219 1204 4116 
Q 875 4013 500 3803 
L 500 4441 
Q 881 4594 1212 4672 
Q 1544 4750 1819 4750 
Q 2544 4750 2975 4387 
Q 3406 4025 3406 3419 
Q 3406 3131 3298 2873 
Q 3191 2616 2906 2266 
Q 2828 2175 2409 1742 
Q 1991 1309 1228 531 
z
" transform="scale(0.015625)"/>
        <path id="DejaVuSans-30" d="M 2034 4250 
Q 1547 4250 1301 3770 
Q 1056 3291 1056 2328 
Q 1056 1369 1301 889 
Q 1547 409 2034 409 
Q 2525 409 2770 889 
Q 3016 1369 3016 2328 
Q 3016 3291 2770 3770 
Q 2525 4250 2034 4250 
z
M 2034 4750 
Q 2819 4750 3233 4129 
Q 3647 3509 3647 2328 
Q 3647 1150 3233 529 
Q 2819 -91 2034 -91 
Q 1250 -91 836 529 
Q 422 1150 422 2328 
Q 422 3509 836 4129 
Q 1250 4750 2034 4750 
z
" transform="scale(0.015625)"/>
       </defs>
       <use xlink:href="#DejaVuSans-32"/>
       <use xlink:href="#DejaVuSans-30" transform="translate(63.623047 0)"/>
       <use xlink:href="#DejaVuSans-32" transform="translate(127.246094 0)"/>
       <use xlink:href="#DejaVuSans-30" transform="translate(190.869141 0)"/>
      </g>
     </g>
    </g>
    <g id="xtick_2">
     <g id="line2d_3">
      <path d="M 141.991596 276.48 
L 141.991596 41.472 
" clip-path="url(#pa89cd7aa04)" style="fill: none; stroke: #b0b0b0; stroke-width: 0.8; stroke-linecap: square"/>
     </g>
     <g id="line2d_4">
      <g>
       <use xlink:href="#mfc737960bd" x="141.991596" y="276.48" style="stroke: #000000; stroke-width: 0.8"/>
      </g>
     </g>
     <g id="text_2">
      <!-- 2021 -->
      <g transform="translate(118.911406 302.78544) rotate(-30) scale(0.1 -0.1)">
       <defs>
        <path id="DejaVuSans-31" d="M 794 531 
L 1825 531 
L 1825 4091 
L 703 3866 
L 703 4441 
L 1819 4666 
L 2450 4666 
L 2450 531 
L 3481 531 
L 3481 0 
L 794 0 
L 794 531 
z
" transform="scale(0.015625)"/>
       </defs>
       <use xlink:href="#DejaVuSans-32"/>
       <use xlink:href="#DejaVuSans-30" transform="translate(63.623047 0)"/>
       <use xlink:href="#DejaVuSans-32" transform="translate(127.246094 0)"/>
       <use xlink:href="#DejaVuSans-31" transform="translate(190.869141 0)"/>
      </g>
     </g>
    </g>
    <g id="xtick_3">
     <g id="line2d_5">
      <path d="M 206.272975 276.48 
L 206.272975 41.472 
" clip-path="url(#pa89cd7aa04)" style="fill: none; stroke: #b0b0b0; stroke-width: 0.8; stroke-linecap: square"/>
     </g>
     <g id="line2d_6">
      <g>
       <use xlink:href="#mfc737960bd" x="206.272975" y="276.48" style="stroke: #000000; stroke-width: 0.8"/>
      </g>
     </g>
     <g id="text_3">
      <!-- 2022 -->
      <g transform="translate(183.192784 302.78544) rotate(-30) scale(0.1 -0.1)">
       <use xlink:href="#DejaVuSans-32"/>
       <use xlink:href="#DejaVuSans-30" transform="translate(63.623047 0)"/>
       <use xlink:href="#DejaVuSans-32" transform="translate(127.246094 0)"/>
       <use xlink:href="#DejaVuSans-32" transform="translate(190.869141 0)"/>
      </g>
     </g>
    </g>
    <g id="xtick_4">
     <g id="line2d_7">
      <path d="M 270.554353 276.48 
L 270.554353 41.472 
" clip-path="url(#pa89cd7aa04)" style="fill: none; stroke: #b0b0b0; stroke-width: 0.8; stroke-linecap: square"/>
     </g>
     <g id="line2d_8">
      <g>
       <use xlink:href="#mfc737960bd" x="270.554353" y="276.48" style="stroke: #000000; stroke-width: 0.8"/>
      </g>
     </g>
     <g id="text_4">
      <!-- 2023 -->
      <g transform="translate(247.474163 302.78544) rotate(-30) scale(0.1 -0.1)">
       <defs>
        <path id="DejaVuSans-33" d="M 2597 2516 
Q 3050 2419 3304 2112 
Q 3559 1806 3559 1356 
Q 3559 666 3084 287 
Q 2609 -91 1734 -91 
Q 1441 -91 1130 -33 
Q 819 25 488 141 
L 488 750 
Q 750 597 1062 519 
Q 1375 441 1716 441 
Q 2309 441 2620 675 
Q 2931 909 2931 1356 
Q 2931 1769 2642 2001 
Q 2353 2234 1838 2234 
L 1294 2234 
L 1294 2753 
L 1863 2753 
Q 2328 2753 2575 2939 
Q 2822 3125 2822 3475 
Q 2822 3834 2567 4026 
Q 2313 4219 1838 4219 
Q 1578 4219 1281 4162 
Q 984 4106 628 3988 
L 628 4550 
Q 988 4650 1302 4700 
Q 1616 4750 1894 4750 
Q 2613 4750 3031 4423 
Q 3450 4097 3450 3541 
Q 3450 3153 3228 2886 
Q 3006 2619 2597 2516 
z
" transform="scale(0.015625)"/>
       </defs>
       <use xlink:href="#DejaVuSans-32"/>
       <use xlink:href="#DejaVuSans-30" transform="translate(63.623047 0)"/>
       <use xlink:href="#DejaVuSans-32" transform="translate(127.246094 0)"/>
       <use xlink:href="#DejaVuSans-33" transform="translate(190.869141 0)"/>
      </g>
     </g>
    </g>
    <g id="xtick_5">
     <g id="line2d_9">
      <path d="M 334.835732 276.48 
L 334.835732 41.472 
" clip-path="url(#pa89cd7aa04)" style="fill: none; stroke: #b0b0b0; stroke-width: 0.8; stroke-linecap: square"/>
     </g>
     <g id="line2d_10">
      <g>
       <use xlink:href="#mfc737960bd" x="334.835732" y="276.48" style="stroke: #000000; stroke-width: 0.8"/>
      </g>
     </g>
     <g id="text_5">
      <!-- 2024 -->
      <g transform="translate(311.755542 302.78544) rotate(-30) scale(0.1 -0.1)">
       <defs>
        <path id="DejaVuSans-34" d="M 2419 4116 
L 825 1625 
L 2419 1625 
L 2419 4116 
z
M 2253 4666 
L 3047 4666 
L 3047 1625 
L 3713 1625 
L 3713 1100 
L 3047 1100 
L 3047 0 
L 2419 0 
L 2419 1100 
L 313 1100 
L 313 1709 
L 2253 4666 
z
" transform="scale(0.015625)"/>
       </defs>
       <use xlink:href="#DejaVuSans-32"/>
       <use xlink:href="#DejaVuSans-30" transform="translate(63.623047 0)"/>
       <use xlink:href="#DejaVuSans-32" transform="translate(127.246094 0)"/>
       <use xlink:href="#DejaVuSans-34" transform="translate(190.869141 0)"/>
      </g>
     </g>
    </g>
    <g id="xtick_6">
     <g id="line2d_11">
      <path d="M 399.293224 276.48 
L 399.293224 41.472 
" clip-path="url(#pa89cd7aa04)" style="fill: none; stroke: #b0b0b0; stroke-width: 0.8; stroke-linecap: square"/>
     </g>
     <g id="line2d_12">
      <g>
       <use xlink:href="#mfc737960bd" x="399.293224" y="276.48" style="stroke: #000000; stroke-width: 0.8"/>
      </g>
     </g>
     <g id="text_6">
      <!-- 2025 -->
      <g transform="translate(376.213033 302.78544) rotate(-30) scale(0.1 -0.1)">
       <defs>
        <path id="DejaVuSans-35" d="M 691 4666 
L 3169 4666 
L 3169 4134 
L 1269 4134 
L 1269 2991 
Q 1406 3038 1543 3061 
Q 1681 3084 1819 3084 
Q 2600 3084 3056 2656 
Q 3513 2228 3513 1497 
Q 3513 744 3044 326 
Q 2575 -91 1722 -91 
Q 1428 -91 1123 -41 
Q 819 9 494 109 
L 494 744 
Q 775 591 1075 516 
Q 1375 441 1709 441 
Q 2250 441 2565 725 
Q 2881 1009 2881 1497 
Q 2881 1984 2565 2268 
Q 2250 2553 1709 2553 
Q 1456 2553 1204 2497 
Q 953 2441 691 2322 
L 691 4666 
z
" transform="scale(0.015625)"/>
       </defs>
       <use xlink:href="#DejaVuSans-32"/>
       <use xlink:href="#DejaVuSans-30" transform="translate(63.623047 0)"/>
       <use xlink:href="#DejaVuSans-32" transform="translate(127.246094 0)"/>
       <use xlink:href="#DejaVuSans-35" transform="translate(190.869141 0)"/>
      </g>
     </g>
    </g>
   </g>
   <g id="matplotlib.axis_2">
    <g id="ytick_1">
     <g id="line2d_13">
      <path d="M 57.6 276.48 
L 414.72 276.48 
" clip-path="url(#pa89cd7aa04)" style="fill: none; stroke: #b0b0b0; stroke-width: 0.8; stroke-linecap: square"/>
     </g>
     <g id="line2d_14">
      <defs>
       <path id="mf595d52b26" d="M 0 0 
L -3.5 0 
" style="stroke: #000000; stroke-width: 0.8"/>
      </defs>
      <g>
       <use xlink:href="#mf595d52b26" x="57.6" y="276.48" style="stroke: #000000; stroke-width: 0.8"/>
      </g>
     </g>
     <g id="text_7">
      <!-- 0% -->
      <g transform="translate(34.735937 280.279219) scale(0.1 -0.1)">
       <defs>
        <path id="DejaVuSans-25" d="M 4653 2053 
Q 4381 2053 4226 1822 
Q 4072 1591 4072 1178 
Q 4072 772 4226 539 
Q 4381 306 4653 306 
Q 4919 306 5073 539 
Q 5228 772 5228 1178 
Q 5228 1588 5073 1820 
Q 4919 2053 4653 2053 
z
M 4653 2450 
Q 5147 2450 5437 2106 
Q 5728 1763 5728 1178 
Q 5728 594 5436 251 
Q 5144 -91 4653 -91 
Q 4153 -91 3862 251 
Q 3572 594 3572 1178 
Q 3572 1766 3864 2108 
Q 4156 2450 4653 2450 
z
M 1428 4353 
Q 1159 4353 1004 4120 
Q 850 3888 850 3481 
Q 850 3069 1003 2837 
Q 1156 2606 1428 2606 
Q 1700 2606 1854 2837 
Q 2009 3069 2009 3481 
Q 2009 3884 1853 4118 
Q 1697 4353 1428 4353 
z
M 4250 4750 
L 4750 4750 
L 1831 -91 
L 1331 -91 
L 4250 4750 
z
M 1428 4750 
Q 1922 4750 2215 4408 
Q 2509 4066 2509 3481 
Q 2509 2891 2217 2550 
Q 1925 2209 1428 2209 
Q 931 2209 642 2551 
Q 353 2894 353 3481 
Q 353 4063 643 4406 
Q 934 4750 1428 4750 
z
" transform="scale(0.015625)"/>
       </defs>
       <use xlink:href="#DejaVuSans-30"/>
       <use xlink:href="#DejaVuSans-25" transform="translate(63.623047 0)"/>
      </g>
     </g>
    </g>
    <g id="ytick_2">
     <g id="line2d_15">
      <path d="M 57.6 227.726947 
L 414.72 227.726947 
" clip-path="url(#pa89cd7aa04)" style="fill: none; stroke: #b0b0b0; stroke-width: 0.8; stroke-linecap: square"/>
     </g>
     <g id="line2d_16">
      <g>
       <use xlink:href="#mf595d52b26" x="57.6" y="227.726947" style="stroke: #000000; stroke-width: 0.8"/>
      </g>
     </g>
     <g id="text_8">
      <!-- 20% -->
      <g transform="translate(28.373438 231.526165) scale(0.1 -0.1)">
       <use xlink:href="#DejaVuSans-32"/>
       <use xlink:href="#DejaVuSans-30" transform="translate(63.623047 0)"/>
       <use xlink:href="#DejaVuSans-25" transform="translate(127.246094 0)"/>
      </g>
     </g>
    </g>
    <g id="ytick_3">
     <g id="line2d_17">
      <path d="M 57.6 178.973893 
L 414.72 178.973893 
" clip-path="url(#pa89cd7aa04)" style="fill: none; stroke: #b0b0b0; stroke-width: 0.8; stroke-linecap: square"/>
     </g>
     <g id="line2d_18">
      <g>
       <use xlink:href="#mf595d52b26" x="57.6" y="178.973893" style="stroke: #000000; stroke-width: 0.8"/>
      </g>
     </g>
     <g id="text_9">
      <!-- 40% -->
      <g transform="translate(28.373438 182.773112) scale(0.1 -0.1)">
       <use xlink:href="#DejaVuSans-34"/>
       <use xlink:href="#DejaVuSans-30" transform="translate(63.623047 0)"/>
       <use xlink:href="#DejaVuSans-25" transform="translate(127.246094 0)"/>
      </g>
     </g>
    </g>
    <g id="ytick_4">
     <g id="line2d_19">
      <path d="M 57.6 130.22084 
L 414.72 130.22084 
" clip-path="url(#pa89cd7aa04)" style="fill: none; stroke: #b0b0b0; stroke-width: 0.8; stroke-linecap: square"/>
     </g>
     <g id="line2d_20">
      <g>
       <use xlink:href="#mf595d52b26" x="57.6" y="130.22084" style="stroke: #000000; stroke-width: 0.8"/>
      </g>
     </g>
     <g id="text_10">
      <!-- 60% -->
      <g transform="translate(28.373438 134.020058) scale(0.1 -0.1)">
       <defs>
        <path id="DejaVuSans-36" d="M 2113 2584 
Q 1688 2584 1439 2293 
Q 1191 2003 1191 1497 
Q 1191 994 1439 701 
Q 1688 409 2113 409 
Q 2538 409 2786 701 
Q 3034 994 3034 1497 
Q 3034 2003 2786 2293 
Q 2538 2584 2113 2584 
z
M 3366 4563 
L 3366 3988 
Q 3128 4100 2886 4159 
Q 2644 4219 2406 4219 
Q 1781 4219 1451 3797 
Q 1122 3375 1075 2522 
Q 1259 2794 1537 2939 
Q 1816 3084 2150 3084 
Q 2853 3084 3261 2657 
Q 3669 2231 3669 1497 
Q 3669 778 3244 343 
Q 2819 -91 2113 -91 
Q 1303 -91 875 529 
Q 447 1150 447 2328 
Q 447 3434 972 4092 
Q 1497 4750 2381 4750 
Q 2619 4750 2861 4703 
Q 3103 4656 3366 4563 
z
" transform="scale(0.015625)"/>
       </defs>
       <use xlink:href="#DejaVuSans-36"/>
       <use xlink:href="#DejaVuSans-30" transform="translate(63.623047 0)"/>
       <use xlink:href="#DejaVuSans-25" transform="translate(127.246094 0)"/>
      </g>
     </g>
    </g>
    <g id="ytick_5">
     <g id="line2d_21">
      <path d="M 57.6 81.467786 
L 414.72 81.467786 
" clip-path="url(#pa89cd7aa04)" style="fill: none; stroke: #b0b0b0; stroke-width: 0.8; stroke-linecap: square"/>
     </g>
     <g id="line2d_22">
      <g>
       <use xlink:href="#mf595d52b26" x="57.6" y="81.467786" style="stroke: #000000; stroke-width: 0.8"/>
      </g>
     </g>
     <g id="text_11">
      <!-- 80% -->
      <g transform="translate(28.373438 85.267005) scale(0.1 -0.1)">
       <defs>
        <path id="DejaVuSans-38" d="M 2034 2216 
Q 1584 2216 1326 1975 
Q 1069 1734 1069 1313 
Q 1069 891 1326 650 
Q 1584 409 2034 409 
Q 2484 409 2743 651 
Q 3003 894 3003 1313 
Q 3003 1734 2745 1975 
Q 2488 2216 2034 2216 
z
M 1403 2484 
Q 997 2584 770 2862 
Q 544 3141 544 3541 
Q 544 4100 942 4425 
Q 1341 4750 2034 4750 
Q 2731 4750 3128 4425 
Q 3525 4100 3525 3541 
Q 3525 3141 3298 2862 
Q 3072 2584 2669 2484 
Q 3125 2378 3379 2068 
Q 3634 1759 3634 1313 
Q 3634 634 3220 271 
Q 2806 -91 2034 -91 
Q 1263 -91 848 271 
Q 434 634 434 1313 
Q 434 1759 690 2068 
Q 947 2378 1403 2484 
z
M 1172 3481 
Q 1172 3119 1398 2916 
Q 1625 2713 2034 2713 
Q 2441 2713 2670 2916 
Q 2900 3119 2900 3481 
Q 2900 3844 2670 4047 
Q 2441 4250 2034 4250 
Q 1625 4250 1398 4047 
Q 1172 3844 1172 3481 
z
" transform="scale(0.015625)"/>
       </defs>
       <use xlink:href="#DejaVuSans-38"/>
       <use xlink:href="#DejaVuSans-30" transform="translate(63.623047 0)"/>
       <use xlink:href="#DejaVuSans-25" transform="translate(127.246094 0)"/>
      </g>
     </g>
    </g>
   </g>
   <g id="line2d_23">
    <path d="M 398.487273 51.582164 
L 398.333547 61.186516 
L 397.746129 62.649108 
L 397.302421 62.649108 
L 397.287468 64.818618 
L 396.410503 64.818618 
L 396.271167 67.158765 
L 395.904515 67.158765 
L 395.75373 67.890061 
L 395.722454 69.279523 
L 395.72459 69.279523 
L 395.552178 70.230207 
L 395.446496 74.691112 
L 394.82216 75.203019 
L 394.733431 74.057322 
L 394.726197 74.252334 
L 394.149694 74.934877 
L 394.145846 75.909938 
L 393.633105 75.909938 
L 393.589289 79.493288 
L 393.434972 79.103263 
L 393.328604 82.589106 
L 393.273396 82.589106 
L 393.19197 89.731429 
L 393.02284 89.731429 
L 393.112054 89.731429 
L 393.03179 105.259276 
L 392.921092 105.454289 
L 392.914542 109.500792 
L 392.759736 111.670303 
L 392.748759 112.425975 
L 389.604233 112.474728 
L 388.729367 113.035388 
L 388.657895 113.279154 
L 388.371515 112.913506 
L 388.36799 112.986635 
L 387.645018 113.596048 
L 387.461524 113.132894 
L 387.120531 113.132894 
L 386.430745 114.034826 
L 386.419486 119.543921 
L 386.192348 120.787124 
L 385.796354 120.32397 
L 385.641735 120.32397 
L 385.550674 122.590987 
L 385.172069 122.761622 
L 384.959555 123.005388 
L 384.647542 122.322845 
L 384.335394 127.27128 
L 384.23696 127.636928 
L 383.726889 128.514483 
L 383.625659 128.343847 
L 383.524783 131.561549 
L 383.341525 131.561549 
L 382.967272 131.90282 
L 382.710271 131.90282 
L 382.706437 135.144898 
L 382.494014 136.241842 
L 381.863115 130.610864 
L 380.703516 130.610864 
L 380.028234 130.903382 
L 379.727324 130.903382 
L 379.349525 131.122771 
L 379.210205 132.219715 
L 379.204873 134.511108 
L 378.92748 134.511108 
L 378.795697 135.047392 
L 378.490911 135.047392 
L 378.410294 137.899446 
L 378.09096 140.385851 
L 378.043497 145.87057 
L 377.907362 147.308785 
L 377.786441 152.208467 
L 377.71304 153.256657 
L 377.628607 123.419789 
L 377.56274 124.175461 
L 377.074853 124.102331 
L 377.045442 124.88238 
L 376.140191 124.88238 
L 375.977667 125.369911 
L 375.970315 127.490669 
L 375.692616 129.51392 
L 375.691142 131.34216 
L 373.882572 131.366536 
L 373.864305 131.634678 
L 373.115939 131.366536 
L 372.85149 131.415289 
L 372.631472 131.634678 
L 371.7067 131.488419 
L 370.165787 131.488419 
L 368.804743 129.782062 
L 368.7389 132.268468 
L 368.621187 132.487857 
L 368.181116 132.829128 
L 367.755421 132.829128 
L 367.700174 139.97145 
L 367.243204 139.97145 
L 367.03251 140.507734 
L 366.467458 142.116585 
L 363.866171 142.116585 
L 362.769179 142.384726 
L 362.108711 142.238467 
L 362.086601 143.213528 
L 361.547333 143.48167 
L 361.536283 143.822942 
L 361.294026 143.311035 
L 360.303435 143.311035 
L 360.13129 142.019079 
L 358.021262 142.019079 
L 357.917781 144.383602 
L 357.838111 142.43348 
L 357.608134 142.116585 
L 354.139534 142.092208 
L 353.449649 141.994702 
L 353.32291 143.701059 
L 348.918549 143.701059 
L 347.975583 144.212966 
L 347.583133 143.701059 
L 346.742746 143.969201 
L 346.113394 143.822942 
L 340.582572 143.798565 
L 339.345952 143.457294 
L 338.113136 143.432917 
L 337.937151 142.896634 
L 333.182023 142.896634 
L 332.892254 142.457856 
L 330.936566 142.457856 
L 330.892521 143.359788 
L 330.716375 143.847318 
L 329.483594 142.872257 
L 328.250857 142.872257 
L 327.018023 142.604115 
L 324.7997 142.604115 
L 324.552695 143.311035 
L 323.376396 143.311035 
L 323.375629 143.164775 
L 320.854161 143.164775 
L 320.549744 142.896634 
L 318.788461 142.896634 
L 318.388466 144.505484 
L 317.90788 143.164775 
L 317.742733 143.432917 
L 317.155723 143.798565 
L 316.844047 143.798565 
L 315.92305 144.578614 
L 315.62212 144.578614 
L 315.269963 146.333724 
L 315.090079 146.50436 
L 314.690128 147.089396 
L 314.40055 147.089396 
L 314.154429 147.55255 
L 313.336371 147.55255 
L 312.796936 150.087709 
L 312.576727 150.575239 
L 312.378734 151.915948 
L 312.224559 157.156902 
L 312.184544 151.915948 
L 311.578774 151.915948 
L 311.391669 161.5203 
L 310.991727 161.764065 
L 310.790173 161.5203 
L 308.953633 161.5203 
L 308.526111 162.007831 
L 307.293312 161.300911 
L 305.84792 159.350789 
L 305.788804 159.350789 
L 305.78298 159.497048 
L 303.595012 159.497048 
L 302.362139 159.253283 
L 299.496918 159.253283 
L 299.493061 159.570178 
L 298.373993 159.570178 
L 298.145784 160.545239 
L 296.34467 160.545239 
L 296.152729 160.984016 
L 296.197898 160.984016 
L 296.065169 155.474921 
L 295.62201 155.474921 
L 294.943017 156.011205 
L 294.699009 156.449982 
L 294.414751 156.352476 
L 294.047785 156.352476 
L 294.04422 157.181278 
L 293.732348 157.546926 
L 293.068749 157.546926 
L 292.679374 157.254408 
L 291.266671 157.620056 
L 289.20237 157.620056 
L 289.773536 157.620056 
L 288.310142 157.936951 
L 286.566748 157.961327 
L 286.335625 158.156339 
L 284.830994 158.156339 
L 284.112129 158.375728 
L 284.079167 159.033894 
L 284.07734 158.619493 
L 281.551135 158.619493 
L 281.408175 158.814506 
L 281.103519 158.716999 
L 280.415972 159.228906 
L 280.414835 141.458418 
L 271.24995 141.458418 
L 278.49801 141.458418 
L 278.474634 143.896071 
L 270.310673 143.822942 
L 269.952317 148.966389 
L 269.834027 150.209592 
L 269.680984 150.209592 
L 269.621175 153.646682 
L 268.634622 153.622305 
L 268.474756 154.061083 
L 267.450826 154.061083 
L 267.301666 154.256095 
L 267.245336 160.203968 
L 266.309701 160.203968 
L 266.229266 161.471547 
L 265.981262 161.471547 
L 265.925825 162.519738 
L 263.491288 162.519738 
L 262.893889 162.958515 
L 262.185764 162.958515 
L 262.047181 163.080398 
L 261.959285 164.95739 
L 261.715972 164.95739 
L 261.607376 165.51805 
L 261.298306 165.51805 
L 261.23158 166.614994 
L 261.14767 166.614994 
L 260.982728 168.053209 
L 260.663185 169.052647 
L 260.498033 166.810006 
L 260.493188 167.614432 
L 260.450218 167.614432 
L 260.446775 165.323038 
L 259.4565 163.9092 
L 259.086087 164.323601 
L 257.710536 164.323601 
L 257.704831 164.542989 
L 249.368517 164.762378 
L 248.982596 164.981767 
L 247.290766 165.639933 
L 245.698294 165.859322 
L 243.952014 166.273723 
L 243.834853 168.077586 
L 236.371744 168.077586 
L 236.34594 168.394481 
L 235.557707 168.394481 
L 235.139227 166.736877 
L 233.849181 166.736877 
L 233.11425 166.931889 
L 232.961204 167.151278 
L 232.857149 167.151278 
L 232.849374 167.370666 
L 230.024573 167.370666 
L 229.517958 167.809444 
L 222.205902 168.882011 
L 216.808317 169.320789 
L 214.595997 170.173967 
L 212.368629 170.393356 
L 211.899595 170.832133 
L 211.891541 171.270911 
L 210.373145 171.270911 
L 206.763092 171.490299 
L 203.519371 171.490299 
L 202.465864 172.05096 
L 196.383567 172.05096 
L 196.379091 172.270348 
L 194.48477 172.270348 
L 194.26729 173.342915 
L 193.550282 173.342915 
L 191.811183 173.562304 
L 191.737737 173.903576 
L 189.866698 175.439297 
L 189.852004 177.462548 
L 188.810252 178.583869 
L 187.220485 178.803257 
L 182.072255 178.730128 
L 181.545986 178.632622 
L 180.985205 178.632622 
L 180.822889 178.827634 
L 180.63585 181.777194 
L 180.191358 181.704064 
L 180.130978 182.703502 
L 179.306906 182.703502 
L 179.252003 188.18822 
L 178.443636 188.18822 
L 178.544997 188.18822 
L 178.372205 187.773819 
L 177.542582 187.773819 
L 177.538395 188.310103 
L 177.311784 188.480739 
L 176.431466 187.725066 
L 175.264332 187.725066 
L 175.261967 188.090714 
L 175.260336 184.921766 
L 175.259631 184.921766 
L 173.391017 184.921766 
L 171.453844 184.678 
L 168.153392 184.678 
L 167.577521 185.043648 
L 167.048882 185.043648 
L 166.801035 184.897389 
L 166.782793 187.359418 
L 166.627816 187.725066 
L 166.520792 188.090714 
L 166.281135 188.090714 
L 165.639702 189.017022 
L 165.380554 189.017022 
L 165.287703 189.212034 
L 163.232434 189.163281 
L 162.998574 190.089589 
L 162.742893 190.089589 
L 162.645711 190.284602 
L 160.299561 190.284602 
L 159.472672 191.405922 
L 157.990105 191.405922 
L 157.887481 191.77157 
L 156.600828 191.479051 
L 154.718257 194.282352 
L 150.838879 194.282352 
L 150.662846 194.111716 
L 140.14975 194.111716 
L 140.093636 195.038024 
L 137.03004 195.062401 
L 134.942249 195.257413 
L 134.740522 195.988709 
L 134.582915 197.305041 
L 134.183716 198.792009 
L 134.060916 199.328293 
L 133.951332 206.616874 
L 133.867297 206.616874 
L 133.791662 215.0024 
L 133.069795 215.173035 
L 132.087099 215.173035 
L 131.903429 220.218976 
L 131.901301 220.218976 
L 131.639131 220.413989 
L 130.548129 220.413989 
L 130.538889 220.779636 
L 130.40296 220.779636 
L 130.228137 220.609001 
L 128.036542 220.609001 
L 128.028705 221.462179 
L 120.86316 221.462179 
L 120.068046 221.779074 
L 120.065464 222.778512 
L 119.431034 222.778512 
L 119.076781 222.949147 
L 116.44876 222.949147 
L 118.570918 222.900394 
L 118.218642 224.070468 
L 117.144304 224.557998 
L 116.633442 224.557998 
L 116.28185 225.240541 
L 111.702229 225.240541 
L 111.526721 225.581812 
L 108.00351 225.557436 
L 107.827962 226.069343 
L 107.298984 226.069343 
L 107.12286 226.215602 
L 107.061673 227.093157 
L 106.594675 227.093157 
L 106.419106 227.531934 
L 104.305081 227.531934 
L 104.129033 226.727509 
L 103.776749 226.727509 
L 103.601506 227.434428 
L 101.663568 227.434428 
L 101.48753 227.800076 
L 98.669363 227.800076 
L 98.493472 228.531372 
L 98.317285 228.702008 
L 96.379672 228.702008 
L 96.204247 229.433303 
L 96.027524 229.433303 
L 95.851933 229.798951 
L 90.216005 229.798951 
L 90.040398 229.993964 
L 86.517458 229.993964 
L 86.342127 230.993401 
L 85.284727 230.993401 
L 84.933381 235.478682 
L 83.875665 235.478682 
L 83.69956 235.649318 
L 82.466771 235.649318 
L 82.290655 235.990589 
L 81.952263 235.990589 
L 81.903045 238.818266 
L 81.686588 251.299048 
L 81.648025 251.274671 
L 80.881771 251.274671 
L 79.443461 251.615943 
L 79.368048 251.786578 
L 78.944852 251.786578 
L 78.94477 251.957214 
L 78.240443 251.957214 
L 78.240376 252.12785 
L 78.064275 252.12785 
L 78.064197 252.298485 
L 77.69292 252.298485 
L 77.688931 253.468559 
L 77.38057 253.468559 
L 77.359748 253.639194 
L 77.261968 253.639194 
L 77.192289 253.785454 
L 73.832727 253.785454 
L 73.832727 253.785454 
" clip-path="url(#pa89cd7aa04)" style="fill: none; stroke: #1f77b4; stroke-width: 1.5; stroke-linecap: square"/>
   </g>
   <g id="patch_3">
    <path d="M 57.6 276.48 
L 57.6 41.472 
" style="fill: none; stroke: #000000; stroke-width: 0.8; stroke-linejoin: miter; stroke-linecap: square"/>
   </g>
   <g id="patch_4">
    <path d="M 414.72 276.48 
L 414.72 41.472 
" style="fill: none; stroke: #000000; stroke-width: 0.8; stroke-linejoin: miter; stroke-linecap: square"/>
   </g>
   <g id="patch_5">
    <path d="M 57.6 276.48 
L 414.72 276.48 
" style="fill: none; stroke: #000000; stroke-width: 0.8; stroke-linejoin: miter; stroke-linecap: square"/>
   </g>
   <g id="patch_6">
    <path d="M 57.6 41.472 
L 414.72 41.472 
" style="fill: none; stroke: #000000; stroke-width: 0.8; stroke-linejoin: miter; stroke-linecap: square"/>
   </g>
   <g id="text_12">
    <!-- Postęp tłumaczenia do dodania do przełącznika języków -->
    <g transform="translate(67.57125 35.472) scale(0.12 -0.12)">
     <defs>
      <path id="DejaVuSans-50" d="M 1259 4147 
L 1259 2394 
L 2053 2394 
Q 2494 2394 2734 2622 
Q 2975 2850 2975 3272 
Q 2975 3691 2734 3919 
Q 2494 4147 2053 4147 
L 1259 4147 
z
M 628 4666 
L 2053 4666 
Q 2838 4666 3239 4311 
Q 3641 3956 3641 3272 
Q 3641 2581 3239 2228 
Q 2838 1875 2053 1875 
L 1259 1875 
L 1259 0 
L 628 0 
L 628 4666 
z
" transform="scale(0.015625)"/>
      <path id="DejaVuSans-6f" d="M 1959 3097 
Q 1497 3097 1228 2736 
Q 959 2375 959 1747 
Q 959 1119 1226 758 
Q 1494 397 1959 397 
Q 2419 397 2687 759 
Q 2956 1122 2956 1747 
Q 2956 2369 2687 2733 
Q 2419 3097 1959 3097 
z
M 1959 3584 
Q 2709 3584 3137 3096 
Q 3566 2609 3566 1747 
Q 3566 888 3137 398 
Q 2709 -91 1959 -91 
Q 1206 -91 779 398 
Q 353 888 353 1747 
Q 353 2609 779 3096 
Q 1206 3584 1959 3584 
z
" transform="scale(0.015625)"/>
      <path id="DejaVuSans-73" d="M 2834 3397 
L 2834 2853 
Q 2591 2978 2328 3040 
Q 2066 3103 1784 3103 
Q 1356 3103 1142 2972 
Q 928 2841 928 2578 
Q 928 2378 1081 2264 
Q 1234 2150 1697 2047 
L 1894 2003 
Q 2506 1872 2764 1633 
Q 3022 1394 3022 966 
Q 3022 478 2636 193 
Q 2250 -91 1575 -91 
Q 1294 -91 989 -36 
Q 684 19 347 128 
L 347 722 
Q 666 556 975 473 
Q 1284 391 1588 391 
Q 1994 391 2212 530 
Q 2431 669 2431 922 
Q 2431 1156 2273 1281 
Q 2116 1406 1581 1522 
L 1381 1569 
Q 847 1681 609 1914 
Q 372 2147 372 2553 
Q 372 3047 722 3315 
Q 1072 3584 1716 3584 
Q 2034 3584 2315 3537 
Q 2597 3491 2834 3397 
z
" transform="scale(0.015625)"/>
      <path id="DejaVuSans-74" d="M 1172 4494 
L 1172 3500 
L 2356 3500 
L 2356 3053 
L 1172 3053 
L 1172 1153 
Q 1172 725 1289 603 
Q 1406 481 1766 481 
L 2356 481 
L 2356 0 
L 1766 0 
Q 1100 0 847 248 
Q 594 497 594 1153 
L 594 3053 
L 172 3053 
L 172 3500 
L 594 3500 
L 594 4494 
L 1172 4494 
z
" transform="scale(0.015625)"/>
      <path id="DejaVuSans-119" d="M 3597 1894 
L 3597 1613 
L 953 1613 
Q 991 1019 1311 708 
Q 1631 397 2203 397 
Q 2534 397 2845 478 
Q 3156 559 3463 722 
L 3463 178 
Q 3153 47 2828 -22 
Q 2503 -91 2169 -91 
Q 1331 -91 842 396 
Q 353 884 353 1716 
Q 353 2575 817 3079 
Q 1281 3584 2069 3584 
Q 2775 3584 3186 3129 
Q 3597 2675 3597 1894 
z
M 3022 2063 
Q 3016 2534 2758 2815 
Q 2500 3097 2075 3097 
Q 1594 3097 1305 2825 
Q 1016 2553 972 2059 
L 3022 2063 
z
M 2551 0 
L 2923 0 
Q 2782 -191 2715 -328 
Q 2648 -466 2648 -563 
Q 2648 -706 2734 -778 
Q 2820 -850 2989 -850 
Q 3089 -850 3185 -826 
Q 3282 -803 3379 -756 
L 3379 -1172 
Q 3260 -1203 3154 -1218 
Q 3048 -1234 2954 -1234 
Q 2573 -1234 2393 -1098 
Q 2214 -963 2214 -672 
Q 2214 -522 2296 -358 
Q 2379 -194 2551 0 
z
" transform="scale(0.015625)"/>
      <path id="DejaVuSans-70" d="M 1159 525 
L 1159 -1331 
L 581 -1331 
L 581 3500 
L 1159 3500 
L 1159 2969 
Q 1341 3281 1617 3432 
Q 1894 3584 2278 3584 
Q 2916 3584 3314 3078 
Q 3713 2572 3713 1747 
Q 3713 922 3314 415 
Q 2916 -91 2278 -91 
Q 1894 -91 1617 61 
Q 1341 213 1159 525 
z
M 3116 1747 
Q 3116 2381 2855 2742 
Q 2594 3103 2138 3103 
Q 1681 3103 1420 2742 
Q 1159 2381 1159 1747 
Q 1159 1113 1420 752 
Q 1681 391 2138 391 
Q 2594 391 2855 752 
Q 3116 1113 3116 1747 
z
" transform="scale(0.015625)"/>
      <path id="DejaVuSans-20" transform="scale(0.015625)"/>
      <path id="DejaVuSans-142" d="M 622 4863 
L 1197 4863 
L 1197 2981 
L 1588 3263 
L 1825 2931 
L 1197 2491 
L 1197 0 
L 622 0 
L 622 2081 
L 238 1806 
L 6 2138 
L 622 2578 
L 622 4863 
z
" transform="scale(0.015625)"/>
      <path id="DejaVuSans-75" d="M 544 1381 
L 544 3500 
L 1119 3500 
L 1119 1403 
Q 1119 906 1312 657 
Q 1506 409 1894 409 
Q 2359 409 2629 706 
Q 2900 1003 2900 1516 
L 2900 3500 
L 3475 3500 
L 3475 0 
L 2900 0 
L 2900 538 
Q 2691 219 2414 64 
Q 2138 -91 1772 -91 
Q 1169 -91 856 284 
Q 544 659 544 1381 
z
M 1991 3584 
L 1991 3584 
z
" transform="scale(0.015625)"/>
      <path id="DejaVuSans-6d" d="M 3328 2828 
Q 3544 3216 3844 3400 
Q 4144 3584 4550 3584 
Q 5097 3584 5394 3201 
Q 5691 2819 5691 2113 
L 5691 0 
L 5113 0 
L 5113 2094 
Q 5113 2597 4934 2840 
Q 4756 3084 4391 3084 
Q 3944 3084 3684 2787 
Q 3425 2491 3425 1978 
L 3425 0 
L 2847 0 
L 2847 2094 
Q 2847 2600 2669 2842 
Q 2491 3084 2119 3084 
Q 1678 3084 1418 2786 
Q 1159 2488 1159 1978 
L 1159 0 
L 581 0 
L 581 3500 
L 1159 3500 
L 1159 2956 
Q 1356 3278 1631 3431 
Q 1906 3584 2284 3584 
Q 2666 3584 2933 3390 
Q 3200 3197 3328 2828 
z
" transform="scale(0.015625)"/>
      <path id="DejaVuSans-61" d="M 2194 1759 
Q 1497 1759 1228 1600 
Q 959 1441 959 1056 
Q 959 750 1161 570 
Q 1363 391 1709 391 
Q 2188 391 2477 730 
Q 2766 1069 2766 1631 
L 2766 1759 
L 2194 1759 
z
M 3341 1997 
L 3341 0 
L 2766 0 
L 2766 531 
Q 2569 213 2275 61 
Q 1981 -91 1556 -91 
Q 1019 -91 701 211 
Q 384 513 384 1019 
Q 384 1609 779 1909 
Q 1175 2209 1959 2209 
L 2766 2209 
L 2766 2266 
Q 2766 2663 2505 2880 
Q 2244 3097 1772 3097 
Q 1472 3097 1187 3025 
Q 903 2953 641 2809 
L 641 3341 
Q 956 3463 1253 3523 
Q 1550 3584 1831 3584 
Q 2591 3584 2966 3190 
Q 3341 2797 3341 1997 
z
" transform="scale(0.015625)"/>
      <path id="DejaVuSans-63" d="M 3122 3366 
L 3122 2828 
Q 2878 2963 2633 3030 
Q 2388 3097 2138 3097 
Q 1578 3097 1268 2742 
Q 959 2388 959 1747 
Q 959 1106 1268 751 
Q 1578 397 2138 397 
Q 2388 397 2633 464 
Q 2878 531 3122 666 
L 3122 134 
Q 2881 22 2623 -34 
Q 2366 -91 2075 -91 
Q 1284 -91 818 406 
Q 353 903 353 1747 
Q 353 2603 823 3093 
Q 1294 3584 2113 3584 
Q 2378 3584 2631 3529 
Q 2884 3475 3122 3366 
z
" transform="scale(0.015625)"/>
      <path id="DejaVuSans-7a" d="M 353 3500 
L 3084 3500 
L 3084 2975 
L 922 459 
L 3084 459 
L 3084 0 
L 275 0 
L 275 525 
L 2438 3041 
L 353 3041 
L 353 3500 
z
" transform="scale(0.015625)"/>
      <path id="DejaVuSans-65" d="M 3597 1894 
L 3597 1613 
L 953 1613 
Q 991 1019 1311 708 
Q 1631 397 2203 397 
Q 2534 397 2845 478 
Q 3156 559 3463 722 
L 3463 178 
Q 3153 47 2828 -22 
Q 2503 -91 2169 -91 
Q 1331 -91 842 396 
Q 353 884 353 1716 
Q 353 2575 817 3079 
Q 1281 3584 2069 3584 
Q 2775 3584 3186 3129 
Q 3597 2675 3597 1894 
z
M 3022 2063 
Q 3016 2534 2758 2815 
Q 2500 3097 2075 3097 
Q 1594 3097 1305 2825 
Q 1016 2553 972 2059 
L 3022 2063 
z
" transform="scale(0.015625)"/>
      <path id="DejaVuSans-6e" d="M 3513 2113 
L 3513 0 
L 2938 0 
L 2938 2094 
Q 2938 2591 2744 2837 
Q 2550 3084 2163 3084 
Q 1697 3084 1428 2787 
Q 1159 2491 1159 1978 
L 1159 0 
L 581 0 
L 581 3500 
L 1159 3500 
L 1159 2956 
Q 1366 3272 1645 3428 
Q 1925 3584 2291 3584 
Q 2894 3584 3203 3211 
Q 3513 2838 3513 2113 
z
" transform="scale(0.015625)"/>
      <path id="DejaVuSans-69" d="M 603 3500 
L 1178 3500 
L 1178 0 
L 603 0 
L 603 3500 
z
M 603 4863 
L 1178 4863 
L 1178 4134 
L 603 4134 
L 603 4863 
z
" transform="scale(0.015625)"/>
      <path id="DejaVuSans-64" d="M 2906 2969 
L 2906 4863 
L 3481 4863 
L 3481 0 
L 2906 0 
L 2906 525 
Q 2725 213 2448 61 
Q 2172 -91 1784 -91 
Q 1150 -91 751 415 
Q 353 922 353 1747 
Q 353 2572 751 3078 
Q 1150 3584 1784 3584 
Q 2172 3584 2448 3432 
Q 2725 3281 2906 2969 
z
M 947 1747 
Q 947 1113 1208 752 
Q 1469 391 1925 391 
Q 2381 391 2643 752 
Q 2906 1113 2906 1747 
Q 2906 2381 2643 2742 
Q 2381 3103 1925 3103 
Q 1469 3103 1208 2742 
Q 947 2381 947 1747 
z
" transform="scale(0.015625)"/>
      <path id="DejaVuSans-72" d="M 2631 2963 
Q 2534 3019 2420 3045 
Q 2306 3072 2169 3072 
Q 1681 3072 1420 2755 
Q 1159 2438 1159 1844 
L 1159 0 
L 581 0 
L 581 3500 
L 1159 3500 
L 1159 2956 
Q 1341 3275 1631 3429 
Q 1922 3584 2338 3584 
Q 2397 3584 2469 3576 
Q 2541 3569 2628 3553 
L 2631 2963 
z
" transform="scale(0.015625)"/>
      <path id="DejaVuSans-105" d="M 2194 1759 
Q 1497 1759 1228 1600 
Q 959 1441 959 1056 
Q 959 750 1161 570 
Q 1363 391 1709 391 
Q 2188 391 2477 730 
Q 2766 1069 2766 1631 
L 2766 1759 
L 2194 1759 
z
M 3341 1997 
L 3341 0 
L 2766 0 
L 2766 531 
Q 2569 213 2275 61 
Q 1981 -91 1556 -91 
Q 1019 -91 701 211 
Q 384 513 384 1019 
Q 384 1609 779 1909 
Q 1175 2209 1959 2209 
L 2766 2209 
L 2766 2266 
Q 2766 2663 2505 2880 
Q 2244 3097 1772 3097 
Q 1472 3097 1187 3025 
Q 903 2953 641 2809 
L 641 3341 
Q 956 3463 1253 3523 
Q 1550 3584 1831 3584 
Q 2591 3584 2966 3190 
Q 3341 2797 3341 1997 
z
M 2775 0 
L 3147 0 
Q 3006 -191 2939 -328 
Q 2872 -466 2872 -563 
Q 2872 -706 2958 -778 
Q 3044 -850 3213 -850 
Q 3313 -850 3409 -826 
Q 3506 -803 3603 -756 
L 3603 -1172 
Q 3484 -1203 3378 -1218 
Q 3272 -1234 3178 -1234 
Q 2797 -1234 2617 -1098 
Q 2438 -963 2438 -672 
Q 2438 -522 2520 -358 
Q 2603 -194 2775 0 
z
" transform="scale(0.015625)"/>
      <path id="DejaVuSans-6b" d="M 581 4863 
L 1159 4863 
L 1159 1991 
L 2875 3500 
L 3609 3500 
L 1753 1863 
L 3688 0 
L 2938 0 
L 1159 1709 
L 1159 0 
L 581 0 
L 581 4863 
z
" transform="scale(0.015625)"/>
      <path id="DejaVuSans-6a" d="M 603 3500 
L 1178 3500 
L 1178 -63 
Q 1178 -731 923 -1031 
Q 669 -1331 103 -1331 
L -116 -1331 
L -116 -844 
L 38 -844 
Q 366 -844 484 -692 
Q 603 -541 603 -63 
L 603 3500 
z
M 603 4863 
L 1178 4863 
L 1178 4134 
L 603 4134 
L 603 4863 
z
" transform="scale(0.015625)"/>
      <path id="DejaVuSans-79" d="M 2059 -325 
Q 1816 -950 1584 -1140 
Q 1353 -1331 966 -1331 
L 506 -1331 
L 506 -850 
L 844 -850 
Q 1081 -850 1212 -737 
Q 1344 -625 1503 -206 
L 1606 56 
L 191 3500 
L 800 3500 
L 1894 763 
L 2988 3500 
L 3597 3500 
L 2059 -325 
z
" transform="scale(0.015625)"/>
      <path id="DejaVuSans-f3" d="M 1959 3097 
Q 1497 3097 1228 2736 
Q 959 2375 959 1747 
Q 959 1119 1226 758 
Q 1494 397 1959 397 
Q 2419 397 2687 759 
Q 2956 1122 2956 1747 
Q 2956 2369 2687 2733 
Q 2419 3097 1959 3097 
z
M 1959 3584 
Q 2709 3584 3137 3096 
Q 3566 2609 3566 1747 
Q 3566 888 3137 398 
Q 2709 -91 1959 -91 
Q 1206 -91 779 398 
Q 353 888 353 1747 
Q 353 2609 779 3096 
Q 1206 3584 1959 3584 
z
M 2394 5119 
L 3016 5119 
L 1998 3944 
L 1519 3944 
L 2394 5119 
z
" transform="scale(0.015625)"/>
      <path id="DejaVuSans-77" d="M 269 3500 
L 844 3500 
L 1563 769 
L 2278 3500 
L 2956 3500 
L 3675 769 
L 4391 3500 
L 4966 3500 
L 4050 0 
L 3372 0 
L 2619 2869 
L 1863 0 
L 1184 0 
L 269 3500 
z
" transform="scale(0.015625)"/>
     </defs>
     <use xlink:href="#DejaVuSans-50"/>
     <use xlink:href="#DejaVuSans-6f" transform="translate(56.677734 0)"/>
     <use xlink:href="#DejaVuSans-73" transform="translate(117.859375 0)"/>
     <use xlink:href="#DejaVuSans-74" transform="translate(169.958984 0)"/>
     <use xlink:href="#DejaVuSans-119" transform="translate(209.167969 0)"/>
     <use xlink:href="#DejaVuSans-70" transform="translate(270.691406 0)"/>
     <use xlink:href="#DejaVuSans-20" transform="translate(334.167969 0)"/>
     <use xlink:href="#DejaVuSans-74" transform="translate(365.955078 0)"/>
     <use xlink:href="#DejaVuSans-142" transform="translate(405.164062 0)"/>
     <use xlink:href="#DejaVuSans-75" transform="translate(433.582031 0)"/>
     <use xlink:href="#DejaVuSans-6d" transform="translate(496.960938 0)"/>
     <use xlink:href="#DejaVuSans-61" transform="translate(594.373047 0)"/>
     <use xlink:href="#DejaVuSans-63" transform="translate(655.652344 0)"/>
     <use xlink:href="#DejaVuSans-7a" transform="translate(710.632812 0)"/>
     <use xlink:href="#DejaVuSans-65" transform="translate(763.123047 0)"/>
     <use xlink:href="#DejaVuSans-6e" transform="translate(824.646484 0)"/>
     <use xlink:href="#DejaVuSans-69" transform="translate(888.025391 0)"/>
     <use xlink:href="#DejaVuSans-61" transform="translate(915.808594 0)"/>
     <use xlink:href="#DejaVuSans-20" transform="translate(977.087891 0)"/>
     <use xlink:href="#DejaVuSans-64" transform="translate(1008.875 0)"/>
     <use xlink:href="#DejaVuSans-6f" transform="translate(1072.351562 0)"/>
     <use xlink:href="#DejaVuSans-20" transform="translate(1133.533203 0)"/>
     <use xlink:href="#DejaVuSans-64" transform="translate(1165.320312 0)"/>
     <use xlink:href="#DejaVuSans-6f" transform="translate(1228.796875 0)"/>
     <use xlink:href="#DejaVuSans-64" transform="translate(1289.978516 0)"/>
     <use xlink:href="#DejaVuSans-61" transform="translate(1353.455078 0)"/>
     <use xlink:href="#DejaVuSans-6e" transform="translate(1414.734375 0)"/>
     <use xlink:href="#DejaVuSans-69" transform="translate(1478.113281 0)"/>
     <use xlink:href="#DejaVuSans-61" transform="translate(1505.896484 0)"/>
     <use xlink:href="#DejaVuSans-20" transform="translate(1567.175781 0)"/>
     <use xlink:href="#DejaVuSans-64" transform="translate(1598.962891 0)"/>
     <use xlink:href="#DejaVuSans-6f" transform="translate(1662.439453 0)"/>
     <use xlink:href="#DejaVuSans-20" transform="translate(1723.621094 0)"/>
     <use xlink:href="#DejaVuSans-70" transform="translate(1755.408203 0)"/>
     <use xlink:href="#DejaVuSans-72" transform="translate(1818.884766 0)"/>
     <use xlink:href="#DejaVuSans-7a" transform="translate(1859.998047 0)"/>
     <use xlink:href="#DejaVuSans-65" transform="translate(1912.488281 0)"/>
     <use xlink:href="#DejaVuSans-142" transform="translate(1974.011719 0)"/>
     <use xlink:href="#DejaVuSans-105" transform="translate(2002.429688 0)"/>
     <use xlink:href="#DejaVuSans-63" transform="translate(2063.708984 0)"/>
     <use xlink:href="#DejaVuSans-7a" transform="translate(2118.689453 0)"/>
     <use xlink:href="#DejaVuSans-6e" transform="translate(2171.179688 0)"/>
     <use xlink:href="#DejaVuSans-69" transform="translate(2234.558594 0)"/>
     <use xlink:href="#DejaVuSans-6b" transform="translate(2262.341797 0)"/>
     <use xlink:href="#DejaVuSans-61" transform="translate(2318.501953 0)"/>
     <use xlink:href="#DejaVuSans-20" transform="translate(2379.78125 0)"/>
     <use xlink:href="#DejaVuSans-6a" transform="translate(2411.568359 0)"/>
     <use xlink:href="#DejaVuSans-119" transform="translate(2439.351562 0)"/>
     <use xlink:href="#DejaVuSans-7a" transform="translate(2500.875 0)"/>
     <use xlink:href="#DejaVuSans-79" transform="translate(2553.365234 0)"/>
     <use xlink:href="#DejaVuSans-6b" transform="translate(2612.544922 0)"/>
     <use xlink:href="#DejaVuSans-f3" transform="translate(2666.830078 0)"/>
     <use xlink:href="#DejaVuSans-77" transform="translate(2728.011719 0)"/>
    </g>
   </g>
  </g>
 </g>
 <defs>
  <clipPath id="pa89cd7aa04">
   <rect x="57.6" y="41.472" width="357.12" height="235.008"/>
  </clipPath>
 </defs>
</svg>
