<?xml version="1.0" encoding="utf-8" standalone="no"?>
<!DOCTYPE svg PUBLIC "-//W3C//DTD SVG 1.1//EN"
  "http://www.w3.org/Graphics/SVG/1.1/DTD/svg11.dtd">
<svg xmlns:xlink="http://www.w3.org/1999/xlink" width="460.8pt" height="345.6pt" viewBox="0 0 460.8 345.6" xmlns="http://www.w3.org/2000/svg" version="1.1">
 <metadata>
  <rdf:RDF xmlns:dc="http://purl.org/dc/elements/1.1/" xmlns:cc="http://creativecommons.org/ns#" xmlns:rdf="http://www.w3.org/1999/02/22-rdf-syntax-ns#">
   <cc:Work>
    <dc:type rdf:resource="http://purl.org/dc/dcmitype/StillImage"/>
    <dc:date>2024-11-27T19:08:57.338023</dc:date>
    <dc:format>image/svg+xml</dc:format>
    <dc:creator>
     <cc:Agent>
      <dc:title>Matplotlib v3.9.2, https://matplotlib.org/</dc:title>
     </cc:Agent>
    </dc:creator>
   </cc:Work>
  </rdf:RDF>
 </metadata>
 <defs>
  <style type="text/css">*{stroke-linejoin: round; stroke-linecap: butt}</style>
 </defs>
 <g id="figure_1">
  <g id="patch_1">
   <path d="M 0 345.6 
L 460.8 345.6 
L 460.8 0 
L 0 0 
z
" style="fill: #ffffff"/>
  </g>
  <g id="axes_1">
   <g id="patch_2">
    <path d="M 57.6 276.48 
L 414.72 276.48 
L 414.72 41.472 
L 57.6 41.472 
z
" style="fill: #ffffff"/>
   </g>
   <g id="matplotlib.axis_1">
    <g id="xtick_1">
     <g id="line2d_1">
      <path d="M 77.594561 276.48 
L 77.594561 41.472 
" clip-path="url(#p1bfe30b388)" style="fill: none; stroke: #b0b0b0; stroke-width: 0.8; stroke-linecap: square"/>
     </g>
     <g id="line2d_2">
      <defs>
       <path id="m62f6ecb306" d="M 0 0 
L 0 3.5 
" style="stroke: #000000; stroke-width: 0.8"/>
      </defs>
      <g>
       <use xlink:href="#m62f6ecb306" x="77.594561" y="276.48" style="stroke: #000000; stroke-width: 0.8"/>
      </g>
     </g>
     <g id="text_1">
      <!-- 2020 -->
      <g transform="translate(54.514371 302.78544) rotate(-30) scale(0.1 -0.1)">
       <defs>
        <path id="DejaVuSans-32" d="M 1228 531 
L 3431 531 
L 3431 0 
L 469 0 
L 469 531 
Q 828 903 1448 1529 
Q 2069 2156 2228 2338 
Q 2531 2678 2651 2914 
Q 2772 3150 2772 3378 
Q 2772 3750 2511 3984 
Q 2250 4219 1831 4219 
Q 1534 4219 1204 4116 
Q 875 4013 500 3803 
L 500 4441 
Q 881 4594 1212 4672 
Q 1544 4750 1819 4750 
Q 2544 4750 2975 4387 
Q 3406 4025 3406 3419 
Q 3406 3131 3298 2873 
Q 3191 2616 2906 2266 
Q 2828 2175 2409 1742 
Q 1991 1309 1228 531 
z
" transform="scale(0.015625)"/>
        <path id="DejaVuSans-30" d="M 2034 4250 
Q 1547 4250 1301 3770 
Q 1056 3291 1056 2328 
Q 1056 1369 1301 889 
Q 1547 409 2034 409 
Q 2525 409 2770 889 
Q 3016 1369 3016 2328 
Q 3016 3291 2770 3770 
Q 2525 4250 2034 4250 
z
M 2034 4750 
Q 2819 4750 3233 4129 
Q 3647 3509 3647 2328 
Q 3647 1150 3233 529 
Q 2819 -91 2034 -91 
Q 1250 -91 836 529 
Q 422 1150 422 2328 
Q 422 3509 836 4129 
Q 1250 4750 2034 4750 
z
" transform="scale(0.015625)"/>
       </defs>
       <use xlink:href="#DejaVuSans-32"/>
       <use xlink:href="#DejaVuSans-30" x="63.623047"/>
       <use xlink:href="#DejaVuSans-32" x="127.246094"/>
       <use xlink:href="#DejaVuSans-30" x="190.869141"/>
      </g>
     </g>
    </g>
    <g id="xtick_2">
     <g id="line2d_3">
      <path d="M 143.104869 276.48 
L 143.104869 41.472 
" clip-path="url(#p1bfe30b388)" style="fill: none; stroke: #b0b0b0; stroke-width: 0.8; stroke-linecap: square"/>
     </g>
     <g id="line2d_4">
      <g>
       <use xlink:href="#m62f6ecb306" x="143.104869" y="276.48" style="stroke: #000000; stroke-width: 0.8"/>
      </g>
     </g>
     <g id="text_2">
      <!-- 2021 -->
      <g transform="translate(120.024679 302.78544) rotate(-30) scale(0.1 -0.1)">
       <defs>
        <path id="DejaVuSans-31" d="M 794 531 
L 1825 531 
L 1825 4091 
L 703 3866 
L 703 4441 
L 1819 4666 
L 2450 4666 
L 2450 531 
L 3481 531 
L 3481 0 
L 794 0 
L 794 531 
z
" transform="scale(0.015625)"/>
       </defs>
       <use xlink:href="#DejaVuSans-32"/>
       <use xlink:href="#DejaVuSans-30" x="63.623047"/>
       <use xlink:href="#DejaVuSans-32" x="127.246094"/>
       <use xlink:href="#DejaVuSans-31" x="190.869141"/>
      </g>
     </g>
    </g>
    <g id="xtick_3">
     <g id="line2d_5">
      <path d="M 208.436188 276.48 
L 208.436188 41.472 
" clip-path="url(#p1bfe30b388)" style="fill: none; stroke: #b0b0b0; stroke-width: 0.8; stroke-linecap: square"/>
     </g>
     <g id="line2d_6">
      <g>
       <use xlink:href="#m62f6ecb306" x="208.436188" y="276.48" style="stroke: #000000; stroke-width: 0.8"/>
      </g>
     </g>
     <g id="text_3">
      <!-- 2022 -->
      <g transform="translate(185.355998 302.78544) rotate(-30) scale(0.1 -0.1)">
       <use xlink:href="#DejaVuSans-32"/>
       <use xlink:href="#DejaVuSans-30" x="63.623047"/>
       <use xlink:href="#DejaVuSans-32" x="127.246094"/>
       <use xlink:href="#DejaVuSans-32" x="190.869141"/>
      </g>
     </g>
    </g>
    <g id="xtick_4">
     <g id="line2d_7">
      <path d="M 273.767507 276.48 
L 273.767507 41.472 
" clip-path="url(#p1bfe30b388)" style="fill: none; stroke: #b0b0b0; stroke-width: 0.8; stroke-linecap: square"/>
     </g>
     <g id="line2d_8">
      <g>
       <use xlink:href="#m62f6ecb306" x="273.767507" y="276.48" style="stroke: #000000; stroke-width: 0.8"/>
      </g>
     </g>
     <g id="text_4">
      <!-- 2023 -->
      <g transform="translate(250.687316 302.78544) rotate(-30) scale(0.1 -0.1)">
       <defs>
        <path id="DejaVuSans-33" d="M 2597 2516 
Q 3050 2419 3304 2112 
Q 3559 1806 3559 1356 
Q 3559 666 3084 287 
Q 2609 -91 1734 -91 
Q 1441 -91 1130 -33 
Q 819 25 488 141 
L 488 750 
Q 750 597 1062 519 
Q 1375 441 1716 441 
Q 2309 441 2620 675 
Q 2931 909 2931 1356 
Q 2931 1769 2642 2001 
Q 2353 2234 1838 2234 
L 1294 2234 
L 1294 2753 
L 1863 2753 
Q 2328 2753 2575 2939 
Q 2822 3125 2822 3475 
Q 2822 3834 2567 4026 
Q 2313 4219 1838 4219 
Q 1578 4219 1281 4162 
Q 984 4106 628 3988 
L 628 4550 
Q 988 4650 1302 4700 
Q 1616 4750 1894 4750 
Q 2613 4750 3031 4423 
Q 3450 4097 3450 3541 
Q 3450 3153 3228 2886 
Q 3006 2619 2597 2516 
z
" transform="scale(0.015625)"/>
       </defs>
       <use xlink:href="#DejaVuSans-32"/>
       <use xlink:href="#DejaVuSans-30" x="63.623047"/>
       <use xlink:href="#DejaVuSans-32" x="127.246094"/>
       <use xlink:href="#DejaVuSans-33" x="190.869141"/>
      </g>
     </g>
    </g>
    <g id="xtick_5">
     <g id="line2d_9">
      <path d="M 339.098825 276.48 
L 339.098825 41.472 
" clip-path="url(#p1bfe30b388)" style="fill: none; stroke: #b0b0b0; stroke-width: 0.8; stroke-linecap: square"/>
     </g>
     <g id="line2d_10">
      <g>
       <use xlink:href="#m62f6ecb306" x="339.098825" y="276.48" style="stroke: #000000; stroke-width: 0.8"/>
      </g>
     </g>
     <g id="text_5">
      <!-- 2024 -->
      <g transform="translate(316.018635 302.78544) rotate(-30) scale(0.1 -0.1)">
       <defs>
        <path id="DejaVuSans-34" d="M 2419 4116 
L 825 1625 
L 2419 1625 
L 2419 4116 
z
M 2253 4666 
L 3047 4666 
L 3047 1625 
L 3713 1625 
L 3713 1100 
L 3047 1100 
L 3047 0 
L 2419 0 
L 2419 1100 
L 313 1100 
L 313 1709 
L 2253 4666 
z
" transform="scale(0.015625)"/>
       </defs>
       <use xlink:href="#DejaVuSans-32"/>
       <use xlink:href="#DejaVuSans-30" x="63.623047"/>
       <use xlink:href="#DejaVuSans-32" x="127.246094"/>
       <use xlink:href="#DejaVuSans-34" x="190.869141"/>
      </g>
     </g>
    </g>
    <g id="xtick_6">
     <g id="line2d_11">
      <path d="M 404.609134 276.48 
L 404.609134 41.472 
" clip-path="url(#p1bfe30b388)" style="fill: none; stroke: #b0b0b0; stroke-width: 0.8; stroke-linecap: square"/>
     </g>
     <g id="line2d_12">
      <g>
       <use xlink:href="#m62f6ecb306" x="404.609134" y="276.48" style="stroke: #000000; stroke-width: 0.8"/>
      </g>
     </g>
     <g id="text_6">
      <!-- 2025 -->
      <g transform="translate(381.528944 302.78544) rotate(-30) scale(0.1 -0.1)">
       <defs>
        <path id="DejaVuSans-35" d="M 691 4666 
L 3169 4666 
L 3169 4134 
L 1269 4134 
L 1269 2991 
Q 1406 3038 1543 3061 
Q 1681 3084 1819 3084 
Q 2600 3084 3056 2656 
Q 3513 2228 3513 1497 
Q 3513 744 3044 326 
Q 2575 -91 1722 -91 
Q 1428 -91 1123 -41 
Q 819 9 494 109 
L 494 744 
Q 775 591 1075 516 
Q 1375 441 1709 441 
Q 2250 441 2565 725 
Q 2881 1009 2881 1497 
Q 2881 1984 2565 2268 
Q 2250 2553 1709 2553 
Q 1456 2553 1204 2497 
Q 953 2441 691 2322 
L 691 4666 
z
" transform="scale(0.015625)"/>
       </defs>
       <use xlink:href="#DejaVuSans-32"/>
       <use xlink:href="#DejaVuSans-30" x="63.623047"/>
       <use xlink:href="#DejaVuSans-32" x="127.246094"/>
       <use xlink:href="#DejaVuSans-35" x="190.869141"/>
      </g>
     </g>
    </g>
   </g>
   <g id="matplotlib.axis_2">
    <g id="ytick_1">
     <g id="line2d_13">
      <path d="M 57.6 276.48 
L 414.72 276.48 
" clip-path="url(#p1bfe30b388)" style="fill: none; stroke: #b0b0b0; stroke-width: 0.8; stroke-linecap: square"/>
     </g>
     <g id="line2d_14">
      <defs>
       <path id="m1f7763210a" d="M 0 0 
L -3.5 0 
" style="stroke: #000000; stroke-width: 0.8"/>
      </defs>
      <g>
       <use xlink:href="#m1f7763210a" x="57.6" y="276.48" style="stroke: #000000; stroke-width: 0.8"/>
      </g>
     </g>
     <g id="text_7">
      <!-- 0% -->
      <g transform="translate(34.735937 280.279219) scale(0.1 -0.1)">
       <defs>
        <path id="DejaVuSans-25" d="M 4653 2053 
Q 4381 2053 4226 1822 
Q 4072 1591 4072 1178 
Q 4072 772 4226 539 
Q 4381 306 4653 306 
Q 4919 306 5073 539 
Q 5228 772 5228 1178 
Q 5228 1588 5073 1820 
Q 4919 2053 4653 2053 
z
M 4653 2450 
Q 5147 2450 5437 2106 
Q 5728 1763 5728 1178 
Q 5728 594 5436 251 
Q 5144 -91 4653 -91 
Q 4153 -91 3862 251 
Q 3572 594 3572 1178 
Q 3572 1766 3864 2108 
Q 4156 2450 4653 2450 
z
M 1428 4353 
Q 1159 4353 1004 4120 
Q 850 3888 850 3481 
Q 850 3069 1003 2837 
Q 1156 2606 1428 2606 
Q 1700 2606 1854 2837 
Q 2009 3069 2009 3481 
Q 2009 3884 1853 4118 
Q 1697 4353 1428 4353 
z
M 4250 4750 
L 4750 4750 
L 1831 -91 
L 1331 -91 
L 4250 4750 
z
M 1428 4750 
Q 1922 4750 2215 4408 
Q 2509 4066 2509 3481 
Q 2509 2891 2217 2550 
Q 1925 2209 1428 2209 
Q 931 2209 642 2551 
Q 353 2894 353 3481 
Q 353 4063 643 4406 
Q 934 4750 1428 4750 
z
" transform="scale(0.015625)"/>
       </defs>
       <use xlink:href="#DejaVuSans-30"/>
       <use xlink:href="#DejaVuSans-25" x="63.623047"/>
      </g>
     </g>
    </g>
    <g id="ytick_2">
     <g id="line2d_15">
      <path d="M 57.6 247.912461 
L 414.72 247.912461 
" clip-path="url(#p1bfe30b388)" style="fill: none; stroke: #b0b0b0; stroke-width: 0.8; stroke-linecap: square"/>
     </g>
     <g id="line2d_16">
      <g>
       <use xlink:href="#m1f7763210a" x="57.6" y="247.912461" style="stroke: #000000; stroke-width: 0.8"/>
      </g>
     </g>
     <g id="text_8">
      <!-- 10% -->
      <g transform="translate(28.373438 251.71168) scale(0.1 -0.1)">
       <use xlink:href="#DejaVuSans-31"/>
       <use xlink:href="#DejaVuSans-30" x="63.623047"/>
       <use xlink:href="#DejaVuSans-25" x="127.246094"/>
      </g>
     </g>
    </g>
    <g id="ytick_3">
     <g id="line2d_17">
      <path d="M 57.6 219.344923 
L 414.72 219.344923 
" clip-path="url(#p1bfe30b388)" style="fill: none; stroke: #b0b0b0; stroke-width: 0.8; stroke-linecap: square"/>
     </g>
     <g id="line2d_18">
      <g>
       <use xlink:href="#m1f7763210a" x="57.6" y="219.344923" style="stroke: #000000; stroke-width: 0.8"/>
      </g>
     </g>
     <g id="text_9">
      <!-- 20% -->
      <g transform="translate(28.373438 223.144141) scale(0.1 -0.1)">
       <use xlink:href="#DejaVuSans-32"/>
       <use xlink:href="#DejaVuSans-30" x="63.623047"/>
       <use xlink:href="#DejaVuSans-25" x="127.246094"/>
      </g>
     </g>
    </g>
    <g id="ytick_4">
     <g id="line2d_19">
      <path d="M 57.6 190.777384 
L 414.72 190.777384 
" clip-path="url(#p1bfe30b388)" style="fill: none; stroke: #b0b0b0; stroke-width: 0.8; stroke-linecap: square"/>
     </g>
     <g id="line2d_20">
      <g>
       <use xlink:href="#m1f7763210a" x="57.6" y="190.777384" style="stroke: #000000; stroke-width: 0.8"/>
      </g>
     </g>
     <g id="text_10">
      <!-- 30% -->
      <g transform="translate(28.373438 194.576603) scale(0.1 -0.1)">
       <use xlink:href="#DejaVuSans-33"/>
       <use xlink:href="#DejaVuSans-30" x="63.623047"/>
       <use xlink:href="#DejaVuSans-25" x="127.246094"/>
      </g>
     </g>
    </g>
    <g id="ytick_5">
     <g id="line2d_21">
      <path d="M 57.6 162.209845 
L 414.72 162.209845 
" clip-path="url(#p1bfe30b388)" style="fill: none; stroke: #b0b0b0; stroke-width: 0.8; stroke-linecap: square"/>
     </g>
     <g id="line2d_22">
      <g>
       <use xlink:href="#m1f7763210a" x="57.6" y="162.209845" style="stroke: #000000; stroke-width: 0.8"/>
      </g>
     </g>
     <g id="text_11">
      <!-- 40% -->
      <g transform="translate(28.373438 166.009064) scale(0.1 -0.1)">
       <use xlink:href="#DejaVuSans-34"/>
       <use xlink:href="#DejaVuSans-30" x="63.623047"/>
       <use xlink:href="#DejaVuSans-25" x="127.246094"/>
      </g>
     </g>
    </g>
    <g id="ytick_6">
     <g id="line2d_23">
      <path d="M 57.6 133.642307 
L 414.72 133.642307 
" clip-path="url(#p1bfe30b388)" style="fill: none; stroke: #b0b0b0; stroke-width: 0.8; stroke-linecap: square"/>
     </g>
     <g id="line2d_24">
      <g>
       <use xlink:href="#m1f7763210a" x="57.6" y="133.642307" style="stroke: #000000; stroke-width: 0.8"/>
      </g>
     </g>
     <g id="text_12">
      <!-- 50% -->
      <g transform="translate(28.373438 137.441525) scale(0.1 -0.1)">
       <use xlink:href="#DejaVuSans-35"/>
       <use xlink:href="#DejaVuSans-30" x="63.623047"/>
       <use xlink:href="#DejaVuSans-25" x="127.246094"/>
      </g>
     </g>
    </g>
    <g id="ytick_7">
     <g id="line2d_25">
      <path d="M 57.6 105.074768 
L 414.72 105.074768 
" clip-path="url(#p1bfe30b388)" style="fill: none; stroke: #b0b0b0; stroke-width: 0.8; stroke-linecap: square"/>
     </g>
     <g id="line2d_26">
      <g>
       <use xlink:href="#m1f7763210a" x="57.6" y="105.074768" style="stroke: #000000; stroke-width: 0.8"/>
      </g>
     </g>
     <g id="text_13">
      <!-- 60% -->
      <g transform="translate(28.373438 108.873987) scale(0.1 -0.1)">
       <defs>
        <path id="DejaVuSans-36" d="M 2113 2584 
Q 1688 2584 1439 2293 
Q 1191 2003 1191 1497 
Q 1191 994 1439 701 
Q 1688 409 2113 409 
Q 2538 409 2786 701 
Q 3034 994 3034 1497 
Q 3034 2003 2786 2293 
Q 2538 2584 2113 2584 
z
M 3366 4563 
L 3366 3988 
Q 3128 4100 2886 4159 
Q 2644 4219 2406 4219 
Q 1781 4219 1451 3797 
Q 1122 3375 1075 2522 
Q 1259 2794 1537 2939 
Q 1816 3084 2150 3084 
Q 2853 3084 3261 2657 
Q 3669 2231 3669 1497 
Q 3669 778 3244 343 
Q 2819 -91 2113 -91 
Q 1303 -91 875 529 
Q 447 1150 447 2328 
Q 447 3434 972 4092 
Q 1497 4750 2381 4750 
Q 2619 4750 2861 4703 
Q 3103 4656 3366 4563 
z
" transform="scale(0.015625)"/>
       </defs>
       <use xlink:href="#DejaVuSans-36"/>
       <use xlink:href="#DejaVuSans-30" x="63.623047"/>
       <use xlink:href="#DejaVuSans-25" x="127.246094"/>
      </g>
     </g>
    </g>
    <g id="ytick_8">
     <g id="line2d_27">
      <path d="M 57.6 76.507229 
L 414.72 76.507229 
" clip-path="url(#p1bfe30b388)" style="fill: none; stroke: #b0b0b0; stroke-width: 0.8; stroke-linecap: square"/>
     </g>
     <g id="line2d_28">
      <g>
       <use xlink:href="#m1f7763210a" x="57.6" y="76.507229" style="stroke: #000000; stroke-width: 0.8"/>
      </g>
     </g>
     <g id="text_14">
      <!-- 70% -->
      <g transform="translate(28.373438 80.306448) scale(0.1 -0.1)">
       <defs>
        <path id="DejaVuSans-37" d="M 525 4666 
L 3525 4666 
L 3525 4397 
L 1831 0 
L 1172 0 
L 2766 4134 
L 525 4134 
L 525 4666 
z
" transform="scale(0.015625)"/>
       </defs>
       <use xlink:href="#DejaVuSans-37"/>
       <use xlink:href="#DejaVuSans-30" x="63.623047"/>
       <use xlink:href="#DejaVuSans-25" x="127.246094"/>
      </g>
     </g>
    </g>
    <g id="ytick_9">
     <g id="line2d_29">
      <path d="M 57.6 47.939691 
L 414.72 47.939691 
" clip-path="url(#p1bfe30b388)" style="fill: none; stroke: #b0b0b0; stroke-width: 0.8; stroke-linecap: square"/>
     </g>
     <g id="line2d_30">
      <g>
       <use xlink:href="#m1f7763210a" x="57.6" y="47.939691" style="stroke: #000000; stroke-width: 0.8"/>
      </g>
     </g>
     <g id="text_15">
      <!-- 80% -->
      <g transform="translate(28.373438 51.73891) scale(0.1 -0.1)">
       <defs>
        <path id="DejaVuSans-38" d="M 2034 2216 
Q 1584 2216 1326 1975 
Q 1069 1734 1069 1313 
Q 1069 891 1326 650 
Q 1584 409 2034 409 
Q 2484 409 2743 651 
Q 3003 894 3003 1313 
Q 3003 1734 2745 1975 
Q 2488 2216 2034 2216 
z
M 1403 2484 
Q 997 2584 770 2862 
Q 544 3141 544 3541 
Q 544 4100 942 4425 
Q 1341 4750 2034 4750 
Q 2731 4750 3128 4425 
Q 3525 4100 3525 3541 
Q 3525 3141 3298 2862 
Q 3072 2584 2669 2484 
Q 3125 2378 3379 2068 
Q 3634 1759 3634 1313 
Q 3634 634 3220 271 
Q 2806 -91 2034 -91 
Q 1263 -91 848 271 
Q 434 634 434 1313 
Q 434 1759 690 2068 
Q 947 2378 1403 2484 
z
M 1172 3481 
Q 1172 3119 1398 2916 
Q 1625 2713 2034 2713 
Q 2441 2713 2670 2916 
Q 2900 3119 2900 3481 
Q 2900 3844 2670 4047 
Q 2441 4250 2034 4250 
Q 1625 4250 1398 4047 
Q 1172 3844 1172 3481 
z
" transform="scale(0.015625)"/>
       </defs>
       <use xlink:href="#DejaVuSans-38"/>
       <use xlink:href="#DejaVuSans-30" x="63.623047"/>
       <use xlink:href="#DejaVuSans-25" x="127.246094"/>
      </g>
     </g>
    </g>
   </g>
   <g id="line2d_31">
    <path d="M 398.487273 51.396363 
L 398.408225 57.624086 
L 398.236333 57.624086 
L 398.327004 57.624086 
L 398.245429 75.821608 
L 398.132922 76.050149 
L 398.126266 80.79236 
L 397.968931 83.334871 
L 397.957775 84.220465 
L 394.761888 84.2776 
L 393.872733 84.934653 
L 393.800092 85.220329 
L 393.509035 84.791816 
L 393.505453 84.877518 
L 392.770673 85.591707 
L 392.696533 85.048923 
L 392.237618 85.048923 
L 391.536566 86.105922 
L 391.525122 92.562186 
L 391.294275 94.019131 
L 390.891813 93.476347 
L 390.734668 93.476347 
L 390.64212 96.133128 
L 390.257331 96.333101 
L 390.041346 96.618777 
L 389.724237 95.818886 
L 389.40699 101.618096 
L 389.306948 102.046609 
L 388.788547 103.07504 
L 388.685663 102.875068 
L 388.583139 106.645983 
L 388.396888 106.645983 
L 388.016522 107.045928 
L 387.755323 107.045928 
L 387.751427 110.845411 
L 387.535535 112.13095 
L 386.89433 105.531849 
L 385.715791 105.531849 
L 385.029479 105.874659 
L 384.723655 105.874659 
L 384.339684 106.131767 
L 384.198089 107.417306 
L 384.19267 110.102655 
L 383.910746 110.102655 
L 383.776811 110.731141 
L 383.467046 110.731141 
L 383.385113 114.073543 
L 383.060563 116.987432 
L 383.012325 123.415128 
L 382.873966 125.100613 
L 382.75107 130.842688 
L 382.67647 132.071092 
L 382.590658 97.104425 
L 382.523715 97.990018 
L 382.027859 97.904316 
L 381.997968 98.818477 
L 381.077931 98.818477 
L 380.912752 99.389828 
L 380.90528 101.875204 
L 380.623046 104.246309 
L 380.621548 106.388875 
L 378.783437 106.417442 
L 378.764871 106.731685 
L 378.004282 106.417442 
L 377.735514 106.474577 
L 377.511903 106.731685 
L 376.572025 106.56028 
L 375.005944 106.56028 
L 373.622669 104.560552 
L 373.555751 107.474441 
L 373.436116 107.731549 
L 372.988856 108.131495 
L 372.556208 108.131495 
L 372.500059 116.501784 
L 372.035625 116.501784 
L 371.82149 117.130269 
L 371.247208 119.015727 
L 368.603434 119.015727 
L 367.488523 119.32997 
L 366.817268 119.158565 
L 366.794796 120.301266 
L 366.246721 120.615509 
L 366.23549 121.015455 
L 365.989276 120.415536 
L 364.982505 120.415536 
L 364.807549 118.901457 
L 362.663057 118.901457 
L 362.557886 121.672508 
L 362.476913 119.387105 
L 362.24318 119.015727 
L 358.717926 118.987159 
L 358.016773 118.872889 
L 357.887964 120.872617 
L 353.411665 120.872617 
L 352.453296 121.472535 
L 352.054436 120.872617 
L 351.200323 121.18686 
L 350.560691 121.015455 
L 344.939531 120.986887 
L 343.682713 120.586942 
L 342.429761 120.558374 
L 342.250902 119.929888 
L 337.418106 119.929888 
L 337.123603 119.415672 
L 335.135972 119.415672 
L 335.091208 120.472671 
L 334.912185 121.044022 
L 333.659268 119.901321 
L 332.406397 119.901321 
L 331.153426 119.587078 
L 328.89887 119.587078 
L 328.64783 120.415536 
L 327.452318 120.415536 
L 327.451539 120.244131 
L 324.888886 120.244131 
L 324.579497 119.929888 
L 322.789447 119.929888 
L 322.382918 121.815346 
L 321.894483 120.244131 
L 321.726638 120.558374 
L 321.13004 120.986887 
L 320.813274 120.986887 
L 319.877233 121.901048 
L 319.571388 121.901048 
L 319.213479 123.957911 
L 319.030656 124.157884 
L 318.624173 124.843505 
L 318.329865 124.843505 
L 318.079725 125.386288 
L 317.248304 125.386288 
L 316.700058 128.357312 
L 316.476253 128.928663 
L 316.275026 130.499877 
L 316.118333 136.641898 
L 316.077665 130.499877 
L 315.461999 130.499877 
L 315.271839 141.755488 
L 314.865364 142.041163 
L 314.660518 141.755488 
L 312.793981 141.755488 
L 312.359476 142.326838 
L 311.106541 141.49838 
L 309.637541 139.212977 
L 309.577459 139.212977 
L 309.571541 139.384382 
L 307.347835 139.384382 
L 306.094825 139.098707 
L 303.182804 139.098707 
L 303.178885 139.470085 
L 302.041539 139.470085 
L 301.809602 140.612786 
L 299.979069 140.612786 
L 299.783993 141.127002 
L 299.829901 141.127002 
L 299.695004 134.670738 
L 299.244606 134.670738 
L 298.554523 135.299224 
L 298.306529 135.81344 
L 298.017628 135.69917 
L 297.644668 135.69917 
L 297.641045 136.670466 
L 297.324079 137.098979 
L 296.649641 137.098979 
L 296.253906 136.756168 
L 294.818129 137.184682 
L 292.720111 137.184682 
L 293.300606 137.184682 
L 291.813309 137.55606 
L 290.041439 137.584627 
L 289.806542 137.813167 
L 288.277334 137.813167 
L 287.546728 138.070275 
L 287.513228 138.841599 
L 287.511371 138.355951 
L 284.943904 138.355951 
L 284.798609 138.584491 
L 284.488978 138.470221 
L 283.7902 139.070139 
L 283.789044 118.244403 
L 274.474465 118.244403 
L 281.840911 118.244403 
L 281.817153 121.101157 
L 273.519846 121.015455 
L 273.155637 127.043205 
L 273.035415 128.50015 
L 272.879872 128.50015 
L 272.819086 132.528173 
L 271.816419 132.499605 
L 271.653942 133.013821 
L 270.613288 133.013821 
L 270.461691 133.242361 
L 270.404442 140.212841 
L 269.453524 140.212841 
L 269.371775 141.698353 
L 269.119721 141.698353 
L 269.063378 142.926757 
L 266.589077 142.926757 
L 265.98192 143.440972 
L 265.262229 143.440972 
L 265.121382 143.58381 
L 265.032051 145.783511 
L 264.784763 145.783511 
L 264.674394 146.440564 
L 264.360275 146.440564 
L 264.29246 147.726103 
L 264.207179 147.726103 
L 264.039544 149.411588 
L 263.71478 150.582857 
L 263.546932 147.954644 
L 263.542008 148.897372 
L 263.498335 148.897372 
L 263.494836 146.212024 
L 262.488387 144.555106 
L 262.111924 145.040755 
L 260.713905 145.040755 
L 260.708106 145.297862 
L 252.235631 145.55497 
L 251.843407 145.812078 
L 250.123944 146.583402 
L 248.505461 146.84051 
L 246.730657 147.326158 
L 246.614604 149.440156 
L 239.026575 149.440156 
L 239.00035 149.811534 
L 238.199242 149.811534 
L 237.773928 147.868941 
L 236.46281 147.868941 
L 235.715875 148.097481 
L 235.56033 148.354589 
L 235.454575 148.354589 
L 235.446673 148.611697 
L 232.575733 148.611697 
L 232.060843 149.125913 
L 224.629356 150.382884 
L 219.143609 150.8971 
L 216.895154 151.896964 
L 214.631406 152.154072 
L 214.154711 152.668287 
L 214.146526 153.182503 
L 212.603328 153.182503 
L 208.93431 153.439611 
L 205.637608 153.439611 
L 204.566894 154.096664 
L 198.385252 154.096664 
L 198.380702 154.353772 
L 196.45544 154.353772 
L 196.234408 155.610744 
L 195.505689 155.610744 
L 193.738185 155.867852 
L 193.663539 156.267797 
L 191.761939 158.067552 
L 191.747005 160.438658 
L 190.688238 161.752765 
L 189.072504 162.009873 
L 183.840185 161.92417 
L 183.30532 161.8099 
L 182.73538 161.8099 
L 182.570414 162.03844 
L 182.38032 165.495112 
L 181.928567 165.40941 
L 181.867201 166.580679 
L 181.029669 166.580679 
L 180.973869 173.008375 
L 180.152299 173.008375 
L 180.255316 173.008375 
L 180.0797 172.522727 
L 179.236527 172.522727 
L 179.232272 173.151213 
L 179.00196 173.351185 
L 178.107263 172.465592 
L 176.921065 172.465592 
L 176.918662 172.894105 
L 176.917005 169.180325 
L 176.916288 169.180325 
L 175.017153 169.180325 
L 173.048339 168.894649 
L 169.693979 168.894649 
L 169.108702 169.323163 
L 168.571428 169.323163 
L 168.319533 169.151757 
L 168.300994 172.037079 
L 168.143485 172.465592 
L 168.034713 172.894105 
L 167.791142 172.894105 
L 167.139231 173.979671 
L 166.875851 173.979671 
L 166.781483 174.208212 
L 164.692644 174.151077 
L 164.454964 175.236643 
L 164.195108 175.236643 
L 164.096338 175.465183 
L 161.711867 175.465183 
L 160.871472 176.77929 
L 159.36469 176.77929 
L 159.260389 177.207803 
L 157.952721 176.864993 
L 156.039401 180.15026 
L 152.09666 180.15026 
L 151.917751 179.950287 
L 141.232939 179.950287 
L 141.175909 181.035853 
L 138.062274 181.064421 
L 135.940382 181.292961 
L 135.735359 182.149987 
L 135.575178 183.692634 
L 135.169459 185.435254 
L 135.044653 186.06374 
L 134.93328 194.605434 
L 134.847872 194.605434 
L 134.771002 204.432668 
L 134.301165 204.63264 
L 133.038597 204.63264 
L 132.851927 210.546121 
L 132.849764 210.546121 
L 132.583312 210.774661 
L 131.47449 210.774661 
L 131.465099 211.203174 
L 131.32695 211.203174 
L 131.149271 211.003201 
L 128.92188 211.003201 
L 128.913915 212.003065 
L 121.631331 212.003065 
L 121.05949 212.17447 
L 120.823231 212.374443 
L 120.820606 213.545712 
L 120.175814 213.545712 
L 119.815775 213.745685 
L 117.144829 213.745685 
L 119.301649 213.68855 
L 118.94362 215.059792 
L 117.851733 215.631143 
L 117.332528 215.631143 
L 116.975192 216.431034 
L 112.320771 216.431034 
L 112.142396 216.830979 
L 108.561639 216.802412 
L 108.383223 217.40233 
L 107.845605 217.40233 
L 107.666604 217.573735 
L 107.604418 218.602167 
L 107.129792 218.602167 
L 106.951355 219.116382 
L 104.802801 219.116382 
L 104.623877 218.173654 
L 104.26584 218.173654 
L 104.087734 219.002112 
L 102.118143 219.002112 
L 101.93923 219.430625 
L 99.075033 219.430625 
L 98.896269 220.287651 
L 98.717204 220.487624 
L 96.747942 220.487624 
L 96.569652 221.34465 
L 96.390043 221.34465 
L 96.211583 221.773163 
L 90.483602 221.773163 
L 90.305126 222.001704 
L 86.724644 222.001704 
L 86.546449 223.172973 
L 85.471778 223.172973 
L 85.114694 228.4294 
L 84.039702 228.4294 
L 83.86072 228.629373 
L 82.607795 228.629373 
L 82.428803 229.029318 
L 82.084883 229.029318 
L 82.034861 232.343153 
L 81.81487 246.969733 
L 81.775676 246.941165 
L 80.996906 246.941165 
L 79.923787 247.141138 
L 79.535104 247.341111 
L 79.458459 247.541083 
L 79.028351 247.541083 
L 79.028268 247.741056 
L 78.312437 247.741056 
L 78.312368 247.941029 
L 78.133391 247.941029 
L 78.133312 248.141002 
L 77.755971 248.141002 
L 77.751917 249.512244 
L 77.438518 249.512244 
L 77.417357 249.712216 
L 77.31798 249.712216 
L 77.247163 249.883622 
L 73.832727 249.883622 
L 73.832727 249.883622 
" clip-path="url(#p1bfe30b388)" style="fill: none; stroke: #1f77b4; stroke-width: 1.5; stroke-linecap: square"/>
   </g>
   <g id="patch_3">
    <path d="M 57.6 276.48 
L 57.6 41.472 
" style="fill: none; stroke: #000000; stroke-width: 0.8; stroke-linejoin: miter; stroke-linecap: square"/>
   </g>
   <g id="patch_4">
    <path d="M 414.72 276.48 
L 414.72 41.472 
" style="fill: none; stroke: #000000; stroke-width: 0.8; stroke-linejoin: miter; stroke-linecap: square"/>
   </g>
   <g id="patch_5">
    <path d="M 57.6 276.48 
L 414.72 276.48 
" style="fill: none; stroke: #000000; stroke-width: 0.8; stroke-linejoin: miter; stroke-linecap: square"/>
   </g>
   <g id="patch_6">
    <path d="M 57.6 41.472 
L 414.72 41.472 
" style="fill: none; stroke: #000000; stroke-width: 0.8; stroke-linejoin: miter; stroke-linecap: square"/>
   </g>
   <g id="text_16">
    <!-- Postęp tłumaczenia do dodania do przełącznika języków -->
    <g transform="translate(67.57125 35.472) scale(0.12 -0.12)">
     <defs>
      <path id="DejaVuSans-50" d="M 1259 4147 
L 1259 2394 
L 2053 2394 
Q 2494 2394 2734 2622 
Q 2975 2850 2975 3272 
Q 2975 3691 2734 3919 
Q 2494 4147 2053 4147 
L 1259 4147 
z
M 628 4666 
L 2053 4666 
Q 2838 4666 3239 4311 
Q 3641 3956 3641 3272 
Q 3641 2581 3239 2228 
Q 2838 1875 2053 1875 
L 1259 1875 
L 1259 0 
L 628 0 
L 628 4666 
z
" transform="scale(0.015625)"/>
      <path id="DejaVuSans-6f" d="M 1959 3097 
Q 1497 3097 1228 2736 
Q 959 2375 959 1747 
Q 959 1119 1226 758 
Q 1494 397 1959 397 
Q 2419 397 2687 759 
Q 2956 1122 2956 1747 
Q 2956 2369 2687 2733 
Q 2419 3097 1959 3097 
z
M 1959 3584 
Q 2709 3584 3137 3096 
Q 3566 2609 3566 1747 
Q 3566 888 3137 398 
Q 2709 -91 1959 -91 
Q 1206 -91 779 398 
Q 353 888 353 1747 
Q 353 2609 779 3096 
Q 1206 3584 1959 3584 
z
" transform="scale(0.015625)"/>
      <path id="DejaVuSans-73" d="M 2834 3397 
L 2834 2853 
Q 2591 2978 2328 3040 
Q 2066 3103 1784 3103 
Q 1356 3103 1142 2972 
Q 928 2841 928 2578 
Q 928 2378 1081 2264 
Q 1234 2150 1697 2047 
L 1894 2003 
Q 2506 1872 2764 1633 
Q 3022 1394 3022 966 
Q 3022 478 2636 193 
Q 2250 -91 1575 -91 
Q 1294 -91 989 -36 
Q 684 19 347 128 
L 347 722 
Q 666 556 975 473 
Q 1284 391 1588 391 
Q 1994 391 2212 530 
Q 2431 669 2431 922 
Q 2431 1156 2273 1281 
Q 2116 1406 1581 1522 
L 1381 1569 
Q 847 1681 609 1914 
Q 372 2147 372 2553 
Q 372 3047 722 3315 
Q 1072 3584 1716 3584 
Q 2034 3584 2315 3537 
Q 2597 3491 2834 3397 
z
" transform="scale(0.015625)"/>
      <path id="DejaVuSans-74" d="M 1172 4494 
L 1172 3500 
L 2356 3500 
L 2356 3053 
L 1172 3053 
L 1172 1153 
Q 1172 725 1289 603 
Q 1406 481 1766 481 
L 2356 481 
L 2356 0 
L 1766 0 
Q 1100 0 847 248 
Q 594 497 594 1153 
L 594 3053 
L 172 3053 
L 172 3500 
L 594 3500 
L 594 4494 
L 1172 4494 
z
" transform="scale(0.015625)"/>
      <path id="DejaVuSans-119" d="M 3597 1894 
L 3597 1613 
L 953 1613 
Q 991 1019 1311 708 
Q 1631 397 2203 397 
Q 2534 397 2845 478 
Q 3156 559 3463 722 
L 3463 178 
Q 3153 47 2828 -22 
Q 2503 -91 2169 -91 
Q 1331 -91 842 396 
Q 353 884 353 1716 
Q 353 2575 817 3079 
Q 1281 3584 2069 3584 
Q 2775 3584 3186 3129 
Q 3597 2675 3597 1894 
z
M 3022 2063 
Q 3016 2534 2758 2815 
Q 2500 3097 2075 3097 
Q 1594 3097 1305 2825 
Q 1016 2553 972 2059 
L 3022 2063 
z
M 2551 0 
L 2923 0 
Q 2782 -191 2715 -328 
Q 2648 -466 2648 -563 
Q 2648 -706 2734 -778 
Q 2820 -850 2989 -850 
Q 3089 -850 3185 -826 
Q 3282 -803 3379 -756 
L 3379 -1172 
Q 3260 -1203 3154 -1218 
Q 3048 -1234 2954 -1234 
Q 2573 -1234 2393 -1098 
Q 2214 -963 2214 -672 
Q 2214 -522 2296 -358 
Q 2379 -194 2551 0 
z
" transform="scale(0.015625)"/>
      <path id="DejaVuSans-70" d="M 1159 525 
L 1159 -1331 
L 581 -1331 
L 581 3500 
L 1159 3500 
L 1159 2969 
Q 1341 3281 1617 3432 
Q 1894 3584 2278 3584 
Q 2916 3584 3314 3078 
Q 3713 2572 3713 1747 
Q 3713 922 3314 415 
Q 2916 -91 2278 -91 
Q 1894 -91 1617 61 
Q 1341 213 1159 525 
z
M 3116 1747 
Q 3116 2381 2855 2742 
Q 2594 3103 2138 3103 
Q 1681 3103 1420 2742 
Q 1159 2381 1159 1747 
Q 1159 1113 1420 752 
Q 1681 391 2138 391 
Q 2594 391 2855 752 
Q 3116 1113 3116 1747 
z
" transform="scale(0.015625)"/>
      <path id="DejaVuSans-20" transform="scale(0.015625)"/>
      <path id="DejaVuSans-142" d="M 622 4863 
L 1197 4863 
L 1197 2981 
L 1588 3263 
L 1825 2931 
L 1197 2491 
L 1197 0 
L 622 0 
L 622 2081 
L 238 1806 
L 6 2138 
L 622 2578 
L 622 4863 
z
" transform="scale(0.015625)"/>
      <path id="DejaVuSans-75" d="M 544 1381 
L 544 3500 
L 1119 3500 
L 1119 1403 
Q 1119 906 1312 657 
Q 1506 409 1894 409 
Q 2359 409 2629 706 
Q 2900 1003 2900 1516 
L 2900 3500 
L 3475 3500 
L 3475 0 
L 2900 0 
L 2900 538 
Q 2691 219 2414 64 
Q 2138 -91 1772 -91 
Q 1169 -91 856 284 
Q 544 659 544 1381 
z
M 1991 3584 
L 1991 3584 
z
" transform="scale(0.015625)"/>
      <path id="DejaVuSans-6d" d="M 3328 2828 
Q 3544 3216 3844 3400 
Q 4144 3584 4550 3584 
Q 5097 3584 5394 3201 
Q 5691 2819 5691 2113 
L 5691 0 
L 5113 0 
L 5113 2094 
Q 5113 2597 4934 2840 
Q 4756 3084 4391 3084 
Q 3944 3084 3684 2787 
Q 3425 2491 3425 1978 
L 3425 0 
L 2847 0 
L 2847 2094 
Q 2847 2600 2669 2842 
Q 2491 3084 2119 3084 
Q 1678 3084 1418 2786 
Q 1159 2488 1159 1978 
L 1159 0 
L 581 0 
L 581 3500 
L 1159 3500 
L 1159 2956 
Q 1356 3278 1631 3431 
Q 1906 3584 2284 3584 
Q 2666 3584 2933 3390 
Q 3200 3197 3328 2828 
z
" transform="scale(0.015625)"/>
      <path id="DejaVuSans-61" d="M 2194 1759 
Q 1497 1759 1228 1600 
Q 959 1441 959 1056 
Q 959 750 1161 570 
Q 1363 391 1709 391 
Q 2188 391 2477 730 
Q 2766 1069 2766 1631 
L 2766 1759 
L 2194 1759 
z
M 3341 1997 
L 3341 0 
L 2766 0 
L 2766 531 
Q 2569 213 2275 61 
Q 1981 -91 1556 -91 
Q 1019 -91 701 211 
Q 384 513 384 1019 
Q 384 1609 779 1909 
Q 1175 2209 1959 2209 
L 2766 2209 
L 2766 2266 
Q 2766 2663 2505 2880 
Q 2244 3097 1772 3097 
Q 1472 3097 1187 3025 
Q 903 2953 641 2809 
L 641 3341 
Q 956 3463 1253 3523 
Q 1550 3584 1831 3584 
Q 2591 3584 2966 3190 
Q 3341 2797 3341 1997 
z
" transform="scale(0.015625)"/>
      <path id="DejaVuSans-63" d="M 3122 3366 
L 3122 2828 
Q 2878 2963 2633 3030 
Q 2388 3097 2138 3097 
Q 1578 3097 1268 2742 
Q 959 2388 959 1747 
Q 959 1106 1268 751 
Q 1578 397 2138 397 
Q 2388 397 2633 464 
Q 2878 531 3122 666 
L 3122 134 
Q 2881 22 2623 -34 
Q 2366 -91 2075 -91 
Q 1284 -91 818 406 
Q 353 903 353 1747 
Q 353 2603 823 3093 
Q 1294 3584 2113 3584 
Q 2378 3584 2631 3529 
Q 2884 3475 3122 3366 
z
" transform="scale(0.015625)"/>
      <path id="DejaVuSans-7a" d="M 353 3500 
L 3084 3500 
L 3084 2975 
L 922 459 
L 3084 459 
L 3084 0 
L 275 0 
L 275 525 
L 2438 3041 
L 353 3041 
L 353 3500 
z
" transform="scale(0.015625)"/>
      <path id="DejaVuSans-65" d="M 3597 1894 
L 3597 1613 
L 953 1613 
Q 991 1019 1311 708 
Q 1631 397 2203 397 
Q 2534 397 2845 478 
Q 3156 559 3463 722 
L 3463 178 
Q 3153 47 2828 -22 
Q 2503 -91 2169 -91 
Q 1331 -91 842 396 
Q 353 884 353 1716 
Q 353 2575 817 3079 
Q 1281 3584 2069 3584 
Q 2775 3584 3186 3129 
Q 3597 2675 3597 1894 
z
M 3022 2063 
Q 3016 2534 2758 2815 
Q 2500 3097 2075 3097 
Q 1594 3097 1305 2825 
Q 1016 2553 972 2059 
L 3022 2063 
z
" transform="scale(0.015625)"/>
      <path id="DejaVuSans-6e" d="M 3513 2113 
L 3513 0 
L 2938 0 
L 2938 2094 
Q 2938 2591 2744 2837 
Q 2550 3084 2163 3084 
Q 1697 3084 1428 2787 
Q 1159 2491 1159 1978 
L 1159 0 
L 581 0 
L 581 3500 
L 1159 3500 
L 1159 2956 
Q 1366 3272 1645 3428 
Q 1925 3584 2291 3584 
Q 2894 3584 3203 3211 
Q 3513 2838 3513 2113 
z
" transform="scale(0.015625)"/>
      <path id="DejaVuSans-69" d="M 603 3500 
L 1178 3500 
L 1178 0 
L 603 0 
L 603 3500 
z
M 603 4863 
L 1178 4863 
L 1178 4134 
L 603 4134 
L 603 4863 
z
" transform="scale(0.015625)"/>
      <path id="DejaVuSans-64" d="M 2906 2969 
L 2906 4863 
L 3481 4863 
L 3481 0 
L 2906 0 
L 2906 525 
Q 2725 213 2448 61 
Q 2172 -91 1784 -91 
Q 1150 -91 751 415 
Q 353 922 353 1747 
Q 353 2572 751 3078 
Q 1150 3584 1784 3584 
Q 2172 3584 2448 3432 
Q 2725 3281 2906 2969 
z
M 947 1747 
Q 947 1113 1208 752 
Q 1469 391 1925 391 
Q 2381 391 2643 752 
Q 2906 1113 2906 1747 
Q 2906 2381 2643 2742 
Q 2381 3103 1925 3103 
Q 1469 3103 1208 2742 
Q 947 2381 947 1747 
z
" transform="scale(0.015625)"/>
      <path id="DejaVuSans-72" d="M 2631 2963 
Q 2534 3019 2420 3045 
Q 2306 3072 2169 3072 
Q 1681 3072 1420 2755 
Q 1159 2438 1159 1844 
L 1159 0 
L 581 0 
L 581 3500 
L 1159 3500 
L 1159 2956 
Q 1341 3275 1631 3429 
Q 1922 3584 2338 3584 
Q 2397 3584 2469 3576 
Q 2541 3569 2628 3553 
L 2631 2963 
z
" transform="scale(0.015625)"/>
      <path id="DejaVuSans-105" d="M 2194 1759 
Q 1497 1759 1228 1600 
Q 959 1441 959 1056 
Q 959 750 1161 570 
Q 1363 391 1709 391 
Q 2188 391 2477 730 
Q 2766 1069 2766 1631 
L 2766 1759 
L 2194 1759 
z
M 3341 1997 
L 3341 0 
L 2766 0 
L 2766 531 
Q 2569 213 2275 61 
Q 1981 -91 1556 -91 
Q 1019 -91 701 211 
Q 384 513 384 1019 
Q 384 1609 779 1909 
Q 1175 2209 1959 2209 
L 2766 2209 
L 2766 2266 
Q 2766 2663 2505 2880 
Q 2244 3097 1772 3097 
Q 1472 3097 1187 3025 
Q 903 2953 641 2809 
L 641 3341 
Q 956 3463 1253 3523 
Q 1550 3584 1831 3584 
Q 2591 3584 2966 3190 
Q 3341 2797 3341 1997 
z
M 2775 0 
L 3147 0 
Q 3006 -191 2939 -328 
Q 2872 -466 2872 -563 
Q 2872 -706 2958 -778 
Q 3044 -850 3213 -850 
Q 3313 -850 3409 -826 
Q 3506 -803 3603 -756 
L 3603 -1172 
Q 3484 -1203 3378 -1218 
Q 3272 -1234 3178 -1234 
Q 2797 -1234 2617 -1098 
Q 2438 -963 2438 -672 
Q 2438 -522 2520 -358 
Q 2603 -194 2775 0 
z
" transform="scale(0.015625)"/>
      <path id="DejaVuSans-6b" d="M 581 4863 
L 1159 4863 
L 1159 1991 
L 2875 3500 
L 3609 3500 
L 1753 1863 
L 3688 0 
L 2938 0 
L 1159 1709 
L 1159 0 
L 581 0 
L 581 4863 
z
" transform="scale(0.015625)"/>
      <path id="DejaVuSans-6a" d="M 603 3500 
L 1178 3500 
L 1178 -63 
Q 1178 -731 923 -1031 
Q 669 -1331 103 -1331 
L -116 -1331 
L -116 -844 
L 38 -844 
Q 366 -844 484 -692 
Q 603 -541 603 -63 
L 603 3500 
z
M 603 4863 
L 1178 4863 
L 1178 4134 
L 603 4134 
L 603 4863 
z
" transform="scale(0.015625)"/>
      <path id="DejaVuSans-79" d="M 2059 -325 
Q 1816 -950 1584 -1140 
Q 1353 -1331 966 -1331 
L 506 -1331 
L 506 -850 
L 844 -850 
Q 1081 -850 1212 -737 
Q 1344 -625 1503 -206 
L 1606 56 
L 191 3500 
L 800 3500 
L 1894 763 
L 2988 3500 
L 3597 3500 
L 2059 -325 
z
" transform="scale(0.015625)"/>
      <path id="DejaVuSans-f3" d="M 1959 3097 
Q 1497 3097 1228 2736 
Q 959 2375 959 1747 
Q 959 1119 1226 758 
Q 1494 397 1959 397 
Q 2419 397 2687 759 
Q 2956 1122 2956 1747 
Q 2956 2369 2687 2733 
Q 2419 3097 1959 3097 
z
M 1959 3584 
Q 2709 3584 3137 3096 
Q 3566 2609 3566 1747 
Q 3566 888 3137 398 
Q 2709 -91 1959 -91 
Q 1206 -91 779 398 
Q 353 888 353 1747 
Q 353 2609 779 3096 
Q 1206 3584 1959 3584 
z
M 2394 5119 
L 3016 5119 
L 1998 3944 
L 1519 3944 
L 2394 5119 
z
" transform="scale(0.015625)"/>
      <path id="DejaVuSans-77" d="M 269 3500 
L 844 3500 
L 1563 769 
L 2278 3500 
L 2956 3500 
L 3675 769 
L 4391 3500 
L 4966 3500 
L 4050 0 
L 3372 0 
L 2619 2869 
L 1863 0 
L 1184 0 
L 269 3500 
z
" transform="scale(0.015625)"/>
     </defs>
     <use xlink:href="#DejaVuSans-50"/>
     <use xlink:href="#DejaVuSans-6f" x="56.677734"/>
     <use xlink:href="#DejaVuSans-73" x="117.859375"/>
     <use xlink:href="#DejaVuSans-74" x="169.958984"/>
     <use xlink:href="#DejaVuSans-119" x="209.167969"/>
     <use xlink:href="#DejaVuSans-70" x="270.691406"/>
     <use xlink:href="#DejaVuSans-20" x="334.167969"/>
     <use xlink:href="#DejaVuSans-74" x="365.955078"/>
     <use xlink:href="#DejaVuSans-142" x="405.164062"/>
     <use xlink:href="#DejaVuSans-75" x="433.582031"/>
     <use xlink:href="#DejaVuSans-6d" x="496.960938"/>
     <use xlink:href="#DejaVuSans-61" x="594.373047"/>
     <use xlink:href="#DejaVuSans-63" x="655.652344"/>
     <use xlink:href="#DejaVuSans-7a" x="710.632812"/>
     <use xlink:href="#DejaVuSans-65" x="763.123047"/>
     <use xlink:href="#DejaVuSans-6e" x="824.646484"/>
     <use xlink:href="#DejaVuSans-69" x="888.025391"/>
     <use xlink:href="#DejaVuSans-61" x="915.808594"/>
     <use xlink:href="#DejaVuSans-20" x="977.087891"/>
     <use xlink:href="#DejaVuSans-64" x="1008.875"/>
     <use xlink:href="#DejaVuSans-6f" x="1072.351562"/>
     <use xlink:href="#DejaVuSans-20" x="1133.533203"/>
     <use xlink:href="#DejaVuSans-64" x="1165.320312"/>
     <use xlink:href="#DejaVuSans-6f" x="1228.796875"/>
     <use xlink:href="#DejaVuSans-64" x="1289.978516"/>
     <use xlink:href="#DejaVuSans-61" x="1353.455078"/>
     <use xlink:href="#DejaVuSans-6e" x="1414.734375"/>
     <use xlink:href="#DejaVuSans-69" x="1478.113281"/>
     <use xlink:href="#DejaVuSans-61" x="1505.896484"/>
     <use xlink:href="#DejaVuSans-20" x="1567.175781"/>
     <use xlink:href="#DejaVuSans-64" x="1598.962891"/>
     <use xlink:href="#DejaVuSans-6f" x="1662.439453"/>
     <use xlink:href="#DejaVuSans-20" x="1723.621094"/>
     <use xlink:href="#DejaVuSans-70" x="1755.408203"/>
     <use xlink:href="#DejaVuSans-72" x="1818.884766"/>
     <use xlink:href="#DejaVuSans-7a" x="1859.998047"/>
     <use xlink:href="#DejaVuSans-65" x="1912.488281"/>
     <use xlink:href="#DejaVuSans-142" x="1974.011719"/>
     <use xlink:href="#DejaVuSans-105" x="2002.429688"/>
     <use xlink:href="#DejaVuSans-63" x="2063.708984"/>
     <use xlink:href="#DejaVuSans-7a" x="2118.689453"/>
     <use xlink:href="#DejaVuSans-6e" x="2171.179688"/>
     <use xlink:href="#DejaVuSans-69" x="2234.558594"/>
     <use xlink:href="#DejaVuSans-6b" x="2262.341797"/>
     <use xlink:href="#DejaVuSans-61" x="2318.501953"/>
     <use xlink:href="#DejaVuSans-20" x="2379.78125"/>
     <use xlink:href="#DejaVuSans-6a" x="2411.568359"/>
     <use xlink:href="#DejaVuSans-119" x="2439.351562"/>
     <use xlink:href="#DejaVuSans-7a" x="2500.875"/>
     <use xlink:href="#DejaVuSans-79" x="2553.365234"/>
     <use xlink:href="#DejaVuSans-6b" x="2612.544922"/>
     <use xlink:href="#DejaVuSans-f3" x="2666.830078"/>
     <use xlink:href="#DejaVuSans-77" x="2728.011719"/>
    </g>
   </g>
  </g>
 </g>
 <defs>
  <clipPath id="p1bfe30b388">
   <rect x="57.6" y="41.472" width="357.12" height="235.008"/>
  </clipPath>
 </defs>
</svg>
