<?xml version="1.0" encoding="utf-8" standalone="no"?>
<!DOCTYPE svg PUBLIC "-//W3C//DTD SVG 1.1//EN"
  "http://www.w3.org/Graphics/SVG/1.1/DTD/svg11.dtd">
<svg xmlns:xlink="http://www.w3.org/1999/xlink" width="460.8pt" height="345.6pt" viewBox="0 0 460.8 345.6" xmlns="http://www.w3.org/2000/svg" version="1.1">
 <metadata>
  <rdf:RDF xmlns:dc="http://purl.org/dc/elements/1.1/" xmlns:cc="http://creativecommons.org/ns#" xmlns:rdf="http://www.w3.org/1999/02/22-rdf-syntax-ns#">
   <cc:Work>
    <dc:type rdf:resource="http://purl.org/dc/dcmitype/StillImage"/>
    <dc:date>2024-12-12T18:12:14.076784</dc:date>
    <dc:format>image/svg+xml</dc:format>
    <dc:creator>
     <cc:Agent>
      <dc:title>Matplotlib v3.9.3, https://matplotlib.org/</dc:title>
     </cc:Agent>
    </dc:creator>
   </cc:Work>
  </rdf:RDF>
 </metadata>
 <defs>
  <style type="text/css">*{stroke-linejoin: round; stroke-linecap: butt}</style>
 </defs>
 <g id="figure_1">
  <g id="patch_1">
   <path d="M 0 345.6 
L 460.8 345.6 
L 460.8 0 
L 0 0 
z
" style="fill: #ffffff"/>
  </g>
  <g id="axes_1">
   <g id="patch_2">
    <path d="M 57.6 276.48 
L 414.72 276.48 
L 414.72 41.472 
L 57.6 41.472 
z
" style="fill: #ffffff"/>
   </g>
   <g id="matplotlib.axis_1">
    <g id="xtick_1">
     <g id="line2d_1">
      <path d="M 77.563786 276.48 
L 77.563786 41.472 
" clip-path="url(#p26f4875baf)" style="fill: none; stroke: #b0b0b0; stroke-width: 0.8; stroke-linecap: square"/>
     </g>
     <g id="line2d_2">
      <defs>
       <path id="meea3a4d988" d="M 0 0 
L 0 3.5 
" style="stroke: #000000; stroke-width: 0.8"/>
      </defs>
      <g>
       <use xlink:href="#meea3a4d988" x="77.563786" y="276.48" style="stroke: #000000; stroke-width: 0.8"/>
      </g>
     </g>
     <g id="text_1">
      <!-- 2020 -->
      <g transform="translate(54.483596 302.78544) rotate(-30) scale(0.1 -0.1)">
       <defs>
        <path id="DejaVuSans-32" d="M 1228 531 
L 3431 531 
L 3431 0 
L 469 0 
L 469 531 
Q 828 903 1448 1529 
Q 2069 2156 2228 2338 
Q 2531 2678 2651 2914 
Q 2772 3150 2772 3378 
Q 2772 3750 2511 3984 
Q 2250 4219 1831 4219 
Q 1534 4219 1204 4116 
Q 875 4013 500 3803 
L 500 4441 
Q 881 4594 1212 4672 
Q 1544 4750 1819 4750 
Q 2544 4750 2975 4387 
Q 3406 4025 3406 3419 
Q 3406 3131 3298 2873 
Q 3191 2616 2906 2266 
Q 2828 2175 2409 1742 
Q 1991 1309 1228 531 
z
" transform="scale(0.015625)"/>
        <path id="DejaVuSans-30" d="M 2034 4250 
Q 1547 4250 1301 3770 
Q 1056 3291 1056 2328 
Q 1056 1369 1301 889 
Q 1547 409 2034 409 
Q 2525 409 2770 889 
Q 3016 1369 3016 2328 
Q 3016 3291 2770 3770 
Q 2525 4250 2034 4250 
z
M 2034 4750 
Q 2819 4750 3233 4129 
Q 3647 3509 3647 2328 
Q 3647 1150 3233 529 
Q 2819 -91 2034 -91 
Q 1250 -91 836 529 
Q 422 1150 422 2328 
Q 422 3509 836 4129 
Q 1250 4750 2034 4750 
z
" transform="scale(0.015625)"/>
       </defs>
       <use xlink:href="#DejaVuSans-32"/>
       <use xlink:href="#DejaVuSans-30" x="63.623047"/>
       <use xlink:href="#DejaVuSans-32" x="127.246094"/>
       <use xlink:href="#DejaVuSans-30" x="190.869141"/>
      </g>
     </g>
    </g>
    <g id="xtick_2">
     <g id="line2d_3">
      <path d="M 142.538176 276.48 
L 142.538176 41.472 
" clip-path="url(#p26f4875baf)" style="fill: none; stroke: #b0b0b0; stroke-width: 0.8; stroke-linecap: square"/>
     </g>
     <g id="line2d_4">
      <g>
       <use xlink:href="#meea3a4d988" x="142.538176" y="276.48" style="stroke: #000000; stroke-width: 0.8"/>
      </g>
     </g>
     <g id="text_2">
      <!-- 2021 -->
      <g transform="translate(119.457985 302.78544) rotate(-30) scale(0.1 -0.1)">
       <defs>
        <path id="DejaVuSans-31" d="M 794 531 
L 1825 531 
L 1825 4091 
L 703 3866 
L 703 4441 
L 1819 4666 
L 2450 4666 
L 2450 531 
L 3481 531 
L 3481 0 
L 794 0 
L 794 531 
z
" transform="scale(0.015625)"/>
       </defs>
       <use xlink:href="#DejaVuSans-32"/>
       <use xlink:href="#DejaVuSans-30" x="63.623047"/>
       <use xlink:href="#DejaVuSans-32" x="127.246094"/>
       <use xlink:href="#DejaVuSans-31" x="190.869141"/>
      </g>
     </g>
    </g>
    <g id="xtick_3">
     <g id="line2d_5">
      <path d="M 207.335039 276.48 
L 207.335039 41.472 
" clip-path="url(#p26f4875baf)" style="fill: none; stroke: #b0b0b0; stroke-width: 0.8; stroke-linecap: square"/>
     </g>
     <g id="line2d_6">
      <g>
       <use xlink:href="#meea3a4d988" x="207.335039" y="276.48" style="stroke: #000000; stroke-width: 0.8"/>
      </g>
     </g>
     <g id="text_3">
      <!-- 2022 -->
      <g transform="translate(184.254849 302.78544) rotate(-30) scale(0.1 -0.1)">
       <use xlink:href="#DejaVuSans-32"/>
       <use xlink:href="#DejaVuSans-30" x="63.623047"/>
       <use xlink:href="#DejaVuSans-32" x="127.246094"/>
       <use xlink:href="#DejaVuSans-32" x="190.869141"/>
      </g>
     </g>
    </g>
    <g id="xtick_4">
     <g id="line2d_7">
      <path d="M 272.131903 276.48 
L 272.131903 41.472 
" clip-path="url(#p26f4875baf)" style="fill: none; stroke: #b0b0b0; stroke-width: 0.8; stroke-linecap: square"/>
     </g>
     <g id="line2d_8">
      <g>
       <use xlink:href="#meea3a4d988" x="272.131903" y="276.48" style="stroke: #000000; stroke-width: 0.8"/>
      </g>
     </g>
     <g id="text_4">
      <!-- 2023 -->
      <g transform="translate(249.051713 302.78544) rotate(-30) scale(0.1 -0.1)">
       <defs>
        <path id="DejaVuSans-33" d="M 2597 2516 
Q 3050 2419 3304 2112 
Q 3559 1806 3559 1356 
Q 3559 666 3084 287 
Q 2609 -91 1734 -91 
Q 1441 -91 1130 -33 
Q 819 25 488 141 
L 488 750 
Q 750 597 1062 519 
Q 1375 441 1716 441 
Q 2309 441 2620 675 
Q 2931 909 2931 1356 
Q 2931 1769 2642 2001 
Q 2353 2234 1838 2234 
L 1294 2234 
L 1294 2753 
L 1863 2753 
Q 2328 2753 2575 2939 
Q 2822 3125 2822 3475 
Q 2822 3834 2567 4026 
Q 2313 4219 1838 4219 
Q 1578 4219 1281 4162 
Q 984 4106 628 3988 
L 628 4550 
Q 988 4650 1302 4700 
Q 1616 4750 1894 4750 
Q 2613 4750 3031 4423 
Q 3450 4097 3450 3541 
Q 3450 3153 3228 2886 
Q 3006 2619 2597 2516 
z
" transform="scale(0.015625)"/>
       </defs>
       <use xlink:href="#DejaVuSans-32"/>
       <use xlink:href="#DejaVuSans-30" x="63.623047"/>
       <use xlink:href="#DejaVuSans-32" x="127.246094"/>
       <use xlink:href="#DejaVuSans-33" x="190.869141"/>
      </g>
     </g>
    </g>
    <g id="xtick_5">
     <g id="line2d_9">
      <path d="M 336.928767 276.48 
L 336.928767 41.472 
" clip-path="url(#p26f4875baf)" style="fill: none; stroke: #b0b0b0; stroke-width: 0.8; stroke-linecap: square"/>
     </g>
     <g id="line2d_10">
      <g>
       <use xlink:href="#meea3a4d988" x="336.928767" y="276.48" style="stroke: #000000; stroke-width: 0.8"/>
      </g>
     </g>
     <g id="text_5">
      <!-- 2024 -->
      <g transform="translate(313.848576 302.78544) rotate(-30) scale(0.1 -0.1)">
       <defs>
        <path id="DejaVuSans-34" d="M 2419 4116 
L 825 1625 
L 2419 1625 
L 2419 4116 
z
M 2253 4666 
L 3047 4666 
L 3047 1625 
L 3713 1625 
L 3713 1100 
L 3047 1100 
L 3047 0 
L 2419 0 
L 2419 1100 
L 313 1100 
L 313 1709 
L 2253 4666 
z
" transform="scale(0.015625)"/>
       </defs>
       <use xlink:href="#DejaVuSans-32"/>
       <use xlink:href="#DejaVuSans-30" x="63.623047"/>
       <use xlink:href="#DejaVuSans-32" x="127.246094"/>
       <use xlink:href="#DejaVuSans-34" x="190.869141"/>
      </g>
     </g>
    </g>
    <g id="xtick_6">
     <g id="line2d_11">
      <path d="M 401.903156 276.48 
L 401.903156 41.472 
" clip-path="url(#p26f4875baf)" style="fill: none; stroke: #b0b0b0; stroke-width: 0.8; stroke-linecap: square"/>
     </g>
     <g id="line2d_12">
      <g>
       <use xlink:href="#meea3a4d988" x="401.903156" y="276.48" style="stroke: #000000; stroke-width: 0.8"/>
      </g>
     </g>
     <g id="text_6">
      <!-- 2025 -->
      <g transform="translate(378.822966 302.78544) rotate(-30) scale(0.1 -0.1)">
       <defs>
        <path id="DejaVuSans-35" d="M 691 4666 
L 3169 4666 
L 3169 4134 
L 1269 4134 
L 1269 2991 
Q 1406 3038 1543 3061 
Q 1681 3084 1819 3084 
Q 2600 3084 3056 2656 
Q 3513 2228 3513 1497 
Q 3513 744 3044 326 
Q 2575 -91 1722 -91 
Q 1428 -91 1123 -41 
Q 819 9 494 109 
L 494 744 
Q 775 591 1075 516 
Q 1375 441 1709 441 
Q 2250 441 2565 725 
Q 2881 1009 2881 1497 
Q 2881 1984 2565 2268 
Q 2250 2553 1709 2553 
Q 1456 2553 1204 2497 
Q 953 2441 691 2322 
L 691 4666 
z
" transform="scale(0.015625)"/>
       </defs>
       <use xlink:href="#DejaVuSans-32"/>
       <use xlink:href="#DejaVuSans-30" x="63.623047"/>
       <use xlink:href="#DejaVuSans-32" x="127.246094"/>
       <use xlink:href="#DejaVuSans-35" x="190.869141"/>
      </g>
     </g>
    </g>
   </g>
   <g id="matplotlib.axis_2">
    <g id="ytick_1">
     <g id="line2d_13">
      <path d="M 57.6 276.48 
L 414.72 276.48 
" clip-path="url(#p26f4875baf)" style="fill: none; stroke: #b0b0b0; stroke-width: 0.8; stroke-linecap: square"/>
     </g>
     <g id="line2d_14">
      <defs>
       <path id="mf24dbc8524" d="M 0 0 
L -3.5 0 
" style="stroke: #000000; stroke-width: 0.8"/>
      </defs>
      <g>
       <use xlink:href="#mf24dbc8524" x="57.6" y="276.48" style="stroke: #000000; stroke-width: 0.8"/>
      </g>
     </g>
     <g id="text_7">
      <!-- 0% -->
      <g transform="translate(34.735937 280.279219) scale(0.1 -0.1)">
       <defs>
        <path id="DejaVuSans-25" d="M 4653 2053 
Q 4381 2053 4226 1822 
Q 4072 1591 4072 1178 
Q 4072 772 4226 539 
Q 4381 306 4653 306 
Q 4919 306 5073 539 
Q 5228 772 5228 1178 
Q 5228 1588 5073 1820 
Q 4919 2053 4653 2053 
z
M 4653 2450 
Q 5147 2450 5437 2106 
Q 5728 1763 5728 1178 
Q 5728 594 5436 251 
Q 5144 -91 4653 -91 
Q 4153 -91 3862 251 
Q 3572 594 3572 1178 
Q 3572 1766 3864 2108 
Q 4156 2450 4653 2450 
z
M 1428 4353 
Q 1159 4353 1004 4120 
Q 850 3888 850 3481 
Q 850 3069 1003 2837 
Q 1156 2606 1428 2606 
Q 1700 2606 1854 2837 
Q 2009 3069 2009 3481 
Q 2009 3884 1853 4118 
Q 1697 4353 1428 4353 
z
M 4250 4750 
L 4750 4750 
L 1831 -91 
L 1331 -91 
L 4250 4750 
z
M 1428 4750 
Q 1922 4750 2215 4408 
Q 2509 4066 2509 3481 
Q 2509 2891 2217 2550 
Q 1925 2209 1428 2209 
Q 931 2209 642 2551 
Q 353 2894 353 3481 
Q 353 4063 643 4406 
Q 934 4750 1428 4750 
z
" transform="scale(0.015625)"/>
       </defs>
       <use xlink:href="#DejaVuSans-30"/>
       <use xlink:href="#DejaVuSans-25" x="63.623047"/>
      </g>
     </g>
    </g>
    <g id="ytick_2">
     <g id="line2d_15">
      <path d="M 57.6 250.280085 
L 414.72 250.280085 
" clip-path="url(#p26f4875baf)" style="fill: none; stroke: #b0b0b0; stroke-width: 0.8; stroke-linecap: square"/>
     </g>
     <g id="line2d_16">
      <g>
       <use xlink:href="#mf24dbc8524" x="57.6" y="250.280085" style="stroke: #000000; stroke-width: 0.8"/>
      </g>
     </g>
     <g id="text_8">
      <!-- 10% -->
      <g transform="translate(28.373438 254.079303) scale(0.1 -0.1)">
       <use xlink:href="#DejaVuSans-31"/>
       <use xlink:href="#DejaVuSans-30" x="63.623047"/>
       <use xlink:href="#DejaVuSans-25" x="127.246094"/>
      </g>
     </g>
    </g>
    <g id="ytick_3">
     <g id="line2d_17">
      <path d="M 57.6 224.080169 
L 414.72 224.080169 
" clip-path="url(#p26f4875baf)" style="fill: none; stroke: #b0b0b0; stroke-width: 0.8; stroke-linecap: square"/>
     </g>
     <g id="line2d_18">
      <g>
       <use xlink:href="#mf24dbc8524" x="57.6" y="224.080169" style="stroke: #000000; stroke-width: 0.8"/>
      </g>
     </g>
     <g id="text_9">
      <!-- 20% -->
      <g transform="translate(28.373438 227.879388) scale(0.1 -0.1)">
       <use xlink:href="#DejaVuSans-32"/>
       <use xlink:href="#DejaVuSans-30" x="63.623047"/>
       <use xlink:href="#DejaVuSans-25" x="127.246094"/>
      </g>
     </g>
    </g>
    <g id="ytick_4">
     <g id="line2d_19">
      <path d="M 57.6 197.880254 
L 414.72 197.880254 
" clip-path="url(#p26f4875baf)" style="fill: none; stroke: #b0b0b0; stroke-width: 0.8; stroke-linecap: square"/>
     </g>
     <g id="line2d_20">
      <g>
       <use xlink:href="#mf24dbc8524" x="57.6" y="197.880254" style="stroke: #000000; stroke-width: 0.8"/>
      </g>
     </g>
     <g id="text_10">
      <!-- 30% -->
      <g transform="translate(28.373438 201.679473) scale(0.1 -0.1)">
       <use xlink:href="#DejaVuSans-33"/>
       <use xlink:href="#DejaVuSans-30" x="63.623047"/>
       <use xlink:href="#DejaVuSans-25" x="127.246094"/>
      </g>
     </g>
    </g>
    <g id="ytick_5">
     <g id="line2d_21">
      <path d="M 57.6 171.680339 
L 414.72 171.680339 
" clip-path="url(#p26f4875baf)" style="fill: none; stroke: #b0b0b0; stroke-width: 0.8; stroke-linecap: square"/>
     </g>
     <g id="line2d_22">
      <g>
       <use xlink:href="#mf24dbc8524" x="57.6" y="171.680339" style="stroke: #000000; stroke-width: 0.8"/>
      </g>
     </g>
     <g id="text_11">
      <!-- 40% -->
      <g transform="translate(28.373438 175.479558) scale(0.1 -0.1)">
       <use xlink:href="#DejaVuSans-34"/>
       <use xlink:href="#DejaVuSans-30" x="63.623047"/>
       <use xlink:href="#DejaVuSans-25" x="127.246094"/>
      </g>
     </g>
    </g>
    <g id="ytick_6">
     <g id="line2d_23">
      <path d="M 57.6 145.480424 
L 414.72 145.480424 
" clip-path="url(#p26f4875baf)" style="fill: none; stroke: #b0b0b0; stroke-width: 0.8; stroke-linecap: square"/>
     </g>
     <g id="line2d_24">
      <g>
       <use xlink:href="#mf24dbc8524" x="57.6" y="145.480424" style="stroke: #000000; stroke-width: 0.8"/>
      </g>
     </g>
     <g id="text_12">
      <!-- 50% -->
      <g transform="translate(28.373438 149.279642) scale(0.1 -0.1)">
       <use xlink:href="#DejaVuSans-35"/>
       <use xlink:href="#DejaVuSans-30" x="63.623047"/>
       <use xlink:href="#DejaVuSans-25" x="127.246094"/>
      </g>
     </g>
    </g>
    <g id="ytick_7">
     <g id="line2d_25">
      <path d="M 57.6 119.280508 
L 414.72 119.280508 
" clip-path="url(#p26f4875baf)" style="fill: none; stroke: #b0b0b0; stroke-width: 0.8; stroke-linecap: square"/>
     </g>
     <g id="line2d_26">
      <g>
       <use xlink:href="#mf24dbc8524" x="57.6" y="119.280508" style="stroke: #000000; stroke-width: 0.8"/>
      </g>
     </g>
     <g id="text_13">
      <!-- 60% -->
      <g transform="translate(28.373438 123.079727) scale(0.1 -0.1)">
       <defs>
        <path id="DejaVuSans-36" d="M 2113 2584 
Q 1688 2584 1439 2293 
Q 1191 2003 1191 1497 
Q 1191 994 1439 701 
Q 1688 409 2113 409 
Q 2538 409 2786 701 
Q 3034 994 3034 1497 
Q 3034 2003 2786 2293 
Q 2538 2584 2113 2584 
z
M 3366 4563 
L 3366 3988 
Q 3128 4100 2886 4159 
Q 2644 4219 2406 4219 
Q 1781 4219 1451 3797 
Q 1122 3375 1075 2522 
Q 1259 2794 1537 2939 
Q 1816 3084 2150 3084 
Q 2853 3084 3261 2657 
Q 3669 2231 3669 1497 
Q 3669 778 3244 343 
Q 2819 -91 2113 -91 
Q 1303 -91 875 529 
Q 447 1150 447 2328 
Q 447 3434 972 4092 
Q 1497 4750 2381 4750 
Q 2619 4750 2861 4703 
Q 3103 4656 3366 4563 
z
" transform="scale(0.015625)"/>
       </defs>
       <use xlink:href="#DejaVuSans-36"/>
       <use xlink:href="#DejaVuSans-30" x="63.623047"/>
       <use xlink:href="#DejaVuSans-25" x="127.246094"/>
      </g>
     </g>
    </g>
    <g id="ytick_8">
     <g id="line2d_27">
      <path d="M 57.6 93.080593 
L 414.72 93.080593 
" clip-path="url(#p26f4875baf)" style="fill: none; stroke: #b0b0b0; stroke-width: 0.8; stroke-linecap: square"/>
     </g>
     <g id="line2d_28">
      <g>
       <use xlink:href="#mf24dbc8524" x="57.6" y="93.080593" style="stroke: #000000; stroke-width: 0.8"/>
      </g>
     </g>
     <g id="text_14">
      <!-- 70% -->
      <g transform="translate(28.373438 96.879812) scale(0.1 -0.1)">
       <defs>
        <path id="DejaVuSans-37" d="M 525 4666 
L 3525 4666 
L 3525 4397 
L 1831 0 
L 1172 0 
L 2766 4134 
L 525 4134 
L 525 4666 
z
" transform="scale(0.015625)"/>
       </defs>
       <use xlink:href="#DejaVuSans-37"/>
       <use xlink:href="#DejaVuSans-30" x="63.623047"/>
       <use xlink:href="#DejaVuSans-25" x="127.246094"/>
      </g>
     </g>
    </g>
    <g id="ytick_9">
     <g id="line2d_29">
      <path d="M 57.6 66.880678 
L 414.72 66.880678 
" clip-path="url(#p26f4875baf)" style="fill: none; stroke: #b0b0b0; stroke-width: 0.8; stroke-linecap: square"/>
     </g>
     <g id="line2d_30">
      <g>
       <use xlink:href="#mf24dbc8524" x="57.6" y="66.880678" style="stroke: #000000; stroke-width: 0.8"/>
      </g>
     </g>
     <g id="text_15">
      <!-- 80% -->
      <g transform="translate(28.373438 70.679897) scale(0.1 -0.1)">
       <defs>
        <path id="DejaVuSans-38" d="M 2034 2216 
Q 1584 2216 1326 1975 
Q 1069 1734 1069 1313 
Q 1069 891 1326 650 
Q 1584 409 2034 409 
Q 2484 409 2743 651 
Q 3003 894 3003 1313 
Q 3003 1734 2745 1975 
Q 2488 2216 2034 2216 
z
M 1403 2484 
Q 997 2584 770 2862 
Q 544 3141 544 3541 
Q 544 4100 942 4425 
Q 1341 4750 2034 4750 
Q 2731 4750 3128 4425 
Q 3525 4100 3525 3541 
Q 3525 3141 3298 2862 
Q 3072 2584 2669 2484 
Q 3125 2378 3379 2068 
Q 3634 1759 3634 1313 
Q 3634 634 3220 271 
Q 2806 -91 2034 -91 
Q 1263 -91 848 271 
Q 434 634 434 1313 
Q 434 1759 690 2068 
Q 947 2378 1403 2484 
z
M 1172 3481 
Q 1172 3119 1398 2916 
Q 1625 2713 2034 2713 
Q 2441 2713 2670 2916 
Q 2900 3119 2900 3481 
Q 2900 3844 2670 4047 
Q 2441 4250 2034 4250 
Q 1625 4250 1398 4047 
Q 1172 3844 1172 3481 
z
" transform="scale(0.015625)"/>
       </defs>
       <use xlink:href="#DejaVuSans-38"/>
       <use xlink:href="#DejaVuSans-30" x="63.623047"/>
       <use xlink:href="#DejaVuSans-25" x="127.246094"/>
      </g>
     </g>
    </g>
   </g>
   <g id="line2d_31">
    <path d="M 398.487273 51.501328 
L 398.335279 52.287325 
L 398.303751 53.78072 
L 398.305905 53.78072 
L 398.13211 54.802517 
L 398.025581 59.597101 
L 397.396238 60.1473 
L 397.306797 58.915904 
L 397.299505 59.125503 
L 396.71838 59.859101 
L 396.7145 60.907097 
L 396.197648 60.907097 
L 396.15348 64.758485 
L 395.997925 64.339286 
L 395.890705 68.085874 
L 395.835054 68.085874 
L 395.752975 75.762449 
L 395.582489 75.762449 
L 395.672419 75.762449 
L 395.591511 92.451795 
L 395.479924 92.661394 
L 395.473323 97.01058 
L 395.317275 99.342373 
L 395.30621 100.15457 
L 392.136467 100.20697 
L 391.254586 100.809568 
L 391.18254 101.071567 
L 390.893864 100.678569 
L 390.890311 100.757168 
L 390.161541 101.412166 
L 389.976576 100.914368 
L 389.632848 100.914368 
L 388.937531 101.883765 
L 388.926181 107.804945 
L 388.697222 109.141141 
L 388.298052 108.643343 
L 388.142193 108.643343 
L 388.050402 111.079935 
L 387.668761 111.263334 
L 387.454542 111.525333 
L 387.140028 110.791736 
L 386.825376 116.110319 
L 386.726153 116.503317 
L 386.211992 117.446514 
L 386.10995 117.263115 
L 386.008265 120.721504 
L 385.823538 120.721504 
L 385.446283 121.088303 
L 385.187221 121.088303 
L 385.183356 124.572891 
L 384.96923 125.751887 
L 384.333272 119.699707 
L 383.164374 119.699707 
L 382.483676 120.014106 
L 382.180354 120.014106 
L 381.799524 120.249905 
L 381.659088 121.428901 
L 381.653713 123.891693 
L 381.374096 123.891693 
L 381.241255 124.468092 
L 380.934025 124.468092 
L 380.852762 127.533482 
L 380.530867 130.205873 
L 380.483024 136.100854 
L 380.345797 137.646649 
L 380.223906 142.912832 
L 380.149916 144.039428 
L 380.064807 111.970732 
L 379.998411 112.782929 
L 379.506612 112.70433 
L 379.476965 113.542727 
L 378.564454 113.542727 
L 378.400627 114.066725 
L 378.393216 116.346118 
L 378.11329 118.520711 
L 378.111805 120.485704 
L 376.288731 120.511904 
L 376.270317 120.800103 
L 375.51595 120.511904 
L 375.24938 120.564304 
L 375.027599 120.800103 
L 374.09541 120.642904 
L 372.542141 120.642904 
L 371.170182 118.80891 
L 371.103811 121.481301 
L 370.985155 121.7171 
L 370.541554 122.083899 
L 370.112445 122.083899 
L 370.056755 129.760474 
L 369.596121 129.760474 
L 369.383738 130.336873 
L 368.814154 132.066067 
L 366.192007 132.066067 
L 365.086218 132.354266 
L 364.420453 132.197067 
L 364.398166 133.245063 
L 363.854574 133.533262 
L 363.843435 133.900061 
L 363.599235 133.349863 
L 362.6007 133.349863 
L 362.427175 131.961267 
L 360.300227 131.961267 
L 360.195916 134.502659 
L 360.115606 132.406666 
L 359.883785 132.066067 
L 356.38737 132.039867 
L 355.691952 131.935067 
L 355.564198 133.769062 
L 351.124517 133.769062 
L 350.173989 134.31926 
L 349.778392 133.769062 
L 348.931266 134.057261 
L 348.296866 133.900061 
L 342.721692 133.873861 
L 341.475156 133.507062 
L 340.232453 133.480862 
L 340.055057 132.904464 
L 335.261797 132.904464 
L 334.969703 132.432866 
L 332.998332 132.432866 
L 332.953934 133.402263 
L 332.776376 133.926261 
L 331.533709 132.878264 
L 330.291087 132.878264 
L 329.048366 132.590065 
L 326.812254 132.590065 
L 326.563268 133.349863 
L 325.377536 133.349863 
L 325.376764 133.192663 
L 322.835075 133.192663 
L 322.528216 132.904464 
L 320.75281 132.904464 
L 320.349607 134.633659 
L 319.865167 133.192663 
L 319.698696 133.480862 
L 319.106979 133.873861 
L 318.792803 133.873861 
L 317.86442 134.712258 
L 317.561077 134.712258 
L 317.206096 136.598652 
L 317.024769 136.782052 
L 316.621611 137.41085 
L 316.329711 137.41085 
L 316.081617 137.908648 
L 315.256998 137.908648 
L 314.713237 140.633439 
L 314.491262 141.157438 
L 314.291682 142.598433 
L 314.136271 148.231415 
L 314.095935 142.598433 
L 313.485306 142.598433 
L 313.296702 152.9212 
L 312.893552 153.183199 
L 312.690382 152.9212 
L 310.839114 152.9212 
L 310.408164 153.445198 
L 309.165478 152.6854 
L 307.708496 150.589407 
L 307.648906 150.589407 
L 307.643036 150.746607 
L 305.437522 150.746607 
L 304.194762 150.484607 
L 301.306564 150.484607 
L 301.302676 150.825206 
L 300.174634 150.825206 
L 299.944595 151.873203 
L 298.129037 151.873203 
L 297.935557 152.344801 
L 297.981089 152.344801 
L 297.847295 146.423621 
L 297.400582 146.423621 
L 296.716145 147.000019 
L 296.470179 147.471617 
L 296.183642 147.366818 
L 295.813733 147.366818 
L 295.810139 148.257615 
L 295.495767 148.650613 
L 294.826846 148.650613 
L 294.434348 148.336214 
L 293.010317 148.729213 
L 290.929462 148.729213 
L 291.505208 148.729213 
L 290.030079 149.069812 
L 288.272704 149.096012 
L 288.039728 149.305611 
L 286.52303 149.305611 
L 285.798401 149.541411 
L 285.765175 150.248808 
L 285.763334 149.80341 
L 283.21687 149.80341 
L 283.072764 150.013009 
L 282.765665 149.908209 
L 282.072604 150.458408 
L 282.071458 131.358669 
L 272.833078 131.358669 
L 280.139261 131.358669 
L 280.115698 133.978661 
L 271.886268 133.900061 
L 271.525039 139.428243 
L 271.405801 140.764439 
L 271.25153 140.764439 
L 271.191241 144.458627 
L 270.196777 144.432427 
L 270.035629 144.904026 
L 269.003488 144.904026 
L 268.853132 145.113625 
L 268.79635 151.506404 
L 267.853212 151.506404 
L 267.772132 152.8688 
L 267.522139 152.8688 
L 267.466258 153.995396 
L 265.012198 153.995396 
L 264.410008 154.466995 
L 263.696205 154.466995 
L 263.55651 154.597994 
L 263.467909 156.615388 
L 263.222645 156.615388 
L 263.113179 157.217986 
L 262.801629 157.217986 
L 262.734369 158.396982 
L 262.649785 158.396982 
L 262.483521 159.942777 
L 262.161415 161.016973 
L 261.99494 158.606581 
L 261.990056 159.471178 
L 261.946741 159.471178 
L 261.94327 157.008386 
L 260.945054 155.488791 
L 260.571671 155.93419 
L 259.185089 155.93419 
L 259.179338 156.169989 
L 250.776173 156.405788 
L 250.387158 156.641588 
L 248.681761 157.348985 
L 247.076518 157.584784 
L 245.316234 158.030183 
L 245.20113 159.968977 
L 237.675176 159.968977 
L 237.649166 160.309576 
L 236.854611 160.309576 
L 236.432776 158.527981 
L 235.132384 158.527981 
L 234.39156 158.737581 
L 234.237287 158.97338 
L 234.132397 158.97338 
L 234.124561 159.209179 
L 231.277107 159.209179 
L 230.766429 159.680778 
L 223.395736 160.833574 
L 217.954866 161.305172 
L 215.724805 162.22217 
L 213.479576 162.457969 
L 213.006781 162.929567 
L 212.998663 163.401166 
L 211.468089 163.401166 
L 207.829087 163.636965 
L 204.559354 163.636965 
L 203.497399 164.239563 
L 197.366327 164.239563 
L 197.361815 164.475362 
L 195.452302 164.475362 
L 195.233079 165.628158 
L 194.510321 165.628158 
L 192.757276 165.863958 
L 192.683241 166.230757 
L 190.797197 167.881351 
L 190.782385 170.055944 
L 189.73228 171.26114 
L 188.129763 171.49694 
L 182.940249 171.41834 
L 182.40976 171.31354 
L 181.844482 171.31354 
L 181.680865 171.523139 
L 181.492326 174.693329 
L 181.044269 174.614729 
L 180.983405 175.688926 
L 180.152724 175.688926 
L 180.097381 181.583907 
L 179.282532 181.583907 
L 179.384706 181.583907 
L 179.210527 181.138508 
L 178.374252 181.138508 
L 178.370032 181.714906 
L 178.141603 181.898306 
L 177.254226 181.086108 
L 176.077732 181.086108 
L 176.075348 181.479107 
L 176.073705 178.073118 
L 176.072994 178.073118 
L 174.189395 178.073118 
L 172.236687 177.811119 
L 168.909768 177.811119 
L 168.329279 178.204118 
L 167.7964 178.204118 
L 167.546566 178.046918 
L 167.528178 180.69311 
L 167.371958 181.086108 
L 167.264076 181.479107 
L 167.022497 181.479107 
L 166.37592 182.474704 
L 166.114694 182.474704 
L 166.021099 182.684303 
L 163.949348 182.631903 
L 163.713612 183.6275 
L 163.455882 183.6275 
L 163.35792 183.8371 
L 160.992956 183.8371 
L 160.159436 185.042296 
L 158.66498 185.042296 
L 158.561532 185.435294 
L 157.264562 185.120895 
L 155.366895 188.133886 
L 151.456407 188.133886 
L 151.278962 187.950486 
L 140.681559 187.950486 
L 140.624996 188.946083 
L 137.536832 188.972283 
L 135.432298 189.181882 
L 135.228953 189.96788 
L 135.070082 191.382675 
L 134.667683 192.98087 
L 134.543898 193.557268 
L 134.433435 201.391043 
L 134.348726 201.391043 
L 134.272485 210.403814 
L 133.544829 210.587213 
L 132.554252 210.587213 
L 132.36911 216.010596 
L 132.366965 216.010596 
L 132.102692 216.220195 
L 131.002941 216.220195 
L 130.993627 216.613194 
L 130.856608 216.613194 
L 130.680383 216.429794 
L 128.471213 216.429794 
L 128.463313 217.346791 
L 121.240306 217.346791 
L 120.673142 217.503991 
L 120.438817 217.68739 
L 120.436213 218.761587 
L 119.796696 218.761587 
L 119.439602 218.944986 
L 116.790506 218.944986 
L 118.929682 218.892586 
L 118.574582 220.150182 
L 117.491628 220.67418 
L 116.97667 220.67418 
L 116.622258 221.407778 
L 112.005912 221.407778 
L 111.828997 221.774577 
L 108.277533 221.748377 
L 108.100576 222.298575 
L 107.567356 222.298575 
L 107.38982 222.455775 
L 107.328142 223.398972 
L 106.857399 223.398972 
L 106.680422 223.87057 
L 104.549445 223.87057 
L 104.371985 223.005973 
L 104.016876 223.005973 
L 103.840228 223.76577 
L 101.886749 223.76577 
L 101.709299 224.158769 
L 98.868533 224.158769 
L 98.691232 224.944767 
L 98.513632 225.128166 
L 96.56048 225.128166 
L 96.383649 225.914164 
L 96.205509 225.914164 
L 96.028509 226.307162 
L 90.347386 226.307162 
L 90.17037 226.516762 
L 86.619179 226.516762 
L 86.442442 227.590958 
L 85.376563 227.590958 
L 85.022399 232.411743 
L 83.956202 232.411743 
L 83.778684 232.595142 
L 82.536009 232.595142 
L 82.358481 232.961941 
L 82.017375 232.961941 
L 81.967762 236.001131 
L 81.74957 249.415488 
L 81.710697 249.389288 
L 80.938298 249.389288 
L 79.873958 249.572687 
L 79.488454 249.756086 
L 79.412437 249.939486 
L 78.985847 249.939486 
L 78.985765 250.122885 
L 78.27579 250.122885 
L 78.275722 250.306285 
L 78.098208 250.306285 
L 78.09813 250.489684 
L 77.723876 250.489684 
L 77.719855 251.74728 
L 77.409021 251.74728 
L 77.388032 251.930679 
L 77.289468 251.930679 
L 77.21923 252.087879 
L 73.832727 252.087879 
L 73.832727 252.087879 
" clip-path="url(#p26f4875baf)" style="fill: none; stroke: #1f77b4; stroke-width: 1.5; stroke-linecap: square"/>
   </g>
   <g id="patch_3">
    <path d="M 57.6 276.48 
L 57.6 41.472 
" style="fill: none; stroke: #000000; stroke-width: 0.8; stroke-linejoin: miter; stroke-linecap: square"/>
   </g>
   <g id="patch_4">
    <path d="M 414.72 276.48 
L 414.72 41.472 
" style="fill: none; stroke: #000000; stroke-width: 0.8; stroke-linejoin: miter; stroke-linecap: square"/>
   </g>
   <g id="patch_5">
    <path d="M 57.6 276.48 
L 414.72 276.48 
" style="fill: none; stroke: #000000; stroke-width: 0.8; stroke-linejoin: miter; stroke-linecap: square"/>
   </g>
   <g id="patch_6">
    <path d="M 57.6 41.472 
L 414.72 41.472 
" style="fill: none; stroke: #000000; stroke-width: 0.8; stroke-linejoin: miter; stroke-linecap: square"/>
   </g>
   <g id="text_16">
    <!-- Postęp tłumaczenia do dodania do przełącznika języków -->
    <g transform="translate(67.57125 35.472) scale(0.12 -0.12)">
     <defs>
      <path id="DejaVuSans-50" d="M 1259 4147 
L 1259 2394 
L 2053 2394 
Q 2494 2394 2734 2622 
Q 2975 2850 2975 3272 
Q 2975 3691 2734 3919 
Q 2494 4147 2053 4147 
L 1259 4147 
z
M 628 4666 
L 2053 4666 
Q 2838 4666 3239 4311 
Q 3641 3956 3641 3272 
Q 3641 2581 3239 2228 
Q 2838 1875 2053 1875 
L 1259 1875 
L 1259 0 
L 628 0 
L 628 4666 
z
" transform="scale(0.015625)"/>
      <path id="DejaVuSans-6f" d="M 1959 3097 
Q 1497 3097 1228 2736 
Q 959 2375 959 1747 
Q 959 1119 1226 758 
Q 1494 397 1959 397 
Q 2419 397 2687 759 
Q 2956 1122 2956 1747 
Q 2956 2369 2687 2733 
Q 2419 3097 1959 3097 
z
M 1959 3584 
Q 2709 3584 3137 3096 
Q 3566 2609 3566 1747 
Q 3566 888 3137 398 
Q 2709 -91 1959 -91 
Q 1206 -91 779 398 
Q 353 888 353 1747 
Q 353 2609 779 3096 
Q 1206 3584 1959 3584 
z
" transform="scale(0.015625)"/>
      <path id="DejaVuSans-73" d="M 2834 3397 
L 2834 2853 
Q 2591 2978 2328 3040 
Q 2066 3103 1784 3103 
Q 1356 3103 1142 2972 
Q 928 2841 928 2578 
Q 928 2378 1081 2264 
Q 1234 2150 1697 2047 
L 1894 2003 
Q 2506 1872 2764 1633 
Q 3022 1394 3022 966 
Q 3022 478 2636 193 
Q 2250 -91 1575 -91 
Q 1294 -91 989 -36 
Q 684 19 347 128 
L 347 722 
Q 666 556 975 473 
Q 1284 391 1588 391 
Q 1994 391 2212 530 
Q 2431 669 2431 922 
Q 2431 1156 2273 1281 
Q 2116 1406 1581 1522 
L 1381 1569 
Q 847 1681 609 1914 
Q 372 2147 372 2553 
Q 372 3047 722 3315 
Q 1072 3584 1716 3584 
Q 2034 3584 2315 3537 
Q 2597 3491 2834 3397 
z
" transform="scale(0.015625)"/>
      <path id="DejaVuSans-74" d="M 1172 4494 
L 1172 3500 
L 2356 3500 
L 2356 3053 
L 1172 3053 
L 1172 1153 
Q 1172 725 1289 603 
Q 1406 481 1766 481 
L 2356 481 
L 2356 0 
L 1766 0 
Q 1100 0 847 248 
Q 594 497 594 1153 
L 594 3053 
L 172 3053 
L 172 3500 
L 594 3500 
L 594 4494 
L 1172 4494 
z
" transform="scale(0.015625)"/>
      <path id="DejaVuSans-119" d="M 3597 1894 
L 3597 1613 
L 953 1613 
Q 991 1019 1311 708 
Q 1631 397 2203 397 
Q 2534 397 2845 478 
Q 3156 559 3463 722 
L 3463 178 
Q 3153 47 2828 -22 
Q 2503 -91 2169 -91 
Q 1331 -91 842 396 
Q 353 884 353 1716 
Q 353 2575 817 3079 
Q 1281 3584 2069 3584 
Q 2775 3584 3186 3129 
Q 3597 2675 3597 1894 
z
M 3022 2063 
Q 3016 2534 2758 2815 
Q 2500 3097 2075 3097 
Q 1594 3097 1305 2825 
Q 1016 2553 972 2059 
L 3022 2063 
z
M 2551 0 
L 2923 0 
Q 2782 -191 2715 -328 
Q 2648 -466 2648 -563 
Q 2648 -706 2734 -778 
Q 2820 -850 2989 -850 
Q 3089 -850 3185 -826 
Q 3282 -803 3379 -756 
L 3379 -1172 
Q 3260 -1203 3154 -1218 
Q 3048 -1234 2954 -1234 
Q 2573 -1234 2393 -1098 
Q 2214 -963 2214 -672 
Q 2214 -522 2296 -358 
Q 2379 -194 2551 0 
z
" transform="scale(0.015625)"/>
      <path id="DejaVuSans-70" d="M 1159 525 
L 1159 -1331 
L 581 -1331 
L 581 3500 
L 1159 3500 
L 1159 2969 
Q 1341 3281 1617 3432 
Q 1894 3584 2278 3584 
Q 2916 3584 3314 3078 
Q 3713 2572 3713 1747 
Q 3713 922 3314 415 
Q 2916 -91 2278 -91 
Q 1894 -91 1617 61 
Q 1341 213 1159 525 
z
M 3116 1747 
Q 3116 2381 2855 2742 
Q 2594 3103 2138 3103 
Q 1681 3103 1420 2742 
Q 1159 2381 1159 1747 
Q 1159 1113 1420 752 
Q 1681 391 2138 391 
Q 2594 391 2855 752 
Q 3116 1113 3116 1747 
z
" transform="scale(0.015625)"/>
      <path id="DejaVuSans-20" transform="scale(0.015625)"/>
      <path id="DejaVuSans-142" d="M 622 4863 
L 1197 4863 
L 1197 2981 
L 1588 3263 
L 1825 2931 
L 1197 2491 
L 1197 0 
L 622 0 
L 622 2081 
L 238 1806 
L 6 2138 
L 622 2578 
L 622 4863 
z
" transform="scale(0.015625)"/>
      <path id="DejaVuSans-75" d="M 544 1381 
L 544 3500 
L 1119 3500 
L 1119 1403 
Q 1119 906 1312 657 
Q 1506 409 1894 409 
Q 2359 409 2629 706 
Q 2900 1003 2900 1516 
L 2900 3500 
L 3475 3500 
L 3475 0 
L 2900 0 
L 2900 538 
Q 2691 219 2414 64 
Q 2138 -91 1772 -91 
Q 1169 -91 856 284 
Q 544 659 544 1381 
z
M 1991 3584 
L 1991 3584 
z
" transform="scale(0.015625)"/>
      <path id="DejaVuSans-6d" d="M 3328 2828 
Q 3544 3216 3844 3400 
Q 4144 3584 4550 3584 
Q 5097 3584 5394 3201 
Q 5691 2819 5691 2113 
L 5691 0 
L 5113 0 
L 5113 2094 
Q 5113 2597 4934 2840 
Q 4756 3084 4391 3084 
Q 3944 3084 3684 2787 
Q 3425 2491 3425 1978 
L 3425 0 
L 2847 0 
L 2847 2094 
Q 2847 2600 2669 2842 
Q 2491 3084 2119 3084 
Q 1678 3084 1418 2786 
Q 1159 2488 1159 1978 
L 1159 0 
L 581 0 
L 581 3500 
L 1159 3500 
L 1159 2956 
Q 1356 3278 1631 3431 
Q 1906 3584 2284 3584 
Q 2666 3584 2933 3390 
Q 3200 3197 3328 2828 
z
" transform="scale(0.015625)"/>
      <path id="DejaVuSans-61" d="M 2194 1759 
Q 1497 1759 1228 1600 
Q 959 1441 959 1056 
Q 959 750 1161 570 
Q 1363 391 1709 391 
Q 2188 391 2477 730 
Q 2766 1069 2766 1631 
L 2766 1759 
L 2194 1759 
z
M 3341 1997 
L 3341 0 
L 2766 0 
L 2766 531 
Q 2569 213 2275 61 
Q 1981 -91 1556 -91 
Q 1019 -91 701 211 
Q 384 513 384 1019 
Q 384 1609 779 1909 
Q 1175 2209 1959 2209 
L 2766 2209 
L 2766 2266 
Q 2766 2663 2505 2880 
Q 2244 3097 1772 3097 
Q 1472 3097 1187 3025 
Q 903 2953 641 2809 
L 641 3341 
Q 956 3463 1253 3523 
Q 1550 3584 1831 3584 
Q 2591 3584 2966 3190 
Q 3341 2797 3341 1997 
z
" transform="scale(0.015625)"/>
      <path id="DejaVuSans-63" d="M 3122 3366 
L 3122 2828 
Q 2878 2963 2633 3030 
Q 2388 3097 2138 3097 
Q 1578 3097 1268 2742 
Q 959 2388 959 1747 
Q 959 1106 1268 751 
Q 1578 397 2138 397 
Q 2388 397 2633 464 
Q 2878 531 3122 666 
L 3122 134 
Q 2881 22 2623 -34 
Q 2366 -91 2075 -91 
Q 1284 -91 818 406 
Q 353 903 353 1747 
Q 353 2603 823 3093 
Q 1294 3584 2113 3584 
Q 2378 3584 2631 3529 
Q 2884 3475 3122 3366 
z
" transform="scale(0.015625)"/>
      <path id="DejaVuSans-7a" d="M 353 3500 
L 3084 3500 
L 3084 2975 
L 922 459 
L 3084 459 
L 3084 0 
L 275 0 
L 275 525 
L 2438 3041 
L 353 3041 
L 353 3500 
z
" transform="scale(0.015625)"/>
      <path id="DejaVuSans-65" d="M 3597 1894 
L 3597 1613 
L 953 1613 
Q 991 1019 1311 708 
Q 1631 397 2203 397 
Q 2534 397 2845 478 
Q 3156 559 3463 722 
L 3463 178 
Q 3153 47 2828 -22 
Q 2503 -91 2169 -91 
Q 1331 -91 842 396 
Q 353 884 353 1716 
Q 353 2575 817 3079 
Q 1281 3584 2069 3584 
Q 2775 3584 3186 3129 
Q 3597 2675 3597 1894 
z
M 3022 2063 
Q 3016 2534 2758 2815 
Q 2500 3097 2075 3097 
Q 1594 3097 1305 2825 
Q 1016 2553 972 2059 
L 3022 2063 
z
" transform="scale(0.015625)"/>
      <path id="DejaVuSans-6e" d="M 3513 2113 
L 3513 0 
L 2938 0 
L 2938 2094 
Q 2938 2591 2744 2837 
Q 2550 3084 2163 3084 
Q 1697 3084 1428 2787 
Q 1159 2491 1159 1978 
L 1159 0 
L 581 0 
L 581 3500 
L 1159 3500 
L 1159 2956 
Q 1366 3272 1645 3428 
Q 1925 3584 2291 3584 
Q 2894 3584 3203 3211 
Q 3513 2838 3513 2113 
z
" transform="scale(0.015625)"/>
      <path id="DejaVuSans-69" d="M 603 3500 
L 1178 3500 
L 1178 0 
L 603 0 
L 603 3500 
z
M 603 4863 
L 1178 4863 
L 1178 4134 
L 603 4134 
L 603 4863 
z
" transform="scale(0.015625)"/>
      <path id="DejaVuSans-64" d="M 2906 2969 
L 2906 4863 
L 3481 4863 
L 3481 0 
L 2906 0 
L 2906 525 
Q 2725 213 2448 61 
Q 2172 -91 1784 -91 
Q 1150 -91 751 415 
Q 353 922 353 1747 
Q 353 2572 751 3078 
Q 1150 3584 1784 3584 
Q 2172 3584 2448 3432 
Q 2725 3281 2906 2969 
z
M 947 1747 
Q 947 1113 1208 752 
Q 1469 391 1925 391 
Q 2381 391 2643 752 
Q 2906 1113 2906 1747 
Q 2906 2381 2643 2742 
Q 2381 3103 1925 3103 
Q 1469 3103 1208 2742 
Q 947 2381 947 1747 
z
" transform="scale(0.015625)"/>
      <path id="DejaVuSans-72" d="M 2631 2963 
Q 2534 3019 2420 3045 
Q 2306 3072 2169 3072 
Q 1681 3072 1420 2755 
Q 1159 2438 1159 1844 
L 1159 0 
L 581 0 
L 581 3500 
L 1159 3500 
L 1159 2956 
Q 1341 3275 1631 3429 
Q 1922 3584 2338 3584 
Q 2397 3584 2469 3576 
Q 2541 3569 2628 3553 
L 2631 2963 
z
" transform="scale(0.015625)"/>
      <path id="DejaVuSans-105" d="M 2194 1759 
Q 1497 1759 1228 1600 
Q 959 1441 959 1056 
Q 959 750 1161 570 
Q 1363 391 1709 391 
Q 2188 391 2477 730 
Q 2766 1069 2766 1631 
L 2766 1759 
L 2194 1759 
z
M 3341 1997 
L 3341 0 
L 2766 0 
L 2766 531 
Q 2569 213 2275 61 
Q 1981 -91 1556 -91 
Q 1019 -91 701 211 
Q 384 513 384 1019 
Q 384 1609 779 1909 
Q 1175 2209 1959 2209 
L 2766 2209 
L 2766 2266 
Q 2766 2663 2505 2880 
Q 2244 3097 1772 3097 
Q 1472 3097 1187 3025 
Q 903 2953 641 2809 
L 641 3341 
Q 956 3463 1253 3523 
Q 1550 3584 1831 3584 
Q 2591 3584 2966 3190 
Q 3341 2797 3341 1997 
z
M 2775 0 
L 3147 0 
Q 3006 -191 2939 -328 
Q 2872 -466 2872 -563 
Q 2872 -706 2958 -778 
Q 3044 -850 3213 -850 
Q 3313 -850 3409 -826 
Q 3506 -803 3603 -756 
L 3603 -1172 
Q 3484 -1203 3378 -1218 
Q 3272 -1234 3178 -1234 
Q 2797 -1234 2617 -1098 
Q 2438 -963 2438 -672 
Q 2438 -522 2520 -358 
Q 2603 -194 2775 0 
z
" transform="scale(0.015625)"/>
      <path id="DejaVuSans-6b" d="M 581 4863 
L 1159 4863 
L 1159 1991 
L 2875 3500 
L 3609 3500 
L 1753 1863 
L 3688 0 
L 2938 0 
L 1159 1709 
L 1159 0 
L 581 0 
L 581 4863 
z
" transform="scale(0.015625)"/>
      <path id="DejaVuSans-6a" d="M 603 3500 
L 1178 3500 
L 1178 -63 
Q 1178 -731 923 -1031 
Q 669 -1331 103 -1331 
L -116 -1331 
L -116 -844 
L 38 -844 
Q 366 -844 484 -692 
Q 603 -541 603 -63 
L 603 3500 
z
M 603 4863 
L 1178 4863 
L 1178 4134 
L 603 4134 
L 603 4863 
z
" transform="scale(0.015625)"/>
      <path id="DejaVuSans-79" d="M 2059 -325 
Q 1816 -950 1584 -1140 
Q 1353 -1331 966 -1331 
L 506 -1331 
L 506 -850 
L 844 -850 
Q 1081 -850 1212 -737 
Q 1344 -625 1503 -206 
L 1606 56 
L 191 3500 
L 800 3500 
L 1894 763 
L 2988 3500 
L 3597 3500 
L 2059 -325 
z
" transform="scale(0.015625)"/>
      <path id="DejaVuSans-f3" d="M 1959 3097 
Q 1497 3097 1228 2736 
Q 959 2375 959 1747 
Q 959 1119 1226 758 
Q 1494 397 1959 397 
Q 2419 397 2687 759 
Q 2956 1122 2956 1747 
Q 2956 2369 2687 2733 
Q 2419 3097 1959 3097 
z
M 1959 3584 
Q 2709 3584 3137 3096 
Q 3566 2609 3566 1747 
Q 3566 888 3137 398 
Q 2709 -91 1959 -91 
Q 1206 -91 779 398 
Q 353 888 353 1747 
Q 353 2609 779 3096 
Q 1206 3584 1959 3584 
z
M 2394 5119 
L 3016 5119 
L 1998 3944 
L 1519 3944 
L 2394 5119 
z
" transform="scale(0.015625)"/>
      <path id="DejaVuSans-77" d="M 269 3500 
L 844 3500 
L 1563 769 
L 2278 3500 
L 2956 3500 
L 3675 769 
L 4391 3500 
L 4966 3500 
L 4050 0 
L 3372 0 
L 2619 2869 
L 1863 0 
L 1184 0 
L 269 3500 
z
" transform="scale(0.015625)"/>
     </defs>
     <use xlink:href="#DejaVuSans-50"/>
     <use xlink:href="#DejaVuSans-6f" x="56.677734"/>
     <use xlink:href="#DejaVuSans-73" x="117.859375"/>
     <use xlink:href="#DejaVuSans-74" x="169.958984"/>
     <use xlink:href="#DejaVuSans-119" x="209.167969"/>
     <use xlink:href="#DejaVuSans-70" x="270.691406"/>
     <use xlink:href="#DejaVuSans-20" x="334.167969"/>
     <use xlink:href="#DejaVuSans-74" x="365.955078"/>
     <use xlink:href="#DejaVuSans-142" x="405.164062"/>
     <use xlink:href="#DejaVuSans-75" x="433.582031"/>
     <use xlink:href="#DejaVuSans-6d" x="496.960938"/>
     <use xlink:href="#DejaVuSans-61" x="594.373047"/>
     <use xlink:href="#DejaVuSans-63" x="655.652344"/>
     <use xlink:href="#DejaVuSans-7a" x="710.632812"/>
     <use xlink:href="#DejaVuSans-65" x="763.123047"/>
     <use xlink:href="#DejaVuSans-6e" x="824.646484"/>
     <use xlink:href="#DejaVuSans-69" x="888.025391"/>
     <use xlink:href="#DejaVuSans-61" x="915.808594"/>
     <use xlink:href="#DejaVuSans-20" x="977.087891"/>
     <use xlink:href="#DejaVuSans-64" x="1008.875"/>
     <use xlink:href="#DejaVuSans-6f" x="1072.351562"/>
     <use xlink:href="#DejaVuSans-20" x="1133.533203"/>
     <use xlink:href="#DejaVuSans-64" x="1165.320312"/>
     <use xlink:href="#DejaVuSans-6f" x="1228.796875"/>
     <use xlink:href="#DejaVuSans-64" x="1289.978516"/>
     <use xlink:href="#DejaVuSans-61" x="1353.455078"/>
     <use xlink:href="#DejaVuSans-6e" x="1414.734375"/>
     <use xlink:href="#DejaVuSans-69" x="1478.113281"/>
     <use xlink:href="#DejaVuSans-61" x="1505.896484"/>
     <use xlink:href="#DejaVuSans-20" x="1567.175781"/>
     <use xlink:href="#DejaVuSans-64" x="1598.962891"/>
     <use xlink:href="#DejaVuSans-6f" x="1662.439453"/>
     <use xlink:href="#DejaVuSans-20" x="1723.621094"/>
     <use xlink:href="#DejaVuSans-70" x="1755.408203"/>
     <use xlink:href="#DejaVuSans-72" x="1818.884766"/>
     <use xlink:href="#DejaVuSans-7a" x="1859.998047"/>
     <use xlink:href="#DejaVuSans-65" x="1912.488281"/>
     <use xlink:href="#DejaVuSans-142" x="1974.011719"/>
     <use xlink:href="#DejaVuSans-105" x="2002.429688"/>
     <use xlink:href="#DejaVuSans-63" x="2063.708984"/>
     <use xlink:href="#DejaVuSans-7a" x="2118.689453"/>
     <use xlink:href="#DejaVuSans-6e" x="2171.179688"/>
     <use xlink:href="#DejaVuSans-69" x="2234.558594"/>
     <use xlink:href="#DejaVuSans-6b" x="2262.341797"/>
     <use xlink:href="#DejaVuSans-61" x="2318.501953"/>
     <use xlink:href="#DejaVuSans-20" x="2379.78125"/>
     <use xlink:href="#DejaVuSans-6a" x="2411.568359"/>
     <use xlink:href="#DejaVuSans-119" x="2439.351562"/>
     <use xlink:href="#DejaVuSans-7a" x="2500.875"/>
     <use xlink:href="#DejaVuSans-79" x="2553.365234"/>
     <use xlink:href="#DejaVuSans-6b" x="2612.544922"/>
     <use xlink:href="#DejaVuSans-f3" x="2666.830078"/>
     <use xlink:href="#DejaVuSans-77" x="2728.011719"/>
    </g>
   </g>
  </g>
 </g>
 <defs>
  <clipPath id="p26f4875baf">
   <rect x="57.6" y="41.472" width="357.12" height="235.008"/>
  </clipPath>
 </defs>
</svg>
